G75*
%MOIN*%
%OFA0B0*%
%FSLAX25Y25*%
%IPPOS*%
%LPD*%
%AMOC8*
5,1,8,0,0,1.08239X$1,22.5*
%
%ADD10C,0.00800*%
D10*
X0030964Y0033000D02*
X0030964Y0063000D01*
X0041964Y0074000D01*
X0049964Y0074000D01*
X0049964Y0088000D01*
X0063964Y0088000D01*
X0063964Y0074000D01*
X0082964Y0074000D01*
X0112167Y0091983D02*
X0121367Y0091983D01*
X0121367Y0094538D01*
X0121365Y0094638D01*
X0121359Y0094739D01*
X0121349Y0094838D01*
X0121336Y0094938D01*
X0121318Y0095037D01*
X0121296Y0095135D01*
X0121271Y0095232D01*
X0121242Y0095328D01*
X0121209Y0095423D01*
X0121172Y0095516D01*
X0121132Y0095608D01*
X0121088Y0095698D01*
X0121041Y0095787D01*
X0120990Y0095874D01*
X0120936Y0095958D01*
X0120879Y0096040D01*
X0120818Y0096120D01*
X0120755Y0096198D01*
X0120688Y0096273D01*
X0120618Y0096345D01*
X0120546Y0096415D01*
X0120471Y0096482D01*
X0120393Y0096545D01*
X0120313Y0096606D01*
X0120231Y0096663D01*
X0120147Y0096717D01*
X0120060Y0096768D01*
X0119971Y0096815D01*
X0119881Y0096859D01*
X0119789Y0096899D01*
X0119696Y0096936D01*
X0119601Y0096969D01*
X0119505Y0096998D01*
X0119408Y0097023D01*
X0119310Y0097045D01*
X0119211Y0097063D01*
X0119111Y0097076D01*
X0119012Y0097086D01*
X0118911Y0097092D01*
X0118811Y0097094D01*
X0118711Y0097092D01*
X0118610Y0097086D01*
X0118511Y0097076D01*
X0118411Y0097063D01*
X0118312Y0097045D01*
X0118214Y0097023D01*
X0118117Y0096998D01*
X0118021Y0096969D01*
X0117926Y0096936D01*
X0117833Y0096899D01*
X0117741Y0096859D01*
X0117651Y0096815D01*
X0117562Y0096768D01*
X0117475Y0096717D01*
X0117391Y0096663D01*
X0117309Y0096606D01*
X0117229Y0096545D01*
X0117151Y0096482D01*
X0117076Y0096415D01*
X0117004Y0096345D01*
X0116934Y0096273D01*
X0116867Y0096198D01*
X0116804Y0096120D01*
X0116743Y0096040D01*
X0116686Y0095958D01*
X0116632Y0095874D01*
X0116581Y0095787D01*
X0116534Y0095698D01*
X0116490Y0095608D01*
X0116450Y0095516D01*
X0116413Y0095423D01*
X0116380Y0095328D01*
X0116351Y0095232D01*
X0116326Y0095135D01*
X0116304Y0095037D01*
X0116286Y0094938D01*
X0116273Y0094838D01*
X0116263Y0094739D01*
X0116257Y0094638D01*
X0116255Y0094538D01*
X0116256Y0094538D02*
X0116256Y0091983D01*
X0112167Y0099760D02*
X0112167Y0101804D01*
X0112167Y0100782D02*
X0121367Y0100782D01*
X0121367Y0099760D02*
X0121367Y0101804D01*
X0119323Y0104793D02*
X0114211Y0104793D01*
X0114211Y0104794D02*
X0114122Y0104796D01*
X0114033Y0104802D01*
X0113944Y0104811D01*
X0113856Y0104825D01*
X0113769Y0104842D01*
X0113682Y0104864D01*
X0113596Y0104889D01*
X0113512Y0104917D01*
X0113429Y0104950D01*
X0113347Y0104986D01*
X0113267Y0105025D01*
X0113189Y0105068D01*
X0113113Y0105114D01*
X0113039Y0105164D01*
X0112967Y0105216D01*
X0112897Y0105272D01*
X0112830Y0105331D01*
X0112766Y0105393D01*
X0112704Y0105457D01*
X0112645Y0105524D01*
X0112589Y0105594D01*
X0112537Y0105666D01*
X0112487Y0105740D01*
X0112441Y0105816D01*
X0112398Y0105894D01*
X0112359Y0105974D01*
X0112323Y0106056D01*
X0112290Y0106139D01*
X0112262Y0106223D01*
X0112237Y0106309D01*
X0112215Y0106396D01*
X0112198Y0106483D01*
X0112184Y0106571D01*
X0112175Y0106660D01*
X0112169Y0106749D01*
X0112167Y0106838D01*
X0112167Y0108882D01*
X0112167Y0111141D02*
X0121367Y0114208D01*
X0112167Y0117275D01*
X0114467Y0116508D02*
X0114467Y0111908D01*
X0121367Y0106838D02*
X0121365Y0106749D01*
X0121359Y0106660D01*
X0121350Y0106571D01*
X0121336Y0106483D01*
X0121319Y0106396D01*
X0121297Y0106309D01*
X0121272Y0106223D01*
X0121244Y0106139D01*
X0121211Y0106056D01*
X0121175Y0105974D01*
X0121136Y0105894D01*
X0121093Y0105816D01*
X0121047Y0105740D01*
X0120997Y0105666D01*
X0120945Y0105594D01*
X0120889Y0105524D01*
X0120830Y0105457D01*
X0120768Y0105393D01*
X0120704Y0105331D01*
X0120637Y0105272D01*
X0120567Y0105216D01*
X0120495Y0105164D01*
X0120421Y0105114D01*
X0120345Y0105068D01*
X0120267Y0105025D01*
X0120187Y0104986D01*
X0120105Y0104950D01*
X0120022Y0104917D01*
X0119938Y0104889D01*
X0119852Y0104864D01*
X0119765Y0104842D01*
X0119678Y0104825D01*
X0119590Y0104811D01*
X0119501Y0104802D01*
X0119412Y0104796D01*
X0119323Y0104794D01*
X0121367Y0106838D02*
X0121367Y0108882D01*
X0121367Y0120172D02*
X0112167Y0120172D01*
X0116256Y0123238D02*
X0112167Y0125283D01*
X0112167Y0128641D02*
X0112167Y0131196D01*
X0112167Y0128641D02*
X0121367Y0128641D01*
X0121367Y0131196D01*
X0121365Y0131296D01*
X0121359Y0131397D01*
X0121349Y0131496D01*
X0121336Y0131596D01*
X0121318Y0131695D01*
X0121296Y0131793D01*
X0121271Y0131890D01*
X0121242Y0131986D01*
X0121209Y0132081D01*
X0121172Y0132174D01*
X0121132Y0132266D01*
X0121088Y0132356D01*
X0121041Y0132445D01*
X0120990Y0132532D01*
X0120936Y0132616D01*
X0120879Y0132698D01*
X0120818Y0132778D01*
X0120755Y0132856D01*
X0120688Y0132931D01*
X0120618Y0133003D01*
X0120546Y0133073D01*
X0120471Y0133140D01*
X0120393Y0133203D01*
X0120313Y0133264D01*
X0120231Y0133321D01*
X0120147Y0133375D01*
X0120060Y0133426D01*
X0119971Y0133473D01*
X0119881Y0133517D01*
X0119789Y0133557D01*
X0119696Y0133594D01*
X0119601Y0133627D01*
X0119505Y0133656D01*
X0119408Y0133681D01*
X0119310Y0133703D01*
X0119211Y0133721D01*
X0119111Y0133734D01*
X0119012Y0133744D01*
X0118911Y0133750D01*
X0118811Y0133752D01*
X0114723Y0133752D01*
X0114623Y0133750D01*
X0114522Y0133744D01*
X0114423Y0133734D01*
X0114323Y0133721D01*
X0114224Y0133703D01*
X0114126Y0133681D01*
X0114029Y0133656D01*
X0113933Y0133627D01*
X0113838Y0133594D01*
X0113745Y0133557D01*
X0113653Y0133517D01*
X0113563Y0133473D01*
X0113474Y0133426D01*
X0113387Y0133375D01*
X0113303Y0133321D01*
X0113221Y0133264D01*
X0113141Y0133203D01*
X0113063Y0133140D01*
X0112988Y0133073D01*
X0112916Y0133003D01*
X0112846Y0132931D01*
X0112779Y0132856D01*
X0112716Y0132778D01*
X0112655Y0132698D01*
X0112598Y0132616D01*
X0112544Y0132532D01*
X0112493Y0132445D01*
X0112446Y0132356D01*
X0112402Y0132266D01*
X0112362Y0132174D01*
X0112325Y0132081D01*
X0112292Y0131986D01*
X0112263Y0131890D01*
X0112238Y0131793D01*
X0112216Y0131695D01*
X0112198Y0131596D01*
X0112185Y0131496D01*
X0112175Y0131397D01*
X0112169Y0131296D01*
X0112167Y0131196D01*
X0116256Y0122727D02*
X0116256Y0120172D01*
X0116255Y0122727D02*
X0116257Y0122827D01*
X0116263Y0122928D01*
X0116273Y0123027D01*
X0116286Y0123127D01*
X0116304Y0123226D01*
X0116326Y0123324D01*
X0116351Y0123421D01*
X0116380Y0123517D01*
X0116413Y0123612D01*
X0116450Y0123705D01*
X0116490Y0123797D01*
X0116534Y0123887D01*
X0116581Y0123976D01*
X0116632Y0124063D01*
X0116686Y0124147D01*
X0116743Y0124229D01*
X0116804Y0124309D01*
X0116867Y0124387D01*
X0116934Y0124462D01*
X0117004Y0124534D01*
X0117076Y0124604D01*
X0117151Y0124671D01*
X0117229Y0124734D01*
X0117309Y0124795D01*
X0117391Y0124852D01*
X0117475Y0124906D01*
X0117562Y0124957D01*
X0117651Y0125004D01*
X0117741Y0125048D01*
X0117833Y0125088D01*
X0117926Y0125125D01*
X0118021Y0125158D01*
X0118117Y0125187D01*
X0118214Y0125212D01*
X0118312Y0125234D01*
X0118411Y0125252D01*
X0118511Y0125265D01*
X0118610Y0125275D01*
X0118711Y0125281D01*
X0118811Y0125283D01*
X0118911Y0125281D01*
X0119012Y0125275D01*
X0119111Y0125265D01*
X0119211Y0125252D01*
X0119310Y0125234D01*
X0119408Y0125212D01*
X0119505Y0125187D01*
X0119601Y0125158D01*
X0119696Y0125125D01*
X0119789Y0125088D01*
X0119881Y0125048D01*
X0119971Y0125004D01*
X0120060Y0124957D01*
X0120147Y0124906D01*
X0120231Y0124852D01*
X0120313Y0124795D01*
X0120393Y0124734D01*
X0120471Y0124671D01*
X0120546Y0124604D01*
X0120618Y0124534D01*
X0120688Y0124462D01*
X0120755Y0124387D01*
X0120818Y0124309D01*
X0120879Y0124229D01*
X0120936Y0124147D01*
X0120990Y0124063D01*
X0121041Y0123976D01*
X0121088Y0123887D01*
X0121132Y0123797D01*
X0121172Y0123705D01*
X0121209Y0123612D01*
X0121242Y0123517D01*
X0121271Y0123421D01*
X0121296Y0123324D01*
X0121318Y0123226D01*
X0121336Y0123127D01*
X0121349Y0123027D01*
X0121359Y0122928D01*
X0121365Y0122827D01*
X0121367Y0122727D01*
X0121367Y0120172D01*
X0082964Y0022000D02*
X0063964Y0022000D01*
X0063964Y0008000D01*
X0049964Y0008000D01*
X0049964Y0022000D01*
X0041964Y0022000D01*
X0030964Y0033000D01*
M02*
