G75*
%MOIN*%
%OFA0B0*%
%FSLAX25Y25*%
%IPPOS*%
%LPD*%
%AMOC8*
5,1,8,0,0,1.08239X$1,22.5*
%
%ADD10C,0.00000*%
%ADD11R,0.05906X0.05118*%
%ADD12R,0.05118X0.05906*%
%ADD13R,0.03937X0.04331*%
%ADD14R,0.04331X0.03937*%
%ADD15R,0.04724X0.04724*%
%ADD16R,0.05512X0.05512*%
%ADD17R,0.08661X0.02362*%
%ADD18C,0.00551*%
%ADD19R,0.09843X0.09843*%
%ADD20R,0.03543X0.03150*%
%ADD21R,0.04000X0.02500*%
%ADD22R,0.01772X0.03543*%
%ADD23R,0.03543X0.01772*%
%ADD24R,0.03543X0.03543*%
%ADD25R,0.04724X0.01575*%
%ADD26R,0.04724X0.02165*%
%ADD27R,0.02165X0.04724*%
%ADD28R,0.04724X0.03543*%
%ADD29R,0.03543X0.04724*%
%ADD30R,0.23622X0.23622*%
%ADD31R,0.18110X0.03937*%
%ADD32R,0.13386X0.06299*%
%ADD33C,0.07400*%
%ADD34R,0.06299X0.05512*%
%ADD35R,0.03543X0.03346*%
%ADD36R,0.09843X0.01969*%
%ADD37R,0.09843X0.07874*%
%ADD38C,0.01600*%
%ADD39C,0.02953*%
%ADD40C,0.03200*%
%ADD41C,0.01000*%
%ADD42C,0.03248*%
D10*
X0026964Y0002528D02*
X0066019Y0002528D01*
X0090113Y0003000D01*
X0090113Y0026622D01*
X0164917Y0026622D01*
X0164917Y0003000D01*
X0166885Y0003000D01*
X0191885Y0002528D01*
X0191885Y0232764D01*
X0026964Y0232764D01*
X0026964Y0002528D01*
X0043066Y0177409D02*
X0043068Y0177493D01*
X0043074Y0177576D01*
X0043084Y0177659D01*
X0043098Y0177742D01*
X0043115Y0177824D01*
X0043137Y0177905D01*
X0043162Y0177984D01*
X0043191Y0178063D01*
X0043224Y0178140D01*
X0043260Y0178215D01*
X0043300Y0178289D01*
X0043343Y0178361D01*
X0043390Y0178430D01*
X0043440Y0178497D01*
X0043493Y0178562D01*
X0043549Y0178624D01*
X0043607Y0178684D01*
X0043669Y0178741D01*
X0043733Y0178794D01*
X0043800Y0178845D01*
X0043869Y0178892D01*
X0043940Y0178937D01*
X0044013Y0178977D01*
X0044088Y0179014D01*
X0044165Y0179048D01*
X0044243Y0179078D01*
X0044322Y0179104D01*
X0044403Y0179127D01*
X0044485Y0179145D01*
X0044567Y0179160D01*
X0044650Y0179171D01*
X0044733Y0179178D01*
X0044817Y0179181D01*
X0044901Y0179180D01*
X0044984Y0179175D01*
X0045068Y0179166D01*
X0045150Y0179153D01*
X0045232Y0179137D01*
X0045313Y0179116D01*
X0045394Y0179092D01*
X0045472Y0179064D01*
X0045550Y0179032D01*
X0045626Y0178996D01*
X0045700Y0178957D01*
X0045772Y0178915D01*
X0045842Y0178869D01*
X0045910Y0178820D01*
X0045975Y0178768D01*
X0046038Y0178713D01*
X0046098Y0178655D01*
X0046156Y0178594D01*
X0046210Y0178530D01*
X0046262Y0178464D01*
X0046310Y0178396D01*
X0046355Y0178325D01*
X0046396Y0178252D01*
X0046435Y0178178D01*
X0046469Y0178102D01*
X0046500Y0178024D01*
X0046527Y0177945D01*
X0046551Y0177864D01*
X0046570Y0177783D01*
X0046586Y0177701D01*
X0046598Y0177618D01*
X0046606Y0177534D01*
X0046610Y0177451D01*
X0046610Y0177367D01*
X0046606Y0177284D01*
X0046598Y0177200D01*
X0046586Y0177117D01*
X0046570Y0177035D01*
X0046551Y0176954D01*
X0046527Y0176873D01*
X0046500Y0176794D01*
X0046469Y0176716D01*
X0046435Y0176640D01*
X0046396Y0176566D01*
X0046355Y0176493D01*
X0046310Y0176422D01*
X0046262Y0176354D01*
X0046210Y0176288D01*
X0046156Y0176224D01*
X0046098Y0176163D01*
X0046038Y0176105D01*
X0045975Y0176050D01*
X0045910Y0175998D01*
X0045842Y0175949D01*
X0045772Y0175903D01*
X0045700Y0175861D01*
X0045626Y0175822D01*
X0045550Y0175786D01*
X0045472Y0175754D01*
X0045394Y0175726D01*
X0045313Y0175702D01*
X0045232Y0175681D01*
X0045150Y0175665D01*
X0045068Y0175652D01*
X0044984Y0175643D01*
X0044901Y0175638D01*
X0044817Y0175637D01*
X0044733Y0175640D01*
X0044650Y0175647D01*
X0044567Y0175658D01*
X0044485Y0175673D01*
X0044403Y0175691D01*
X0044322Y0175714D01*
X0044243Y0175740D01*
X0044165Y0175770D01*
X0044088Y0175804D01*
X0044013Y0175841D01*
X0043940Y0175881D01*
X0043869Y0175926D01*
X0043800Y0175973D01*
X0043733Y0176024D01*
X0043669Y0176077D01*
X0043607Y0176134D01*
X0043549Y0176194D01*
X0043493Y0176256D01*
X0043440Y0176321D01*
X0043390Y0176388D01*
X0043343Y0176457D01*
X0043300Y0176529D01*
X0043260Y0176603D01*
X0043224Y0176678D01*
X0043191Y0176755D01*
X0043162Y0176834D01*
X0043137Y0176913D01*
X0043115Y0176994D01*
X0043098Y0177076D01*
X0043084Y0177159D01*
X0043074Y0177242D01*
X0043068Y0177325D01*
X0043066Y0177409D01*
X0043066Y0194732D02*
X0043068Y0194816D01*
X0043074Y0194899D01*
X0043084Y0194982D01*
X0043098Y0195065D01*
X0043115Y0195147D01*
X0043137Y0195228D01*
X0043162Y0195307D01*
X0043191Y0195386D01*
X0043224Y0195463D01*
X0043260Y0195538D01*
X0043300Y0195612D01*
X0043343Y0195684D01*
X0043390Y0195753D01*
X0043440Y0195820D01*
X0043493Y0195885D01*
X0043549Y0195947D01*
X0043607Y0196007D01*
X0043669Y0196064D01*
X0043733Y0196117D01*
X0043800Y0196168D01*
X0043869Y0196215D01*
X0043940Y0196260D01*
X0044013Y0196300D01*
X0044088Y0196337D01*
X0044165Y0196371D01*
X0044243Y0196401D01*
X0044322Y0196427D01*
X0044403Y0196450D01*
X0044485Y0196468D01*
X0044567Y0196483D01*
X0044650Y0196494D01*
X0044733Y0196501D01*
X0044817Y0196504D01*
X0044901Y0196503D01*
X0044984Y0196498D01*
X0045068Y0196489D01*
X0045150Y0196476D01*
X0045232Y0196460D01*
X0045313Y0196439D01*
X0045394Y0196415D01*
X0045472Y0196387D01*
X0045550Y0196355D01*
X0045626Y0196319D01*
X0045700Y0196280D01*
X0045772Y0196238D01*
X0045842Y0196192D01*
X0045910Y0196143D01*
X0045975Y0196091D01*
X0046038Y0196036D01*
X0046098Y0195978D01*
X0046156Y0195917D01*
X0046210Y0195853D01*
X0046262Y0195787D01*
X0046310Y0195719D01*
X0046355Y0195648D01*
X0046396Y0195575D01*
X0046435Y0195501D01*
X0046469Y0195425D01*
X0046500Y0195347D01*
X0046527Y0195268D01*
X0046551Y0195187D01*
X0046570Y0195106D01*
X0046586Y0195024D01*
X0046598Y0194941D01*
X0046606Y0194857D01*
X0046610Y0194774D01*
X0046610Y0194690D01*
X0046606Y0194607D01*
X0046598Y0194523D01*
X0046586Y0194440D01*
X0046570Y0194358D01*
X0046551Y0194277D01*
X0046527Y0194196D01*
X0046500Y0194117D01*
X0046469Y0194039D01*
X0046435Y0193963D01*
X0046396Y0193889D01*
X0046355Y0193816D01*
X0046310Y0193745D01*
X0046262Y0193677D01*
X0046210Y0193611D01*
X0046156Y0193547D01*
X0046098Y0193486D01*
X0046038Y0193428D01*
X0045975Y0193373D01*
X0045910Y0193321D01*
X0045842Y0193272D01*
X0045772Y0193226D01*
X0045700Y0193184D01*
X0045626Y0193145D01*
X0045550Y0193109D01*
X0045472Y0193077D01*
X0045394Y0193049D01*
X0045313Y0193025D01*
X0045232Y0193004D01*
X0045150Y0192988D01*
X0045068Y0192975D01*
X0044984Y0192966D01*
X0044901Y0192961D01*
X0044817Y0192960D01*
X0044733Y0192963D01*
X0044650Y0192970D01*
X0044567Y0192981D01*
X0044485Y0192996D01*
X0044403Y0193014D01*
X0044322Y0193037D01*
X0044243Y0193063D01*
X0044165Y0193093D01*
X0044088Y0193127D01*
X0044013Y0193164D01*
X0043940Y0193204D01*
X0043869Y0193249D01*
X0043800Y0193296D01*
X0043733Y0193347D01*
X0043669Y0193400D01*
X0043607Y0193457D01*
X0043549Y0193517D01*
X0043493Y0193579D01*
X0043440Y0193644D01*
X0043390Y0193711D01*
X0043343Y0193780D01*
X0043300Y0193852D01*
X0043260Y0193926D01*
X0043224Y0194001D01*
X0043191Y0194078D01*
X0043162Y0194157D01*
X0043137Y0194236D01*
X0043115Y0194317D01*
X0043098Y0194399D01*
X0043084Y0194482D01*
X0043074Y0194565D01*
X0043068Y0194648D01*
X0043066Y0194732D01*
X0033495Y0219969D02*
X0033497Y0220130D01*
X0033503Y0220290D01*
X0033513Y0220451D01*
X0033527Y0220611D01*
X0033545Y0220771D01*
X0033566Y0220930D01*
X0033592Y0221089D01*
X0033622Y0221247D01*
X0033655Y0221404D01*
X0033693Y0221561D01*
X0033734Y0221716D01*
X0033779Y0221870D01*
X0033828Y0222023D01*
X0033881Y0222175D01*
X0033937Y0222326D01*
X0033998Y0222475D01*
X0034061Y0222623D01*
X0034129Y0222769D01*
X0034200Y0222913D01*
X0034274Y0223055D01*
X0034352Y0223196D01*
X0034434Y0223334D01*
X0034519Y0223471D01*
X0034607Y0223605D01*
X0034699Y0223737D01*
X0034794Y0223867D01*
X0034892Y0223995D01*
X0034993Y0224120D01*
X0035097Y0224242D01*
X0035204Y0224362D01*
X0035314Y0224479D01*
X0035427Y0224594D01*
X0035543Y0224705D01*
X0035662Y0224814D01*
X0035783Y0224919D01*
X0035907Y0225022D01*
X0036033Y0225122D01*
X0036161Y0225218D01*
X0036292Y0225311D01*
X0036426Y0225401D01*
X0036561Y0225488D01*
X0036699Y0225571D01*
X0036838Y0225651D01*
X0036980Y0225727D01*
X0037123Y0225800D01*
X0037268Y0225869D01*
X0037415Y0225935D01*
X0037563Y0225997D01*
X0037713Y0226055D01*
X0037864Y0226110D01*
X0038017Y0226161D01*
X0038171Y0226208D01*
X0038326Y0226251D01*
X0038482Y0226290D01*
X0038638Y0226326D01*
X0038796Y0226357D01*
X0038954Y0226385D01*
X0039113Y0226409D01*
X0039273Y0226429D01*
X0039433Y0226445D01*
X0039593Y0226457D01*
X0039754Y0226465D01*
X0039915Y0226469D01*
X0040075Y0226469D01*
X0040236Y0226465D01*
X0040397Y0226457D01*
X0040557Y0226445D01*
X0040717Y0226429D01*
X0040877Y0226409D01*
X0041036Y0226385D01*
X0041194Y0226357D01*
X0041352Y0226326D01*
X0041508Y0226290D01*
X0041664Y0226251D01*
X0041819Y0226208D01*
X0041973Y0226161D01*
X0042126Y0226110D01*
X0042277Y0226055D01*
X0042427Y0225997D01*
X0042575Y0225935D01*
X0042722Y0225869D01*
X0042867Y0225800D01*
X0043010Y0225727D01*
X0043152Y0225651D01*
X0043291Y0225571D01*
X0043429Y0225488D01*
X0043564Y0225401D01*
X0043698Y0225311D01*
X0043829Y0225218D01*
X0043957Y0225122D01*
X0044083Y0225022D01*
X0044207Y0224919D01*
X0044328Y0224814D01*
X0044447Y0224705D01*
X0044563Y0224594D01*
X0044676Y0224479D01*
X0044786Y0224362D01*
X0044893Y0224242D01*
X0044997Y0224120D01*
X0045098Y0223995D01*
X0045196Y0223867D01*
X0045291Y0223737D01*
X0045383Y0223605D01*
X0045471Y0223471D01*
X0045556Y0223334D01*
X0045638Y0223196D01*
X0045716Y0223055D01*
X0045790Y0222913D01*
X0045861Y0222769D01*
X0045929Y0222623D01*
X0045992Y0222475D01*
X0046053Y0222326D01*
X0046109Y0222175D01*
X0046162Y0222023D01*
X0046211Y0221870D01*
X0046256Y0221716D01*
X0046297Y0221561D01*
X0046335Y0221404D01*
X0046368Y0221247D01*
X0046398Y0221089D01*
X0046424Y0220930D01*
X0046445Y0220771D01*
X0046463Y0220611D01*
X0046477Y0220451D01*
X0046487Y0220290D01*
X0046493Y0220130D01*
X0046495Y0219969D01*
X0046493Y0219808D01*
X0046487Y0219648D01*
X0046477Y0219487D01*
X0046463Y0219327D01*
X0046445Y0219167D01*
X0046424Y0219008D01*
X0046398Y0218849D01*
X0046368Y0218691D01*
X0046335Y0218534D01*
X0046297Y0218377D01*
X0046256Y0218222D01*
X0046211Y0218068D01*
X0046162Y0217915D01*
X0046109Y0217763D01*
X0046053Y0217612D01*
X0045992Y0217463D01*
X0045929Y0217315D01*
X0045861Y0217169D01*
X0045790Y0217025D01*
X0045716Y0216883D01*
X0045638Y0216742D01*
X0045556Y0216604D01*
X0045471Y0216467D01*
X0045383Y0216333D01*
X0045291Y0216201D01*
X0045196Y0216071D01*
X0045098Y0215943D01*
X0044997Y0215818D01*
X0044893Y0215696D01*
X0044786Y0215576D01*
X0044676Y0215459D01*
X0044563Y0215344D01*
X0044447Y0215233D01*
X0044328Y0215124D01*
X0044207Y0215019D01*
X0044083Y0214916D01*
X0043957Y0214816D01*
X0043829Y0214720D01*
X0043698Y0214627D01*
X0043564Y0214537D01*
X0043429Y0214450D01*
X0043291Y0214367D01*
X0043152Y0214287D01*
X0043010Y0214211D01*
X0042867Y0214138D01*
X0042722Y0214069D01*
X0042575Y0214003D01*
X0042427Y0213941D01*
X0042277Y0213883D01*
X0042126Y0213828D01*
X0041973Y0213777D01*
X0041819Y0213730D01*
X0041664Y0213687D01*
X0041508Y0213648D01*
X0041352Y0213612D01*
X0041194Y0213581D01*
X0041036Y0213553D01*
X0040877Y0213529D01*
X0040717Y0213509D01*
X0040557Y0213493D01*
X0040397Y0213481D01*
X0040236Y0213473D01*
X0040075Y0213469D01*
X0039915Y0213469D01*
X0039754Y0213473D01*
X0039593Y0213481D01*
X0039433Y0213493D01*
X0039273Y0213509D01*
X0039113Y0213529D01*
X0038954Y0213553D01*
X0038796Y0213581D01*
X0038638Y0213612D01*
X0038482Y0213648D01*
X0038326Y0213687D01*
X0038171Y0213730D01*
X0038017Y0213777D01*
X0037864Y0213828D01*
X0037713Y0213883D01*
X0037563Y0213941D01*
X0037415Y0214003D01*
X0037268Y0214069D01*
X0037123Y0214138D01*
X0036980Y0214211D01*
X0036838Y0214287D01*
X0036699Y0214367D01*
X0036561Y0214450D01*
X0036426Y0214537D01*
X0036292Y0214627D01*
X0036161Y0214720D01*
X0036033Y0214816D01*
X0035907Y0214916D01*
X0035783Y0215019D01*
X0035662Y0215124D01*
X0035543Y0215233D01*
X0035427Y0215344D01*
X0035314Y0215459D01*
X0035204Y0215576D01*
X0035097Y0215696D01*
X0034993Y0215818D01*
X0034892Y0215943D01*
X0034794Y0216071D01*
X0034699Y0216201D01*
X0034607Y0216333D01*
X0034519Y0216467D01*
X0034434Y0216604D01*
X0034352Y0216742D01*
X0034274Y0216883D01*
X0034200Y0217025D01*
X0034129Y0217169D01*
X0034061Y0217315D01*
X0033998Y0217463D01*
X0033937Y0217612D01*
X0033881Y0217763D01*
X0033828Y0217915D01*
X0033779Y0218068D01*
X0033734Y0218222D01*
X0033693Y0218377D01*
X0033655Y0218534D01*
X0033622Y0218691D01*
X0033592Y0218849D01*
X0033566Y0219008D01*
X0033545Y0219167D01*
X0033527Y0219327D01*
X0033513Y0219487D01*
X0033503Y0219648D01*
X0033497Y0219808D01*
X0033495Y0219969D01*
X0168495Y0219969D02*
X0168497Y0220130D01*
X0168503Y0220290D01*
X0168513Y0220451D01*
X0168527Y0220611D01*
X0168545Y0220771D01*
X0168566Y0220930D01*
X0168592Y0221089D01*
X0168622Y0221247D01*
X0168655Y0221404D01*
X0168693Y0221561D01*
X0168734Y0221716D01*
X0168779Y0221870D01*
X0168828Y0222023D01*
X0168881Y0222175D01*
X0168937Y0222326D01*
X0168998Y0222475D01*
X0169061Y0222623D01*
X0169129Y0222769D01*
X0169200Y0222913D01*
X0169274Y0223055D01*
X0169352Y0223196D01*
X0169434Y0223334D01*
X0169519Y0223471D01*
X0169607Y0223605D01*
X0169699Y0223737D01*
X0169794Y0223867D01*
X0169892Y0223995D01*
X0169993Y0224120D01*
X0170097Y0224242D01*
X0170204Y0224362D01*
X0170314Y0224479D01*
X0170427Y0224594D01*
X0170543Y0224705D01*
X0170662Y0224814D01*
X0170783Y0224919D01*
X0170907Y0225022D01*
X0171033Y0225122D01*
X0171161Y0225218D01*
X0171292Y0225311D01*
X0171426Y0225401D01*
X0171561Y0225488D01*
X0171699Y0225571D01*
X0171838Y0225651D01*
X0171980Y0225727D01*
X0172123Y0225800D01*
X0172268Y0225869D01*
X0172415Y0225935D01*
X0172563Y0225997D01*
X0172713Y0226055D01*
X0172864Y0226110D01*
X0173017Y0226161D01*
X0173171Y0226208D01*
X0173326Y0226251D01*
X0173482Y0226290D01*
X0173638Y0226326D01*
X0173796Y0226357D01*
X0173954Y0226385D01*
X0174113Y0226409D01*
X0174273Y0226429D01*
X0174433Y0226445D01*
X0174593Y0226457D01*
X0174754Y0226465D01*
X0174915Y0226469D01*
X0175075Y0226469D01*
X0175236Y0226465D01*
X0175397Y0226457D01*
X0175557Y0226445D01*
X0175717Y0226429D01*
X0175877Y0226409D01*
X0176036Y0226385D01*
X0176194Y0226357D01*
X0176352Y0226326D01*
X0176508Y0226290D01*
X0176664Y0226251D01*
X0176819Y0226208D01*
X0176973Y0226161D01*
X0177126Y0226110D01*
X0177277Y0226055D01*
X0177427Y0225997D01*
X0177575Y0225935D01*
X0177722Y0225869D01*
X0177867Y0225800D01*
X0178010Y0225727D01*
X0178152Y0225651D01*
X0178291Y0225571D01*
X0178429Y0225488D01*
X0178564Y0225401D01*
X0178698Y0225311D01*
X0178829Y0225218D01*
X0178957Y0225122D01*
X0179083Y0225022D01*
X0179207Y0224919D01*
X0179328Y0224814D01*
X0179447Y0224705D01*
X0179563Y0224594D01*
X0179676Y0224479D01*
X0179786Y0224362D01*
X0179893Y0224242D01*
X0179997Y0224120D01*
X0180098Y0223995D01*
X0180196Y0223867D01*
X0180291Y0223737D01*
X0180383Y0223605D01*
X0180471Y0223471D01*
X0180556Y0223334D01*
X0180638Y0223196D01*
X0180716Y0223055D01*
X0180790Y0222913D01*
X0180861Y0222769D01*
X0180929Y0222623D01*
X0180992Y0222475D01*
X0181053Y0222326D01*
X0181109Y0222175D01*
X0181162Y0222023D01*
X0181211Y0221870D01*
X0181256Y0221716D01*
X0181297Y0221561D01*
X0181335Y0221404D01*
X0181368Y0221247D01*
X0181398Y0221089D01*
X0181424Y0220930D01*
X0181445Y0220771D01*
X0181463Y0220611D01*
X0181477Y0220451D01*
X0181487Y0220290D01*
X0181493Y0220130D01*
X0181495Y0219969D01*
X0181493Y0219808D01*
X0181487Y0219648D01*
X0181477Y0219487D01*
X0181463Y0219327D01*
X0181445Y0219167D01*
X0181424Y0219008D01*
X0181398Y0218849D01*
X0181368Y0218691D01*
X0181335Y0218534D01*
X0181297Y0218377D01*
X0181256Y0218222D01*
X0181211Y0218068D01*
X0181162Y0217915D01*
X0181109Y0217763D01*
X0181053Y0217612D01*
X0180992Y0217463D01*
X0180929Y0217315D01*
X0180861Y0217169D01*
X0180790Y0217025D01*
X0180716Y0216883D01*
X0180638Y0216742D01*
X0180556Y0216604D01*
X0180471Y0216467D01*
X0180383Y0216333D01*
X0180291Y0216201D01*
X0180196Y0216071D01*
X0180098Y0215943D01*
X0179997Y0215818D01*
X0179893Y0215696D01*
X0179786Y0215576D01*
X0179676Y0215459D01*
X0179563Y0215344D01*
X0179447Y0215233D01*
X0179328Y0215124D01*
X0179207Y0215019D01*
X0179083Y0214916D01*
X0178957Y0214816D01*
X0178829Y0214720D01*
X0178698Y0214627D01*
X0178564Y0214537D01*
X0178429Y0214450D01*
X0178291Y0214367D01*
X0178152Y0214287D01*
X0178010Y0214211D01*
X0177867Y0214138D01*
X0177722Y0214069D01*
X0177575Y0214003D01*
X0177427Y0213941D01*
X0177277Y0213883D01*
X0177126Y0213828D01*
X0176973Y0213777D01*
X0176819Y0213730D01*
X0176664Y0213687D01*
X0176508Y0213648D01*
X0176352Y0213612D01*
X0176194Y0213581D01*
X0176036Y0213553D01*
X0175877Y0213529D01*
X0175717Y0213509D01*
X0175557Y0213493D01*
X0175397Y0213481D01*
X0175236Y0213473D01*
X0175075Y0213469D01*
X0174915Y0213469D01*
X0174754Y0213473D01*
X0174593Y0213481D01*
X0174433Y0213493D01*
X0174273Y0213509D01*
X0174113Y0213529D01*
X0173954Y0213553D01*
X0173796Y0213581D01*
X0173638Y0213612D01*
X0173482Y0213648D01*
X0173326Y0213687D01*
X0173171Y0213730D01*
X0173017Y0213777D01*
X0172864Y0213828D01*
X0172713Y0213883D01*
X0172563Y0213941D01*
X0172415Y0214003D01*
X0172268Y0214069D01*
X0172123Y0214138D01*
X0171980Y0214211D01*
X0171838Y0214287D01*
X0171699Y0214367D01*
X0171561Y0214450D01*
X0171426Y0214537D01*
X0171292Y0214627D01*
X0171161Y0214720D01*
X0171033Y0214816D01*
X0170907Y0214916D01*
X0170783Y0215019D01*
X0170662Y0215124D01*
X0170543Y0215233D01*
X0170427Y0215344D01*
X0170314Y0215459D01*
X0170204Y0215576D01*
X0170097Y0215696D01*
X0169993Y0215818D01*
X0169892Y0215943D01*
X0169794Y0216071D01*
X0169699Y0216201D01*
X0169607Y0216333D01*
X0169519Y0216467D01*
X0169434Y0216604D01*
X0169352Y0216742D01*
X0169274Y0216883D01*
X0169200Y0217025D01*
X0169129Y0217169D01*
X0169061Y0217315D01*
X0168998Y0217463D01*
X0168937Y0217612D01*
X0168881Y0217763D01*
X0168828Y0217915D01*
X0168779Y0218068D01*
X0168734Y0218222D01*
X0168693Y0218377D01*
X0168655Y0218534D01*
X0168622Y0218691D01*
X0168592Y0218849D01*
X0168566Y0219008D01*
X0168545Y0219167D01*
X0168527Y0219327D01*
X0168513Y0219487D01*
X0168503Y0219648D01*
X0168497Y0219808D01*
X0168495Y0219969D01*
D11*
X0111964Y0156740D03*
X0111964Y0149260D03*
X0121964Y0126740D03*
X0121964Y0119260D03*
X0131964Y0119260D03*
X0131964Y0126740D03*
X0081964Y0124260D03*
X0081964Y0131740D03*
X0036964Y0081740D03*
X0036964Y0074260D03*
X0041964Y0021740D03*
X0041964Y0014260D03*
X0071964Y0014260D03*
X0071964Y0021740D03*
D12*
X0093224Y0123000D03*
X0100704Y0123000D03*
X0048027Y0153748D03*
X0040547Y0153748D03*
X0124287Y0193157D03*
X0131767Y0193157D03*
D13*
X0116964Y0187409D03*
X0116964Y0180717D03*
X0108932Y0180717D03*
X0108932Y0187409D03*
X0100901Y0179535D03*
X0100901Y0172843D03*
X0063342Y0196465D03*
X0063342Y0203157D03*
D14*
X0093617Y0161031D03*
X0100310Y0161031D03*
X0100310Y0133000D03*
X0093617Y0133000D03*
X0128617Y0168000D03*
X0135310Y0168000D03*
X0138617Y0193000D03*
X0145310Y0193000D03*
D15*
X0138972Y0204811D03*
X0130704Y0204811D03*
D16*
X0121964Y0160283D03*
X0121964Y0145717D03*
D17*
X0075074Y0065500D03*
X0075074Y0060500D03*
X0075074Y0055500D03*
X0075074Y0050500D03*
X0075074Y0045500D03*
X0075074Y0040500D03*
X0075074Y0035500D03*
X0075074Y0030500D03*
X0038854Y0030500D03*
X0038854Y0035500D03*
X0038854Y0040500D03*
X0038854Y0045500D03*
X0038854Y0050500D03*
X0038854Y0055500D03*
X0038854Y0060500D03*
X0038854Y0065500D03*
D18*
X0061767Y0143826D02*
X0061767Y0146426D01*
X0062319Y0146426D01*
X0062319Y0143826D01*
X0061767Y0143826D01*
X0061767Y0144376D02*
X0062319Y0144376D01*
X0062319Y0144926D02*
X0061767Y0144926D01*
X0061767Y0145476D02*
X0062319Y0145476D01*
X0062319Y0146026D02*
X0061767Y0146026D01*
X0063735Y0146426D02*
X0063735Y0143826D01*
X0063735Y0146426D02*
X0064287Y0146426D01*
X0064287Y0143826D01*
X0063735Y0143826D01*
X0063735Y0144376D02*
X0064287Y0144376D01*
X0064287Y0144926D02*
X0063735Y0144926D01*
X0063735Y0145476D02*
X0064287Y0145476D01*
X0064287Y0146026D02*
X0063735Y0146026D01*
X0065704Y0146426D02*
X0065704Y0143826D01*
X0065704Y0146426D02*
X0066256Y0146426D01*
X0066256Y0143826D01*
X0065704Y0143826D01*
X0065704Y0144376D02*
X0066256Y0144376D01*
X0066256Y0144926D02*
X0065704Y0144926D01*
X0065704Y0145476D02*
X0066256Y0145476D01*
X0066256Y0146026D02*
X0065704Y0146026D01*
X0067672Y0146426D02*
X0067672Y0143826D01*
X0067672Y0146426D02*
X0068224Y0146426D01*
X0068224Y0143826D01*
X0067672Y0143826D01*
X0067672Y0144376D02*
X0068224Y0144376D01*
X0068224Y0144926D02*
X0067672Y0144926D01*
X0067672Y0145476D02*
X0068224Y0145476D01*
X0068224Y0146026D02*
X0067672Y0146026D01*
X0069641Y0146426D02*
X0069641Y0143826D01*
X0069641Y0146426D02*
X0070193Y0146426D01*
X0070193Y0143826D01*
X0069641Y0143826D01*
X0069641Y0144376D02*
X0070193Y0144376D01*
X0070193Y0144926D02*
X0069641Y0144926D01*
X0069641Y0145476D02*
X0070193Y0145476D01*
X0070193Y0146026D02*
X0069641Y0146026D01*
X0071609Y0146426D02*
X0071609Y0143826D01*
X0071609Y0146426D02*
X0072161Y0146426D01*
X0072161Y0143826D01*
X0071609Y0143826D01*
X0071609Y0144376D02*
X0072161Y0144376D01*
X0072161Y0144926D02*
X0071609Y0144926D01*
X0071609Y0145476D02*
X0072161Y0145476D01*
X0072161Y0146026D02*
X0071609Y0146026D01*
X0073538Y0148355D02*
X0076138Y0148355D01*
X0076138Y0147803D01*
X0073538Y0147803D01*
X0073538Y0148355D01*
X0073538Y0148353D02*
X0076138Y0148353D01*
X0076138Y0150323D02*
X0073538Y0150323D01*
X0076138Y0150323D02*
X0076138Y0149771D01*
X0073538Y0149771D01*
X0073538Y0150323D01*
X0073538Y0150321D02*
X0076138Y0150321D01*
X0076138Y0152292D02*
X0073538Y0152292D01*
X0076138Y0152292D02*
X0076138Y0151740D01*
X0073538Y0151740D01*
X0073538Y0152292D01*
X0073538Y0152290D02*
X0076138Y0152290D01*
X0076138Y0154260D02*
X0073538Y0154260D01*
X0076138Y0154260D02*
X0076138Y0153708D01*
X0073538Y0153708D01*
X0073538Y0154260D01*
X0073538Y0154258D02*
X0076138Y0154258D01*
X0076138Y0156229D02*
X0073538Y0156229D01*
X0076138Y0156229D02*
X0076138Y0155677D01*
X0073538Y0155677D01*
X0073538Y0156229D01*
X0073538Y0156227D02*
X0076138Y0156227D01*
X0076138Y0158197D02*
X0073538Y0158197D01*
X0076138Y0158197D02*
X0076138Y0157645D01*
X0073538Y0157645D01*
X0073538Y0158197D01*
X0073538Y0158195D02*
X0076138Y0158195D01*
X0072161Y0159574D02*
X0072161Y0162174D01*
X0072161Y0159574D02*
X0071609Y0159574D01*
X0071609Y0162174D01*
X0072161Y0162174D01*
X0072161Y0160124D02*
X0071609Y0160124D01*
X0071609Y0160674D02*
X0072161Y0160674D01*
X0072161Y0161224D02*
X0071609Y0161224D01*
X0071609Y0161774D02*
X0072161Y0161774D01*
X0070193Y0162174D02*
X0070193Y0159574D01*
X0069641Y0159574D01*
X0069641Y0162174D01*
X0070193Y0162174D01*
X0070193Y0160124D02*
X0069641Y0160124D01*
X0069641Y0160674D02*
X0070193Y0160674D01*
X0070193Y0161224D02*
X0069641Y0161224D01*
X0069641Y0161774D02*
X0070193Y0161774D01*
X0068224Y0162174D02*
X0068224Y0159574D01*
X0067672Y0159574D01*
X0067672Y0162174D01*
X0068224Y0162174D01*
X0068224Y0160124D02*
X0067672Y0160124D01*
X0067672Y0160674D02*
X0068224Y0160674D01*
X0068224Y0161224D02*
X0067672Y0161224D01*
X0067672Y0161774D02*
X0068224Y0161774D01*
X0066256Y0162174D02*
X0066256Y0159574D01*
X0065704Y0159574D01*
X0065704Y0162174D01*
X0066256Y0162174D01*
X0066256Y0160124D02*
X0065704Y0160124D01*
X0065704Y0160674D02*
X0066256Y0160674D01*
X0066256Y0161224D02*
X0065704Y0161224D01*
X0065704Y0161774D02*
X0066256Y0161774D01*
X0064287Y0162174D02*
X0064287Y0159574D01*
X0063735Y0159574D01*
X0063735Y0162174D01*
X0064287Y0162174D01*
X0064287Y0160124D02*
X0063735Y0160124D01*
X0063735Y0160674D02*
X0064287Y0160674D01*
X0064287Y0161224D02*
X0063735Y0161224D01*
X0063735Y0161774D02*
X0064287Y0161774D01*
X0062319Y0162174D02*
X0062319Y0159574D01*
X0061767Y0159574D01*
X0061767Y0162174D01*
X0062319Y0162174D01*
X0062319Y0160124D02*
X0061767Y0160124D01*
X0061767Y0160674D02*
X0062319Y0160674D01*
X0062319Y0161224D02*
X0061767Y0161224D01*
X0061767Y0161774D02*
X0062319Y0161774D01*
X0060390Y0157645D02*
X0057790Y0157645D01*
X0057790Y0158197D01*
X0060390Y0158197D01*
X0060390Y0157645D01*
X0060390Y0158195D02*
X0057790Y0158195D01*
X0057790Y0155677D02*
X0060390Y0155677D01*
X0057790Y0155677D02*
X0057790Y0156229D01*
X0060390Y0156229D01*
X0060390Y0155677D01*
X0060390Y0156227D02*
X0057790Y0156227D01*
X0057790Y0153708D02*
X0060390Y0153708D01*
X0057790Y0153708D02*
X0057790Y0154260D01*
X0060390Y0154260D01*
X0060390Y0153708D01*
X0060390Y0154258D02*
X0057790Y0154258D01*
X0057790Y0151740D02*
X0060390Y0151740D01*
X0057790Y0151740D02*
X0057790Y0152292D01*
X0060390Y0152292D01*
X0060390Y0151740D01*
X0060390Y0152290D02*
X0057790Y0152290D01*
X0057790Y0149771D02*
X0060390Y0149771D01*
X0057790Y0149771D02*
X0057790Y0150323D01*
X0060390Y0150323D01*
X0060390Y0149771D01*
X0060390Y0150321D02*
X0057790Y0150321D01*
X0057790Y0147803D02*
X0060390Y0147803D01*
X0057790Y0147803D02*
X0057790Y0148355D01*
X0060390Y0148355D01*
X0060390Y0147803D01*
X0060390Y0148353D02*
X0057790Y0148353D01*
D19*
X0066964Y0153000D03*
D20*
X0055901Y0141740D03*
X0055901Y0134260D03*
X0047633Y0138000D03*
X0060901Y0121740D03*
X0060901Y0114260D03*
X0052633Y0118000D03*
D21*
X0133027Y0154260D03*
X0133027Y0161740D03*
X0140901Y0158000D03*
D22*
X0072082Y0136346D03*
X0068539Y0136346D03*
X0065389Y0136346D03*
X0061846Y0136346D03*
X0061846Y0129654D03*
X0065389Y0129654D03*
X0068539Y0129654D03*
X0072082Y0129654D03*
D23*
X0095113Y0195441D03*
X0095113Y0198984D03*
X0095113Y0202134D03*
X0095113Y0205677D03*
X0101806Y0205677D03*
X0101806Y0202134D03*
X0101806Y0198984D03*
X0101806Y0195441D03*
D24*
X0086413Y0197173D03*
X0086413Y0203472D03*
X0070271Y0203472D03*
X0070271Y0197173D03*
D25*
X0143499Y0142075D03*
X0143499Y0139516D03*
X0143499Y0136957D03*
X0143499Y0134398D03*
X0143499Y0131839D03*
X0143499Y0129280D03*
X0143499Y0126720D03*
X0143499Y0124161D03*
X0143499Y0121602D03*
X0143499Y0119043D03*
X0143499Y0116484D03*
X0143499Y0113925D03*
X0170428Y0113925D03*
X0170428Y0116484D03*
X0170428Y0119043D03*
X0170428Y0121602D03*
X0170428Y0124161D03*
X0170428Y0126720D03*
X0170428Y0129280D03*
X0170428Y0131839D03*
X0170428Y0134398D03*
X0170428Y0136957D03*
X0170428Y0139516D03*
X0170428Y0142075D03*
D26*
X0137082Y0174260D03*
X0137082Y0178000D03*
X0137082Y0181740D03*
X0126845Y0181740D03*
X0126845Y0174260D03*
D27*
X0100704Y0153119D03*
X0096964Y0153119D03*
X0093224Y0153119D03*
X0093224Y0142881D03*
X0100704Y0142881D03*
D28*
X0093499Y0098315D03*
X0093499Y0093315D03*
X0093499Y0088315D03*
X0093499Y0083315D03*
X0093499Y0078315D03*
X0093499Y0073315D03*
X0093499Y0068315D03*
X0093499Y0063315D03*
X0093499Y0058315D03*
X0093499Y0053315D03*
X0093499Y0048315D03*
X0093499Y0043315D03*
X0093499Y0038315D03*
X0093499Y0033315D03*
X0160428Y0033315D03*
X0160428Y0038315D03*
X0160428Y0043315D03*
X0160428Y0048315D03*
X0160428Y0053315D03*
X0160428Y0058315D03*
X0160428Y0063315D03*
X0160428Y0068315D03*
X0160428Y0073315D03*
X0160428Y0078315D03*
X0160428Y0083315D03*
X0160428Y0088315D03*
X0160428Y0093315D03*
X0160428Y0098315D03*
D29*
X0149405Y0103787D03*
X0144405Y0103787D03*
X0139405Y0103787D03*
X0134405Y0103787D03*
X0129405Y0103787D03*
X0124405Y0103787D03*
X0119405Y0103787D03*
X0114405Y0103787D03*
X0109405Y0103787D03*
X0104405Y0103787D03*
D30*
X0125625Y0063630D03*
D31*
X0162397Y0174063D03*
X0162397Y0181937D03*
D32*
X0182869Y0191386D03*
X0182869Y0164614D03*
D33*
X0186964Y0123000D03*
X0186964Y0113000D03*
X0186964Y0103000D03*
X0186964Y0068000D03*
X0186964Y0058000D03*
X0186964Y0048000D03*
X0186964Y0038000D03*
X0186964Y0028000D03*
X0186964Y0018000D03*
X0186964Y0008000D03*
X0031964Y0093000D03*
X0031964Y0103000D03*
X0031964Y0113000D03*
X0031964Y0123000D03*
X0031964Y0133000D03*
X0031964Y0143000D03*
X0031964Y0153000D03*
X0079090Y0223906D03*
X0089090Y0223906D03*
X0099090Y0223906D03*
X0109090Y0223906D03*
X0119090Y0223906D03*
X0129090Y0223906D03*
D34*
X0181964Y0143512D03*
X0181964Y0132488D03*
D35*
X0161964Y0150717D03*
X0161964Y0155283D03*
D36*
X0054680Y0179772D03*
X0054680Y0182921D03*
X0054680Y0186071D03*
X0054680Y0189220D03*
X0054680Y0192370D03*
D37*
X0054680Y0203787D03*
X0033027Y0203787D03*
X0033027Y0168354D03*
X0054680Y0168354D03*
D38*
X0070034Y0162826D02*
X0070034Y0160991D01*
X0069917Y0160874D01*
X0070034Y0162826D02*
X0070957Y0163749D01*
X0072791Y0163749D01*
X0076964Y0167921D01*
X0081885Y0172843D01*
X0100901Y0172843D01*
X0100901Y0171346D01*
X0105861Y0166386D01*
X0111964Y0160283D01*
X0111964Y0156740D01*
X0111964Y0149260D02*
X0112161Y0149063D01*
X0115507Y0145717D01*
X0121964Y0145717D01*
X0124484Y0145717D01*
X0133027Y0154260D01*
X0135310Y0158502D02*
X0138362Y0155450D01*
X0148366Y0155450D01*
X0150126Y0153690D01*
X0139837Y0143401D01*
X0139837Y0133000D01*
X0137436Y0130599D01*
X0128473Y0130599D01*
X0124614Y0126740D01*
X0121964Y0126740D01*
X0115704Y0126740D01*
X0106964Y0118000D01*
X0106964Y0143119D01*
X0100626Y0149456D01*
X0099083Y0149456D01*
X0094515Y0149456D01*
X0090841Y0145782D01*
X0093617Y0153512D02*
X0093617Y0161031D01*
X0096964Y0153119D02*
X0098321Y0151761D01*
X0098321Y0150218D01*
X0099083Y0149456D01*
X0100704Y0153119D02*
X0100704Y0160638D01*
X0100310Y0161031D01*
X0108145Y0172291D02*
X0111767Y0172291D01*
X0108145Y0172291D02*
X0100901Y0179535D01*
X0116964Y0187409D02*
X0117594Y0188039D01*
X0141924Y0188039D01*
X0148224Y0181740D01*
X0156432Y0173531D01*
X0140901Y0158000D01*
X0136327Y0159952D02*
X0136327Y0163529D01*
X0135310Y0164545D01*
X0135310Y0168000D01*
X0135310Y0170749D01*
X0133420Y0172639D01*
X0133420Y0175881D01*
X0134182Y0176643D01*
X0135606Y0176643D01*
X0137023Y0178059D01*
X0137082Y0178000D01*
X0137082Y0174260D02*
X0143224Y0174260D01*
X0146964Y0178000D01*
X0148224Y0181740D02*
X0137082Y0181740D01*
X0126845Y0181740D02*
X0125704Y0181740D01*
X0121964Y0178000D01*
X0126845Y0174260D02*
X0126845Y0169772D01*
X0128617Y0168000D01*
X0121964Y0168000D02*
X0121964Y0160283D01*
X0123421Y0161740D01*
X0133027Y0161740D01*
X0135310Y0158935D02*
X0135310Y0158502D01*
X0135310Y0158935D02*
X0136327Y0159952D01*
X0150126Y0153690D02*
X0160370Y0153690D01*
X0161964Y0155283D01*
X0162948Y0142764D02*
X0162586Y0142402D01*
X0162586Y0134528D01*
X0164917Y0136858D01*
X0170428Y0136858D01*
X0170428Y0134398D01*
X0170428Y0136858D02*
X0170428Y0136957D01*
X0162586Y0134528D02*
X0162586Y0127016D01*
X0167540Y0122061D01*
X0169969Y0122061D01*
X0170428Y0121602D01*
X0170428Y0119043D01*
X0170428Y0116484D02*
X0173480Y0116484D01*
X0176039Y0113925D01*
X0170428Y0113925D01*
X0164917Y0111268D02*
X0164917Y0120047D01*
X0151964Y0133000D01*
X0151964Y0138000D02*
X0150448Y0139516D01*
X0143499Y0139516D01*
X0143499Y0142075D01*
X0147889Y0142075D01*
X0150448Y0139516D01*
X0143028Y0129751D02*
X0143499Y0129280D01*
X0143028Y0129751D02*
X0140599Y0129751D01*
X0139837Y0130513D01*
X0139837Y0133000D01*
X0143480Y0126740D02*
X0143499Y0126720D01*
X0143480Y0126740D02*
X0131964Y0126740D01*
X0131964Y0119260D02*
X0138598Y0119260D01*
X0139837Y0120499D01*
X0139837Y0122928D01*
X0140599Y0123690D01*
X0143028Y0123690D01*
X0143499Y0124161D01*
X0143499Y0113925D02*
X0148475Y0108950D01*
X0162598Y0108950D01*
X0164917Y0111268D01*
X0170428Y0124161D02*
X0175802Y0124161D01*
X0173243Y0126720D01*
X0170428Y0126720D01*
X0177220Y0148256D02*
X0176964Y0148512D01*
X0176964Y0158000D01*
X0162397Y0174063D02*
X0156964Y0174063D01*
X0156432Y0173531D01*
X0162397Y0181937D02*
X0168854Y0181937D01*
X0173027Y0181937D01*
X0176964Y0178000D01*
X0151964Y0188000D02*
X0146964Y0193000D01*
X0145310Y0193000D01*
X0138617Y0193000D02*
X0138972Y0204811D01*
X0100704Y0142881D02*
X0093617Y0135795D01*
X0093617Y0133000D01*
X0084877Y0124260D01*
X0081964Y0124260D01*
X0081964Y0118000D01*
X0076964Y0113000D01*
X0081964Y0113000D01*
X0076964Y0113000D02*
X0066964Y0103000D01*
X0081964Y0131740D02*
X0082692Y0132469D01*
X0093224Y0132606D02*
X0093224Y0123000D01*
X0100310Y0124654D02*
X0100310Y0133000D01*
X0093617Y0133000D02*
X0093224Y0132606D01*
X0100310Y0124654D02*
X0101964Y0123000D01*
X0100704Y0123000D01*
X0101964Y0123000D02*
X0106964Y0118000D01*
X0101924Y0113236D02*
X0115940Y0113236D01*
X0121964Y0119260D01*
X0131964Y0119260D01*
X0145743Y0100125D02*
X0137791Y0092173D01*
X0125625Y0080008D01*
X0119956Y0080008D01*
X0111964Y0088000D01*
X0125625Y0080008D02*
X0125625Y0063630D01*
X0125625Y0041976D01*
X0116964Y0033315D01*
X0160428Y0033315D01*
X0160113Y0038000D02*
X0160428Y0038315D01*
X0160113Y0038000D02*
X0131964Y0038000D01*
X0116964Y0033315D02*
X0093499Y0033315D01*
X0091571Y0035243D01*
X0090599Y0035243D01*
X0089837Y0036005D01*
X0089837Y0036977D01*
X0088814Y0038000D01*
X0086964Y0038000D01*
X0091964Y0038000D02*
X0093184Y0038000D01*
X0091964Y0038000D02*
X0082805Y0047159D01*
X0082805Y0055120D01*
X0079943Y0057981D01*
X0077593Y0057981D01*
X0075074Y0060500D01*
X0059464Y0060500D01*
X0051964Y0053000D01*
X0051964Y0033000D01*
X0063224Y0021740D01*
X0071964Y0021740D01*
X0071964Y0014260D02*
X0085704Y0028000D01*
X0086964Y0028000D01*
X0091964Y0043000D02*
X0091964Y0043878D01*
X0089837Y0046005D01*
X0089837Y0053087D01*
X0079943Y0062981D01*
X0077593Y0062981D01*
X0075074Y0065500D01*
X0059464Y0065500D01*
X0046964Y0053000D01*
X0046964Y0026740D01*
X0041964Y0021740D01*
X0041964Y0014260D02*
X0041964Y0013000D01*
X0046964Y0008000D01*
X0036964Y0008000D01*
X0031964Y0018000D01*
X0031964Y0055961D01*
X0031964Y0068000D01*
X0032711Y0068747D01*
X0032711Y0077357D01*
X0036964Y0081610D01*
X0036964Y0081740D01*
X0036964Y0083000D01*
X0036964Y0074260D02*
X0045704Y0074260D01*
X0046964Y0073000D01*
X0038854Y0060500D02*
X0036335Y0057981D01*
X0033984Y0057981D01*
X0031964Y0055961D01*
X0056964Y0048000D02*
X0056964Y0038000D01*
X0061964Y0033000D01*
X0061964Y0046031D02*
X0064464Y0050500D01*
X0075074Y0050500D01*
X0075074Y0055500D02*
X0064464Y0055500D01*
X0056964Y0048000D01*
X0071964Y0014260D02*
X0071964Y0013000D01*
X0066964Y0008000D01*
X0046964Y0008000D01*
X0145743Y0100125D02*
X0146715Y0100125D01*
X0147476Y0100887D01*
X0147476Y0101859D01*
X0149405Y0103787D01*
X0160428Y0073315D02*
X0161649Y0073315D01*
X0161649Y0073067D01*
X0161649Y0073315D02*
X0161964Y0073000D01*
X0161964Y0072752D01*
X0161649Y0048315D02*
X0161649Y0048067D01*
X0161649Y0048315D02*
X0160428Y0048315D01*
X0076964Y0167921D02*
X0076964Y0168000D01*
D39*
X0076964Y0168000D03*
X0081964Y0163000D03*
X0086964Y0153000D03*
X0081964Y0143000D03*
X0086964Y0138000D03*
X0071964Y0123000D03*
X0066964Y0118000D03*
X0061964Y0108000D03*
X0066964Y0103000D03*
X0076964Y0103000D03*
X0086964Y0118000D03*
X0101924Y0113236D03*
X0101964Y0088000D03*
X0141295Y0077803D03*
X0151964Y0078000D03*
X0146964Y0063000D03*
X0131964Y0038000D03*
X0086964Y0038000D03*
X0086964Y0028000D03*
X0061964Y0033000D03*
X0061964Y0046031D03*
X0046964Y0073000D03*
X0042869Y0128984D03*
X0051964Y0148000D03*
X0052712Y0158512D03*
X0064523Y0180165D03*
X0068460Y0188547D03*
X0074365Y0180165D03*
X0078302Y0191976D03*
X0094050Y0168354D03*
X0105861Y0166386D03*
X0111767Y0172291D03*
X0115704Y0164417D03*
X0121964Y0168000D03*
X0121964Y0178000D03*
X0105861Y0191976D03*
X0119641Y0199850D03*
X0125547Y0199850D03*
X0113736Y0213630D03*
X0109603Y0207920D03*
X0147200Y0199850D03*
X0151964Y0188000D03*
X0146964Y0178000D03*
X0176964Y0178000D03*
X0176964Y0158000D03*
X0162948Y0142764D03*
X0156964Y0113000D03*
X0151964Y0113000D03*
X0151964Y0098000D03*
X0106964Y0143119D03*
X0054680Y0213630D03*
D40*
X0151964Y0140717D02*
X0151964Y0138000D01*
X0151964Y0133000D01*
X0151964Y0140717D02*
X0161964Y0150717D01*
X0167906Y0150717D01*
X0174891Y0143732D01*
X0174891Y0139561D01*
X0181964Y0132488D01*
X0181964Y0128000D01*
X0186964Y0123000D01*
X0186964Y0113000D02*
X0175802Y0124161D01*
X0176039Y0113925D02*
X0186964Y0103000D01*
X0181964Y0143512D02*
X0177220Y0148256D01*
X0170192Y0155283D01*
X0161964Y0155283D01*
D41*
X0162301Y0154947D02*
X0162301Y0155620D01*
X0165235Y0155620D01*
X0165235Y0157154D01*
X0165133Y0157536D01*
X0164936Y0157878D01*
X0164657Y0158157D01*
X0164314Y0158354D01*
X0163933Y0158457D01*
X0162300Y0158457D01*
X0162300Y0155620D01*
X0161627Y0155620D01*
X0161627Y0154947D01*
X0158692Y0154947D01*
X0158692Y0153413D01*
X0158717Y0153319D01*
X0158492Y0153094D01*
X0158492Y0151912D01*
X0150095Y0143514D01*
X0150040Y0143459D01*
X0149305Y0144194D01*
X0148386Y0144575D01*
X0143002Y0144575D01*
X0142972Y0144562D01*
X0140433Y0144562D01*
X0139437Y0143566D01*
X0139437Y0130347D01*
X0139637Y0130147D01*
X0139637Y0129280D01*
X0143499Y0129280D01*
X0143499Y0129279D01*
X0139637Y0129279D01*
X0139637Y0129240D01*
X0136617Y0129240D01*
X0136617Y0130003D01*
X0135621Y0130999D01*
X0128307Y0130999D01*
X0127311Y0130003D01*
X0127311Y0123477D01*
X0127788Y0123000D01*
X0127311Y0122523D01*
X0127311Y0121760D01*
X0126617Y0121760D01*
X0126617Y0122523D01*
X0125998Y0123141D01*
X0126117Y0123260D01*
X0126314Y0123602D01*
X0126417Y0123984D01*
X0126417Y0126240D01*
X0122464Y0126240D01*
X0122464Y0127240D01*
X0126417Y0127240D01*
X0126417Y0129497D01*
X0126314Y0129878D01*
X0126117Y0130220D01*
X0125838Y0130499D01*
X0125496Y0130697D01*
X0125114Y0130799D01*
X0122464Y0130799D01*
X0122464Y0127240D01*
X0121464Y0127240D01*
X0121464Y0126240D01*
X0117511Y0126240D01*
X0117511Y0123984D01*
X0117613Y0123602D01*
X0117811Y0123260D01*
X0117929Y0123141D01*
X0117311Y0122523D01*
X0117311Y0118143D01*
X0114905Y0115736D01*
X0103917Y0115736D01*
X0103724Y0115929D01*
X0102556Y0116413D01*
X0101293Y0116413D01*
X0100125Y0115929D01*
X0099232Y0115035D01*
X0099164Y0114872D01*
X0099164Y0116521D01*
X0097875Y0117810D01*
X0090265Y0117810D01*
X0090140Y0117935D01*
X0090140Y0118347D01*
X0096487Y0118347D01*
X0097105Y0118966D01*
X0097224Y0118847D01*
X0097566Y0118649D01*
X0097947Y0118547D01*
X0100204Y0118547D01*
X0100204Y0122500D01*
X0101204Y0122500D01*
X0101204Y0123500D01*
X0100204Y0123500D01*
X0100204Y0127453D01*
X0097947Y0127453D01*
X0097566Y0127351D01*
X0097224Y0127153D01*
X0097105Y0127034D01*
X0096487Y0127653D01*
X0095724Y0127653D01*
X0095724Y0129331D01*
X0096487Y0129331D01*
X0097105Y0129950D01*
X0097224Y0129831D01*
X0097566Y0129634D01*
X0097947Y0129531D01*
X0099826Y0129531D01*
X0099826Y0132516D01*
X0100795Y0132516D01*
X0100795Y0133484D01*
X0103976Y0133484D01*
X0103976Y0135166D01*
X0103873Y0135547D01*
X0103676Y0135890D01*
X0103397Y0136169D01*
X0103055Y0136366D01*
X0102673Y0136468D01*
X0100795Y0136468D01*
X0100795Y0133484D01*
X0099826Y0133484D01*
X0099826Y0136468D01*
X0097947Y0136468D01*
X0097782Y0136424D01*
X0100177Y0138819D01*
X0102491Y0138819D01*
X0103487Y0139815D01*
X0103487Y0145948D01*
X0102491Y0146944D01*
X0098917Y0146944D01*
X0097921Y0145948D01*
X0097921Y0143634D01*
X0096006Y0141719D01*
X0096006Y0145948D01*
X0095011Y0146944D01*
X0091437Y0146944D01*
X0090441Y0145948D01*
X0090441Y0139815D01*
X0091437Y0138819D01*
X0093106Y0138819D01*
X0092201Y0137914D01*
X0091498Y0137211D01*
X0091273Y0136668D01*
X0090748Y0136668D01*
X0089752Y0135673D01*
X0089752Y0132670D01*
X0086417Y0129335D01*
X0086417Y0131240D01*
X0082464Y0131240D01*
X0082464Y0132240D01*
X0086417Y0132240D01*
X0086417Y0134497D01*
X0086329Y0134825D01*
X0086332Y0134824D01*
X0087596Y0134824D01*
X0088763Y0135307D01*
X0089657Y0136201D01*
X0090140Y0137368D01*
X0090140Y0138632D01*
X0089657Y0139799D01*
X0089164Y0140292D01*
X0089164Y0143911D01*
X0082117Y0150959D01*
X0080828Y0152247D01*
X0079591Y0152247D01*
X0079613Y0152269D01*
X0079613Y0153679D01*
X0080749Y0154816D01*
X0082037Y0154816D01*
X0083787Y0153065D01*
X0083787Y0152368D01*
X0084271Y0151201D01*
X0085165Y0150307D01*
X0086332Y0149824D01*
X0087596Y0149824D01*
X0088763Y0150307D01*
X0089657Y0151201D01*
X0090140Y0152368D01*
X0090140Y0153632D01*
X0089657Y0154799D01*
X0088763Y0155693D01*
X0087596Y0156176D01*
X0086899Y0156176D01*
X0085148Y0157927D01*
X0083859Y0159216D01*
X0081212Y0159216D01*
X0081820Y0159824D01*
X0082596Y0159824D01*
X0083763Y0160307D01*
X0084657Y0161201D01*
X0085140Y0162368D01*
X0085140Y0163632D01*
X0084657Y0164799D01*
X0083763Y0165693D01*
X0082596Y0166176D01*
X0081332Y0166176D01*
X0080165Y0165693D01*
X0079271Y0164799D01*
X0078787Y0163632D01*
X0078787Y0163014D01*
X0076501Y0160728D01*
X0075946Y0160172D01*
X0074136Y0160172D01*
X0074136Y0162992D01*
X0072979Y0164149D01*
X0070791Y0164149D01*
X0070556Y0163914D01*
X0070426Y0163949D01*
X0070148Y0163949D01*
X0070148Y0168900D01*
X0079214Y0177965D01*
X0080502Y0179254D01*
X0080502Y0183045D01*
X0079214Y0184334D01*
X0079214Y0184334D01*
X0076565Y0186982D01*
X0075277Y0188271D01*
X0071636Y0188271D01*
X0071636Y0189179D01*
X0071226Y0190170D01*
X0075617Y0190170D01*
X0076503Y0189284D01*
X0077671Y0188800D01*
X0078934Y0188800D01*
X0080102Y0189284D01*
X0080595Y0189776D01*
X0087549Y0189776D01*
X0097232Y0180093D01*
X0097232Y0176666D01*
X0097851Y0176048D01*
X0097732Y0175929D01*
X0097535Y0175587D01*
X0097432Y0175205D01*
X0097432Y0173327D01*
X0100417Y0173327D01*
X0100417Y0172358D01*
X0101385Y0172358D01*
X0101385Y0169177D01*
X0103067Y0169177D01*
X0103448Y0169279D01*
X0103790Y0169477D01*
X0104070Y0169756D01*
X0104267Y0170098D01*
X0104369Y0170480D01*
X0104369Y0172358D01*
X0101385Y0172358D01*
X0101385Y0173327D01*
X0103574Y0173327D01*
X0106026Y0170875D01*
X0106729Y0170172D01*
X0107648Y0169791D01*
X0109775Y0169791D01*
X0109968Y0169599D01*
X0111135Y0169115D01*
X0112399Y0169115D01*
X0113504Y0169573D01*
X0113504Y0166709D01*
X0113011Y0166217D01*
X0112528Y0165049D01*
X0112528Y0163785D01*
X0113011Y0162618D01*
X0113905Y0161725D01*
X0115072Y0161241D01*
X0116336Y0161241D01*
X0117503Y0161725D01*
X0117508Y0161729D01*
X0117508Y0156823D01*
X0118504Y0155828D01*
X0125424Y0155828D01*
X0126420Y0156823D01*
X0126420Y0159240D01*
X0129873Y0159240D01*
X0130323Y0158790D01*
X0135731Y0158790D01*
X0136727Y0159786D01*
X0136727Y0163694D01*
X0135890Y0164531D01*
X0137673Y0164531D01*
X0138055Y0164634D01*
X0138397Y0164831D01*
X0138676Y0165110D01*
X0138873Y0165453D01*
X0138976Y0165834D01*
X0138976Y0167516D01*
X0135795Y0167516D01*
X0135795Y0168484D01*
X0138976Y0168484D01*
X0138976Y0170166D01*
X0138873Y0170547D01*
X0138676Y0170890D01*
X0138397Y0171169D01*
X0138055Y0171366D01*
X0137673Y0171468D01*
X0135795Y0171468D01*
X0135795Y0168484D01*
X0134826Y0168484D01*
X0134826Y0171468D01*
X0132947Y0171468D01*
X0132566Y0171366D01*
X0132224Y0171169D01*
X0132105Y0171050D01*
X0131487Y0171668D01*
X0130103Y0171668D01*
X0130908Y0172473D01*
X0130908Y0176047D01*
X0129912Y0177043D01*
X0125005Y0177043D01*
X0125140Y0177368D01*
X0125140Y0177641D01*
X0126457Y0178957D01*
X0129912Y0178957D01*
X0130908Y0179953D01*
X0130908Y0183527D01*
X0129912Y0184523D01*
X0123779Y0184523D01*
X0122783Y0183527D01*
X0122783Y0182355D01*
X0121605Y0181176D01*
X0121332Y0181176D01*
X0120632Y0180887D01*
X0120632Y0183586D01*
X0120155Y0184063D01*
X0120632Y0184540D01*
X0120632Y0185539D01*
X0140889Y0185539D01*
X0142188Y0184240D01*
X0140431Y0184240D01*
X0140149Y0184523D01*
X0134016Y0184523D01*
X0133020Y0183527D01*
X0133020Y0179953D01*
X0133320Y0179653D01*
X0133220Y0179280D01*
X0133220Y0178041D01*
X0137041Y0178041D01*
X0137041Y0177959D01*
X0133220Y0177959D01*
X0133220Y0176720D01*
X0133320Y0176347D01*
X0133020Y0176047D01*
X0133020Y0172473D01*
X0134016Y0171477D01*
X0140149Y0171477D01*
X0140431Y0171760D01*
X0143721Y0171760D01*
X0144640Y0172140D01*
X0147323Y0174824D01*
X0147596Y0174824D01*
X0148763Y0175307D01*
X0149657Y0176201D01*
X0149824Y0176604D01*
X0151642Y0174787D01*
X0151642Y0172276D01*
X0140315Y0160950D01*
X0138197Y0160950D01*
X0137201Y0159954D01*
X0137201Y0156046D01*
X0138197Y0155050D01*
X0143605Y0155050D01*
X0144601Y0156046D01*
X0144601Y0158164D01*
X0156831Y0170394D01*
X0172156Y0170394D01*
X0173152Y0171390D01*
X0173152Y0176736D01*
X0172156Y0177731D01*
X0155768Y0177731D01*
X0155031Y0178469D01*
X0161913Y0178469D01*
X0161913Y0181453D01*
X0162881Y0181453D01*
X0162881Y0182421D01*
X0172952Y0182421D01*
X0172952Y0184103D01*
X0172850Y0184484D01*
X0172652Y0184827D01*
X0172373Y0185106D01*
X0172031Y0185303D01*
X0171650Y0185405D01*
X0162881Y0185405D01*
X0162881Y0182421D01*
X0161913Y0182421D01*
X0161913Y0185405D01*
X0153861Y0185405D01*
X0154657Y0186201D01*
X0155140Y0187368D01*
X0155140Y0188632D01*
X0154657Y0189799D01*
X0153763Y0190693D01*
X0152596Y0191176D01*
X0152323Y0191176D01*
X0149176Y0194324D01*
X0149176Y0195673D01*
X0148180Y0196668D01*
X0142441Y0196668D01*
X0141964Y0196192D01*
X0141487Y0196668D01*
X0141229Y0196668D01*
X0141351Y0200749D01*
X0142038Y0200749D01*
X0143034Y0201745D01*
X0143034Y0207877D01*
X0142038Y0208873D01*
X0135905Y0208873D01*
X0134910Y0207877D01*
X0134910Y0201745D01*
X0135905Y0200749D01*
X0136349Y0200749D01*
X0136226Y0196668D01*
X0135748Y0196668D01*
X0135733Y0196654D01*
X0135724Y0196689D01*
X0135526Y0197031D01*
X0135247Y0197311D01*
X0134905Y0197508D01*
X0134524Y0197610D01*
X0132267Y0197610D01*
X0132267Y0193658D01*
X0131267Y0193658D01*
X0131267Y0197610D01*
X0129010Y0197610D01*
X0128629Y0197508D01*
X0128287Y0197311D01*
X0128168Y0197192D01*
X0127550Y0197810D01*
X0122093Y0197810D01*
X0122334Y0198051D01*
X0122817Y0199219D01*
X0122817Y0199915D01*
X0125513Y0202611D01*
X0126642Y0202611D01*
X0126642Y0201745D01*
X0127638Y0200749D01*
X0133770Y0200749D01*
X0134766Y0201745D01*
X0134766Y0207877D01*
X0133770Y0208873D01*
X0127638Y0208873D01*
X0126642Y0207877D01*
X0126642Y0207011D01*
X0123690Y0207011D01*
X0119706Y0203027D01*
X0119009Y0203027D01*
X0117842Y0202543D01*
X0116948Y0201650D01*
X0116465Y0200482D01*
X0116465Y0199219D01*
X0116948Y0198051D01*
X0117842Y0197158D01*
X0119009Y0196674D01*
X0120028Y0196674D01*
X0120028Y0195357D01*
X0115434Y0195357D01*
X0111998Y0198793D01*
X0111998Y0203703D01*
X0127157Y0218861D01*
X0128016Y0218506D01*
X0130164Y0218506D01*
X0132149Y0219328D01*
X0133668Y0220847D01*
X0134490Y0222831D01*
X0134490Y0224980D01*
X0133668Y0226964D01*
X0132149Y0228483D01*
X0130164Y0229305D01*
X0128016Y0229305D01*
X0126031Y0228483D01*
X0124512Y0226964D01*
X0124090Y0225945D01*
X0123668Y0226964D01*
X0122149Y0228483D01*
X0120164Y0229305D01*
X0118016Y0229305D01*
X0116031Y0228483D01*
X0114512Y0226964D01*
X0114090Y0225945D01*
X0113668Y0226964D01*
X0112149Y0228483D01*
X0110164Y0229305D01*
X0108016Y0229305D01*
X0106031Y0228483D01*
X0104512Y0226964D01*
X0103980Y0225681D01*
X0103909Y0225902D01*
X0103537Y0226631D01*
X0103056Y0227293D01*
X0102477Y0227872D01*
X0101815Y0228353D01*
X0101086Y0228725D01*
X0100308Y0228977D01*
X0099590Y0229091D01*
X0099590Y0224406D01*
X0098590Y0224406D01*
X0098590Y0229091D01*
X0097872Y0228977D01*
X0097094Y0228725D01*
X0096364Y0228353D01*
X0095702Y0227872D01*
X0095123Y0227293D01*
X0094642Y0226631D01*
X0094271Y0225902D01*
X0094199Y0225681D01*
X0093668Y0226964D01*
X0092149Y0228483D01*
X0090164Y0229305D01*
X0088016Y0229305D01*
X0086031Y0228483D01*
X0084512Y0226964D01*
X0084090Y0225945D01*
X0083668Y0226964D01*
X0082149Y0228483D01*
X0080164Y0229305D01*
X0078016Y0229305D01*
X0076031Y0228483D01*
X0074512Y0226964D01*
X0073690Y0224980D01*
X0073690Y0223940D01*
X0065580Y0215830D01*
X0056972Y0215830D01*
X0056480Y0216323D01*
X0055312Y0216806D01*
X0054049Y0216806D01*
X0052881Y0216323D01*
X0051988Y0215429D01*
X0051504Y0214262D01*
X0051504Y0212998D01*
X0051988Y0211831D01*
X0052881Y0210937D01*
X0054049Y0210454D01*
X0055312Y0210454D01*
X0056480Y0210937D01*
X0056972Y0211430D01*
X0065580Y0211430D01*
X0070066Y0206944D01*
X0067795Y0206944D01*
X0066944Y0206093D01*
X0066014Y0207023D01*
X0061302Y0207023D01*
X0061302Y0208429D01*
X0060306Y0209424D01*
X0049055Y0209424D01*
X0048059Y0208429D01*
X0048059Y0199146D01*
X0049055Y0198150D01*
X0059873Y0198150D01*
X0059873Y0196949D01*
X0062857Y0196949D01*
X0062857Y0195980D01*
X0059873Y0195980D01*
X0059873Y0195054D01*
X0049055Y0195054D01*
X0048310Y0194309D01*
X0048310Y0195423D01*
X0047781Y0196699D01*
X0046804Y0197675D01*
X0045528Y0198204D01*
X0044147Y0198204D01*
X0042871Y0197675D01*
X0041895Y0196699D01*
X0041366Y0195423D01*
X0041366Y0194042D01*
X0041895Y0192766D01*
X0042871Y0191789D01*
X0044147Y0191261D01*
X0045528Y0191261D01*
X0046804Y0191789D01*
X0047781Y0192766D01*
X0048059Y0193437D01*
X0048059Y0181233D01*
X0048276Y0181016D01*
X0048259Y0180953D01*
X0048259Y0179772D01*
X0054680Y0179772D01*
X0054680Y0179772D01*
X0048259Y0179772D01*
X0048259Y0178590D01*
X0048361Y0178208D01*
X0048559Y0177866D01*
X0048838Y0177587D01*
X0049180Y0177390D01*
X0049562Y0177287D01*
X0054680Y0177287D01*
X0054680Y0179772D01*
X0064129Y0179772D01*
X0064523Y0180165D01*
X0061302Y0181233D02*
X0061302Y0183871D01*
X0073454Y0183871D01*
X0073983Y0183342D01*
X0073734Y0183342D01*
X0072566Y0182858D01*
X0071673Y0181965D01*
X0071189Y0180797D01*
X0071189Y0179534D01*
X0071555Y0178650D01*
X0064197Y0171292D01*
X0064197Y0164149D01*
X0061302Y0164149D01*
X0061302Y0172995D01*
X0060306Y0173991D01*
X0049055Y0173991D01*
X0048059Y0172995D01*
X0048059Y0164649D01*
X0043927Y0164649D01*
X0039990Y0160712D01*
X0039990Y0160712D01*
X0038701Y0159423D01*
X0038701Y0158401D01*
X0037283Y0158401D01*
X0036287Y0157405D01*
X0036287Y0156313D01*
X0035023Y0157578D01*
X0033038Y0158400D01*
X0030890Y0158400D01*
X0028905Y0157578D01*
X0028664Y0157337D01*
X0028664Y0162717D01*
X0038652Y0162717D01*
X0039648Y0163713D01*
X0039648Y0172995D01*
X0038652Y0173991D01*
X0028664Y0173991D01*
X0028664Y0198150D01*
X0038652Y0198150D01*
X0039648Y0199146D01*
X0039648Y0208429D01*
X0038652Y0209424D01*
X0028664Y0209424D01*
X0028664Y0231064D01*
X0190185Y0231064D01*
X0190185Y0196235D01*
X0175472Y0196235D01*
X0174476Y0195240D01*
X0174476Y0187532D01*
X0175472Y0186536D01*
X0190185Y0186536D01*
X0190185Y0169464D01*
X0175472Y0169464D01*
X0174476Y0168468D01*
X0174476Y0160760D01*
X0175472Y0159765D01*
X0190185Y0159765D01*
X0190185Y0127415D01*
X0190023Y0127578D01*
X0188038Y0128400D01*
X0186231Y0128400D01*
X0186208Y0128423D01*
X0186813Y0129028D01*
X0186813Y0135948D01*
X0185818Y0136944D01*
X0182175Y0136944D01*
X0179863Y0139256D01*
X0181464Y0139256D01*
X0181464Y0143012D01*
X0182464Y0143012D01*
X0182464Y0144012D01*
X0181464Y0144012D01*
X0181464Y0147768D01*
X0178617Y0147768D01*
X0178235Y0147665D01*
X0177893Y0147468D01*
X0177614Y0147189D01*
X0177416Y0146847D01*
X0177314Y0146465D01*
X0177314Y0145975D01*
X0170704Y0152586D01*
X0169775Y0153514D01*
X0168563Y0154017D01*
X0165235Y0154017D01*
X0165235Y0154947D01*
X0162301Y0154947D01*
X0162300Y0155772D02*
X0161627Y0155772D01*
X0161627Y0155620D02*
X0161627Y0158457D01*
X0159995Y0158457D01*
X0159613Y0158354D01*
X0159271Y0158157D01*
X0158992Y0157878D01*
X0158794Y0157536D01*
X0158692Y0157154D01*
X0158692Y0155620D01*
X0161627Y0155620D01*
X0161627Y0156771D02*
X0162300Y0156771D01*
X0162300Y0157769D02*
X0161627Y0157769D01*
X0158929Y0157769D02*
X0144601Y0157769D01*
X0144601Y0156771D02*
X0158692Y0156771D01*
X0158692Y0155772D02*
X0144327Y0155772D01*
X0145204Y0158768D02*
X0190185Y0158768D01*
X0190185Y0157769D02*
X0164998Y0157769D01*
X0165235Y0156771D02*
X0190185Y0156771D01*
X0190185Y0155772D02*
X0165235Y0155772D01*
X0165235Y0154774D02*
X0190185Y0154774D01*
X0190185Y0153775D02*
X0169145Y0153775D01*
X0170513Y0152777D02*
X0190185Y0152777D01*
X0190185Y0151778D02*
X0171511Y0151778D01*
X0172510Y0150780D02*
X0190185Y0150780D01*
X0190185Y0149781D02*
X0173508Y0149781D01*
X0174507Y0148783D02*
X0190185Y0148783D01*
X0190185Y0147784D02*
X0175505Y0147784D01*
X0176504Y0146786D02*
X0177400Y0146786D01*
X0181464Y0146786D02*
X0182464Y0146786D01*
X0182464Y0147768D02*
X0182464Y0144012D01*
X0186613Y0144012D01*
X0186613Y0146465D01*
X0186511Y0146847D01*
X0186314Y0147189D01*
X0186034Y0147468D01*
X0185692Y0147665D01*
X0185311Y0147768D01*
X0182464Y0147768D01*
X0182464Y0145787D02*
X0181464Y0145787D01*
X0181464Y0144789D02*
X0182464Y0144789D01*
X0182464Y0143790D02*
X0190185Y0143790D01*
X0190185Y0142792D02*
X0186613Y0142792D01*
X0186613Y0143012D02*
X0182464Y0143012D01*
X0182464Y0139256D01*
X0185311Y0139256D01*
X0185692Y0139358D01*
X0186034Y0139556D01*
X0186314Y0139835D01*
X0186511Y0140177D01*
X0186613Y0140558D01*
X0186613Y0143012D01*
X0186613Y0141793D02*
X0190185Y0141793D01*
X0190185Y0140795D02*
X0186613Y0140795D01*
X0186275Y0139796D02*
X0190185Y0139796D01*
X0190185Y0138798D02*
X0180321Y0138798D01*
X0181320Y0137799D02*
X0190185Y0137799D01*
X0190185Y0136801D02*
X0185961Y0136801D01*
X0186813Y0135802D02*
X0190185Y0135802D01*
X0190185Y0134803D02*
X0186813Y0134803D01*
X0186813Y0133805D02*
X0190185Y0133805D01*
X0190185Y0132806D02*
X0186813Y0132806D01*
X0186813Y0131808D02*
X0190185Y0131808D01*
X0190185Y0130809D02*
X0186813Y0130809D01*
X0186813Y0129811D02*
X0190185Y0129811D01*
X0190185Y0128812D02*
X0186598Y0128812D01*
X0189453Y0127814D02*
X0190185Y0127814D01*
X0181564Y0123733D02*
X0181564Y0123067D01*
X0177672Y0126959D01*
X0176459Y0127461D01*
X0176038Y0127461D01*
X0174660Y0128840D01*
X0174491Y0128910D01*
X0174491Y0133330D01*
X0174291Y0133530D01*
X0174291Y0134398D01*
X0174291Y0135383D01*
X0174250Y0135536D01*
X0177114Y0132671D01*
X0177114Y0129028D01*
X0178110Y0128032D01*
X0178664Y0128032D01*
X0178664Y0127344D01*
X0179166Y0126131D01*
X0180095Y0125202D01*
X0181564Y0123733D01*
X0181477Y0123820D02*
X0180811Y0123820D01*
X0180479Y0124818D02*
X0179812Y0124818D01*
X0179480Y0125817D02*
X0178814Y0125817D01*
X0178883Y0126815D02*
X0177815Y0126815D01*
X0178664Y0127814D02*
X0175685Y0127814D01*
X0174687Y0128812D02*
X0177330Y0128812D01*
X0177114Y0129811D02*
X0174491Y0129811D01*
X0174491Y0130809D02*
X0177114Y0130809D01*
X0177114Y0131808D02*
X0174491Y0131808D01*
X0174491Y0132806D02*
X0176979Y0132806D01*
X0175980Y0133805D02*
X0174291Y0133805D01*
X0174291Y0134398D02*
X0170429Y0134398D01*
X0174291Y0134398D01*
X0174291Y0134803D02*
X0174982Y0134803D01*
X0170428Y0134803D02*
X0170428Y0134803D01*
X0170428Y0134669D02*
X0170428Y0136957D01*
X0170428Y0136957D01*
X0166566Y0136957D01*
X0166566Y0137824D01*
X0166366Y0138024D01*
X0166366Y0143566D01*
X0167362Y0144562D01*
X0169394Y0144562D01*
X0166539Y0147417D01*
X0164513Y0147417D01*
X0164440Y0147343D01*
X0163258Y0147343D01*
X0155264Y0139350D01*
X0155264Y0137344D01*
X0155264Y0133236D01*
X0166333Y0122167D01*
X0166566Y0121933D01*
X0166566Y0122470D01*
X0166366Y0122670D01*
X0166366Y0133330D01*
X0166566Y0133530D01*
X0166566Y0134398D01*
X0170428Y0134398D01*
X0170428Y0136957D01*
X0166566Y0136957D01*
X0166566Y0135972D01*
X0166645Y0135677D01*
X0166566Y0135383D01*
X0166566Y0134398D01*
X0170428Y0134398D01*
X0170428Y0134398D01*
X0170428Y0134398D01*
X0170428Y0134669D01*
X0170429Y0134398D02*
X0170429Y0134398D01*
X0170428Y0135802D02*
X0170428Y0135802D01*
X0170428Y0136801D02*
X0170428Y0136801D01*
X0170428Y0136957D02*
X0170428Y0136957D01*
X0166566Y0136801D02*
X0155264Y0136801D01*
X0155264Y0137799D02*
X0166566Y0137799D01*
X0166366Y0138798D02*
X0155264Y0138798D01*
X0155710Y0139796D02*
X0166366Y0139796D01*
X0166366Y0140795D02*
X0156709Y0140795D01*
X0157707Y0141793D02*
X0166366Y0141793D01*
X0166366Y0142792D02*
X0158706Y0142792D01*
X0159704Y0143790D02*
X0166590Y0143790D01*
X0168169Y0145787D02*
X0161701Y0145787D01*
X0160703Y0144789D02*
X0169167Y0144789D01*
X0167170Y0146786D02*
X0162700Y0146786D01*
X0158359Y0151778D02*
X0136199Y0151778D01*
X0135731Y0151310D02*
X0136727Y0152306D01*
X0136727Y0156214D01*
X0135731Y0157210D01*
X0130323Y0157210D01*
X0129327Y0156214D01*
X0129327Y0154095D01*
X0125404Y0150172D01*
X0118504Y0150172D01*
X0117508Y0149177D01*
X0117508Y0148217D01*
X0116617Y0148217D01*
X0116617Y0152523D01*
X0115998Y0153141D01*
X0116117Y0153260D01*
X0116314Y0153602D01*
X0116417Y0153984D01*
X0116417Y0156240D01*
X0112464Y0156240D01*
X0112464Y0157240D01*
X0116417Y0157240D01*
X0116417Y0159497D01*
X0116314Y0159878D01*
X0116117Y0160220D01*
X0115838Y0160499D01*
X0115496Y0160697D01*
X0115114Y0160799D01*
X0112464Y0160799D01*
X0112464Y0157240D01*
X0111464Y0157240D01*
X0111464Y0156240D01*
X0108213Y0156240D01*
X0104176Y0160277D01*
X0104176Y0163704D01*
X0103180Y0164700D01*
X0097441Y0164700D01*
X0096964Y0164223D01*
X0096487Y0164700D01*
X0095817Y0164700D01*
X0095817Y0165648D01*
X0095850Y0165662D01*
X0096743Y0166555D01*
X0097227Y0167723D01*
X0097227Y0168986D01*
X0096743Y0170154D01*
X0095850Y0171047D01*
X0094682Y0171531D01*
X0093419Y0171531D01*
X0092251Y0171047D01*
X0091358Y0170154D01*
X0090874Y0168986D01*
X0090874Y0167723D01*
X0091358Y0166555D01*
X0091417Y0166495D01*
X0091417Y0164700D01*
X0090748Y0164700D01*
X0089752Y0163704D01*
X0089752Y0158359D01*
X0090748Y0157363D01*
X0091117Y0157363D01*
X0091117Y0156861D01*
X0090441Y0156185D01*
X0090441Y0150052D01*
X0091437Y0149056D01*
X0095011Y0149056D01*
X0095311Y0149356D01*
X0095684Y0149256D01*
X0096922Y0149256D01*
X0096922Y0153077D01*
X0097005Y0153077D01*
X0097005Y0149256D01*
X0098244Y0149256D01*
X0098617Y0149356D01*
X0098917Y0149056D01*
X0102491Y0149056D01*
X0103487Y0150052D01*
X0103487Y0154744D01*
X0107311Y0150919D01*
X0107311Y0145997D01*
X0108307Y0145001D01*
X0112687Y0145001D01*
X0114091Y0143597D01*
X0115010Y0143217D01*
X0117508Y0143217D01*
X0117508Y0142256D01*
X0118504Y0141261D01*
X0125424Y0141261D01*
X0126420Y0142256D01*
X0126420Y0144117D01*
X0126603Y0144300D01*
X0126603Y0144300D01*
X0133612Y0151310D01*
X0135731Y0151310D01*
X0136727Y0152777D02*
X0158492Y0152777D01*
X0158692Y0153775D02*
X0136727Y0153775D01*
X0136727Y0154774D02*
X0158692Y0154774D01*
X0157360Y0150780D02*
X0133082Y0150780D01*
X0132084Y0149781D02*
X0156362Y0149781D01*
X0155363Y0148783D02*
X0131085Y0148783D01*
X0130087Y0147784D02*
X0154365Y0147784D01*
X0153366Y0146786D02*
X0129088Y0146786D01*
X0128090Y0145787D02*
X0152368Y0145787D01*
X0151369Y0144789D02*
X0127091Y0144789D01*
X0126420Y0143790D02*
X0139661Y0143790D01*
X0139437Y0142792D02*
X0126420Y0142792D01*
X0125956Y0141793D02*
X0139437Y0141793D01*
X0139437Y0140795D02*
X0103487Y0140795D01*
X0103487Y0141793D02*
X0117971Y0141793D01*
X0117508Y0142792D02*
X0103487Y0142792D01*
X0103487Y0143790D02*
X0113898Y0143790D01*
X0112900Y0144789D02*
X0103487Y0144789D01*
X0103487Y0145787D02*
X0107521Y0145787D01*
X0107311Y0146786D02*
X0102649Y0146786D01*
X0103216Y0149781D02*
X0107311Y0149781D01*
X0107311Y0148783D02*
X0084292Y0148783D01*
X0083294Y0149781D02*
X0090712Y0149781D01*
X0090441Y0150780D02*
X0089236Y0150780D01*
X0089896Y0151778D02*
X0090441Y0151778D01*
X0090441Y0152777D02*
X0090140Y0152777D01*
X0090081Y0153775D02*
X0090441Y0153775D01*
X0090441Y0154774D02*
X0089667Y0154774D01*
X0090441Y0155772D02*
X0088571Y0155772D01*
X0086304Y0156771D02*
X0091027Y0156771D01*
X0090342Y0157769D02*
X0085306Y0157769D01*
X0084307Y0158768D02*
X0089752Y0158768D01*
X0089752Y0159766D02*
X0081763Y0159766D01*
X0084221Y0160765D02*
X0089752Y0160765D01*
X0089752Y0161763D02*
X0084890Y0161763D01*
X0085140Y0162762D02*
X0089752Y0162762D01*
X0089808Y0163760D02*
X0085087Y0163760D01*
X0084673Y0164759D02*
X0091417Y0164759D01*
X0091417Y0165757D02*
X0083607Y0165757D01*
X0081964Y0163000D02*
X0081885Y0163000D01*
X0077413Y0158528D01*
X0077413Y0157117D01*
X0076665Y0156370D01*
X0075255Y0156370D01*
X0074838Y0155953D01*
X0074136Y0160765D02*
X0076539Y0160765D01*
X0077537Y0161763D02*
X0074136Y0161763D01*
X0074136Y0162762D02*
X0078536Y0162762D01*
X0078841Y0163760D02*
X0073367Y0163760D01*
X0070148Y0164759D02*
X0079254Y0164759D01*
X0080320Y0165757D02*
X0070148Y0165757D01*
X0070148Y0166756D02*
X0091274Y0166756D01*
X0090874Y0167754D02*
X0070148Y0167754D01*
X0070148Y0168753D02*
X0090874Y0168753D01*
X0091191Y0169751D02*
X0071000Y0169751D01*
X0071998Y0170750D02*
X0091954Y0170750D01*
X0094050Y0168354D02*
X0093617Y0167921D01*
X0093617Y0161031D01*
X0095817Y0164759D02*
X0112528Y0164759D01*
X0112538Y0163760D02*
X0104119Y0163760D01*
X0104176Y0162762D02*
X0112952Y0162762D01*
X0113866Y0161763D02*
X0104176Y0161763D01*
X0104176Y0160765D02*
X0108685Y0160765D01*
X0108814Y0160799D02*
X0108432Y0160697D01*
X0108090Y0160499D01*
X0107811Y0160220D01*
X0107613Y0159878D01*
X0107511Y0159497D01*
X0107511Y0157240D01*
X0111464Y0157240D01*
X0111464Y0160799D01*
X0108814Y0160799D01*
X0107583Y0159766D02*
X0104687Y0159766D01*
X0105685Y0158768D02*
X0107511Y0158768D01*
X0107511Y0157769D02*
X0106684Y0157769D01*
X0107682Y0156771D02*
X0111464Y0156771D01*
X0111464Y0157769D02*
X0112464Y0157769D01*
X0112464Y0156771D02*
X0117561Y0156771D01*
X0117508Y0157769D02*
X0116417Y0157769D01*
X0116417Y0158768D02*
X0117508Y0158768D01*
X0117508Y0159766D02*
X0116344Y0159766D01*
X0115243Y0160765D02*
X0117508Y0160765D01*
X0115704Y0164417D02*
X0115704Y0179457D01*
X0116964Y0180717D01*
X0108932Y0180717D01*
X0105264Y0180735D02*
X0104569Y0180735D01*
X0104569Y0179737D02*
X0105264Y0179737D01*
X0104569Y0179402D02*
X0105264Y0178708D01*
X0105264Y0183586D01*
X0105882Y0184204D01*
X0105764Y0184323D01*
X0105566Y0184665D01*
X0105464Y0185047D01*
X0105464Y0186925D01*
X0108448Y0186925D01*
X0108448Y0187894D01*
X0108448Y0190071D01*
X0108554Y0190177D01*
X0109038Y0191345D01*
X0109038Y0192608D01*
X0108554Y0193776D01*
X0108061Y0194268D01*
X0108061Y0196508D01*
X0108887Y0195682D01*
X0113612Y0190957D01*
X0113974Y0190957D01*
X0113295Y0190279D01*
X0113295Y0184540D01*
X0113772Y0184063D01*
X0113295Y0183586D01*
X0113295Y0182917D01*
X0112601Y0182917D01*
X0112601Y0183586D01*
X0111982Y0184204D01*
X0112101Y0184323D01*
X0112299Y0184665D01*
X0112401Y0185047D01*
X0112401Y0186925D01*
X0109417Y0186925D01*
X0109417Y0187894D01*
X0112401Y0187894D01*
X0112401Y0189772D01*
X0112299Y0190154D01*
X0112101Y0190496D01*
X0111822Y0190775D01*
X0111480Y0190973D01*
X0111098Y0191075D01*
X0109417Y0191075D01*
X0109417Y0187894D01*
X0108448Y0187894D01*
X0105464Y0187894D01*
X0105464Y0188800D01*
X0105230Y0188800D01*
X0104062Y0189284D01*
X0103169Y0190177D01*
X0102685Y0191345D01*
X0102685Y0192608D01*
X0102787Y0192855D01*
X0099331Y0192855D01*
X0098460Y0193726D01*
X0097589Y0192855D01*
X0092638Y0192855D01*
X0091642Y0193851D01*
X0091642Y0197031D01*
X0091823Y0197213D01*
X0091642Y0197394D01*
X0091642Y0201272D01*
X0089884Y0201272D01*
X0089884Y0200997D01*
X0089059Y0200172D01*
X0089105Y0200145D01*
X0089385Y0199866D01*
X0089582Y0199524D01*
X0089684Y0199142D01*
X0089684Y0197559D01*
X0086799Y0197559D01*
X0086799Y0196787D01*
X0089684Y0196787D01*
X0089684Y0195204D01*
X0089582Y0194823D01*
X0089385Y0194481D01*
X0089105Y0194201D01*
X0089062Y0194176D01*
X0089371Y0194176D01*
X0100147Y0183401D01*
X0103574Y0183401D01*
X0104569Y0182405D01*
X0104569Y0179402D01*
X0105234Y0178738D02*
X0105264Y0178738D01*
X0105264Y0181734D02*
X0104569Y0181734D01*
X0104242Y0182732D02*
X0105264Y0182732D01*
X0105408Y0183731D02*
X0099817Y0183731D01*
X0098818Y0184729D02*
X0105549Y0184729D01*
X0105464Y0185728D02*
X0097820Y0185728D01*
X0096821Y0186726D02*
X0105464Y0186726D01*
X0105464Y0188723D02*
X0094824Y0188723D01*
X0093826Y0189722D02*
X0103624Y0189722D01*
X0102944Y0190720D02*
X0092827Y0190720D01*
X0091829Y0191719D02*
X0102685Y0191719D01*
X0102730Y0192717D02*
X0090830Y0192717D01*
X0091777Y0193716D02*
X0089832Y0193716D01*
X0089519Y0194714D02*
X0091642Y0194714D01*
X0091642Y0195713D02*
X0089684Y0195713D01*
X0089684Y0196711D02*
X0091642Y0196711D01*
X0091642Y0197710D02*
X0089684Y0197710D01*
X0089684Y0198708D02*
X0091642Y0198708D01*
X0091642Y0199707D02*
X0089477Y0199707D01*
X0089593Y0200705D02*
X0091642Y0200705D01*
X0093775Y0203472D02*
X0095113Y0202134D01*
X0093775Y0203472D02*
X0086413Y0203472D01*
X0076649Y0203472D01*
X0066491Y0213630D01*
X0076767Y0223906D01*
X0079090Y0223906D01*
X0089365Y0213630D01*
X0113736Y0213630D01*
X0112532Y0210690D02*
X0072542Y0210690D01*
X0073541Y0209692D02*
X0111765Y0209692D01*
X0111936Y0210937D02*
X0112696Y0210623D01*
X0107598Y0205525D01*
X0107598Y0200375D01*
X0106773Y0201201D01*
X0105278Y0202696D01*
X0105278Y0203724D01*
X0105096Y0203906D01*
X0105278Y0204087D01*
X0105278Y0207267D01*
X0104282Y0208263D01*
X0099331Y0208263D01*
X0098460Y0207392D01*
X0097589Y0208263D01*
X0092638Y0208263D01*
X0091642Y0207267D01*
X0091642Y0205672D01*
X0089884Y0205672D01*
X0089884Y0205948D01*
X0088888Y0206944D01*
X0083937Y0206944D01*
X0082941Y0205948D01*
X0082941Y0205672D01*
X0077560Y0205672D01*
X0069603Y0213630D01*
X0075666Y0219693D01*
X0076031Y0219328D01*
X0078016Y0218506D01*
X0080164Y0218506D01*
X0081023Y0218861D01*
X0088454Y0211430D01*
X0111443Y0211430D01*
X0111936Y0210937D01*
X0110766Y0208693D02*
X0074539Y0208693D01*
X0075538Y0207695D02*
X0092069Y0207695D01*
X0091642Y0206696D02*
X0089136Y0206696D01*
X0089884Y0205698D02*
X0091642Y0205698D01*
X0088195Y0211689D02*
X0071544Y0211689D01*
X0070545Y0212687D02*
X0087197Y0212687D01*
X0086198Y0213686D02*
X0069659Y0213686D01*
X0070657Y0214684D02*
X0085200Y0214684D01*
X0084201Y0215683D02*
X0071656Y0215683D01*
X0072654Y0216681D02*
X0083203Y0216681D01*
X0082204Y0217680D02*
X0073653Y0217680D01*
X0074651Y0218678D02*
X0077598Y0218678D01*
X0075682Y0219677D02*
X0075650Y0219677D01*
X0072423Y0222672D02*
X0049064Y0222672D01*
X0048965Y0223233D02*
X0048965Y0223233D01*
X0049540Y0219969D01*
X0049540Y0219968D01*
X0048965Y0216704D01*
X0048965Y0216704D01*
X0047307Y0213833D01*
X0047307Y0213833D01*
X0044768Y0211702D01*
X0044768Y0211702D01*
X0041653Y0210569D01*
X0039125Y0210569D01*
X0038338Y0210569D01*
X0035223Y0211702D01*
X0035223Y0211702D01*
X0032683Y0213833D01*
X0032683Y0213833D01*
X0031026Y0216704D01*
X0031026Y0216704D01*
X0030450Y0219969D01*
X0031026Y0223233D01*
X0031026Y0223233D01*
X0032683Y0226104D01*
X0035223Y0228235D01*
X0035223Y0228235D01*
X0038338Y0229368D01*
X0041653Y0229368D01*
X0044768Y0228235D01*
X0044768Y0228235D01*
X0047307Y0226104D01*
X0047307Y0226104D01*
X0048965Y0223233D01*
X0048712Y0223671D02*
X0073421Y0223671D01*
X0073690Y0224670D02*
X0048135Y0224670D01*
X0047559Y0225668D02*
X0073975Y0225668D01*
X0074389Y0226667D02*
X0046637Y0226667D01*
X0045447Y0227665D02*
X0075213Y0227665D01*
X0076466Y0228664D02*
X0043590Y0228664D01*
X0036401Y0228664D02*
X0028664Y0228664D01*
X0028664Y0229662D02*
X0190185Y0229662D01*
X0190185Y0228664D02*
X0178590Y0228664D01*
X0179768Y0228235D02*
X0176653Y0229368D01*
X0173338Y0229368D01*
X0170223Y0228235D01*
X0170223Y0228235D01*
X0167683Y0226104D01*
X0166026Y0223233D01*
X0165450Y0219969D01*
X0165450Y0219968D01*
X0166026Y0216704D01*
X0166026Y0216704D01*
X0167683Y0213833D01*
X0170223Y0211702D01*
X0173338Y0210569D01*
X0174125Y0210569D01*
X0176653Y0210569D01*
X0179768Y0211702D01*
X0182307Y0213833D01*
X0182307Y0213833D01*
X0183965Y0216704D01*
X0184540Y0219968D01*
X0183965Y0223233D01*
X0182307Y0226104D01*
X0179768Y0228235D01*
X0179768Y0228235D01*
X0180447Y0227665D02*
X0190185Y0227665D01*
X0190185Y0226667D02*
X0181637Y0226667D01*
X0182307Y0226104D02*
X0182307Y0226104D01*
X0182559Y0225668D02*
X0190185Y0225668D01*
X0190185Y0224670D02*
X0183135Y0224670D01*
X0183712Y0223671D02*
X0190185Y0223671D01*
X0190185Y0222672D02*
X0184064Y0222672D01*
X0184240Y0221674D02*
X0190185Y0221674D01*
X0190185Y0220675D02*
X0184416Y0220675D01*
X0184489Y0219677D02*
X0190185Y0219677D01*
X0190185Y0218678D02*
X0184313Y0218678D01*
X0184137Y0217680D02*
X0190185Y0217680D01*
X0190185Y0216681D02*
X0183952Y0216681D01*
X0183375Y0215683D02*
X0190185Y0215683D01*
X0190185Y0214684D02*
X0182799Y0214684D01*
X0182307Y0213833D02*
X0182307Y0213833D01*
X0182132Y0213686D02*
X0190185Y0213686D01*
X0190185Y0212687D02*
X0180942Y0212687D01*
X0179768Y0211702D02*
X0179768Y0211702D01*
X0179731Y0211689D02*
X0190185Y0211689D01*
X0190185Y0210690D02*
X0176988Y0210690D01*
X0173003Y0210690D02*
X0118986Y0210690D01*
X0117987Y0209692D02*
X0190185Y0209692D01*
X0190185Y0208693D02*
X0142218Y0208693D01*
X0143034Y0207695D02*
X0190185Y0207695D01*
X0190185Y0206696D02*
X0143034Y0206696D01*
X0143034Y0205698D02*
X0190185Y0205698D01*
X0190185Y0204699D02*
X0143034Y0204699D01*
X0143034Y0203701D02*
X0190185Y0203701D01*
X0190185Y0202702D02*
X0143034Y0202702D01*
X0142993Y0201704D02*
X0190185Y0201704D01*
X0190185Y0200705D02*
X0141350Y0200705D01*
X0141320Y0199707D02*
X0190185Y0199707D01*
X0190185Y0198708D02*
X0141290Y0198708D01*
X0141260Y0197710D02*
X0190185Y0197710D01*
X0190185Y0196711D02*
X0141230Y0196711D01*
X0136228Y0196711D02*
X0135711Y0196711D01*
X0136258Y0197710D02*
X0127650Y0197710D01*
X0125547Y0199850D02*
X0131767Y0193630D01*
X0131767Y0193157D01*
X0131267Y0193716D02*
X0132267Y0193716D01*
X0132267Y0194714D02*
X0131267Y0194714D01*
X0131267Y0195713D02*
X0132267Y0195713D01*
X0132267Y0196711D02*
X0131267Y0196711D01*
X0136288Y0198708D02*
X0122606Y0198708D01*
X0122817Y0199707D02*
X0136317Y0199707D01*
X0136347Y0200705D02*
X0123607Y0200705D01*
X0124606Y0201704D02*
X0126683Y0201704D01*
X0124602Y0204811D02*
X0119641Y0199850D01*
X0116676Y0198708D02*
X0112083Y0198708D01*
X0111998Y0199707D02*
X0116465Y0199707D01*
X0116557Y0200705D02*
X0111998Y0200705D01*
X0111998Y0201704D02*
X0117002Y0201704D01*
X0118226Y0202702D02*
X0111998Y0202702D01*
X0111998Y0203701D02*
X0120380Y0203701D01*
X0121379Y0204699D02*
X0112995Y0204699D01*
X0113993Y0205698D02*
X0122377Y0205698D01*
X0123376Y0206696D02*
X0114992Y0206696D01*
X0115990Y0207695D02*
X0126642Y0207695D01*
X0127458Y0208693D02*
X0116989Y0208693D01*
X0119984Y0211689D02*
X0170260Y0211689D01*
X0170223Y0211702D02*
X0170223Y0211702D01*
X0169049Y0212687D02*
X0120983Y0212687D01*
X0121981Y0213686D02*
X0167859Y0213686D01*
X0167683Y0213833D02*
X0167683Y0213833D01*
X0167192Y0214684D02*
X0122980Y0214684D01*
X0123978Y0215683D02*
X0166615Y0215683D01*
X0166039Y0216681D02*
X0124977Y0216681D01*
X0125976Y0217680D02*
X0165854Y0217680D01*
X0165678Y0218678D02*
X0130581Y0218678D01*
X0132498Y0219677D02*
X0165502Y0219677D01*
X0165575Y0220675D02*
X0133497Y0220675D01*
X0134010Y0221674D02*
X0165751Y0221674D01*
X0165927Y0222672D02*
X0134424Y0222672D01*
X0134490Y0223671D02*
X0166279Y0223671D01*
X0166026Y0223233D02*
X0166026Y0223233D01*
X0166855Y0224670D02*
X0134490Y0224670D01*
X0134205Y0225668D02*
X0167432Y0225668D01*
X0167683Y0226104D02*
X0167683Y0226104D01*
X0167683Y0226104D01*
X0168354Y0226667D02*
X0133791Y0226667D01*
X0132967Y0227665D02*
X0169544Y0227665D01*
X0171401Y0228664D02*
X0131714Y0228664D01*
X0126466Y0228664D02*
X0121714Y0228664D01*
X0122967Y0227665D02*
X0125213Y0227665D01*
X0124389Y0226667D02*
X0123791Y0226667D01*
X0129090Y0223906D02*
X0109798Y0204614D01*
X0109798Y0197882D01*
X0114523Y0193157D01*
X0124287Y0193157D01*
X0122712Y0193157D01*
X0117594Y0188039D01*
X0120632Y0184729D02*
X0141699Y0184729D01*
X0144776Y0188723D02*
X0147705Y0188723D01*
X0147097Y0189331D02*
X0148787Y0187641D01*
X0148787Y0187368D01*
X0149271Y0186201D01*
X0150165Y0185307D01*
X0151332Y0184824D01*
X0152140Y0184824D01*
X0151944Y0184484D01*
X0151842Y0184103D01*
X0151842Y0182421D01*
X0161913Y0182421D01*
X0161913Y0181453D01*
X0152047Y0181453D01*
X0150343Y0183156D01*
X0144168Y0189331D01*
X0147097Y0189331D01*
X0145775Y0187725D02*
X0148704Y0187725D01*
X0149053Y0186726D02*
X0146773Y0186726D01*
X0147772Y0185728D02*
X0149744Y0185728D01*
X0148770Y0184729D02*
X0152085Y0184729D01*
X0151842Y0183731D02*
X0149769Y0183731D01*
X0150767Y0182732D02*
X0151842Y0182732D01*
X0151766Y0181734D02*
X0161913Y0181734D01*
X0162881Y0181734D02*
X0190185Y0181734D01*
X0190185Y0182732D02*
X0172952Y0182732D01*
X0172952Y0183731D02*
X0190185Y0183731D01*
X0190185Y0184729D02*
X0172709Y0184729D01*
X0175282Y0186726D02*
X0154874Y0186726D01*
X0155140Y0187725D02*
X0174476Y0187725D01*
X0174476Y0188723D02*
X0155102Y0188723D01*
X0154689Y0189722D02*
X0174476Y0189722D01*
X0174476Y0190720D02*
X0153697Y0190720D01*
X0151781Y0191719D02*
X0174476Y0191719D01*
X0174476Y0192717D02*
X0150782Y0192717D01*
X0149784Y0193716D02*
X0174476Y0193716D01*
X0174476Y0194714D02*
X0149176Y0194714D01*
X0149136Y0195713D02*
X0174950Y0195713D01*
X0172952Y0181453D02*
X0162881Y0181453D01*
X0162881Y0178469D01*
X0171650Y0178469D01*
X0172031Y0178571D01*
X0172373Y0178768D01*
X0172652Y0179047D01*
X0172850Y0179390D01*
X0172952Y0179771D01*
X0172952Y0181453D01*
X0172952Y0180735D02*
X0190185Y0180735D01*
X0190185Y0179737D02*
X0172943Y0179737D01*
X0172321Y0178738D02*
X0190185Y0178738D01*
X0190185Y0177739D02*
X0155760Y0177739D01*
X0151642Y0174744D02*
X0147243Y0174744D01*
X0146245Y0173745D02*
X0151642Y0173745D01*
X0151642Y0172747D02*
X0145246Y0172747D01*
X0149117Y0169751D02*
X0138976Y0169751D01*
X0138976Y0168753D02*
X0148118Y0168753D01*
X0147120Y0167754D02*
X0135795Y0167754D01*
X0135795Y0168753D02*
X0134826Y0168753D01*
X0134826Y0169751D02*
X0135795Y0169751D01*
X0135795Y0170750D02*
X0134826Y0170750D01*
X0133745Y0171748D02*
X0130183Y0171748D01*
X0130908Y0172747D02*
X0133020Y0172747D01*
X0133020Y0173745D02*
X0130908Y0173745D01*
X0130908Y0174744D02*
X0133020Y0174744D01*
X0133020Y0175742D02*
X0130908Y0175742D01*
X0130213Y0176741D02*
X0133220Y0176741D01*
X0133220Y0177739D02*
X0125239Y0177739D01*
X0126237Y0178738D02*
X0133220Y0178738D01*
X0133237Y0179737D02*
X0130691Y0179737D01*
X0130908Y0180735D02*
X0133020Y0180735D01*
X0133020Y0181734D02*
X0130908Y0181734D01*
X0130908Y0182732D02*
X0133020Y0182732D01*
X0133224Y0183731D02*
X0130704Y0183731D01*
X0137124Y0178041D02*
X0140945Y0178041D01*
X0140945Y0179240D01*
X0144039Y0179240D01*
X0143787Y0178632D01*
X0143787Y0178359D01*
X0142188Y0176760D01*
X0140945Y0176760D01*
X0140945Y0177959D01*
X0137124Y0177959D01*
X0137124Y0178041D01*
X0140945Y0177739D02*
X0143168Y0177739D01*
X0143831Y0178738D02*
X0140945Y0178738D01*
X0140420Y0171748D02*
X0151114Y0171748D01*
X0150115Y0170750D02*
X0138757Y0170750D01*
X0138976Y0166756D02*
X0146121Y0166756D01*
X0145123Y0165757D02*
X0138955Y0165757D01*
X0138271Y0164759D02*
X0144124Y0164759D01*
X0143126Y0163760D02*
X0136661Y0163760D01*
X0136727Y0162762D02*
X0142127Y0162762D01*
X0141129Y0161763D02*
X0136727Y0161763D01*
X0136727Y0160765D02*
X0138011Y0160765D01*
X0137201Y0159766D02*
X0136707Y0159766D01*
X0137201Y0158768D02*
X0126420Y0158768D01*
X0126420Y0157769D02*
X0137201Y0157769D01*
X0137201Y0156771D02*
X0136170Y0156771D01*
X0136727Y0155772D02*
X0137474Y0155772D01*
X0129884Y0156771D02*
X0126367Y0156771D01*
X0129327Y0155772D02*
X0116417Y0155772D01*
X0116417Y0154774D02*
X0129327Y0154774D01*
X0129007Y0153775D02*
X0116361Y0153775D01*
X0116363Y0152777D02*
X0128008Y0152777D01*
X0127010Y0151778D02*
X0116617Y0151778D01*
X0116617Y0150780D02*
X0126011Y0150780D01*
X0118113Y0149781D02*
X0116617Y0149781D01*
X0116617Y0148783D02*
X0117508Y0148783D01*
X0112161Y0149063D02*
X0112161Y0149181D01*
X0100310Y0161031D01*
X0098204Y0157363D02*
X0098204Y0156981D01*
X0097005Y0156981D01*
X0097005Y0153160D01*
X0096922Y0153160D01*
X0096922Y0156981D01*
X0096117Y0156981D01*
X0096117Y0157363D01*
X0096487Y0157363D01*
X0096964Y0157840D01*
X0097441Y0157363D01*
X0098204Y0157363D01*
X0097035Y0157769D02*
X0096893Y0157769D01*
X0096922Y0156771D02*
X0097005Y0156771D01*
X0097005Y0155772D02*
X0096922Y0155772D01*
X0096922Y0154774D02*
X0097005Y0154774D01*
X0097005Y0153775D02*
X0096922Y0153775D01*
X0096922Y0152777D02*
X0097005Y0152777D01*
X0097005Y0151778D02*
X0096922Y0151778D01*
X0096922Y0150780D02*
X0097005Y0150780D01*
X0097005Y0149781D02*
X0096922Y0149781D01*
X0095169Y0146786D02*
X0098759Y0146786D01*
X0097921Y0145787D02*
X0096006Y0145787D01*
X0096006Y0144789D02*
X0097921Y0144789D01*
X0097921Y0143790D02*
X0096006Y0143790D01*
X0096006Y0142792D02*
X0097079Y0142792D01*
X0096080Y0141793D02*
X0096006Y0141793D01*
X0093085Y0138798D02*
X0090072Y0138798D01*
X0090140Y0137799D02*
X0092086Y0137799D01*
X0091328Y0136801D02*
X0089905Y0136801D01*
X0089881Y0135802D02*
X0089258Y0135802D01*
X0089752Y0134803D02*
X0086334Y0134803D01*
X0086417Y0133805D02*
X0089752Y0133805D01*
X0089752Y0132806D02*
X0086417Y0132806D01*
X0086964Y0131740D02*
X0090452Y0135228D01*
X0090452Y0145393D01*
X0090841Y0145782D01*
X0090441Y0145787D02*
X0087288Y0145787D01*
X0088287Y0144789D02*
X0090441Y0144789D01*
X0090441Y0143790D02*
X0089164Y0143790D01*
X0089164Y0142792D02*
X0090441Y0142792D01*
X0090441Y0141793D02*
X0089164Y0141793D01*
X0089164Y0140795D02*
X0090441Y0140795D01*
X0090460Y0139796D02*
X0089658Y0139796D01*
X0086964Y0138000D02*
X0086964Y0143000D01*
X0079917Y0150047D01*
X0074838Y0150047D01*
X0074838Y0148079D02*
X0073217Y0148079D01*
X0073217Y0147173D01*
X0073436Y0146954D01*
X0073436Y0143298D01*
X0072689Y0142551D01*
X0067689Y0142551D01*
X0066878Y0141740D01*
X0060524Y0141740D01*
X0063732Y0138532D01*
X0063732Y0138004D01*
X0065389Y0136346D01*
X0069839Y0133575D02*
X0056586Y0133575D01*
X0055901Y0134260D01*
X0052429Y0133805D02*
X0043364Y0133805D01*
X0043364Y0134803D02*
X0045079Y0134803D01*
X0045157Y0134725D02*
X0050109Y0134725D01*
X0051105Y0135721D01*
X0051105Y0140279D01*
X0050109Y0141275D01*
X0049833Y0141275D01*
X0049833Y0142758D01*
X0051899Y0144824D01*
X0052596Y0144824D01*
X0053763Y0145307D01*
X0054657Y0146201D01*
X0055140Y0147368D01*
X0055140Y0148632D01*
X0054657Y0149799D01*
X0053763Y0150693D01*
X0052596Y0151176D01*
X0052086Y0151176D01*
X0052086Y0153248D01*
X0048527Y0153248D01*
X0048527Y0154248D01*
X0052086Y0154248D01*
X0052086Y0155335D01*
X0053344Y0155335D01*
X0054511Y0155819D01*
X0054607Y0155914D01*
X0055815Y0154706D01*
X0055815Y0146985D01*
X0056972Y0145828D01*
X0059791Y0145828D01*
X0059791Y0143940D01*
X0059373Y0143940D01*
X0059373Y0144019D01*
X0058377Y0145015D01*
X0053425Y0145015D01*
X0052429Y0144019D01*
X0052429Y0139461D01*
X0053425Y0138465D01*
X0058377Y0138465D01*
X0059373Y0139461D01*
X0059373Y0139540D01*
X0059612Y0139540D01*
X0059795Y0139357D01*
X0059260Y0138822D01*
X0059260Y0136651D01*
X0058377Y0137535D01*
X0053425Y0137535D01*
X0052429Y0136539D01*
X0052429Y0131981D01*
X0053425Y0130985D01*
X0058377Y0130985D01*
X0058766Y0131375D01*
X0059260Y0131375D01*
X0059260Y0127178D01*
X0060256Y0126182D01*
X0063189Y0126182D01*
X0063189Y0125015D01*
X0058425Y0125015D01*
X0057429Y0124019D01*
X0057429Y0119461D01*
X0058425Y0118465D01*
X0061064Y0118465D01*
X0061806Y0117724D01*
X0061253Y0117724D01*
X0061064Y0117535D01*
X0058425Y0117535D01*
X0057429Y0116539D01*
X0057429Y0111981D01*
X0058425Y0110985D01*
X0060870Y0110985D01*
X0060165Y0110693D01*
X0059672Y0110200D01*
X0057875Y0110200D01*
X0054833Y0113242D01*
X0054833Y0114725D01*
X0055109Y0114725D01*
X0056105Y0115721D01*
X0056105Y0120279D01*
X0055109Y0121275D01*
X0050157Y0121275D01*
X0049161Y0120279D01*
X0049161Y0116035D01*
X0041864Y0123333D01*
X0041864Y0125963D01*
X0042238Y0125808D01*
X0043501Y0125808D01*
X0044669Y0126291D01*
X0045562Y0127185D01*
X0046046Y0128352D01*
X0046046Y0129616D01*
X0045562Y0130784D01*
X0044669Y0131677D01*
X0043501Y0132161D01*
X0043364Y0132161D01*
X0043364Y0143479D01*
X0042747Y0144097D01*
X0042747Y0149095D01*
X0043810Y0149095D01*
X0044428Y0149714D01*
X0044547Y0149595D01*
X0044889Y0149398D01*
X0045270Y0149295D01*
X0047527Y0149295D01*
X0047527Y0153248D01*
X0048527Y0153248D01*
X0048527Y0149295D01*
X0049062Y0149295D01*
X0048787Y0148632D01*
X0048787Y0147935D01*
X0045433Y0144581D01*
X0045433Y0141275D01*
X0045157Y0141275D01*
X0044161Y0140279D01*
X0044161Y0135721D01*
X0045157Y0134725D01*
X0044161Y0135802D02*
X0043364Y0135802D01*
X0043364Y0136801D02*
X0044161Y0136801D01*
X0044161Y0137799D02*
X0043364Y0137799D01*
X0043364Y0138798D02*
X0044161Y0138798D01*
X0044161Y0139796D02*
X0043364Y0139796D01*
X0043364Y0140795D02*
X0044677Y0140795D01*
X0045433Y0141793D02*
X0043364Y0141793D01*
X0043364Y0142792D02*
X0045433Y0142792D01*
X0044861Y0143019D02*
X0048027Y0146184D01*
X0048027Y0153748D01*
X0048527Y0153775D02*
X0055815Y0153775D01*
X0055815Y0152777D02*
X0052086Y0152777D01*
X0052086Y0151778D02*
X0055815Y0151778D01*
X0055815Y0150780D02*
X0053553Y0150780D01*
X0054664Y0149781D02*
X0055815Y0149781D01*
X0055815Y0148783D02*
X0055078Y0148783D01*
X0055140Y0147784D02*
X0055815Y0147784D01*
X0056014Y0146786D02*
X0054899Y0146786D01*
X0054243Y0145787D02*
X0059791Y0145787D01*
X0059791Y0144789D02*
X0058603Y0144789D01*
X0060524Y0141740D02*
X0055901Y0141740D01*
X0052429Y0141793D02*
X0049833Y0141793D01*
X0049867Y0142792D02*
X0052429Y0142792D01*
X0052429Y0143790D02*
X0050865Y0143790D01*
X0051864Y0144789D02*
X0053199Y0144789D01*
X0051964Y0148000D02*
X0047633Y0143669D01*
X0047633Y0138000D01*
X0051105Y0137799D02*
X0059260Y0137799D01*
X0059260Y0136801D02*
X0059111Y0136801D01*
X0059260Y0138798D02*
X0058709Y0138798D01*
X0053093Y0138798D02*
X0051105Y0138798D01*
X0051105Y0139796D02*
X0052429Y0139796D01*
X0052429Y0140795D02*
X0050589Y0140795D01*
X0051105Y0136801D02*
X0052691Y0136801D01*
X0052429Y0135802D02*
X0051105Y0135802D01*
X0050187Y0134803D02*
X0052429Y0134803D01*
X0052429Y0132806D02*
X0043364Y0132806D01*
X0044353Y0131808D02*
X0052602Y0131808D01*
X0059260Y0130809D02*
X0045536Y0130809D01*
X0044861Y0130929D02*
X0058129Y0117661D01*
X0058129Y0112271D01*
X0058715Y0111685D01*
X0064106Y0111685D01*
X0066491Y0109299D01*
X0070717Y0109299D01*
X0078011Y0116593D01*
X0078011Y0127233D01*
X0082692Y0131914D01*
X0082692Y0132469D01*
X0082464Y0132240D02*
X0081464Y0132240D01*
X0081464Y0131240D01*
X0077511Y0131240D01*
X0077511Y0128984D01*
X0077613Y0128602D01*
X0077811Y0128260D01*
X0077929Y0128141D01*
X0077311Y0127523D01*
X0077311Y0120997D01*
X0078307Y0120001D01*
X0079464Y0120001D01*
X0079464Y0119036D01*
X0075548Y0115119D01*
X0075548Y0115119D01*
X0074844Y0114416D01*
X0066605Y0106176D01*
X0066332Y0106176D01*
X0065165Y0105693D01*
X0064271Y0104799D01*
X0063856Y0103797D01*
X0063454Y0104200D01*
X0060996Y0104200D01*
X0059396Y0105800D01*
X0059672Y0105800D01*
X0060165Y0105307D01*
X0061332Y0104824D01*
X0062596Y0104824D01*
X0063763Y0105307D01*
X0064657Y0106201D01*
X0065140Y0107368D01*
X0065140Y0108632D01*
X0064657Y0109799D01*
X0063763Y0110693D01*
X0063058Y0110985D01*
X0063377Y0110985D01*
X0064373Y0111981D01*
X0064373Y0113324D01*
X0068901Y0113324D01*
X0070190Y0114612D01*
X0070190Y0114612D01*
X0070352Y0114774D01*
X0071640Y0116063D01*
X0071640Y0119824D01*
X0072596Y0119824D01*
X0073763Y0120307D01*
X0074657Y0121201D01*
X0075140Y0122368D01*
X0075140Y0123632D01*
X0074657Y0124799D01*
X0074164Y0125292D01*
X0074164Y0126674D01*
X0074668Y0127178D01*
X0074668Y0129128D01*
X0077780Y0132240D01*
X0081464Y0132240D01*
X0081464Y0135799D01*
X0081339Y0135799D01*
X0082875Y0137335D01*
X0083787Y0138248D01*
X0083787Y0137368D01*
X0084271Y0136201D01*
X0084673Y0135799D01*
X0082464Y0135799D01*
X0082464Y0132240D01*
X0082464Y0131808D02*
X0088890Y0131808D01*
X0087891Y0130809D02*
X0086417Y0130809D01*
X0086417Y0129811D02*
X0086893Y0129811D01*
X0086964Y0131740D02*
X0081964Y0131740D01*
X0081464Y0131808D02*
X0077348Y0131808D01*
X0077511Y0130809D02*
X0076349Y0130809D01*
X0075351Y0129811D02*
X0077511Y0129811D01*
X0077557Y0128812D02*
X0074668Y0128812D01*
X0074668Y0127814D02*
X0077602Y0127814D01*
X0077311Y0126815D02*
X0074305Y0126815D01*
X0074164Y0125817D02*
X0077311Y0125817D01*
X0077311Y0124818D02*
X0074638Y0124818D01*
X0075062Y0123820D02*
X0077311Y0123820D01*
X0077311Y0122821D02*
X0075140Y0122821D01*
X0074914Y0121823D02*
X0077311Y0121823D01*
X0077483Y0120824D02*
X0074280Y0120824D01*
X0072601Y0119826D02*
X0079464Y0119826D01*
X0079256Y0118827D02*
X0071640Y0118827D01*
X0071640Y0117829D02*
X0078257Y0117829D01*
X0077259Y0116830D02*
X0071640Y0116830D01*
X0071409Y0115832D02*
X0076260Y0115832D01*
X0075262Y0114833D02*
X0070411Y0114833D01*
X0069412Y0113835D02*
X0074263Y0113835D01*
X0073265Y0112836D02*
X0064373Y0112836D01*
X0064229Y0111838D02*
X0072266Y0111838D01*
X0071268Y0110839D02*
X0063410Y0110839D01*
X0064615Y0109841D02*
X0070269Y0109841D01*
X0069271Y0108842D02*
X0065053Y0108842D01*
X0065140Y0107844D02*
X0068272Y0107844D01*
X0067273Y0106845D02*
X0064924Y0106845D01*
X0065536Y0105847D02*
X0064303Y0105847D01*
X0064320Y0104848D02*
X0062655Y0104848D01*
X0061273Y0104848D02*
X0060348Y0104848D01*
X0060085Y0102000D02*
X0039664Y0122421D01*
X0039664Y0141947D01*
X0031964Y0149647D01*
X0031964Y0153000D01*
X0034561Y0157769D02*
X0036652Y0157769D01*
X0036287Y0156771D02*
X0035830Y0156771D01*
X0038701Y0158768D02*
X0028664Y0158768D01*
X0028664Y0159766D02*
X0039044Y0159766D01*
X0040043Y0160765D02*
X0028664Y0160765D01*
X0028664Y0161763D02*
X0041041Y0161763D01*
X0042040Y0162762D02*
X0038697Y0162762D01*
X0039648Y0163760D02*
X0043038Y0163760D01*
X0044838Y0162449D02*
X0040901Y0158512D01*
X0040901Y0154102D01*
X0040547Y0153748D01*
X0040547Y0143185D01*
X0041164Y0142568D01*
X0041164Y0130690D01*
X0042869Y0128984D01*
X0044861Y0130929D02*
X0044861Y0143019D01*
X0045433Y0143790D02*
X0043053Y0143790D01*
X0042747Y0144789D02*
X0045641Y0144789D01*
X0046640Y0145787D02*
X0042747Y0145787D01*
X0042747Y0146786D02*
X0047638Y0146786D01*
X0048637Y0147784D02*
X0042747Y0147784D01*
X0042747Y0148783D02*
X0048850Y0148783D01*
X0048527Y0149781D02*
X0047527Y0149781D01*
X0047527Y0150780D02*
X0048527Y0150780D01*
X0048527Y0151778D02*
X0047527Y0151778D01*
X0047527Y0152777D02*
X0048527Y0152777D01*
X0048527Y0154248D02*
X0047527Y0154248D01*
X0047527Y0158201D01*
X0045270Y0158201D01*
X0044889Y0158099D01*
X0044547Y0157901D01*
X0044428Y0157782D01*
X0043855Y0158355D01*
X0045749Y0160249D01*
X0049993Y0160249D01*
X0049536Y0159144D01*
X0049536Y0158201D01*
X0048527Y0158201D01*
X0048527Y0154248D01*
X0048527Y0154774D02*
X0047527Y0154774D01*
X0047527Y0155772D02*
X0048527Y0155772D01*
X0048527Y0156771D02*
X0047527Y0156771D01*
X0047527Y0157769D02*
X0048527Y0157769D01*
X0049536Y0158768D02*
X0044268Y0158768D01*
X0045267Y0159766D02*
X0049793Y0159766D01*
X0048059Y0164759D02*
X0039648Y0164759D01*
X0039648Y0165757D02*
X0048059Y0165757D01*
X0048059Y0166756D02*
X0039648Y0166756D01*
X0039648Y0167754D02*
X0048059Y0167754D01*
X0048059Y0168753D02*
X0039648Y0168753D01*
X0039648Y0169751D02*
X0048059Y0169751D01*
X0048059Y0170750D02*
X0039648Y0170750D01*
X0039648Y0171748D02*
X0048059Y0171748D01*
X0048059Y0172747D02*
X0039648Y0172747D01*
X0038898Y0173745D02*
X0048809Y0173745D01*
X0047781Y0175443D02*
X0046804Y0174466D01*
X0045528Y0173938D01*
X0044147Y0173938D01*
X0042871Y0174466D01*
X0041895Y0175443D01*
X0041366Y0176719D01*
X0041366Y0178100D01*
X0041895Y0179376D01*
X0042871Y0180353D01*
X0044147Y0180881D01*
X0045528Y0180881D01*
X0046804Y0180353D01*
X0047781Y0179376D01*
X0048310Y0178100D01*
X0048310Y0176719D01*
X0047781Y0175443D01*
X0047905Y0175742D02*
X0068647Y0175742D01*
X0067648Y0174744D02*
X0047082Y0174744D01*
X0048310Y0176741D02*
X0069645Y0176741D01*
X0070644Y0177739D02*
X0060675Y0177739D01*
X0060802Y0177866D02*
X0060999Y0178208D01*
X0061102Y0178590D01*
X0061102Y0179772D01*
X0061102Y0180953D01*
X0061085Y0181016D01*
X0061302Y0181233D01*
X0061302Y0181734D02*
X0071577Y0181734D01*
X0071189Y0180735D02*
X0061102Y0180735D01*
X0061102Y0179772D02*
X0054681Y0179772D01*
X0054681Y0179772D01*
X0061102Y0179772D01*
X0061102Y0179737D02*
X0071189Y0179737D01*
X0071519Y0178738D02*
X0061102Y0178738D01*
X0060802Y0177866D02*
X0060523Y0177587D01*
X0060181Y0177390D01*
X0059799Y0177287D01*
X0054680Y0177287D01*
X0054680Y0179772D01*
X0054680Y0179772D01*
X0054680Y0179737D02*
X0054680Y0179737D01*
X0054680Y0178738D02*
X0054680Y0178738D01*
X0054680Y0177739D02*
X0054680Y0177739D01*
X0048686Y0177739D02*
X0048310Y0177739D01*
X0048259Y0178738D02*
X0048045Y0178738D01*
X0048259Y0179737D02*
X0047420Y0179737D01*
X0048259Y0180735D02*
X0045881Y0180735D01*
X0043795Y0180735D02*
X0028664Y0180735D01*
X0028664Y0179737D02*
X0042255Y0179737D01*
X0041630Y0178738D02*
X0028664Y0178738D01*
X0028664Y0177739D02*
X0041366Y0177739D01*
X0041366Y0176741D02*
X0028664Y0176741D01*
X0028664Y0175742D02*
X0041771Y0175742D01*
X0042594Y0174744D02*
X0028664Y0174744D01*
X0028664Y0181734D02*
X0048059Y0181734D01*
X0048059Y0182732D02*
X0028664Y0182732D01*
X0028664Y0183731D02*
X0048059Y0183731D01*
X0048059Y0184729D02*
X0028664Y0184729D01*
X0028664Y0185728D02*
X0048059Y0185728D01*
X0048059Y0186726D02*
X0028664Y0186726D01*
X0028664Y0187725D02*
X0048059Y0187725D01*
X0048059Y0188723D02*
X0028664Y0188723D01*
X0028664Y0189722D02*
X0048059Y0189722D01*
X0048059Y0190720D02*
X0028664Y0190720D01*
X0028664Y0191719D02*
X0043042Y0191719D01*
X0041943Y0192717D02*
X0028664Y0192717D01*
X0028664Y0193716D02*
X0041501Y0193716D01*
X0041366Y0194714D02*
X0028664Y0194714D01*
X0028664Y0195713D02*
X0041486Y0195713D01*
X0041907Y0196711D02*
X0028664Y0196711D01*
X0028664Y0197710D02*
X0042954Y0197710D01*
X0046722Y0197710D02*
X0059873Y0197710D01*
X0059873Y0195713D02*
X0048189Y0195713D01*
X0048310Y0194714D02*
X0048715Y0194714D01*
X0048059Y0192717D02*
X0047732Y0192717D01*
X0048059Y0191719D02*
X0046634Y0191719D01*
X0047769Y0196711D02*
X0062857Y0196711D01*
X0063342Y0196465D02*
X0069562Y0196465D01*
X0070271Y0197173D01*
X0086413Y0197173D01*
X0096176Y0187409D01*
X0108932Y0187409D01*
X0108932Y0196627D01*
X0108298Y0197261D01*
X0108298Y0206616D01*
X0109603Y0207920D01*
X0109768Y0207695D02*
X0104850Y0207695D01*
X0105278Y0206696D02*
X0108769Y0206696D01*
X0107771Y0205698D02*
X0105278Y0205698D01*
X0105278Y0204699D02*
X0107598Y0204699D01*
X0107598Y0203701D02*
X0105278Y0203701D01*
X0105278Y0202702D02*
X0107598Y0202702D01*
X0107598Y0201704D02*
X0106270Y0201704D01*
X0107268Y0200705D02*
X0107598Y0200705D01*
X0105861Y0199001D02*
X0105861Y0191976D01*
X0108779Y0190720D02*
X0109417Y0190720D01*
X0109417Y0189722D02*
X0108448Y0189722D01*
X0108448Y0188723D02*
X0109417Y0188723D01*
X0109417Y0187725D02*
X0113295Y0187725D01*
X0113295Y0188723D02*
X0112401Y0188723D01*
X0112401Y0189722D02*
X0113295Y0189722D01*
X0113737Y0190720D02*
X0111877Y0190720D01*
X0112850Y0191719D02*
X0109038Y0191719D01*
X0108993Y0192717D02*
X0111852Y0192717D01*
X0110853Y0193716D02*
X0108579Y0193716D01*
X0108061Y0194714D02*
X0109855Y0194714D01*
X0108856Y0195713D02*
X0108061Y0195713D01*
X0105861Y0199001D02*
X0103992Y0200870D01*
X0103070Y0200870D01*
X0101806Y0202134D01*
X0098762Y0207695D02*
X0098157Y0207695D01*
X0098590Y0218720D02*
X0098590Y0223405D01*
X0099590Y0223405D01*
X0099590Y0218720D01*
X0100308Y0218834D01*
X0101086Y0219086D01*
X0101815Y0219458D01*
X0102477Y0219939D01*
X0103056Y0220518D01*
X0103537Y0221180D01*
X0103909Y0221909D01*
X0103980Y0222130D01*
X0104512Y0220847D01*
X0106031Y0219328D01*
X0108016Y0218506D01*
X0110164Y0218506D01*
X0112149Y0219328D01*
X0113668Y0220847D01*
X0114090Y0221866D01*
X0114512Y0220847D01*
X0116031Y0219328D01*
X0118016Y0218506D01*
X0120164Y0218506D01*
X0120872Y0218799D01*
X0116743Y0214670D01*
X0116428Y0215429D01*
X0115535Y0216323D01*
X0114367Y0216806D01*
X0113104Y0216806D01*
X0111936Y0216323D01*
X0111443Y0215830D01*
X0090277Y0215830D01*
X0087308Y0218799D01*
X0088016Y0218506D01*
X0090164Y0218506D01*
X0092149Y0219328D01*
X0093668Y0220847D01*
X0094199Y0222130D01*
X0094271Y0221909D01*
X0094642Y0221180D01*
X0095123Y0220518D01*
X0095702Y0219939D01*
X0096364Y0219458D01*
X0097094Y0219086D01*
X0097872Y0218834D01*
X0098590Y0218720D01*
X0098590Y0219677D02*
X0099590Y0219677D01*
X0099590Y0220675D02*
X0098590Y0220675D01*
X0098590Y0221674D02*
X0099590Y0221674D01*
X0099590Y0222672D02*
X0098590Y0222672D01*
X0098590Y0224670D02*
X0099590Y0224670D01*
X0099590Y0225668D02*
X0098590Y0225668D01*
X0098590Y0226667D02*
X0099590Y0226667D01*
X0099590Y0227665D02*
X0098590Y0227665D01*
X0098590Y0228664D02*
X0099590Y0228664D01*
X0101206Y0228664D02*
X0106466Y0228664D01*
X0105213Y0227665D02*
X0102684Y0227665D01*
X0103511Y0226667D02*
X0104389Y0226667D01*
X0104169Y0221674D02*
X0103789Y0221674D01*
X0103171Y0220675D02*
X0104683Y0220675D01*
X0105682Y0219677D02*
X0102116Y0219677D01*
X0096063Y0219677D02*
X0092498Y0219677D01*
X0093497Y0220675D02*
X0095009Y0220675D01*
X0094391Y0221674D02*
X0094010Y0221674D01*
X0090581Y0218678D02*
X0107598Y0218678D01*
X0110581Y0218678D02*
X0117598Y0218678D01*
X0115682Y0219677D02*
X0112498Y0219677D01*
X0113497Y0220675D02*
X0114683Y0220675D01*
X0114169Y0221674D02*
X0114010Y0221674D01*
X0114669Y0216681D02*
X0118754Y0216681D01*
X0117756Y0215683D02*
X0116175Y0215683D01*
X0116737Y0214684D02*
X0116757Y0214684D01*
X0119753Y0217680D02*
X0088427Y0217680D01*
X0087598Y0218678D02*
X0087428Y0218678D01*
X0089425Y0216681D02*
X0112802Y0216681D01*
X0120581Y0218678D02*
X0120752Y0218678D01*
X0126974Y0218678D02*
X0127598Y0218678D01*
X0133950Y0208693D02*
X0135725Y0208693D01*
X0134910Y0207695D02*
X0134766Y0207695D01*
X0134766Y0206696D02*
X0134910Y0206696D01*
X0134910Y0205698D02*
X0134766Y0205698D01*
X0134766Y0204699D02*
X0134910Y0204699D01*
X0134910Y0203701D02*
X0134766Y0203701D01*
X0134766Y0202702D02*
X0134910Y0202702D01*
X0134950Y0201704D02*
X0134725Y0201704D01*
X0130704Y0204811D02*
X0124602Y0204811D01*
X0118919Y0196711D02*
X0114080Y0196711D01*
X0113082Y0197710D02*
X0117290Y0197710D01*
X0115079Y0195713D02*
X0120028Y0195713D01*
X0113295Y0186726D02*
X0112401Y0186726D01*
X0112401Y0185728D02*
X0113295Y0185728D01*
X0113295Y0184729D02*
X0112316Y0184729D01*
X0112456Y0183731D02*
X0113440Y0183731D01*
X0108448Y0187725D02*
X0095823Y0187725D01*
X0092596Y0184729D02*
X0078818Y0184729D01*
X0077820Y0185728D02*
X0091597Y0185728D01*
X0090599Y0186726D02*
X0076821Y0186726D01*
X0076565Y0186982D02*
X0076565Y0186982D01*
X0075823Y0187725D02*
X0089600Y0187725D01*
X0088602Y0188723D02*
X0071636Y0188723D01*
X0071412Y0189722D02*
X0076065Y0189722D01*
X0078302Y0191976D02*
X0088460Y0191976D01*
X0100901Y0179535D01*
X0097624Y0175742D02*
X0076991Y0175742D01*
X0075992Y0174744D02*
X0097432Y0174744D01*
X0097432Y0173745D02*
X0074994Y0173745D01*
X0073995Y0172747D02*
X0100417Y0172747D01*
X0100417Y0172358D02*
X0097432Y0172358D01*
X0097432Y0170480D01*
X0097535Y0170098D01*
X0097732Y0169756D01*
X0098011Y0169477D01*
X0098353Y0169279D01*
X0098735Y0169177D01*
X0100417Y0169177D01*
X0100417Y0172358D01*
X0100417Y0171748D02*
X0101385Y0171748D01*
X0101385Y0170750D02*
X0100417Y0170750D01*
X0100417Y0169751D02*
X0101385Y0169751D01*
X0104065Y0169751D02*
X0109815Y0169751D01*
X0106151Y0170750D02*
X0104369Y0170750D01*
X0104369Y0171748D02*
X0105152Y0171748D01*
X0104154Y0172747D02*
X0101385Y0172747D01*
X0097432Y0171748D02*
X0072997Y0171748D01*
X0067948Y0169811D02*
X0078302Y0180165D01*
X0078302Y0182134D01*
X0074365Y0186071D01*
X0054680Y0186071D01*
X0054680Y0189220D02*
X0057322Y0188547D01*
X0068460Y0188547D01*
X0067247Y0194570D02*
X0066810Y0194570D01*
X0066810Y0195980D01*
X0063826Y0195980D01*
X0063826Y0196949D01*
X0066810Y0196949D01*
X0066810Y0198827D01*
X0066708Y0199209D01*
X0066511Y0199551D01*
X0066392Y0199670D01*
X0067010Y0200288D01*
X0067010Y0200786D01*
X0067624Y0200172D01*
X0067578Y0200145D01*
X0067299Y0199866D01*
X0067102Y0199524D01*
X0066999Y0199142D01*
X0066999Y0197559D01*
X0069885Y0197559D01*
X0069885Y0196787D01*
X0066999Y0196787D01*
X0066999Y0195204D01*
X0067102Y0194823D01*
X0067247Y0194570D01*
X0067164Y0194714D02*
X0066810Y0194714D01*
X0066810Y0195713D02*
X0066999Y0195713D01*
X0066999Y0196711D02*
X0063826Y0196711D01*
X0066810Y0197710D02*
X0066999Y0197710D01*
X0066999Y0198708D02*
X0066810Y0198708D01*
X0066429Y0199707D02*
X0067207Y0199707D01*
X0067091Y0200705D02*
X0067010Y0200705D01*
X0069956Y0203157D02*
X0063342Y0203157D01*
X0066341Y0206696D02*
X0067547Y0206696D01*
X0069315Y0207695D02*
X0061302Y0207695D01*
X0061037Y0208693D02*
X0068317Y0208693D01*
X0067318Y0209692D02*
X0028664Y0209692D01*
X0028664Y0210690D02*
X0038003Y0210690D01*
X0039383Y0208693D02*
X0048324Y0208693D01*
X0048059Y0207695D02*
X0039648Y0207695D01*
X0039648Y0206696D02*
X0048059Y0206696D01*
X0048059Y0205698D02*
X0039648Y0205698D01*
X0039648Y0204699D02*
X0048059Y0204699D01*
X0048059Y0203701D02*
X0039648Y0203701D01*
X0039648Y0202702D02*
X0048059Y0202702D01*
X0048059Y0201704D02*
X0039648Y0201704D01*
X0039648Y0200705D02*
X0048059Y0200705D01*
X0048059Y0199707D02*
X0039648Y0199707D01*
X0039210Y0198708D02*
X0048497Y0198708D01*
X0054680Y0192370D02*
X0077909Y0192370D01*
X0078302Y0191976D01*
X0080540Y0189722D02*
X0087603Y0189722D01*
X0083763Y0194176D02*
X0080595Y0194176D01*
X0080102Y0194669D01*
X0078934Y0195153D01*
X0077671Y0195153D01*
X0076503Y0194669D01*
X0076404Y0194570D01*
X0073295Y0194570D01*
X0073440Y0194823D01*
X0073543Y0195204D01*
X0073543Y0196787D01*
X0070657Y0196787D01*
X0070657Y0197559D01*
X0073543Y0197559D01*
X0073543Y0199142D01*
X0073440Y0199524D01*
X0073243Y0199866D01*
X0072964Y0200145D01*
X0072918Y0200172D01*
X0073743Y0200997D01*
X0073743Y0201272D01*
X0082941Y0201272D01*
X0082941Y0200997D01*
X0083766Y0200172D01*
X0083720Y0200145D01*
X0083441Y0199866D01*
X0083243Y0199524D01*
X0083141Y0199142D01*
X0083141Y0197559D01*
X0086027Y0197559D01*
X0086027Y0196787D01*
X0083141Y0196787D01*
X0083141Y0195204D01*
X0083243Y0194823D01*
X0083441Y0194481D01*
X0083720Y0194201D01*
X0083763Y0194176D01*
X0083306Y0194714D02*
X0079993Y0194714D01*
X0083141Y0195713D02*
X0073543Y0195713D01*
X0073543Y0196711D02*
X0083141Y0196711D01*
X0083141Y0197710D02*
X0073543Y0197710D01*
X0073543Y0198708D02*
X0083141Y0198708D01*
X0083349Y0199707D02*
X0073335Y0199707D01*
X0073451Y0200705D02*
X0083232Y0200705D01*
X0082941Y0205698D02*
X0077535Y0205698D01*
X0076536Y0206696D02*
X0083689Y0206696D01*
X0076649Y0203472D02*
X0070271Y0203472D01*
X0069956Y0203157D01*
X0066320Y0210690D02*
X0055884Y0210690D01*
X0053477Y0210690D02*
X0041988Y0210690D01*
X0044731Y0211689D02*
X0052129Y0211689D01*
X0051633Y0212687D02*
X0045942Y0212687D01*
X0047132Y0213686D02*
X0051504Y0213686D01*
X0051679Y0214684D02*
X0047799Y0214684D01*
X0047307Y0213833D02*
X0047307Y0213833D01*
X0048375Y0215683D02*
X0052241Y0215683D01*
X0053747Y0216681D02*
X0048952Y0216681D01*
X0049137Y0217680D02*
X0067430Y0217680D01*
X0066432Y0216681D02*
X0055614Y0216681D01*
X0054680Y0213630D02*
X0066491Y0213630D01*
X0068429Y0218678D02*
X0049313Y0218678D01*
X0049489Y0219677D02*
X0069427Y0219677D01*
X0070426Y0220675D02*
X0049416Y0220675D01*
X0049240Y0221674D02*
X0071424Y0221674D01*
X0080581Y0218678D02*
X0081206Y0218678D01*
X0083791Y0226667D02*
X0084389Y0226667D01*
X0085213Y0227665D02*
X0082967Y0227665D01*
X0081714Y0228664D02*
X0086466Y0228664D01*
X0091714Y0228664D02*
X0096974Y0228664D01*
X0095495Y0227665D02*
X0092967Y0227665D01*
X0093791Y0226667D02*
X0094668Y0226667D01*
X0111714Y0228664D02*
X0116466Y0228664D01*
X0115213Y0227665D02*
X0112967Y0227665D01*
X0113791Y0226667D02*
X0114389Y0226667D01*
X0098470Y0193716D02*
X0098450Y0193716D01*
X0093594Y0183731D02*
X0079817Y0183731D01*
X0080502Y0182732D02*
X0094593Y0182732D01*
X0095591Y0181734D02*
X0080502Y0181734D01*
X0080502Y0180735D02*
X0096590Y0180735D01*
X0097232Y0179737D02*
X0080502Y0179737D01*
X0079986Y0178738D02*
X0097232Y0178738D01*
X0097232Y0177739D02*
X0078988Y0177739D01*
X0077989Y0176741D02*
X0097232Y0176741D01*
X0097432Y0170750D02*
X0096147Y0170750D01*
X0096910Y0169751D02*
X0097737Y0169751D01*
X0097227Y0168753D02*
X0113504Y0168753D01*
X0113504Y0167754D02*
X0097227Y0167754D01*
X0096826Y0166756D02*
X0113504Y0166756D01*
X0112821Y0165757D02*
X0095946Y0165757D01*
X0093617Y0153512D02*
X0093224Y0153119D01*
X0086964Y0153000D02*
X0082948Y0157016D01*
X0079838Y0157016D01*
X0077413Y0154591D01*
X0077413Y0153180D01*
X0076665Y0152433D01*
X0075255Y0152433D01*
X0074838Y0152016D01*
X0079613Y0152777D02*
X0083787Y0152777D01*
X0084032Y0151778D02*
X0081297Y0151778D01*
X0082295Y0150780D02*
X0084692Y0150780D01*
X0085291Y0147784D02*
X0107311Y0147784D01*
X0107311Y0150780D02*
X0103487Y0150780D01*
X0103487Y0151778D02*
X0106452Y0151778D01*
X0105454Y0152777D02*
X0103487Y0152777D01*
X0103487Y0153775D02*
X0104455Y0153775D01*
X0100704Y0153119D02*
X0100310Y0153512D01*
X0091279Y0146786D02*
X0086289Y0146786D01*
X0081964Y0143000D02*
X0081964Y0139535D01*
X0072082Y0129654D01*
X0071964Y0129535D01*
X0071964Y0123000D01*
X0069440Y0119026D02*
X0065389Y0123077D01*
X0065389Y0129654D01*
X0069839Y0133575D02*
X0070424Y0134161D01*
X0070424Y0134689D01*
X0072082Y0136346D01*
X0081342Y0135802D02*
X0084670Y0135802D01*
X0084023Y0136801D02*
X0082340Y0136801D01*
X0083339Y0137799D02*
X0083787Y0137799D01*
X0082464Y0134803D02*
X0081464Y0134803D01*
X0081464Y0133805D02*
X0082464Y0133805D01*
X0082464Y0132806D02*
X0081464Y0132806D01*
X0086964Y0118000D02*
X0089354Y0115610D01*
X0096964Y0115610D01*
X0096964Y0108000D01*
X0093844Y0106845D02*
X0074345Y0106845D01*
X0075343Y0107844D02*
X0093640Y0107844D01*
X0093640Y0107339D02*
X0094146Y0106117D01*
X0095081Y0105182D01*
X0096303Y0104676D01*
X0097625Y0104676D01*
X0098847Y0105182D01*
X0099782Y0106117D01*
X0100288Y0107339D01*
X0100288Y0108661D01*
X0099782Y0109883D01*
X0099164Y0110501D01*
X0099164Y0111601D01*
X0099232Y0111437D01*
X0100125Y0110543D01*
X0101293Y0110060D01*
X0102556Y0110060D01*
X0103724Y0110543D01*
X0103917Y0110736D01*
X0116438Y0110736D01*
X0117356Y0111117D01*
X0118060Y0111820D01*
X0121240Y0115001D01*
X0125621Y0115001D01*
X0126617Y0115997D01*
X0126617Y0116760D01*
X0127311Y0116760D01*
X0127311Y0115997D01*
X0128307Y0115001D01*
X0134341Y0115001D01*
X0128690Y0109350D01*
X0111308Y0109350D01*
X0110019Y0108061D01*
X0109808Y0107850D01*
X0106929Y0107850D01*
X0106905Y0107825D01*
X0106881Y0107850D01*
X0101929Y0107850D01*
X0100933Y0106854D01*
X0100933Y0100721D01*
X0101929Y0099725D01*
X0106881Y0099725D01*
X0106905Y0099749D01*
X0106929Y0099725D01*
X0111881Y0099725D01*
X0111905Y0099749D01*
X0111929Y0099725D01*
X0116881Y0099725D01*
X0116905Y0099749D01*
X0116929Y0099725D01*
X0121881Y0099725D01*
X0121905Y0099749D01*
X0121929Y0099725D01*
X0126881Y0099725D01*
X0126905Y0099749D01*
X0126929Y0099725D01*
X0131881Y0099725D01*
X0131905Y0099749D01*
X0131929Y0099725D01*
X0136881Y0099725D01*
X0136905Y0099749D01*
X0136929Y0099725D01*
X0141881Y0099725D01*
X0141905Y0099749D01*
X0141929Y0099725D01*
X0146881Y0099725D01*
X0147156Y0100000D01*
X0147436Y0099925D01*
X0149019Y0099925D01*
X0149019Y0103401D01*
X0149791Y0103401D01*
X0149791Y0100319D01*
X0149271Y0099799D01*
X0148787Y0098632D01*
X0148787Y0097368D01*
X0149271Y0096201D01*
X0150165Y0095307D01*
X0151332Y0094824D01*
X0152029Y0094824D01*
X0154764Y0092089D01*
X0156053Y0090800D01*
X0156375Y0090800D01*
X0156366Y0090791D01*
X0156366Y0085839D01*
X0156390Y0085815D01*
X0156366Y0085791D01*
X0156366Y0080839D01*
X0156390Y0080815D01*
X0156366Y0080791D01*
X0156366Y0075839D01*
X0156390Y0075815D01*
X0156366Y0075791D01*
X0156366Y0071709D01*
X0154164Y0073911D01*
X0154164Y0075708D01*
X0154657Y0076201D01*
X0155140Y0077368D01*
X0155140Y0078632D01*
X0154657Y0079799D01*
X0153763Y0080693D01*
X0152596Y0081176D01*
X0151332Y0081176D01*
X0150165Y0080693D01*
X0149271Y0079799D01*
X0148787Y0078632D01*
X0148787Y0077368D01*
X0149271Y0076201D01*
X0149764Y0075708D01*
X0149764Y0072445D01*
X0144471Y0077738D01*
X0144471Y0078435D01*
X0143987Y0079602D01*
X0143094Y0080496D01*
X0141926Y0080980D01*
X0140663Y0080980D01*
X0139495Y0080496D01*
X0138602Y0079602D01*
X0138118Y0078435D01*
X0138118Y0077171D01*
X0138332Y0076656D01*
X0138015Y0076839D01*
X0137634Y0076941D01*
X0126125Y0076941D01*
X0126125Y0064130D01*
X0125125Y0064130D01*
X0125125Y0063130D01*
X0112314Y0063130D01*
X0112314Y0051621D01*
X0112416Y0051240D01*
X0112614Y0050898D01*
X0112893Y0050619D01*
X0113235Y0050421D01*
X0113617Y0050319D01*
X0125125Y0050319D01*
X0125125Y0063130D01*
X0126125Y0063130D01*
X0126125Y0050319D01*
X0137634Y0050319D01*
X0138015Y0050421D01*
X0138357Y0050619D01*
X0138637Y0050898D01*
X0138834Y0051240D01*
X0138936Y0051621D01*
X0138936Y0063130D01*
X0126125Y0063130D01*
X0126125Y0064130D01*
X0138936Y0064130D01*
X0138936Y0075638D01*
X0138925Y0075681D01*
X0139495Y0075110D01*
X0140663Y0074627D01*
X0141360Y0074627D01*
X0154871Y0061115D01*
X0156366Y0061115D01*
X0156366Y0060839D01*
X0156390Y0060815D01*
X0156366Y0060791D01*
X0156366Y0055839D01*
X0156390Y0055815D01*
X0156366Y0055791D01*
X0156366Y0050839D01*
X0156390Y0050815D01*
X0156366Y0050791D01*
X0156366Y0049940D01*
X0149164Y0057143D01*
X0149164Y0060708D01*
X0149657Y0061201D01*
X0150140Y0062368D01*
X0150140Y0063632D01*
X0149657Y0064799D01*
X0148763Y0065693D01*
X0147596Y0066176D01*
X0146332Y0066176D01*
X0145165Y0065693D01*
X0144271Y0064799D01*
X0143787Y0063632D01*
X0143787Y0062368D01*
X0144271Y0061201D01*
X0144764Y0060708D01*
X0144764Y0055320D01*
X0146053Y0054031D01*
X0156366Y0043718D01*
X0156366Y0040839D01*
X0156390Y0040815D01*
X0156366Y0040791D01*
X0156366Y0040500D01*
X0133956Y0040500D01*
X0133763Y0040693D01*
X0132596Y0041176D01*
X0131332Y0041176D01*
X0130165Y0040693D01*
X0129271Y0039799D01*
X0128787Y0038632D01*
X0128787Y0037368D01*
X0129271Y0036201D01*
X0130165Y0035307D01*
X0131332Y0034824D01*
X0132596Y0034824D01*
X0133763Y0035307D01*
X0133956Y0035500D01*
X0156624Y0035500D01*
X0156566Y0035284D01*
X0156566Y0033701D01*
X0160043Y0033701D01*
X0160043Y0032929D01*
X0160814Y0032929D01*
X0160814Y0030043D01*
X0162988Y0030043D01*
X0163370Y0030146D01*
X0163712Y0030343D01*
X0163991Y0030622D01*
X0164188Y0030964D01*
X0164291Y0031346D01*
X0164291Y0032929D01*
X0160814Y0032929D01*
X0160814Y0033701D01*
X0164291Y0033701D01*
X0164291Y0035284D01*
X0164216Y0035564D01*
X0164491Y0035839D01*
X0164491Y0040791D01*
X0164466Y0040815D01*
X0164491Y0040839D01*
X0164491Y0045791D01*
X0164466Y0045815D01*
X0164491Y0045839D01*
X0164491Y0045862D01*
X0168264Y0042089D01*
X0168264Y0023589D01*
X0169553Y0022300D01*
X0181920Y0009933D01*
X0181564Y0009074D01*
X0181564Y0006926D01*
X0182386Y0004941D01*
X0182930Y0004397D01*
X0167603Y0004687D01*
X0167589Y0004700D01*
X0166901Y0004700D01*
X0166617Y0004705D01*
X0166617Y0027326D01*
X0165621Y0028322D01*
X0090140Y0028322D01*
X0090140Y0028632D01*
X0089657Y0029799D01*
X0088763Y0030693D01*
X0087596Y0031176D01*
X0086332Y0031176D01*
X0085165Y0030693D01*
X0084806Y0030334D01*
X0084288Y0030119D01*
X0083585Y0029416D01*
X0076617Y0022448D01*
X0076617Y0025003D01*
X0075621Y0025999D01*
X0068307Y0025999D01*
X0067311Y0025003D01*
X0067311Y0024240D01*
X0064259Y0024240D01*
X0054464Y0034036D01*
X0054464Y0051964D01*
X0060499Y0058000D01*
X0069658Y0058000D01*
X0069658Y0058000D01*
X0063967Y0058000D01*
X0063048Y0057619D01*
X0055548Y0050119D01*
X0054844Y0049416D01*
X0054464Y0048497D01*
X0054464Y0037503D01*
X0054844Y0036584D01*
X0058787Y0032641D01*
X0058787Y0032368D01*
X0059271Y0031201D01*
X0060165Y0030307D01*
X0061332Y0029824D01*
X0062596Y0029824D01*
X0063763Y0030307D01*
X0064657Y0031201D01*
X0065140Y0032368D01*
X0065140Y0033632D01*
X0064657Y0034799D01*
X0063763Y0035693D01*
X0062596Y0036176D01*
X0062323Y0036176D01*
X0059464Y0039036D01*
X0059464Y0046964D01*
X0065499Y0053000D01*
X0069658Y0053000D01*
X0069800Y0052859D01*
X0069543Y0052602D01*
X0069346Y0052260D01*
X0069243Y0051879D01*
X0069243Y0050591D01*
X0074983Y0050591D01*
X0074983Y0050409D01*
X0069243Y0050409D01*
X0069243Y0049121D01*
X0069346Y0048740D01*
X0069543Y0048398D01*
X0069800Y0048141D01*
X0069043Y0047385D01*
X0069043Y0043615D01*
X0069658Y0043000D01*
X0069043Y0042385D01*
X0069043Y0038615D01*
X0069658Y0038000D01*
X0069043Y0037385D01*
X0069043Y0033615D01*
X0069658Y0033000D01*
X0069043Y0032385D01*
X0069043Y0028615D01*
X0070039Y0027619D01*
X0080109Y0027619D01*
X0081105Y0028615D01*
X0081105Y0032385D01*
X0080490Y0033000D01*
X0081105Y0033615D01*
X0081105Y0037385D01*
X0080490Y0038000D01*
X0081105Y0038615D01*
X0081105Y0042385D01*
X0080490Y0043000D01*
X0081105Y0043615D01*
X0081105Y0045324D01*
X0081389Y0045040D01*
X0089437Y0036991D01*
X0089437Y0035839D01*
X0089712Y0035564D01*
X0089637Y0035284D01*
X0089637Y0033701D01*
X0093113Y0033701D01*
X0093113Y0032929D01*
X0089637Y0032929D01*
X0089637Y0031346D01*
X0089739Y0030964D01*
X0089937Y0030622D01*
X0090216Y0030343D01*
X0090558Y0030146D01*
X0090940Y0030043D01*
X0093113Y0030043D01*
X0093113Y0032929D01*
X0093885Y0032929D01*
X0093885Y0030043D01*
X0096059Y0030043D01*
X0096440Y0030146D01*
X0096783Y0030343D01*
X0097062Y0030622D01*
X0097259Y0030964D01*
X0097361Y0031346D01*
X0097361Y0032929D01*
X0093885Y0032929D01*
X0093885Y0033701D01*
X0097361Y0033701D01*
X0097361Y0035284D01*
X0097286Y0035564D01*
X0097561Y0035839D01*
X0097561Y0040791D01*
X0097537Y0040815D01*
X0097561Y0040839D01*
X0097561Y0045791D01*
X0097537Y0045815D01*
X0097561Y0045839D01*
X0097561Y0048718D01*
X0107875Y0059031D01*
X0109164Y0060320D01*
X0109164Y0090499D01*
X0109782Y0091117D01*
X0110288Y0092339D01*
X0110288Y0093661D01*
X0109782Y0094883D01*
X0108847Y0095818D01*
X0107625Y0096324D01*
X0106303Y0096324D01*
X0105081Y0095818D01*
X0104146Y0094883D01*
X0103640Y0093661D01*
X0103640Y0092339D01*
X0104146Y0091117D01*
X0104764Y0090499D01*
X0104764Y0089540D01*
X0104657Y0089799D01*
X0103763Y0090693D01*
X0102596Y0091176D01*
X0101332Y0091176D01*
X0100165Y0090693D01*
X0099271Y0089799D01*
X0098787Y0088632D01*
X0098787Y0087935D01*
X0098780Y0087927D01*
X0098780Y0061158D01*
X0097561Y0059940D01*
X0097561Y0060791D01*
X0097537Y0060815D01*
X0097561Y0060839D01*
X0097561Y0065791D01*
X0097537Y0065815D01*
X0097561Y0065839D01*
X0097561Y0070791D01*
X0097537Y0070815D01*
X0097561Y0070839D01*
X0097561Y0075791D01*
X0097537Y0075815D01*
X0097561Y0075839D01*
X0097561Y0080791D01*
X0097537Y0080815D01*
X0097561Y0080839D01*
X0097561Y0085791D01*
X0097537Y0085815D01*
X0097561Y0085839D01*
X0097561Y0090791D01*
X0097537Y0090815D01*
X0097561Y0090839D01*
X0097561Y0095791D01*
X0097537Y0095815D01*
X0097561Y0095839D01*
X0097561Y0100791D01*
X0096566Y0101787D01*
X0090433Y0101787D01*
X0089437Y0100791D01*
X0089437Y0100515D01*
X0082560Y0100515D01*
X0080140Y0102935D01*
X0080140Y0103632D01*
X0079657Y0104799D01*
X0078763Y0105693D01*
X0077596Y0106176D01*
X0076332Y0106176D01*
X0075165Y0105693D01*
X0074271Y0104799D01*
X0073787Y0103632D01*
X0073787Y0102368D01*
X0074271Y0101201D01*
X0075165Y0100307D01*
X0076332Y0099824D01*
X0077029Y0099824D01*
X0080738Y0096115D01*
X0089437Y0096115D01*
X0089437Y0095839D01*
X0089461Y0095815D01*
X0089437Y0095791D01*
X0089437Y0095515D01*
X0072139Y0095515D01*
X0067761Y0099892D01*
X0068763Y0100307D01*
X0069657Y0101201D01*
X0070140Y0102368D01*
X0070140Y0102641D01*
X0077999Y0110500D01*
X0079763Y0110500D01*
X0080081Y0110182D01*
X0081303Y0109676D01*
X0082625Y0109676D01*
X0083847Y0110182D01*
X0084782Y0111117D01*
X0085288Y0112339D01*
X0085288Y0113661D01*
X0084782Y0114883D01*
X0083847Y0115818D01*
X0083472Y0115973D01*
X0084083Y0116584D01*
X0084098Y0116619D01*
X0084271Y0116201D01*
X0085165Y0115307D01*
X0086332Y0114824D01*
X0087029Y0114824D01*
X0087154Y0114699D01*
X0088442Y0113410D01*
X0094764Y0113410D01*
X0094764Y0110501D01*
X0094146Y0109883D01*
X0093640Y0108661D01*
X0093640Y0107339D01*
X0093715Y0108842D02*
X0076342Y0108842D01*
X0077340Y0109841D02*
X0080905Y0109841D01*
X0083023Y0109841D02*
X0094128Y0109841D01*
X0094764Y0110839D02*
X0084504Y0110839D01*
X0085080Y0111838D02*
X0094764Y0111838D01*
X0094764Y0112836D02*
X0085288Y0112836D01*
X0085216Y0113835D02*
X0088018Y0113835D01*
X0086309Y0114833D02*
X0084802Y0114833D01*
X0084640Y0115832D02*
X0083813Y0115832D01*
X0090246Y0117829D02*
X0116997Y0117829D01*
X0117311Y0118827D02*
X0104150Y0118827D01*
X0104184Y0118847D02*
X0104463Y0119126D01*
X0104661Y0119468D01*
X0104763Y0119850D01*
X0104763Y0122500D01*
X0101204Y0122500D01*
X0101204Y0118547D01*
X0103461Y0118547D01*
X0103842Y0118649D01*
X0104184Y0118847D01*
X0104757Y0119826D02*
X0117311Y0119826D01*
X0117311Y0120824D02*
X0104763Y0120824D01*
X0104763Y0121823D02*
X0117311Y0121823D01*
X0117609Y0122821D02*
X0101204Y0122821D01*
X0101204Y0123500D02*
X0104763Y0123500D01*
X0104763Y0126150D01*
X0104661Y0126532D01*
X0104463Y0126874D01*
X0104184Y0127153D01*
X0103842Y0127351D01*
X0103461Y0127453D01*
X0101204Y0127453D01*
X0101204Y0123500D01*
X0101204Y0123820D02*
X0100204Y0123820D01*
X0100204Y0124818D02*
X0101204Y0124818D01*
X0101204Y0125817D02*
X0100204Y0125817D01*
X0100204Y0126815D02*
X0101204Y0126815D01*
X0100795Y0129531D02*
X0102673Y0129531D01*
X0103055Y0129634D01*
X0103397Y0129831D01*
X0103676Y0130110D01*
X0103873Y0130453D01*
X0103976Y0130834D01*
X0103976Y0132516D01*
X0100795Y0132516D01*
X0100795Y0129531D01*
X0100795Y0129811D02*
X0099826Y0129811D01*
X0099826Y0130809D02*
X0100795Y0130809D01*
X0100795Y0131808D02*
X0099826Y0131808D01*
X0100795Y0132806D02*
X0139437Y0132806D01*
X0139437Y0131808D02*
X0103976Y0131808D01*
X0103969Y0130809D02*
X0128117Y0130809D01*
X0127311Y0129811D02*
X0126332Y0129811D01*
X0126417Y0128812D02*
X0127311Y0128812D01*
X0127311Y0127814D02*
X0126417Y0127814D01*
X0127311Y0126815D02*
X0122464Y0126815D01*
X0121964Y0126740D02*
X0120271Y0125047D01*
X0121464Y0126815D02*
X0104497Y0126815D01*
X0104763Y0125817D02*
X0117511Y0125817D01*
X0117511Y0124818D02*
X0104763Y0124818D01*
X0104763Y0123820D02*
X0117555Y0123820D01*
X0117511Y0127240D02*
X0121464Y0127240D01*
X0121464Y0130799D01*
X0118814Y0130799D01*
X0118432Y0130697D01*
X0118090Y0130499D01*
X0117811Y0130220D01*
X0117613Y0129878D01*
X0117511Y0129497D01*
X0117511Y0127240D01*
X0117511Y0127814D02*
X0095724Y0127814D01*
X0095724Y0128812D02*
X0117511Y0128812D01*
X0117595Y0129811D02*
X0103362Y0129811D01*
X0103976Y0133805D02*
X0139437Y0133805D01*
X0139437Y0134803D02*
X0103976Y0134803D01*
X0103726Y0135802D02*
X0139437Y0135802D01*
X0139437Y0136801D02*
X0098159Y0136801D01*
X0099157Y0137799D02*
X0139437Y0137799D01*
X0139437Y0138798D02*
X0100156Y0138798D01*
X0099826Y0135802D02*
X0100795Y0135802D01*
X0100795Y0134803D02*
X0099826Y0134803D01*
X0099826Y0133805D02*
X0100795Y0133805D01*
X0097259Y0129811D02*
X0096966Y0129811D01*
X0100204Y0121823D02*
X0101204Y0121823D01*
X0101204Y0120824D02*
X0100204Y0120824D01*
X0100204Y0119826D02*
X0101204Y0119826D01*
X0101204Y0118827D02*
X0100204Y0118827D01*
X0098855Y0116830D02*
X0115999Y0116830D01*
X0115000Y0115832D02*
X0103821Y0115832D01*
X0100028Y0115832D02*
X0099164Y0115832D01*
X0097258Y0118827D02*
X0096967Y0118827D01*
X0099164Y0110839D02*
X0099829Y0110839D01*
X0099799Y0109841D02*
X0129181Y0109841D01*
X0130179Y0110839D02*
X0116686Y0110839D01*
X0118077Y0111838D02*
X0131178Y0111838D01*
X0132176Y0112836D02*
X0119076Y0112836D01*
X0120074Y0113835D02*
X0133175Y0113835D01*
X0134173Y0114833D02*
X0121073Y0114833D01*
X0126452Y0115832D02*
X0127476Y0115832D01*
X0127311Y0121823D02*
X0126617Y0121823D01*
X0126318Y0122821D02*
X0127609Y0122821D01*
X0127311Y0123820D02*
X0126373Y0123820D01*
X0126417Y0124818D02*
X0127311Y0124818D01*
X0127311Y0125817D02*
X0126417Y0125817D01*
X0122464Y0127814D02*
X0121464Y0127814D01*
X0121464Y0128812D02*
X0122464Y0128812D01*
X0122464Y0129811D02*
X0121464Y0129811D01*
X0135811Y0130809D02*
X0139437Y0130809D01*
X0139637Y0129811D02*
X0136617Y0129811D01*
X0143499Y0129280D02*
X0147361Y0129280D01*
X0147361Y0130147D01*
X0147561Y0130347D01*
X0147561Y0137016D01*
X0148664Y0137016D01*
X0148664Y0132344D01*
X0149166Y0131131D01*
X0150095Y0130202D01*
X0151307Y0129700D01*
X0151728Y0129700D01*
X0162417Y0119012D01*
X0162417Y0112303D01*
X0161563Y0111450D01*
X0159760Y0111450D01*
X0160140Y0112368D01*
X0160140Y0113632D01*
X0159657Y0114799D01*
X0158763Y0115693D01*
X0157596Y0116176D01*
X0156332Y0116176D01*
X0155674Y0115904D01*
X0148547Y0123031D01*
X0147561Y0123031D01*
X0147561Y0128212D01*
X0147361Y0128412D01*
X0147361Y0129279D01*
X0143499Y0129279D01*
X0143499Y0129280D01*
X0147361Y0128812D02*
X0152616Y0128812D01*
X0153614Y0127814D02*
X0147561Y0127814D01*
X0147561Y0126815D02*
X0154613Y0126815D01*
X0155611Y0125817D02*
X0147561Y0125817D01*
X0147561Y0124818D02*
X0156610Y0124818D01*
X0157608Y0123820D02*
X0147561Y0123820D01*
X0148756Y0122821D02*
X0158607Y0122821D01*
X0159605Y0121823D02*
X0149754Y0121823D01*
X0150753Y0120824D02*
X0160604Y0120824D01*
X0161602Y0119826D02*
X0151751Y0119826D01*
X0152750Y0118827D02*
X0162417Y0118827D01*
X0162417Y0117829D02*
X0153748Y0117829D01*
X0154747Y0116830D02*
X0162417Y0116830D01*
X0162417Y0115832D02*
X0158428Y0115832D01*
X0159623Y0114833D02*
X0162417Y0114833D01*
X0162417Y0113835D02*
X0160056Y0113835D01*
X0160140Y0112836D02*
X0162417Y0112836D01*
X0161951Y0111838D02*
X0159920Y0111838D01*
X0156964Y0113000D02*
X0155466Y0113000D01*
X0147635Y0120831D01*
X0144271Y0120831D01*
X0143499Y0121602D01*
X0143499Y0119043D02*
X0142728Y0118272D01*
X0140723Y0118272D01*
X0129601Y0107150D01*
X0112219Y0107150D01*
X0111633Y0106564D01*
X0111633Y0106016D01*
X0109405Y0103787D01*
X0106923Y0107844D02*
X0106887Y0107844D01*
X0110800Y0108842D02*
X0100213Y0108842D01*
X0100288Y0107844D02*
X0101923Y0107844D01*
X0100933Y0106845D02*
X0100083Y0106845D01*
X0099511Y0105847D02*
X0100933Y0105847D01*
X0100933Y0104848D02*
X0098041Y0104848D01*
X0095887Y0104848D02*
X0079608Y0104848D01*
X0080050Y0103850D02*
X0100933Y0103850D01*
X0100933Y0102851D02*
X0080224Y0102851D01*
X0081222Y0101853D02*
X0100933Y0101853D01*
X0100933Y0100854D02*
X0097498Y0100854D01*
X0097561Y0099856D02*
X0101799Y0099856D01*
X0097561Y0098857D02*
X0148881Y0098857D01*
X0148787Y0097859D02*
X0097561Y0097859D01*
X0097561Y0096860D02*
X0148998Y0096860D01*
X0149610Y0095862D02*
X0108741Y0095862D01*
X0109790Y0094863D02*
X0151237Y0094863D01*
X0152988Y0093865D02*
X0110204Y0093865D01*
X0110288Y0092866D02*
X0153987Y0092866D01*
X0154985Y0091868D02*
X0110093Y0091868D01*
X0109534Y0090869D02*
X0155984Y0090869D01*
X0156366Y0089870D02*
X0109164Y0089870D01*
X0109164Y0088872D02*
X0156366Y0088872D01*
X0156366Y0087873D02*
X0109164Y0087873D01*
X0109164Y0086875D02*
X0156366Y0086875D01*
X0156366Y0085876D02*
X0109164Y0085876D01*
X0109164Y0084878D02*
X0156366Y0084878D01*
X0156366Y0083879D02*
X0109164Y0083879D01*
X0109164Y0082881D02*
X0156366Y0082881D01*
X0156366Y0081882D02*
X0109164Y0081882D01*
X0109164Y0080884D02*
X0140432Y0080884D01*
X0142157Y0080884D02*
X0150626Y0080884D01*
X0149357Y0079885D02*
X0143704Y0079885D01*
X0144284Y0078887D02*
X0148893Y0078887D01*
X0148787Y0077888D02*
X0144471Y0077888D01*
X0145319Y0076890D02*
X0148986Y0076890D01*
X0149580Y0075891D02*
X0146318Y0075891D01*
X0147316Y0074893D02*
X0149764Y0074893D01*
X0149764Y0073894D02*
X0148315Y0073894D01*
X0149313Y0072896D02*
X0149764Y0072896D01*
X0151964Y0073000D02*
X0156649Y0068315D01*
X0160428Y0068315D01*
X0160428Y0063315D02*
X0155783Y0063315D01*
X0141295Y0077803D01*
X0140020Y0074893D02*
X0138936Y0074893D01*
X0138936Y0073894D02*
X0142092Y0073894D01*
X0143091Y0072896D02*
X0138936Y0072896D01*
X0138936Y0071897D02*
X0144089Y0071897D01*
X0145088Y0070899D02*
X0138936Y0070899D01*
X0138936Y0069900D02*
X0146086Y0069900D01*
X0147085Y0068902D02*
X0138936Y0068902D01*
X0138936Y0067903D02*
X0148083Y0067903D01*
X0149082Y0066905D02*
X0138936Y0066905D01*
X0138936Y0065906D02*
X0145680Y0065906D01*
X0144379Y0064908D02*
X0138936Y0064908D01*
X0138936Y0062911D02*
X0143787Y0062911D01*
X0143902Y0063909D02*
X0126125Y0063909D01*
X0126125Y0062911D02*
X0125125Y0062911D01*
X0125125Y0063909D02*
X0109164Y0063909D01*
X0109164Y0062911D02*
X0112314Y0062911D01*
X0112314Y0061912D02*
X0109164Y0061912D01*
X0109164Y0060914D02*
X0112314Y0060914D01*
X0112314Y0059915D02*
X0108759Y0059915D01*
X0107760Y0058917D02*
X0112314Y0058917D01*
X0112314Y0057918D02*
X0106762Y0057918D01*
X0105763Y0056920D02*
X0112314Y0056920D01*
X0112314Y0055921D02*
X0104765Y0055921D01*
X0103766Y0054923D02*
X0112314Y0054923D01*
X0112314Y0053924D02*
X0102768Y0053924D01*
X0101769Y0052926D02*
X0112314Y0052926D01*
X0112314Y0051927D02*
X0100771Y0051927D01*
X0099772Y0050929D02*
X0112596Y0050929D01*
X0106964Y0061231D02*
X0106964Y0093000D01*
X0103640Y0092866D02*
X0097561Y0092866D01*
X0097561Y0091868D02*
X0103835Y0091868D01*
X0103338Y0090869D02*
X0104394Y0090869D01*
X0104585Y0089870D02*
X0104764Y0089870D01*
X0101964Y0088000D02*
X0100980Y0087016D01*
X0100980Y0060247D01*
X0096276Y0055543D01*
X0095728Y0055543D01*
X0093499Y0053315D01*
X0095728Y0050543D02*
X0093499Y0048315D01*
X0095728Y0050543D02*
X0096276Y0050543D01*
X0106964Y0061231D01*
X0109164Y0064908D02*
X0112314Y0064908D01*
X0112314Y0064130D02*
X0125125Y0064130D01*
X0125125Y0076941D01*
X0113617Y0076941D01*
X0113235Y0076839D01*
X0112893Y0076641D01*
X0112614Y0076362D01*
X0112416Y0076020D01*
X0112314Y0075638D01*
X0112314Y0064130D01*
X0112314Y0065906D02*
X0109164Y0065906D01*
X0109164Y0066905D02*
X0112314Y0066905D01*
X0112314Y0067903D02*
X0109164Y0067903D01*
X0109164Y0068902D02*
X0112314Y0068902D01*
X0112314Y0069900D02*
X0109164Y0069900D01*
X0109164Y0070899D02*
X0112314Y0070899D01*
X0112314Y0071897D02*
X0109164Y0071897D01*
X0109164Y0072896D02*
X0112314Y0072896D01*
X0112314Y0073894D02*
X0109164Y0073894D01*
X0109164Y0074893D02*
X0112314Y0074893D01*
X0112382Y0075891D02*
X0109164Y0075891D01*
X0109164Y0076890D02*
X0113426Y0076890D01*
X0109164Y0077888D02*
X0138118Y0077888D01*
X0138235Y0076890D02*
X0137824Y0076890D01*
X0138305Y0078887D02*
X0109164Y0078887D01*
X0109164Y0079885D02*
X0138885Y0079885D01*
X0126125Y0076890D02*
X0125125Y0076890D01*
X0125125Y0075891D02*
X0126125Y0075891D01*
X0126125Y0074893D02*
X0125125Y0074893D01*
X0125125Y0073894D02*
X0126125Y0073894D01*
X0126125Y0072896D02*
X0125125Y0072896D01*
X0125125Y0071897D02*
X0126125Y0071897D01*
X0126125Y0070899D02*
X0125125Y0070899D01*
X0125125Y0069900D02*
X0126125Y0069900D01*
X0126125Y0068902D02*
X0125125Y0068902D01*
X0125125Y0067903D02*
X0126125Y0067903D01*
X0126125Y0066905D02*
X0125125Y0066905D01*
X0125125Y0065906D02*
X0126125Y0065906D01*
X0126125Y0064908D02*
X0125125Y0064908D01*
X0125125Y0061912D02*
X0126125Y0061912D01*
X0126125Y0060914D02*
X0125125Y0060914D01*
X0125125Y0059915D02*
X0126125Y0059915D01*
X0126125Y0058917D02*
X0125125Y0058917D01*
X0125125Y0057918D02*
X0126125Y0057918D01*
X0126125Y0056920D02*
X0125125Y0056920D01*
X0125125Y0055921D02*
X0126125Y0055921D01*
X0126125Y0054923D02*
X0125125Y0054923D01*
X0125125Y0053924D02*
X0126125Y0053924D01*
X0126125Y0052926D02*
X0125125Y0052926D01*
X0125125Y0051927D02*
X0126125Y0051927D01*
X0126125Y0050929D02*
X0125125Y0050929D01*
X0130770Y0040943D02*
X0097561Y0040943D01*
X0097561Y0039945D02*
X0129417Y0039945D01*
X0128918Y0038946D02*
X0097561Y0038946D01*
X0097561Y0037948D02*
X0128787Y0037948D01*
X0128961Y0036949D02*
X0097561Y0036949D01*
X0097561Y0035951D02*
X0129521Y0035951D01*
X0131021Y0034952D02*
X0097361Y0034952D01*
X0097361Y0033954D02*
X0156566Y0033954D01*
X0156566Y0034952D02*
X0132906Y0034952D01*
X0133158Y0040943D02*
X0156366Y0040943D01*
X0156366Y0041942D02*
X0097561Y0041942D01*
X0097561Y0042940D02*
X0156366Y0042940D01*
X0156145Y0043939D02*
X0097561Y0043939D01*
X0097561Y0044937D02*
X0155147Y0044937D01*
X0154148Y0045936D02*
X0097561Y0045936D01*
X0097561Y0046934D02*
X0153150Y0046934D01*
X0152151Y0047933D02*
X0097561Y0047933D01*
X0097775Y0048932D02*
X0151152Y0048932D01*
X0150154Y0049930D02*
X0098774Y0049930D01*
X0093499Y0043315D02*
X0092279Y0043315D01*
X0091964Y0043000D01*
X0093499Y0038315D02*
X0093184Y0038000D01*
X0089437Y0036949D02*
X0081105Y0036949D01*
X0081105Y0035951D02*
X0089437Y0035951D01*
X0089637Y0034952D02*
X0081105Y0034952D01*
X0081105Y0033954D02*
X0089637Y0033954D01*
X0089637Y0031957D02*
X0081105Y0031957D01*
X0081105Y0030958D02*
X0085806Y0030958D01*
X0084128Y0029960D02*
X0081105Y0029960D01*
X0081105Y0028961D02*
X0083130Y0028961D01*
X0082131Y0027963D02*
X0080453Y0027963D01*
X0081133Y0026964D02*
X0061535Y0026964D01*
X0062534Y0025966D02*
X0068273Y0025966D01*
X0067311Y0024967D02*
X0063532Y0024967D01*
X0060537Y0027963D02*
X0069695Y0027963D01*
X0069043Y0028961D02*
X0059538Y0028961D01*
X0058540Y0029960D02*
X0061003Y0029960D01*
X0059513Y0030958D02*
X0057541Y0030958D01*
X0056543Y0031957D02*
X0058958Y0031957D01*
X0058473Y0032955D02*
X0055544Y0032955D01*
X0054546Y0033954D02*
X0057474Y0033954D01*
X0056476Y0034952D02*
X0054464Y0034952D01*
X0054464Y0035951D02*
X0055477Y0035951D01*
X0054693Y0036949D02*
X0054464Y0036949D01*
X0054464Y0037948D02*
X0054464Y0037948D01*
X0054464Y0038946D02*
X0054464Y0038946D01*
X0054464Y0039945D02*
X0054464Y0039945D01*
X0054464Y0040943D02*
X0054464Y0040943D01*
X0054464Y0041942D02*
X0054464Y0041942D01*
X0054464Y0042940D02*
X0054464Y0042940D01*
X0054464Y0043939D02*
X0054464Y0043939D01*
X0054464Y0044937D02*
X0054464Y0044937D01*
X0054464Y0045936D02*
X0054464Y0045936D01*
X0054464Y0046934D02*
X0054464Y0046934D01*
X0054464Y0047933D02*
X0054464Y0047933D01*
X0054464Y0048932D02*
X0054644Y0048932D01*
X0054464Y0049930D02*
X0055358Y0049930D01*
X0054464Y0050929D02*
X0056357Y0050929D01*
X0057355Y0051927D02*
X0054464Y0051927D01*
X0055425Y0052926D02*
X0058354Y0052926D01*
X0059352Y0053924D02*
X0056423Y0053924D01*
X0057422Y0054923D02*
X0060351Y0054923D01*
X0061349Y0055921D02*
X0058420Y0055921D01*
X0059419Y0056920D02*
X0062348Y0056920D01*
X0063769Y0057918D02*
X0060418Y0057918D01*
X0065425Y0052926D02*
X0069733Y0052926D01*
X0069256Y0051927D02*
X0064426Y0051927D01*
X0063428Y0050929D02*
X0069243Y0050929D01*
X0069243Y0049930D02*
X0062429Y0049930D01*
X0061431Y0048932D02*
X0069294Y0048932D01*
X0069591Y0047933D02*
X0060432Y0047933D01*
X0059464Y0046934D02*
X0069043Y0046934D01*
X0069043Y0045936D02*
X0059464Y0045936D01*
X0059464Y0044937D02*
X0069043Y0044937D01*
X0069043Y0043939D02*
X0059464Y0043939D01*
X0059464Y0042940D02*
X0069599Y0042940D01*
X0069043Y0041942D02*
X0059464Y0041942D01*
X0059464Y0040943D02*
X0069043Y0040943D01*
X0069043Y0039945D02*
X0059464Y0039945D01*
X0059553Y0038946D02*
X0069043Y0038946D01*
X0069606Y0037948D02*
X0060551Y0037948D01*
X0061550Y0036949D02*
X0069043Y0036949D01*
X0069043Y0035951D02*
X0063140Y0035951D01*
X0064504Y0034952D02*
X0069043Y0034952D01*
X0069043Y0033954D02*
X0065007Y0033954D01*
X0065140Y0032955D02*
X0069613Y0032955D01*
X0069043Y0031957D02*
X0064970Y0031957D01*
X0064414Y0030958D02*
X0069043Y0030958D01*
X0069043Y0029960D02*
X0062924Y0029960D01*
X0075654Y0025966D02*
X0080134Y0025966D01*
X0079136Y0024967D02*
X0076617Y0024967D01*
X0076617Y0023969D02*
X0078137Y0023969D01*
X0077139Y0022970D02*
X0076617Y0022970D01*
X0080216Y0018976D02*
X0088413Y0018976D01*
X0088413Y0017978D02*
X0079217Y0017978D01*
X0078219Y0016979D02*
X0088413Y0016979D01*
X0088413Y0015981D02*
X0077220Y0015981D01*
X0076617Y0015377D02*
X0086142Y0024902D01*
X0086332Y0024824D01*
X0087596Y0024824D01*
X0088413Y0025162D01*
X0088413Y0004667D01*
X0066003Y0004228D01*
X0028664Y0004228D01*
X0028664Y0088663D01*
X0028905Y0088422D01*
X0030890Y0087600D01*
X0033038Y0087600D01*
X0035023Y0088422D01*
X0036542Y0089941D01*
X0036897Y0090800D01*
X0057903Y0090800D01*
X0087937Y0060766D01*
X0087937Y0060218D01*
X0089226Y0058929D01*
X0089437Y0058718D01*
X0089437Y0057023D01*
X0081359Y0065100D01*
X0081105Y0065206D01*
X0081105Y0067385D01*
X0080109Y0068381D01*
X0070039Y0068381D01*
X0069658Y0068000D01*
X0058967Y0068000D01*
X0058048Y0067619D01*
X0057344Y0066916D01*
X0044884Y0054456D01*
X0044884Y0057385D01*
X0044270Y0058000D01*
X0044884Y0058615D01*
X0044884Y0062385D01*
X0044270Y0063000D01*
X0044884Y0063615D01*
X0044884Y0067385D01*
X0043888Y0068381D01*
X0035211Y0068381D01*
X0035211Y0070201D01*
X0036464Y0070201D01*
X0036464Y0073760D01*
X0037464Y0073760D01*
X0037464Y0074760D01*
X0041417Y0074760D01*
X0041417Y0077016D01*
X0041314Y0077398D01*
X0041117Y0077740D01*
X0040998Y0077859D01*
X0041617Y0078477D01*
X0041617Y0085003D01*
X0040621Y0085999D01*
X0033307Y0085999D01*
X0032311Y0085003D01*
X0032311Y0080493D01*
X0030592Y0078774D01*
X0030211Y0077855D01*
X0030211Y0069783D01*
X0029844Y0069416D01*
X0029464Y0068497D01*
X0029464Y0018406D01*
X0029435Y0018319D01*
X0029464Y0017911D01*
X0029464Y0017503D01*
X0029499Y0017418D01*
X0029505Y0017327D01*
X0029688Y0016961D01*
X0029844Y0016584D01*
X0029909Y0016519D01*
X0034688Y0006961D01*
X0034844Y0006584D01*
X0034909Y0006519D01*
X0034950Y0006437D01*
X0035259Y0006170D01*
X0035548Y0005881D01*
X0035632Y0005846D01*
X0035702Y0005786D01*
X0036089Y0005656D01*
X0036467Y0005500D01*
X0036558Y0005500D01*
X0036645Y0005471D01*
X0037053Y0005500D01*
X0067461Y0005500D01*
X0068380Y0005881D01*
X0072500Y0010001D01*
X0075621Y0010001D01*
X0076617Y0010997D01*
X0076617Y0015377D01*
X0076617Y0014982D02*
X0088413Y0014982D01*
X0088413Y0013984D02*
X0076617Y0013984D01*
X0076617Y0012985D02*
X0088413Y0012985D01*
X0088413Y0011987D02*
X0076617Y0011987D01*
X0076608Y0010988D02*
X0088413Y0010988D01*
X0088413Y0009990D02*
X0072489Y0009990D01*
X0071490Y0008991D02*
X0088413Y0008991D01*
X0088413Y0007993D02*
X0070492Y0007993D01*
X0069493Y0006994D02*
X0088413Y0006994D01*
X0088413Y0005996D02*
X0068495Y0005996D01*
X0081214Y0019975D02*
X0088413Y0019975D01*
X0088413Y0020973D02*
X0082213Y0020973D01*
X0083211Y0021972D02*
X0088413Y0021972D01*
X0088413Y0022970D02*
X0084210Y0022970D01*
X0085208Y0023969D02*
X0088413Y0023969D01*
X0088413Y0024967D02*
X0087942Y0024967D01*
X0090004Y0028961D02*
X0168264Y0028961D01*
X0168264Y0027963D02*
X0165980Y0027963D01*
X0166617Y0026964D02*
X0168264Y0026964D01*
X0168264Y0025966D02*
X0166617Y0025966D01*
X0166617Y0024967D02*
X0168264Y0024967D01*
X0168264Y0023969D02*
X0166617Y0023969D01*
X0166617Y0022970D02*
X0168882Y0022970D01*
X0169881Y0021972D02*
X0166617Y0021972D01*
X0166617Y0020973D02*
X0170879Y0020973D01*
X0171878Y0019975D02*
X0166617Y0019975D01*
X0166617Y0018976D02*
X0172876Y0018976D01*
X0173875Y0017978D02*
X0166617Y0017978D01*
X0166617Y0016979D02*
X0174873Y0016979D01*
X0175872Y0015981D02*
X0166617Y0015981D01*
X0166617Y0014982D02*
X0176870Y0014982D01*
X0177869Y0013984D02*
X0166617Y0013984D01*
X0166617Y0012985D02*
X0178867Y0012985D01*
X0179866Y0011987D02*
X0166617Y0011987D01*
X0166617Y0010988D02*
X0180864Y0010988D01*
X0181863Y0009990D02*
X0166617Y0009990D01*
X0166617Y0008991D02*
X0181564Y0008991D01*
X0181564Y0007993D02*
X0166617Y0007993D01*
X0166617Y0006994D02*
X0181564Y0006994D01*
X0181949Y0005996D02*
X0166617Y0005996D01*
X0166617Y0004997D02*
X0182363Y0004997D01*
X0186964Y0008000D02*
X0170464Y0024500D01*
X0170464Y0043000D01*
X0165149Y0048315D01*
X0161649Y0048315D01*
X0161649Y0047643D01*
X0164491Y0044937D02*
X0165415Y0044937D01*
X0164491Y0043939D02*
X0166414Y0043939D01*
X0167412Y0042940D02*
X0164491Y0042940D01*
X0164491Y0041942D02*
X0168264Y0041942D01*
X0168264Y0040943D02*
X0164491Y0040943D01*
X0164491Y0039945D02*
X0168264Y0039945D01*
X0168264Y0038946D02*
X0164491Y0038946D01*
X0164491Y0037948D02*
X0168264Y0037948D01*
X0168264Y0036949D02*
X0164491Y0036949D01*
X0164491Y0035951D02*
X0168264Y0035951D01*
X0168264Y0034952D02*
X0164291Y0034952D01*
X0164291Y0033954D02*
X0168264Y0033954D01*
X0168264Y0032955D02*
X0160814Y0032955D01*
X0160043Y0032955D02*
X0093885Y0032955D01*
X0093113Y0032955D02*
X0080535Y0032955D01*
X0080542Y0037948D02*
X0088480Y0037948D01*
X0087482Y0038946D02*
X0081105Y0038946D01*
X0081105Y0039945D02*
X0086483Y0039945D01*
X0085485Y0040943D02*
X0081105Y0040943D01*
X0081105Y0041942D02*
X0084486Y0041942D01*
X0083488Y0042940D02*
X0080550Y0042940D01*
X0081105Y0043939D02*
X0082489Y0043939D01*
X0081491Y0044937D02*
X0081105Y0044937D01*
X0088122Y0030958D02*
X0089743Y0030958D01*
X0089496Y0029960D02*
X0168264Y0029960D01*
X0168264Y0030958D02*
X0164185Y0030958D01*
X0164291Y0031957D02*
X0168264Y0031957D01*
X0160814Y0031957D02*
X0160043Y0031957D01*
X0160043Y0032929D02*
X0160043Y0030043D01*
X0157869Y0030043D01*
X0157487Y0030146D01*
X0157145Y0030343D01*
X0156866Y0030622D01*
X0156668Y0030964D01*
X0156566Y0031346D01*
X0156566Y0032929D01*
X0160043Y0032929D01*
X0160043Y0030958D02*
X0160814Y0030958D01*
X0156672Y0030958D02*
X0097256Y0030958D01*
X0097361Y0031957D02*
X0156566Y0031957D01*
X0160428Y0043315D02*
X0158200Y0045543D01*
X0157652Y0045543D01*
X0146964Y0056231D01*
X0146964Y0063000D01*
X0148248Y0065906D02*
X0150080Y0065906D01*
X0149548Y0064908D02*
X0151079Y0064908D01*
X0152077Y0063909D02*
X0150025Y0063909D01*
X0150140Y0062911D02*
X0153076Y0062911D01*
X0154074Y0061912D02*
X0149951Y0061912D01*
X0149370Y0060914D02*
X0156366Y0060914D01*
X0156366Y0059915D02*
X0149164Y0059915D01*
X0149164Y0058917D02*
X0156366Y0058917D01*
X0156366Y0057918D02*
X0149164Y0057918D01*
X0149387Y0056920D02*
X0156366Y0056920D01*
X0156366Y0055921D02*
X0150385Y0055921D01*
X0151384Y0054923D02*
X0156366Y0054923D01*
X0156366Y0053924D02*
X0152382Y0053924D01*
X0153381Y0052926D02*
X0156366Y0052926D01*
X0156366Y0051927D02*
X0154380Y0051927D01*
X0155378Y0050929D02*
X0156366Y0050929D01*
X0149155Y0050929D02*
X0138654Y0050929D01*
X0138936Y0051927D02*
X0148157Y0051927D01*
X0147158Y0052926D02*
X0138936Y0052926D01*
X0138936Y0053924D02*
X0146160Y0053924D01*
X0145161Y0054923D02*
X0138936Y0054923D01*
X0138936Y0055921D02*
X0144764Y0055921D01*
X0144764Y0056920D02*
X0138936Y0056920D01*
X0138936Y0057918D02*
X0144764Y0057918D01*
X0144764Y0058917D02*
X0138936Y0058917D01*
X0138936Y0059915D02*
X0144764Y0059915D01*
X0144558Y0060914D02*
X0138936Y0060914D01*
X0138936Y0061912D02*
X0143976Y0061912D01*
X0151964Y0073000D02*
X0151964Y0078000D01*
X0153302Y0080884D02*
X0156366Y0080884D01*
X0156366Y0079885D02*
X0154571Y0079885D01*
X0155035Y0078887D02*
X0156366Y0078887D01*
X0156366Y0077888D02*
X0155140Y0077888D01*
X0154942Y0076890D02*
X0156366Y0076890D01*
X0156366Y0075891D02*
X0154347Y0075891D01*
X0154164Y0074893D02*
X0156366Y0074893D01*
X0156366Y0073894D02*
X0154181Y0073894D01*
X0155179Y0072896D02*
X0156366Y0072896D01*
X0156366Y0071897D02*
X0156178Y0071897D01*
X0160428Y0073315D02*
X0170149Y0073315D01*
X0175464Y0068000D01*
X0175464Y0029500D01*
X0186964Y0018000D01*
X0186964Y0028000D02*
X0176964Y0038000D01*
X0176964Y0073000D01*
X0171649Y0078315D01*
X0160428Y0078315D01*
X0160428Y0083315D02*
X0171649Y0083315D01*
X0178964Y0076000D01*
X0178964Y0049353D01*
X0186964Y0041353D01*
X0186964Y0038000D01*
X0186964Y0048000D02*
X0186964Y0051353D01*
X0180464Y0057853D01*
X0180464Y0084500D01*
X0176649Y0088315D01*
X0160428Y0088315D01*
X0160113Y0093000D02*
X0156964Y0093000D01*
X0151964Y0098000D01*
X0153374Y0100854D02*
X0156430Y0100854D01*
X0156366Y0100791D02*
X0156366Y0096709D01*
X0155140Y0097935D01*
X0155140Y0098632D01*
X0154657Y0099799D01*
X0153763Y0100693D01*
X0152656Y0101151D01*
X0152676Y0101228D01*
X0152676Y0103402D01*
X0149791Y0103402D01*
X0149791Y0104173D01*
X0152676Y0104173D01*
X0152676Y0104950D01*
X0169449Y0104950D01*
X0173883Y0100515D01*
X0164491Y0100515D01*
X0164491Y0100791D01*
X0163495Y0101787D01*
X0157362Y0101787D01*
X0156366Y0100791D01*
X0156366Y0099856D02*
X0154600Y0099856D01*
X0155047Y0098857D02*
X0156366Y0098857D01*
X0156366Y0097859D02*
X0155217Y0097859D01*
X0156215Y0096860D02*
X0156366Y0096860D01*
X0152676Y0101853D02*
X0172546Y0101853D01*
X0173544Y0100854D02*
X0164427Y0100854D01*
X0160428Y0098315D02*
X0176649Y0098315D01*
X0181964Y0093000D01*
X0181964Y0063000D01*
X0186964Y0058000D01*
X0186964Y0068000D02*
X0183764Y0071200D01*
X0183764Y0093746D01*
X0170360Y0107150D01*
X0147219Y0107150D01*
X0146633Y0106564D01*
X0146633Y0106016D01*
X0144405Y0103787D01*
X0147011Y0099856D02*
X0149327Y0099856D01*
X0149019Y0100854D02*
X0149791Y0100854D01*
X0149791Y0101853D02*
X0149019Y0101853D01*
X0149019Y0102851D02*
X0149791Y0102851D01*
X0149791Y0103850D02*
X0170549Y0103850D01*
X0171547Y0102851D02*
X0152676Y0102851D01*
X0152676Y0104848D02*
X0169550Y0104848D01*
X0160428Y0093315D02*
X0160113Y0093000D01*
X0151964Y0113000D02*
X0148480Y0116484D01*
X0143499Y0116484D01*
X0147361Y0129811D02*
X0151040Y0129811D01*
X0149488Y0130809D02*
X0147561Y0130809D01*
X0147561Y0131808D02*
X0148886Y0131808D01*
X0148664Y0132806D02*
X0147561Y0132806D01*
X0147561Y0133805D02*
X0148664Y0133805D01*
X0148664Y0134803D02*
X0147561Y0134803D01*
X0147561Y0135802D02*
X0148664Y0135802D01*
X0148664Y0136801D02*
X0147561Y0136801D01*
X0149709Y0143790D02*
X0150371Y0143790D01*
X0155264Y0135802D02*
X0166612Y0135802D01*
X0166566Y0134803D02*
X0155264Y0134803D01*
X0155264Y0133805D02*
X0166566Y0133805D01*
X0166366Y0132806D02*
X0155693Y0132806D01*
X0156691Y0131808D02*
X0166366Y0131808D01*
X0166366Y0130809D02*
X0157690Y0130809D01*
X0158688Y0129811D02*
X0166366Y0129811D01*
X0166366Y0128812D02*
X0159687Y0128812D01*
X0160685Y0127814D02*
X0166366Y0127814D01*
X0166366Y0126815D02*
X0161684Y0126815D01*
X0162682Y0125817D02*
X0166366Y0125817D01*
X0166366Y0124818D02*
X0163681Y0124818D01*
X0164680Y0123820D02*
X0166366Y0123820D01*
X0166366Y0122821D02*
X0165678Y0122821D01*
X0170428Y0121602D02*
X0170428Y0119043D01*
X0170428Y0119043D01*
X0170429Y0119043D02*
X0170429Y0119043D01*
X0174291Y0119043D01*
X0174291Y0118854D01*
X0174896Y0118604D01*
X0175599Y0117900D01*
X0176274Y0117225D01*
X0176695Y0117225D01*
X0177908Y0116723D01*
X0181564Y0113067D01*
X0181564Y0113733D01*
X0174291Y0121006D01*
X0174291Y0120617D01*
X0174212Y0120323D01*
X0174291Y0120028D01*
X0174291Y0119043D01*
X0170429Y0119043D01*
X0170428Y0119043D02*
X0170428Y0119315D01*
X0170428Y0121602D01*
X0170428Y0121602D01*
X0170428Y0120824D02*
X0170428Y0120824D01*
X0170428Y0119826D02*
X0170428Y0119826D01*
X0174291Y0119826D02*
X0175471Y0119826D01*
X0174473Y0120824D02*
X0174291Y0120824D01*
X0174356Y0118827D02*
X0176470Y0118827D01*
X0175671Y0117829D02*
X0177468Y0117829D01*
X0177648Y0116830D02*
X0178467Y0116830D01*
X0178799Y0115832D02*
X0179465Y0115832D01*
X0179797Y0114833D02*
X0180464Y0114833D01*
X0180796Y0113835D02*
X0181462Y0113835D01*
X0181464Y0139796D02*
X0182464Y0139796D01*
X0182464Y0140795D02*
X0181464Y0140795D01*
X0181464Y0141793D02*
X0182464Y0141793D01*
X0182464Y0142792D02*
X0181464Y0142792D01*
X0186613Y0144789D02*
X0190185Y0144789D01*
X0190185Y0145787D02*
X0186613Y0145787D01*
X0186528Y0146786D02*
X0190185Y0146786D01*
X0175471Y0159766D02*
X0146203Y0159766D01*
X0147201Y0160765D02*
X0174476Y0160765D01*
X0174476Y0161763D02*
X0148200Y0161763D01*
X0149198Y0162762D02*
X0174476Y0162762D01*
X0174476Y0163760D02*
X0150197Y0163760D01*
X0151195Y0164759D02*
X0174476Y0164759D01*
X0174476Y0165757D02*
X0152194Y0165757D01*
X0153192Y0166756D02*
X0174476Y0166756D01*
X0174476Y0167754D02*
X0154191Y0167754D01*
X0155189Y0168753D02*
X0174761Y0168753D01*
X0172512Y0170750D02*
X0190185Y0170750D01*
X0190185Y0171748D02*
X0173152Y0171748D01*
X0173152Y0172747D02*
X0190185Y0172747D01*
X0190185Y0173745D02*
X0173152Y0173745D01*
X0173152Y0174744D02*
X0190185Y0174744D01*
X0190185Y0175742D02*
X0173152Y0175742D01*
X0173147Y0176741D02*
X0190185Y0176741D01*
X0190185Y0169751D02*
X0156188Y0169751D01*
X0150686Y0175742D02*
X0149198Y0175742D01*
X0154183Y0185728D02*
X0190185Y0185728D01*
X0168854Y0181937D02*
X0165113Y0181937D01*
X0147200Y0199850D01*
X0161913Y0184729D02*
X0162881Y0184729D01*
X0162881Y0183731D02*
X0161913Y0183731D01*
X0161913Y0182732D02*
X0162881Y0182732D01*
X0162881Y0180735D02*
X0161913Y0180735D01*
X0161913Y0179737D02*
X0162881Y0179737D01*
X0162881Y0178738D02*
X0161913Y0178738D01*
X0139437Y0139796D02*
X0103468Y0139796D01*
X0111464Y0158768D02*
X0112464Y0158768D01*
X0112464Y0159766D02*
X0111464Y0159766D01*
X0111464Y0160765D02*
X0112464Y0160765D01*
X0120632Y0181734D02*
X0122162Y0181734D01*
X0122783Y0182732D02*
X0120632Y0182732D01*
X0120488Y0183731D02*
X0122987Y0183731D01*
X0083077Y0153775D02*
X0079709Y0153775D01*
X0080707Y0154774D02*
X0082079Y0154774D01*
X0069917Y0160874D02*
X0069499Y0160457D01*
X0069499Y0159046D01*
X0068752Y0158299D01*
X0067342Y0158299D01*
X0066964Y0157921D01*
X0066964Y0153000D01*
X0067948Y0160874D02*
X0067948Y0169811D01*
X0066397Y0170381D02*
X0074365Y0178350D01*
X0074365Y0180165D01*
X0072440Y0182732D02*
X0061302Y0182732D01*
X0061302Y0183731D02*
X0073594Y0183731D01*
X0073378Y0194714D02*
X0076612Y0194714D01*
X0066650Y0173745D02*
X0060552Y0173745D01*
X0061302Y0172747D02*
X0065651Y0172747D01*
X0064653Y0171748D02*
X0061302Y0171748D01*
X0061302Y0170750D02*
X0064197Y0170750D01*
X0064197Y0169751D02*
X0061302Y0169751D01*
X0061302Y0168753D02*
X0064197Y0168753D01*
X0064197Y0167754D02*
X0061302Y0167754D01*
X0061302Y0166756D02*
X0064197Y0166756D01*
X0064197Y0165757D02*
X0061302Y0165757D01*
X0061302Y0164759D02*
X0064197Y0164759D01*
X0064011Y0160874D02*
X0062043Y0160874D01*
X0059090Y0157921D01*
X0054562Y0162449D01*
X0044838Y0162449D01*
X0052086Y0154774D02*
X0055747Y0154774D01*
X0054749Y0155772D02*
X0054398Y0155772D01*
X0055121Y0158512D02*
X0052712Y0158512D01*
X0055121Y0158512D02*
X0057262Y0156370D01*
X0058673Y0156370D01*
X0059090Y0155953D01*
X0065980Y0160874D02*
X0066397Y0161291D01*
X0066397Y0170381D01*
X0031964Y0139647D02*
X0038164Y0133447D01*
X0038164Y0121800D01*
X0059464Y0100500D01*
X0061921Y0100500D01*
X0074106Y0088315D01*
X0093499Y0088315D01*
X0097561Y0087873D02*
X0098780Y0087873D01*
X0098780Y0086875D02*
X0097561Y0086875D01*
X0097561Y0085876D02*
X0098780Y0085876D01*
X0098780Y0084878D02*
X0097561Y0084878D01*
X0097561Y0083879D02*
X0098780Y0083879D01*
X0098780Y0082881D02*
X0097561Y0082881D01*
X0097561Y0081882D02*
X0098780Y0081882D01*
X0098780Y0080884D02*
X0097561Y0080884D01*
X0097561Y0079885D02*
X0098780Y0079885D01*
X0098780Y0078887D02*
X0097561Y0078887D01*
X0097561Y0077888D02*
X0098780Y0077888D01*
X0098780Y0076890D02*
X0097561Y0076890D01*
X0097561Y0075891D02*
X0098780Y0075891D01*
X0098780Y0074893D02*
X0097561Y0074893D01*
X0097561Y0073894D02*
X0098780Y0073894D01*
X0098780Y0072896D02*
X0097561Y0072896D01*
X0097561Y0071897D02*
X0098780Y0071897D01*
X0098780Y0070899D02*
X0097561Y0070899D01*
X0097561Y0069900D02*
X0098780Y0069900D01*
X0098780Y0068902D02*
X0097561Y0068902D01*
X0097561Y0067903D02*
X0098780Y0067903D01*
X0098780Y0066905D02*
X0097561Y0066905D01*
X0097561Y0065906D02*
X0098780Y0065906D01*
X0098780Y0064908D02*
X0097561Y0064908D01*
X0097561Y0063909D02*
X0098780Y0063909D01*
X0098780Y0062911D02*
X0097561Y0062911D01*
X0097561Y0061912D02*
X0098780Y0061912D01*
X0098535Y0060914D02*
X0097561Y0060914D01*
X0093499Y0058315D02*
X0091271Y0060543D01*
X0090723Y0060543D01*
X0090137Y0061129D01*
X0090137Y0061677D01*
X0058814Y0093000D01*
X0031964Y0093000D01*
X0033698Y0087873D02*
X0060830Y0087873D01*
X0061828Y0086875D02*
X0028664Y0086875D01*
X0028664Y0087873D02*
X0030230Y0087873D01*
X0028664Y0085876D02*
X0033184Y0085876D01*
X0032311Y0084878D02*
X0028664Y0084878D01*
X0028664Y0083879D02*
X0032311Y0083879D01*
X0032311Y0082881D02*
X0028664Y0082881D01*
X0028664Y0081882D02*
X0032311Y0081882D01*
X0032311Y0080884D02*
X0028664Y0080884D01*
X0028664Y0079885D02*
X0031704Y0079885D01*
X0030705Y0078887D02*
X0028664Y0078887D01*
X0028664Y0077888D02*
X0030225Y0077888D01*
X0030211Y0076890D02*
X0028664Y0076890D01*
X0028664Y0075891D02*
X0030211Y0075891D01*
X0030211Y0074893D02*
X0028664Y0074893D01*
X0028664Y0073894D02*
X0030211Y0073894D01*
X0030211Y0072896D02*
X0028664Y0072896D01*
X0028664Y0071897D02*
X0030211Y0071897D01*
X0030211Y0070899D02*
X0028664Y0070899D01*
X0028664Y0069900D02*
X0030211Y0069900D01*
X0029631Y0068902D02*
X0028664Y0068902D01*
X0028664Y0067903D02*
X0029464Y0067903D01*
X0029464Y0066905D02*
X0028664Y0066905D01*
X0028664Y0065906D02*
X0029464Y0065906D01*
X0029464Y0064908D02*
X0028664Y0064908D01*
X0028664Y0063909D02*
X0029464Y0063909D01*
X0029464Y0062911D02*
X0028664Y0062911D01*
X0028664Y0061912D02*
X0029464Y0061912D01*
X0029464Y0060914D02*
X0028664Y0060914D01*
X0028664Y0059915D02*
X0029464Y0059915D01*
X0029464Y0058917D02*
X0028664Y0058917D01*
X0028664Y0057918D02*
X0029464Y0057918D01*
X0029464Y0056920D02*
X0028664Y0056920D01*
X0028664Y0055921D02*
X0029464Y0055921D01*
X0029464Y0054923D02*
X0028664Y0054923D01*
X0028664Y0053924D02*
X0029464Y0053924D01*
X0029464Y0052926D02*
X0028664Y0052926D01*
X0028664Y0051927D02*
X0029464Y0051927D01*
X0029464Y0050929D02*
X0028664Y0050929D01*
X0028664Y0049930D02*
X0029464Y0049930D01*
X0029464Y0048932D02*
X0028664Y0048932D01*
X0028664Y0047933D02*
X0029464Y0047933D01*
X0029464Y0046934D02*
X0028664Y0046934D01*
X0028664Y0045936D02*
X0029464Y0045936D01*
X0029464Y0044937D02*
X0028664Y0044937D01*
X0028664Y0043939D02*
X0029464Y0043939D01*
X0029464Y0042940D02*
X0028664Y0042940D01*
X0028664Y0041942D02*
X0029464Y0041942D01*
X0029464Y0040943D02*
X0028664Y0040943D01*
X0028664Y0039945D02*
X0029464Y0039945D01*
X0029464Y0038946D02*
X0028664Y0038946D01*
X0028664Y0037948D02*
X0029464Y0037948D01*
X0029464Y0036949D02*
X0028664Y0036949D01*
X0028664Y0035951D02*
X0029464Y0035951D01*
X0029464Y0034952D02*
X0028664Y0034952D01*
X0028664Y0033954D02*
X0029464Y0033954D01*
X0029464Y0032955D02*
X0028664Y0032955D01*
X0028664Y0031957D02*
X0029464Y0031957D01*
X0029464Y0030958D02*
X0028664Y0030958D01*
X0028664Y0029960D02*
X0029464Y0029960D01*
X0029464Y0028961D02*
X0028664Y0028961D01*
X0028664Y0027963D02*
X0029464Y0027963D01*
X0029464Y0026964D02*
X0028664Y0026964D01*
X0028664Y0025966D02*
X0029464Y0025966D01*
X0029464Y0024967D02*
X0028664Y0024967D01*
X0028664Y0023969D02*
X0029464Y0023969D01*
X0029464Y0022970D02*
X0028664Y0022970D01*
X0028664Y0021972D02*
X0029464Y0021972D01*
X0029464Y0020973D02*
X0028664Y0020973D01*
X0028664Y0019975D02*
X0029464Y0019975D01*
X0029464Y0018976D02*
X0028664Y0018976D01*
X0028664Y0017978D02*
X0029459Y0017978D01*
X0029679Y0016979D02*
X0028664Y0016979D01*
X0028664Y0015981D02*
X0030178Y0015981D01*
X0030678Y0014982D02*
X0028664Y0014982D01*
X0028664Y0013984D02*
X0031177Y0013984D01*
X0031676Y0012985D02*
X0028664Y0012985D01*
X0028664Y0011987D02*
X0032175Y0011987D01*
X0032675Y0010988D02*
X0028664Y0010988D01*
X0028664Y0009990D02*
X0033174Y0009990D01*
X0033673Y0008991D02*
X0028664Y0008991D01*
X0028664Y0007993D02*
X0034172Y0007993D01*
X0034672Y0006994D02*
X0028664Y0006994D01*
X0028664Y0005996D02*
X0035433Y0005996D01*
X0028664Y0004997D02*
X0088413Y0004997D01*
X0093113Y0030958D02*
X0093885Y0030958D01*
X0093885Y0031957D02*
X0093113Y0031957D01*
X0089437Y0057918D02*
X0088542Y0057918D01*
X0089238Y0058917D02*
X0087543Y0058917D01*
X0088240Y0059915D02*
X0086545Y0059915D01*
X0085546Y0060914D02*
X0087789Y0060914D01*
X0086791Y0061912D02*
X0084548Y0061912D01*
X0083549Y0062911D02*
X0085792Y0062911D01*
X0084794Y0063909D02*
X0082551Y0063909D01*
X0081552Y0064908D02*
X0083795Y0064908D01*
X0082797Y0065906D02*
X0081105Y0065906D01*
X0081105Y0066905D02*
X0081798Y0066905D01*
X0080800Y0067903D02*
X0080587Y0067903D01*
X0079801Y0068902D02*
X0035211Y0068902D01*
X0035211Y0069900D02*
X0078803Y0069900D01*
X0077804Y0070899D02*
X0041186Y0070899D01*
X0041117Y0070780D02*
X0041314Y0071122D01*
X0041417Y0071503D01*
X0041417Y0073760D01*
X0037464Y0073760D01*
X0037464Y0070201D01*
X0040114Y0070201D01*
X0040496Y0070303D01*
X0040838Y0070500D01*
X0041117Y0070780D01*
X0041417Y0071897D02*
X0076806Y0071897D01*
X0075807Y0072896D02*
X0041417Y0072896D01*
X0041417Y0074893D02*
X0073810Y0074893D01*
X0072812Y0075891D02*
X0041417Y0075891D01*
X0041417Y0076890D02*
X0071813Y0076890D01*
X0070815Y0077888D02*
X0041028Y0077888D01*
X0041617Y0078887D02*
X0069816Y0078887D01*
X0068818Y0079885D02*
X0041617Y0079885D01*
X0041617Y0080884D02*
X0067819Y0080884D01*
X0066821Y0081882D02*
X0041617Y0081882D01*
X0041617Y0082881D02*
X0065822Y0082881D01*
X0064824Y0083879D02*
X0041617Y0083879D01*
X0041617Y0084878D02*
X0063825Y0084878D01*
X0062827Y0085876D02*
X0040744Y0085876D01*
X0036471Y0089870D02*
X0058832Y0089870D01*
X0059831Y0088872D02*
X0035473Y0088872D01*
X0040464Y0094500D02*
X0059436Y0094500D01*
X0085621Y0068315D01*
X0093499Y0068315D01*
X0093499Y0073315D02*
X0082742Y0073315D01*
X0062510Y0093547D01*
X0060057Y0096000D01*
X0048964Y0096000D01*
X0031964Y0113000D01*
X0036664Y0120421D02*
X0058085Y0099000D01*
X0061300Y0099000D01*
X0076985Y0083315D01*
X0093499Y0083315D01*
X0093499Y0078315D02*
X0079863Y0078315D01*
X0060678Y0097500D01*
X0057464Y0097500D01*
X0031964Y0123000D01*
X0036664Y0124947D02*
X0031964Y0129647D01*
X0031964Y0133000D01*
X0031964Y0139647D02*
X0031964Y0143000D01*
X0029367Y0157769D02*
X0028664Y0157769D01*
X0045965Y0129811D02*
X0059260Y0129811D01*
X0059260Y0128812D02*
X0046046Y0128812D01*
X0045823Y0127814D02*
X0059260Y0127814D01*
X0059622Y0126815D02*
X0045193Y0126815D01*
X0043523Y0125817D02*
X0063189Y0125817D01*
X0060901Y0121740D02*
X0064641Y0118000D01*
X0066964Y0118000D01*
X0067990Y0115524D02*
X0069440Y0116974D01*
X0069440Y0119026D01*
X0067990Y0115524D02*
X0062165Y0115524D01*
X0060901Y0114260D01*
X0057429Y0113835D02*
X0054833Y0113835D01*
X0055217Y0114833D02*
X0057429Y0114833D01*
X0057429Y0115832D02*
X0056105Y0115832D01*
X0056105Y0116830D02*
X0057721Y0116830D01*
X0056105Y0117829D02*
X0061701Y0117829D01*
X0058063Y0118827D02*
X0056105Y0118827D01*
X0056105Y0119826D02*
X0057429Y0119826D01*
X0057429Y0120824D02*
X0055559Y0120824D01*
X0057429Y0121823D02*
X0043374Y0121823D01*
X0044372Y0120824D02*
X0049707Y0120824D01*
X0049161Y0119826D02*
X0045371Y0119826D01*
X0046369Y0118827D02*
X0049161Y0118827D01*
X0049161Y0117829D02*
X0047368Y0117829D01*
X0048366Y0116830D02*
X0049161Y0116830D01*
X0052633Y0118000D02*
X0052633Y0112331D01*
X0056964Y0108000D01*
X0061964Y0108000D01*
X0060518Y0110839D02*
X0057236Y0110839D01*
X0057572Y0111838D02*
X0056237Y0111838D01*
X0055239Y0112836D02*
X0057429Y0112836D01*
X0057429Y0122821D02*
X0042375Y0122821D01*
X0041864Y0123820D02*
X0057429Y0123820D01*
X0058228Y0124818D02*
X0041864Y0124818D01*
X0041864Y0125817D02*
X0042216Y0125817D01*
X0036664Y0124947D02*
X0036664Y0120421D01*
X0031964Y0103000D02*
X0040464Y0094500D01*
X0037464Y0073894D02*
X0074809Y0073894D01*
X0058733Y0067903D02*
X0044366Y0067903D01*
X0044884Y0066905D02*
X0057333Y0066905D01*
X0056335Y0065906D02*
X0044884Y0065906D01*
X0044884Y0064908D02*
X0055336Y0064908D01*
X0054338Y0063909D02*
X0044884Y0063909D01*
X0044359Y0062911D02*
X0053339Y0062911D01*
X0052341Y0061912D02*
X0044884Y0061912D01*
X0044884Y0060914D02*
X0051342Y0060914D01*
X0050343Y0059915D02*
X0044884Y0059915D01*
X0044884Y0058917D02*
X0049345Y0058917D01*
X0048346Y0057918D02*
X0044351Y0057918D01*
X0044884Y0056920D02*
X0047348Y0056920D01*
X0046349Y0055921D02*
X0044884Y0055921D01*
X0044884Y0054923D02*
X0045351Y0054923D01*
X0037464Y0070899D02*
X0036464Y0070899D01*
X0036464Y0071897D02*
X0037464Y0071897D01*
X0037464Y0072896D02*
X0036464Y0072896D01*
X0060085Y0102000D02*
X0062542Y0102000D01*
X0071227Y0093315D01*
X0093499Y0093315D01*
X0093499Y0098315D02*
X0081649Y0098315D01*
X0076964Y0103000D01*
X0074001Y0101853D02*
X0069927Y0101853D01*
X0070351Y0102851D02*
X0073787Y0102851D01*
X0073878Y0103850D02*
X0071349Y0103850D01*
X0072348Y0104848D02*
X0074320Y0104848D01*
X0073346Y0105847D02*
X0075536Y0105847D01*
X0078392Y0105847D02*
X0094416Y0105847D01*
X0089500Y0100854D02*
X0082221Y0100854D01*
X0078994Y0097859D02*
X0069795Y0097859D01*
X0068796Y0098857D02*
X0077995Y0098857D01*
X0076255Y0099856D02*
X0067798Y0099856D01*
X0069310Y0100854D02*
X0074618Y0100854D01*
X0070793Y0096860D02*
X0079993Y0096860D01*
X0071792Y0095862D02*
X0089437Y0095862D01*
X0097561Y0095862D02*
X0105186Y0095862D01*
X0104138Y0094863D02*
X0097561Y0094863D01*
X0097561Y0093865D02*
X0103724Y0093865D01*
X0100590Y0090869D02*
X0097561Y0090869D01*
X0097561Y0089870D02*
X0099342Y0089870D01*
X0098887Y0088872D02*
X0097561Y0088872D01*
X0063878Y0103850D02*
X0063804Y0103850D01*
X0035260Y0211689D02*
X0028664Y0211689D01*
X0028664Y0212687D02*
X0034049Y0212687D01*
X0032859Y0213686D02*
X0028664Y0213686D01*
X0028664Y0214684D02*
X0032192Y0214684D01*
X0031615Y0215683D02*
X0028664Y0215683D01*
X0028664Y0216681D02*
X0031039Y0216681D01*
X0030854Y0217680D02*
X0028664Y0217680D01*
X0028664Y0218678D02*
X0030678Y0218678D01*
X0030502Y0219677D02*
X0028664Y0219677D01*
X0028664Y0220675D02*
X0030575Y0220675D01*
X0030751Y0221674D02*
X0028664Y0221674D01*
X0028664Y0222672D02*
X0030927Y0222672D01*
X0031279Y0223671D02*
X0028664Y0223671D01*
X0028664Y0224670D02*
X0031855Y0224670D01*
X0032432Y0225668D02*
X0028664Y0225668D01*
X0028664Y0226667D02*
X0033354Y0226667D01*
X0034544Y0227665D02*
X0028664Y0227665D01*
X0028664Y0230661D02*
X0190185Y0230661D01*
D42*
X0150126Y0153690D03*
X0106964Y0118000D03*
X0096964Y0108000D03*
X0106964Y0093000D03*
X0111964Y0088000D03*
X0137791Y0092173D03*
X0081964Y0113000D03*
M02*
