G75*
%MOIN*%
%OFA0B0*%
%FSLAX25Y25*%
%IPPOS*%
%LPD*%
%AMOC8*
5,1,8,0,0,1.08239X$1,22.5*
%
%ADD10C,0.00300*%
%ADD11C,0.01200*%
%ADD12R,0.00750X0.03500*%
%ADD13C,0.00600*%
%ADD14C,0.00800*%
%ADD15R,0.03937X0.00787*%
%ADD16C,0.00200*%
D10*
X0039699Y0091733D02*
X0040521Y0091733D01*
X0039699Y0091732D02*
X0039651Y0091734D01*
X0039602Y0091740D01*
X0039555Y0091749D01*
X0039508Y0091762D01*
X0039463Y0091779D01*
X0039419Y0091799D01*
X0039377Y0091823D01*
X0039336Y0091850D01*
X0039298Y0091880D01*
X0039263Y0091913D01*
X0039230Y0091948D01*
X0039200Y0091986D01*
X0039173Y0092027D01*
X0039149Y0092069D01*
X0039129Y0092113D01*
X0039112Y0092158D01*
X0039099Y0092205D01*
X0039090Y0092252D01*
X0039084Y0092301D01*
X0039082Y0092349D01*
X0039082Y0093583D01*
X0039084Y0093631D01*
X0039090Y0093680D01*
X0039099Y0093727D01*
X0039112Y0093774D01*
X0039129Y0093819D01*
X0039149Y0093863D01*
X0039173Y0093905D01*
X0039200Y0093946D01*
X0039230Y0093984D01*
X0039263Y0094019D01*
X0039298Y0094052D01*
X0039336Y0094082D01*
X0039377Y0094109D01*
X0039419Y0094133D01*
X0039463Y0094153D01*
X0039508Y0094170D01*
X0039555Y0094183D01*
X0039602Y0094192D01*
X0039651Y0094198D01*
X0039699Y0094200D01*
X0039699Y0094199D02*
X0040521Y0094199D01*
X0042353Y0094199D02*
X0042308Y0094198D01*
X0042263Y0094193D01*
X0042219Y0094184D01*
X0042176Y0094172D01*
X0042134Y0094156D01*
X0042094Y0094136D01*
X0042055Y0094113D01*
X0042019Y0094088D01*
X0041985Y0094059D01*
X0041953Y0094027D01*
X0041924Y0093993D01*
X0041898Y0093956D01*
X0041875Y0093918D01*
X0041856Y0093877D01*
X0041840Y0093835D01*
X0041827Y0093792D01*
X0041818Y0093748D01*
X0041813Y0093704D01*
X0041812Y0093659D01*
X0041815Y0093614D01*
X0041821Y0093570D01*
X0041831Y0093526D01*
X0041844Y0093484D01*
X0041861Y0093442D01*
X0041882Y0093402D01*
X0041906Y0093364D01*
X0041932Y0093329D01*
X0041962Y0093295D01*
X0041995Y0093264D01*
X0042030Y0093236D01*
X0042067Y0093211D01*
X0042106Y0093190D01*
X0042147Y0093171D01*
X0042147Y0093172D02*
X0043174Y0092760D01*
X0043174Y0092761D02*
X0043215Y0092742D01*
X0043254Y0092721D01*
X0043291Y0092696D01*
X0043326Y0092668D01*
X0043359Y0092637D01*
X0043389Y0092603D01*
X0043415Y0092568D01*
X0043439Y0092530D01*
X0043460Y0092490D01*
X0043477Y0092448D01*
X0043490Y0092406D01*
X0043500Y0092362D01*
X0043506Y0092318D01*
X0043509Y0092273D01*
X0043508Y0092228D01*
X0043503Y0092184D01*
X0043494Y0092140D01*
X0043481Y0092097D01*
X0043465Y0092055D01*
X0043446Y0092014D01*
X0043423Y0091976D01*
X0043397Y0091939D01*
X0043368Y0091905D01*
X0043336Y0091873D01*
X0043302Y0091844D01*
X0043266Y0091819D01*
X0043227Y0091796D01*
X0043187Y0091776D01*
X0043145Y0091760D01*
X0043102Y0091748D01*
X0043058Y0091739D01*
X0043013Y0091734D01*
X0042968Y0091733D01*
X0043277Y0093993D02*
X0043189Y0094031D01*
X0043100Y0094064D01*
X0043010Y0094094D01*
X0042918Y0094121D01*
X0042825Y0094143D01*
X0042732Y0094162D01*
X0042638Y0094177D01*
X0042543Y0094188D01*
X0042448Y0094195D01*
X0042352Y0094199D01*
X0041839Y0091938D02*
X0041948Y0091901D01*
X0042058Y0091867D01*
X0042170Y0091837D01*
X0042282Y0091811D01*
X0042395Y0091788D01*
X0042509Y0091769D01*
X0042624Y0091754D01*
X0042739Y0091743D01*
X0042854Y0091736D01*
X0042969Y0091732D01*
X0043797Y0101575D02*
X0045853Y0101575D01*
X0044825Y0101575D02*
X0044825Y0105275D01*
X0043797Y0104453D01*
X0042287Y0103220D02*
X0042287Y0102397D01*
X0042285Y0102341D01*
X0042279Y0102285D01*
X0042270Y0102230D01*
X0042257Y0102175D01*
X0042240Y0102122D01*
X0042219Y0102070D01*
X0042195Y0102019D01*
X0042167Y0101970D01*
X0042137Y0101923D01*
X0042103Y0101878D01*
X0042066Y0101836D01*
X0042026Y0101796D01*
X0041984Y0101759D01*
X0041939Y0101725D01*
X0041892Y0101695D01*
X0041843Y0101667D01*
X0041792Y0101643D01*
X0041740Y0101622D01*
X0041687Y0101605D01*
X0041632Y0101592D01*
X0041577Y0101583D01*
X0041521Y0101577D01*
X0041465Y0101575D01*
X0041409Y0101577D01*
X0041353Y0101583D01*
X0041298Y0101592D01*
X0041243Y0101605D01*
X0041190Y0101622D01*
X0041138Y0101643D01*
X0041087Y0101667D01*
X0041038Y0101695D01*
X0040991Y0101725D01*
X0040946Y0101759D01*
X0040904Y0101796D01*
X0040864Y0101836D01*
X0040827Y0101878D01*
X0040793Y0101923D01*
X0040763Y0101970D01*
X0040735Y0102019D01*
X0040711Y0102070D01*
X0040690Y0102122D01*
X0040673Y0102175D01*
X0040660Y0102230D01*
X0040651Y0102285D01*
X0040645Y0102341D01*
X0040643Y0102397D01*
X0040643Y0103220D01*
X0040645Y0103276D01*
X0040651Y0103332D01*
X0040660Y0103387D01*
X0040673Y0103442D01*
X0040690Y0103495D01*
X0040711Y0103547D01*
X0040735Y0103598D01*
X0040763Y0103647D01*
X0040793Y0103694D01*
X0040827Y0103739D01*
X0040864Y0103781D01*
X0040904Y0103821D01*
X0040946Y0103858D01*
X0040991Y0103892D01*
X0041038Y0103922D01*
X0041087Y0103950D01*
X0041138Y0103974D01*
X0041190Y0103995D01*
X0041243Y0104012D01*
X0041298Y0104025D01*
X0041353Y0104034D01*
X0041409Y0104040D01*
X0041465Y0104042D01*
X0041521Y0104040D01*
X0041577Y0104034D01*
X0041632Y0104025D01*
X0041687Y0104012D01*
X0041740Y0103995D01*
X0041792Y0103974D01*
X0041843Y0103950D01*
X0041892Y0103922D01*
X0041939Y0103892D01*
X0041984Y0103858D01*
X0042026Y0103821D01*
X0042066Y0103781D01*
X0042103Y0103739D01*
X0042137Y0103694D01*
X0042167Y0103647D01*
X0042195Y0103598D01*
X0042219Y0103547D01*
X0042240Y0103495D01*
X0042257Y0103442D01*
X0042270Y0103387D01*
X0042279Y0103332D01*
X0042285Y0103276D01*
X0042287Y0103220D01*
X0039185Y0104042D02*
X0039185Y0101575D01*
X0039288Y0105070D02*
X0039082Y0105070D01*
X0039082Y0105275D01*
X0039288Y0105275D01*
X0039288Y0105070D01*
X0039082Y0111418D02*
X0039082Y0113884D01*
X0040932Y0113884D01*
X0040932Y0113885D02*
X0040980Y0113883D01*
X0041029Y0113877D01*
X0041076Y0113868D01*
X0041123Y0113855D01*
X0041168Y0113838D01*
X0041212Y0113818D01*
X0041254Y0113794D01*
X0041295Y0113767D01*
X0041333Y0113737D01*
X0041368Y0113704D01*
X0041401Y0113669D01*
X0041431Y0113631D01*
X0041458Y0113590D01*
X0041482Y0113548D01*
X0041502Y0113504D01*
X0041519Y0113459D01*
X0041532Y0113412D01*
X0041541Y0113365D01*
X0041547Y0113316D01*
X0041549Y0113268D01*
X0041549Y0111418D01*
X0040316Y0111418D02*
X0040316Y0113884D01*
X0043213Y0113062D02*
X0043213Y0112240D01*
X0043214Y0112240D02*
X0043216Y0112184D01*
X0043222Y0112128D01*
X0043231Y0112073D01*
X0043244Y0112018D01*
X0043261Y0111965D01*
X0043282Y0111913D01*
X0043306Y0111862D01*
X0043334Y0111813D01*
X0043364Y0111766D01*
X0043398Y0111721D01*
X0043435Y0111679D01*
X0043475Y0111639D01*
X0043517Y0111602D01*
X0043562Y0111568D01*
X0043609Y0111538D01*
X0043658Y0111510D01*
X0043709Y0111486D01*
X0043761Y0111465D01*
X0043814Y0111448D01*
X0043869Y0111435D01*
X0043924Y0111426D01*
X0043980Y0111420D01*
X0044036Y0111418D01*
X0044092Y0111420D01*
X0044148Y0111426D01*
X0044203Y0111435D01*
X0044258Y0111448D01*
X0044311Y0111465D01*
X0044363Y0111486D01*
X0044414Y0111510D01*
X0044463Y0111538D01*
X0044510Y0111568D01*
X0044555Y0111602D01*
X0044597Y0111639D01*
X0044637Y0111679D01*
X0044674Y0111721D01*
X0044708Y0111766D01*
X0044738Y0111813D01*
X0044766Y0111862D01*
X0044790Y0111913D01*
X0044811Y0111965D01*
X0044828Y0112018D01*
X0044841Y0112073D01*
X0044850Y0112128D01*
X0044856Y0112184D01*
X0044858Y0112240D01*
X0044858Y0113062D01*
X0044856Y0113118D01*
X0044850Y0113174D01*
X0044841Y0113229D01*
X0044828Y0113284D01*
X0044811Y0113337D01*
X0044790Y0113389D01*
X0044766Y0113440D01*
X0044738Y0113489D01*
X0044708Y0113536D01*
X0044674Y0113581D01*
X0044637Y0113623D01*
X0044597Y0113663D01*
X0044555Y0113700D01*
X0044510Y0113734D01*
X0044463Y0113764D01*
X0044414Y0113792D01*
X0044363Y0113816D01*
X0044311Y0113837D01*
X0044258Y0113854D01*
X0044203Y0113867D01*
X0044148Y0113876D01*
X0044092Y0113882D01*
X0044036Y0113884D01*
X0043980Y0113882D01*
X0043924Y0113876D01*
X0043869Y0113867D01*
X0043814Y0113854D01*
X0043761Y0113837D01*
X0043709Y0113816D01*
X0043658Y0113792D01*
X0043609Y0113764D01*
X0043562Y0113734D01*
X0043517Y0113700D01*
X0043475Y0113663D01*
X0043435Y0113623D01*
X0043398Y0113581D01*
X0043364Y0113536D01*
X0043334Y0113489D01*
X0043306Y0113440D01*
X0043282Y0113389D01*
X0043261Y0113337D01*
X0043244Y0113284D01*
X0043231Y0113229D01*
X0043222Y0113174D01*
X0043216Y0113118D01*
X0043214Y0113062D01*
X0042926Y0121260D02*
X0043748Y0121260D01*
X0042926Y0121260D02*
X0042878Y0121262D01*
X0042829Y0121268D01*
X0042782Y0121277D01*
X0042735Y0121290D01*
X0042690Y0121307D01*
X0042646Y0121327D01*
X0042604Y0121351D01*
X0042563Y0121378D01*
X0042525Y0121408D01*
X0042490Y0121441D01*
X0042457Y0121476D01*
X0042427Y0121514D01*
X0042400Y0121555D01*
X0042376Y0121597D01*
X0042356Y0121641D01*
X0042339Y0121686D01*
X0042326Y0121733D01*
X0042317Y0121780D01*
X0042311Y0121829D01*
X0042309Y0121877D01*
X0042309Y0123110D01*
X0042311Y0123158D01*
X0042317Y0123207D01*
X0042326Y0123254D01*
X0042339Y0123301D01*
X0042356Y0123346D01*
X0042376Y0123390D01*
X0042400Y0123432D01*
X0042427Y0123473D01*
X0042457Y0123511D01*
X0042490Y0123546D01*
X0042525Y0123579D01*
X0042563Y0123609D01*
X0042604Y0123636D01*
X0042646Y0123660D01*
X0042690Y0123680D01*
X0042735Y0123697D01*
X0042782Y0123710D01*
X0042829Y0123719D01*
X0042878Y0123725D01*
X0042926Y0123727D01*
X0043748Y0123727D01*
X0045226Y0124960D02*
X0045226Y0121260D01*
X0045226Y0122494D02*
X0046871Y0123727D01*
X0045946Y0123007D02*
X0046871Y0121260D01*
X0040521Y0122288D02*
X0039493Y0122699D01*
X0039452Y0122718D01*
X0039413Y0122739D01*
X0039376Y0122764D01*
X0039341Y0122792D01*
X0039308Y0122823D01*
X0039278Y0122857D01*
X0039252Y0122892D01*
X0039228Y0122930D01*
X0039207Y0122970D01*
X0039190Y0123012D01*
X0039177Y0123054D01*
X0039167Y0123098D01*
X0039161Y0123142D01*
X0039158Y0123187D01*
X0039159Y0123232D01*
X0039164Y0123276D01*
X0039173Y0123320D01*
X0039186Y0123363D01*
X0039202Y0123405D01*
X0039221Y0123446D01*
X0039244Y0123484D01*
X0039270Y0123521D01*
X0039299Y0123555D01*
X0039331Y0123587D01*
X0039365Y0123616D01*
X0039401Y0123641D01*
X0039440Y0123664D01*
X0039480Y0123684D01*
X0039522Y0123700D01*
X0039565Y0123712D01*
X0039609Y0123721D01*
X0039654Y0123726D01*
X0039699Y0123727D01*
X0039185Y0121466D02*
X0039294Y0121429D01*
X0039404Y0121395D01*
X0039516Y0121365D01*
X0039628Y0121339D01*
X0039741Y0121316D01*
X0039855Y0121297D01*
X0039970Y0121282D01*
X0040085Y0121271D01*
X0040200Y0121264D01*
X0040315Y0121260D01*
X0040360Y0121261D01*
X0040405Y0121266D01*
X0040449Y0121275D01*
X0040492Y0121287D01*
X0040534Y0121303D01*
X0040574Y0121323D01*
X0040613Y0121346D01*
X0040649Y0121371D01*
X0040683Y0121400D01*
X0040715Y0121432D01*
X0040744Y0121466D01*
X0040770Y0121503D01*
X0040793Y0121541D01*
X0040812Y0121582D01*
X0040828Y0121624D01*
X0040841Y0121667D01*
X0040850Y0121711D01*
X0040855Y0121755D01*
X0040856Y0121800D01*
X0040853Y0121845D01*
X0040847Y0121889D01*
X0040837Y0121933D01*
X0040824Y0121975D01*
X0040807Y0122017D01*
X0040786Y0122057D01*
X0040762Y0122095D01*
X0040736Y0122130D01*
X0040706Y0122164D01*
X0040673Y0122195D01*
X0040638Y0122223D01*
X0040601Y0122248D01*
X0040562Y0122269D01*
X0040521Y0122288D01*
X0040624Y0123521D02*
X0040536Y0123559D01*
X0040447Y0123592D01*
X0040357Y0123622D01*
X0040265Y0123649D01*
X0040172Y0123671D01*
X0040079Y0123690D01*
X0039985Y0123705D01*
X0039890Y0123716D01*
X0039795Y0123723D01*
X0039699Y0123727D01*
X0040110Y0131103D02*
X0040316Y0131103D01*
X0040110Y0131102D02*
X0040062Y0131104D01*
X0040013Y0131110D01*
X0039966Y0131119D01*
X0039919Y0131132D01*
X0039874Y0131149D01*
X0039830Y0131169D01*
X0039788Y0131193D01*
X0039747Y0131220D01*
X0039709Y0131250D01*
X0039674Y0131283D01*
X0039641Y0131318D01*
X0039611Y0131356D01*
X0039584Y0131397D01*
X0039560Y0131439D01*
X0039540Y0131483D01*
X0039523Y0131528D01*
X0039510Y0131575D01*
X0039501Y0131622D01*
X0039495Y0131671D01*
X0039493Y0131719D01*
X0039493Y0134803D01*
X0039082Y0133569D02*
X0040316Y0133569D01*
X0041545Y0133569D02*
X0043189Y0131103D01*
X0041545Y0131103D02*
X0043189Y0133569D01*
X0044882Y0139712D02*
X0045705Y0139712D01*
X0045753Y0139714D01*
X0045802Y0139720D01*
X0045849Y0139729D01*
X0045896Y0139742D01*
X0045941Y0139759D01*
X0045985Y0139779D01*
X0046027Y0139803D01*
X0046068Y0139830D01*
X0046106Y0139860D01*
X0046141Y0139893D01*
X0046174Y0139928D01*
X0046204Y0139966D01*
X0046231Y0140007D01*
X0046255Y0140049D01*
X0046275Y0140093D01*
X0046292Y0140138D01*
X0046305Y0140185D01*
X0046314Y0140232D01*
X0046320Y0140281D01*
X0046322Y0140329D01*
X0046321Y0140329D02*
X0046321Y0143412D01*
X0045293Y0143412D01*
X0045245Y0143410D01*
X0045196Y0143404D01*
X0045149Y0143395D01*
X0045102Y0143382D01*
X0045057Y0143365D01*
X0045013Y0143345D01*
X0044971Y0143321D01*
X0044930Y0143294D01*
X0044892Y0143264D01*
X0044857Y0143231D01*
X0044824Y0143196D01*
X0044794Y0143158D01*
X0044767Y0143117D01*
X0044743Y0143075D01*
X0044723Y0143031D01*
X0044706Y0142986D01*
X0044693Y0142939D01*
X0044684Y0142892D01*
X0044678Y0142843D01*
X0044676Y0142795D01*
X0044677Y0142795D02*
X0044677Y0141562D01*
X0044676Y0141562D02*
X0044678Y0141514D01*
X0044684Y0141465D01*
X0044693Y0141418D01*
X0044706Y0141371D01*
X0044723Y0141326D01*
X0044743Y0141282D01*
X0044767Y0141240D01*
X0044794Y0141199D01*
X0044824Y0141161D01*
X0044857Y0141126D01*
X0044892Y0141093D01*
X0044930Y0141063D01*
X0044971Y0141036D01*
X0045013Y0141012D01*
X0045057Y0140992D01*
X0045102Y0140975D01*
X0045149Y0140962D01*
X0045196Y0140953D01*
X0045245Y0140947D01*
X0045293Y0140945D01*
X0046321Y0140945D01*
X0048757Y0140945D02*
X0048757Y0144645D01*
X0047729Y0144645D02*
X0049785Y0144645D01*
X0050935Y0143412D02*
X0052579Y0140945D01*
X0050935Y0140945D02*
X0052579Y0143412D01*
X0049483Y0150788D02*
X0049483Y0152638D01*
X0049481Y0152686D01*
X0049475Y0152735D01*
X0049466Y0152782D01*
X0049453Y0152829D01*
X0049436Y0152874D01*
X0049416Y0152918D01*
X0049392Y0152960D01*
X0049365Y0153001D01*
X0049335Y0153039D01*
X0049302Y0153074D01*
X0049267Y0153107D01*
X0049229Y0153137D01*
X0049188Y0153164D01*
X0049146Y0153188D01*
X0049102Y0153208D01*
X0049057Y0153225D01*
X0049010Y0153238D01*
X0048963Y0153247D01*
X0048914Y0153253D01*
X0048866Y0153255D01*
X0048866Y0153254D02*
X0047838Y0153254D01*
X0047838Y0150788D01*
X0046369Y0150788D02*
X0046163Y0150788D01*
X0046163Y0150787D02*
X0046115Y0150789D01*
X0046066Y0150795D01*
X0046019Y0150804D01*
X0045972Y0150817D01*
X0045927Y0150834D01*
X0045883Y0150854D01*
X0045841Y0150878D01*
X0045800Y0150905D01*
X0045762Y0150935D01*
X0045727Y0150968D01*
X0045694Y0151003D01*
X0045664Y0151041D01*
X0045637Y0151082D01*
X0045613Y0151124D01*
X0045593Y0151168D01*
X0045576Y0151213D01*
X0045563Y0151260D01*
X0045554Y0151307D01*
X0045548Y0151356D01*
X0045546Y0151404D01*
X0045547Y0151404D02*
X0045547Y0154488D01*
X0045136Y0153254D02*
X0046369Y0153254D01*
X0043072Y0152843D02*
X0042044Y0152843D01*
X0043072Y0152844D02*
X0043128Y0152846D01*
X0043184Y0152852D01*
X0043239Y0152861D01*
X0043294Y0152874D01*
X0043347Y0152891D01*
X0043399Y0152912D01*
X0043450Y0152936D01*
X0043499Y0152964D01*
X0043546Y0152994D01*
X0043591Y0153028D01*
X0043633Y0153065D01*
X0043673Y0153105D01*
X0043710Y0153147D01*
X0043744Y0153192D01*
X0043774Y0153239D01*
X0043802Y0153288D01*
X0043826Y0153339D01*
X0043847Y0153391D01*
X0043864Y0153444D01*
X0043877Y0153499D01*
X0043886Y0153554D01*
X0043892Y0153610D01*
X0043894Y0153666D01*
X0043892Y0153722D01*
X0043886Y0153778D01*
X0043877Y0153833D01*
X0043864Y0153888D01*
X0043847Y0153941D01*
X0043826Y0153993D01*
X0043802Y0154044D01*
X0043774Y0154093D01*
X0043744Y0154140D01*
X0043710Y0154185D01*
X0043673Y0154227D01*
X0043633Y0154267D01*
X0043591Y0154304D01*
X0043546Y0154338D01*
X0043499Y0154368D01*
X0043450Y0154396D01*
X0043399Y0154420D01*
X0043347Y0154441D01*
X0043294Y0154458D01*
X0043239Y0154471D01*
X0043184Y0154480D01*
X0043128Y0154486D01*
X0043072Y0154488D01*
X0042044Y0154488D01*
X0042044Y0150788D01*
X0043072Y0150788D01*
X0043135Y0150790D01*
X0043198Y0150796D01*
X0043261Y0150806D01*
X0043323Y0150819D01*
X0043384Y0150836D01*
X0043443Y0150857D01*
X0043502Y0150882D01*
X0043558Y0150910D01*
X0043613Y0150942D01*
X0043666Y0150977D01*
X0043716Y0151015D01*
X0043765Y0151056D01*
X0043810Y0151100D01*
X0043853Y0151147D01*
X0043892Y0151196D01*
X0043929Y0151248D01*
X0043962Y0151302D01*
X0043992Y0151358D01*
X0044019Y0151415D01*
X0044042Y0151474D01*
X0044061Y0151535D01*
X0044076Y0151596D01*
X0044088Y0151658D01*
X0044096Y0151721D01*
X0044100Y0151784D01*
X0044100Y0151848D01*
X0044096Y0151911D01*
X0044088Y0151974D01*
X0044076Y0152036D01*
X0044061Y0152097D01*
X0044042Y0152158D01*
X0044019Y0152217D01*
X0043992Y0152274D01*
X0043962Y0152330D01*
X0043929Y0152384D01*
X0043892Y0152436D01*
X0043853Y0152485D01*
X0043810Y0152532D01*
X0043765Y0152576D01*
X0043716Y0152617D01*
X0043666Y0152655D01*
X0043613Y0152690D01*
X0043558Y0152722D01*
X0043502Y0152750D01*
X0043443Y0152775D01*
X0043384Y0152796D01*
X0043323Y0152813D01*
X0043261Y0152826D01*
X0043198Y0152836D01*
X0043135Y0152842D01*
X0043072Y0152844D01*
X0040521Y0153254D02*
X0039699Y0153254D01*
X0039699Y0153255D02*
X0039651Y0153253D01*
X0039602Y0153247D01*
X0039555Y0153238D01*
X0039508Y0153225D01*
X0039463Y0153208D01*
X0039419Y0153188D01*
X0039377Y0153164D01*
X0039336Y0153137D01*
X0039298Y0153107D01*
X0039263Y0153074D01*
X0039230Y0153039D01*
X0039200Y0153001D01*
X0039173Y0152960D01*
X0039149Y0152918D01*
X0039129Y0152874D01*
X0039112Y0152829D01*
X0039099Y0152782D01*
X0039090Y0152735D01*
X0039084Y0152686D01*
X0039082Y0152638D01*
X0039082Y0151404D01*
X0039084Y0151356D01*
X0039090Y0151307D01*
X0039099Y0151260D01*
X0039112Y0151213D01*
X0039129Y0151168D01*
X0039149Y0151124D01*
X0039173Y0151082D01*
X0039200Y0151041D01*
X0039230Y0151003D01*
X0039263Y0150968D01*
X0039298Y0150935D01*
X0039336Y0150905D01*
X0039377Y0150878D01*
X0039419Y0150854D01*
X0039463Y0150834D01*
X0039508Y0150817D01*
X0039555Y0150804D01*
X0039602Y0150795D01*
X0039651Y0150789D01*
X0039699Y0150787D01*
X0039699Y0150788D02*
X0040521Y0150788D01*
X0040316Y0144645D02*
X0040110Y0144645D01*
X0040110Y0144646D02*
X0040062Y0144644D01*
X0040013Y0144638D01*
X0039966Y0144629D01*
X0039919Y0144616D01*
X0039874Y0144599D01*
X0039830Y0144579D01*
X0039788Y0144555D01*
X0039747Y0144528D01*
X0039709Y0144498D01*
X0039674Y0144465D01*
X0039641Y0144430D01*
X0039611Y0144392D01*
X0039584Y0144351D01*
X0039560Y0144309D01*
X0039540Y0144265D01*
X0039523Y0144220D01*
X0039510Y0144173D01*
X0039501Y0144126D01*
X0039495Y0144077D01*
X0039493Y0144029D01*
X0039493Y0140945D01*
X0041455Y0140945D02*
X0041455Y0143412D01*
X0042483Y0143412D01*
X0042531Y0143410D01*
X0042580Y0143404D01*
X0042627Y0143395D01*
X0042674Y0143382D01*
X0042719Y0143365D01*
X0042763Y0143345D01*
X0042805Y0143321D01*
X0042846Y0143294D01*
X0042884Y0143264D01*
X0042919Y0143231D01*
X0042952Y0143196D01*
X0042982Y0143158D01*
X0043009Y0143117D01*
X0043033Y0143075D01*
X0043053Y0143031D01*
X0043070Y0142986D01*
X0043083Y0142939D01*
X0043092Y0142892D01*
X0043098Y0142843D01*
X0043100Y0142795D01*
X0043099Y0142795D02*
X0043099Y0140945D01*
X0040316Y0143412D02*
X0039082Y0143412D01*
X0047397Y0104247D02*
X0047397Y0104042D01*
X0047398Y0104042D02*
X0047400Y0103986D01*
X0047406Y0103930D01*
X0047415Y0103875D01*
X0047428Y0103820D01*
X0047445Y0103767D01*
X0047466Y0103715D01*
X0047490Y0103664D01*
X0047518Y0103615D01*
X0047548Y0103568D01*
X0047582Y0103523D01*
X0047619Y0103481D01*
X0047659Y0103441D01*
X0047701Y0103404D01*
X0047746Y0103370D01*
X0047793Y0103340D01*
X0047842Y0103312D01*
X0047893Y0103288D01*
X0047945Y0103267D01*
X0047998Y0103250D01*
X0048053Y0103237D01*
X0048108Y0103228D01*
X0048164Y0103222D01*
X0048220Y0103220D01*
X0049453Y0103220D01*
X0049453Y0104247D01*
X0049451Y0104310D01*
X0049445Y0104373D01*
X0049435Y0104436D01*
X0049422Y0104498D01*
X0049405Y0104559D01*
X0049384Y0104618D01*
X0049359Y0104677D01*
X0049331Y0104733D01*
X0049299Y0104788D01*
X0049264Y0104841D01*
X0049226Y0104891D01*
X0049185Y0104940D01*
X0049141Y0104985D01*
X0049094Y0105028D01*
X0049045Y0105067D01*
X0048993Y0105104D01*
X0048939Y0105137D01*
X0048883Y0105167D01*
X0048826Y0105194D01*
X0048767Y0105217D01*
X0048706Y0105236D01*
X0048645Y0105251D01*
X0048583Y0105263D01*
X0048520Y0105271D01*
X0048457Y0105275D01*
X0048393Y0105275D01*
X0048330Y0105271D01*
X0048267Y0105263D01*
X0048205Y0105251D01*
X0048144Y0105236D01*
X0048083Y0105217D01*
X0048024Y0105194D01*
X0047967Y0105167D01*
X0047911Y0105137D01*
X0047857Y0105104D01*
X0047805Y0105067D01*
X0047756Y0105028D01*
X0047709Y0104985D01*
X0047665Y0104940D01*
X0047624Y0104891D01*
X0047586Y0104841D01*
X0047551Y0104788D01*
X0047519Y0104733D01*
X0047491Y0104677D01*
X0047466Y0104618D01*
X0047445Y0104559D01*
X0047428Y0104498D01*
X0047415Y0104436D01*
X0047405Y0104373D01*
X0047399Y0104310D01*
X0047397Y0104247D01*
X0049452Y0103220D02*
X0049450Y0103142D01*
X0049445Y0103064D01*
X0049435Y0102986D01*
X0049422Y0102909D01*
X0049406Y0102832D01*
X0049385Y0102757D01*
X0049362Y0102682D01*
X0049334Y0102609D01*
X0049303Y0102537D01*
X0049269Y0102467D01*
X0049232Y0102398D01*
X0049191Y0102331D01*
X0049147Y0102266D01*
X0049100Y0102204D01*
X0049050Y0102143D01*
X0048998Y0102086D01*
X0048942Y0102030D01*
X0048885Y0101978D01*
X0048824Y0101928D01*
X0048762Y0101881D01*
X0048697Y0101837D01*
X0048630Y0101796D01*
X0048561Y0101759D01*
X0048491Y0101725D01*
X0048419Y0101694D01*
X0048346Y0101666D01*
X0048271Y0101643D01*
X0048196Y0101622D01*
X0048119Y0101606D01*
X0048042Y0101593D01*
X0047964Y0101583D01*
X0047886Y0101578D01*
X0047808Y0101576D01*
X0072547Y0215748D02*
X0072547Y0218215D01*
X0073780Y0218215D01*
X0073780Y0217804D01*
X0074927Y0217393D02*
X0074927Y0216365D01*
X0074926Y0216365D02*
X0074928Y0216317D01*
X0074934Y0216268D01*
X0074943Y0216221D01*
X0074956Y0216174D01*
X0074973Y0216129D01*
X0074993Y0216085D01*
X0075017Y0216043D01*
X0075044Y0216002D01*
X0075074Y0215964D01*
X0075107Y0215929D01*
X0075142Y0215896D01*
X0075180Y0215866D01*
X0075221Y0215839D01*
X0075263Y0215815D01*
X0075307Y0215795D01*
X0075352Y0215778D01*
X0075399Y0215765D01*
X0075446Y0215756D01*
X0075495Y0215750D01*
X0075543Y0215748D01*
X0076571Y0215748D01*
X0076571Y0216982D02*
X0074927Y0216982D01*
X0074927Y0217393D02*
X0074929Y0217449D01*
X0074935Y0217505D01*
X0074944Y0217560D01*
X0074957Y0217615D01*
X0074974Y0217668D01*
X0074995Y0217720D01*
X0075019Y0217771D01*
X0075047Y0217820D01*
X0075077Y0217867D01*
X0075111Y0217912D01*
X0075148Y0217954D01*
X0075188Y0217994D01*
X0075230Y0218031D01*
X0075275Y0218065D01*
X0075322Y0218095D01*
X0075371Y0218123D01*
X0075422Y0218147D01*
X0075474Y0218168D01*
X0075527Y0218185D01*
X0075582Y0218198D01*
X0075637Y0218207D01*
X0075693Y0218213D01*
X0075749Y0218215D01*
X0075805Y0218213D01*
X0075861Y0218207D01*
X0075916Y0218198D01*
X0075971Y0218185D01*
X0076024Y0218168D01*
X0076076Y0218147D01*
X0076127Y0218123D01*
X0076176Y0218095D01*
X0076223Y0218065D01*
X0076268Y0218031D01*
X0076310Y0217994D01*
X0076350Y0217954D01*
X0076387Y0217912D01*
X0076421Y0217867D01*
X0076451Y0217820D01*
X0076479Y0217771D01*
X0076503Y0217720D01*
X0076524Y0217668D01*
X0076541Y0217615D01*
X0076554Y0217560D01*
X0076563Y0217505D01*
X0076569Y0217449D01*
X0076571Y0217393D01*
X0076571Y0216982D01*
X0078355Y0217187D02*
X0079383Y0216776D01*
X0079424Y0216757D01*
X0079463Y0216736D01*
X0079500Y0216711D01*
X0079535Y0216683D01*
X0079568Y0216652D01*
X0079598Y0216618D01*
X0079624Y0216583D01*
X0079648Y0216545D01*
X0079669Y0216505D01*
X0079686Y0216463D01*
X0079699Y0216421D01*
X0079709Y0216377D01*
X0079715Y0216333D01*
X0079718Y0216288D01*
X0079717Y0216243D01*
X0079712Y0216199D01*
X0079703Y0216155D01*
X0079690Y0216112D01*
X0079674Y0216070D01*
X0079655Y0216029D01*
X0079632Y0215991D01*
X0079606Y0215954D01*
X0079577Y0215920D01*
X0079545Y0215888D01*
X0079511Y0215859D01*
X0079475Y0215834D01*
X0079436Y0215811D01*
X0079396Y0215791D01*
X0079354Y0215775D01*
X0079311Y0215763D01*
X0079267Y0215754D01*
X0079222Y0215749D01*
X0079177Y0215748D01*
X0079485Y0218009D02*
X0079397Y0218047D01*
X0079308Y0218080D01*
X0079218Y0218110D01*
X0079126Y0218137D01*
X0079033Y0218159D01*
X0078940Y0218178D01*
X0078846Y0218193D01*
X0078751Y0218204D01*
X0078656Y0218211D01*
X0078560Y0218215D01*
X0078561Y0218215D02*
X0078516Y0218214D01*
X0078471Y0218209D01*
X0078427Y0218200D01*
X0078384Y0218188D01*
X0078342Y0218172D01*
X0078302Y0218152D01*
X0078263Y0218129D01*
X0078227Y0218104D01*
X0078193Y0218075D01*
X0078161Y0218043D01*
X0078132Y0218009D01*
X0078106Y0217972D01*
X0078083Y0217934D01*
X0078064Y0217893D01*
X0078048Y0217851D01*
X0078035Y0217808D01*
X0078026Y0217764D01*
X0078021Y0217720D01*
X0078020Y0217675D01*
X0078023Y0217630D01*
X0078029Y0217586D01*
X0078039Y0217542D01*
X0078052Y0217500D01*
X0078069Y0217458D01*
X0078090Y0217418D01*
X0078114Y0217380D01*
X0078140Y0217345D01*
X0078170Y0217311D01*
X0078203Y0217280D01*
X0078238Y0217252D01*
X0078275Y0217227D01*
X0078314Y0217206D01*
X0078355Y0217187D01*
X0078047Y0215954D02*
X0078156Y0215917D01*
X0078266Y0215883D01*
X0078378Y0215853D01*
X0078490Y0215827D01*
X0078603Y0215804D01*
X0078717Y0215785D01*
X0078832Y0215770D01*
X0078947Y0215759D01*
X0079062Y0215752D01*
X0079177Y0215748D01*
X0083212Y0215748D02*
X0084034Y0218215D01*
X0085527Y0218215D02*
X0086555Y0218215D01*
X0086603Y0218213D01*
X0086652Y0218207D01*
X0086699Y0218198D01*
X0086746Y0218185D01*
X0086791Y0218168D01*
X0086835Y0218148D01*
X0086877Y0218124D01*
X0086918Y0218097D01*
X0086956Y0218067D01*
X0086991Y0218034D01*
X0087024Y0217999D01*
X0087054Y0217961D01*
X0087081Y0217920D01*
X0087105Y0217878D01*
X0087125Y0217834D01*
X0087142Y0217789D01*
X0087155Y0217742D01*
X0087164Y0217695D01*
X0087170Y0217646D01*
X0087172Y0217598D01*
X0087172Y0216365D01*
X0087170Y0216317D01*
X0087164Y0216268D01*
X0087155Y0216221D01*
X0087142Y0216174D01*
X0087125Y0216129D01*
X0087105Y0216085D01*
X0087081Y0216043D01*
X0087054Y0216002D01*
X0087024Y0215964D01*
X0086991Y0215929D01*
X0086956Y0215896D01*
X0086918Y0215866D01*
X0086877Y0215839D01*
X0086835Y0215815D01*
X0086791Y0215795D01*
X0086746Y0215778D01*
X0086699Y0215765D01*
X0086652Y0215756D01*
X0086603Y0215750D01*
X0086555Y0215748D01*
X0085527Y0215748D01*
X0085527Y0219448D01*
X0082389Y0218215D02*
X0083212Y0215748D01*
X0088749Y0216365D02*
X0088749Y0218215D01*
X0090394Y0218215D02*
X0090394Y0215748D01*
X0089366Y0215748D01*
X0089318Y0215750D01*
X0089269Y0215756D01*
X0089222Y0215765D01*
X0089175Y0215778D01*
X0089130Y0215795D01*
X0089086Y0215815D01*
X0089044Y0215839D01*
X0089003Y0215866D01*
X0088965Y0215896D01*
X0088930Y0215929D01*
X0088897Y0215964D01*
X0088867Y0216002D01*
X0088840Y0216043D01*
X0088816Y0216085D01*
X0088796Y0216129D01*
X0088779Y0216174D01*
X0088766Y0216221D01*
X0088757Y0216268D01*
X0088751Y0216317D01*
X0088749Y0216365D01*
X0092298Y0217187D02*
X0093325Y0216776D01*
X0093326Y0216776D02*
X0093367Y0216757D01*
X0093406Y0216736D01*
X0093443Y0216711D01*
X0093478Y0216683D01*
X0093511Y0216652D01*
X0093541Y0216618D01*
X0093567Y0216583D01*
X0093591Y0216545D01*
X0093612Y0216505D01*
X0093629Y0216463D01*
X0093642Y0216421D01*
X0093652Y0216377D01*
X0093658Y0216333D01*
X0093661Y0216288D01*
X0093660Y0216243D01*
X0093655Y0216199D01*
X0093646Y0216155D01*
X0093633Y0216112D01*
X0093617Y0216070D01*
X0093598Y0216029D01*
X0093575Y0215991D01*
X0093549Y0215954D01*
X0093520Y0215920D01*
X0093488Y0215888D01*
X0093454Y0215859D01*
X0093418Y0215834D01*
X0093379Y0215811D01*
X0093339Y0215791D01*
X0093297Y0215775D01*
X0093254Y0215763D01*
X0093210Y0215754D01*
X0093165Y0215749D01*
X0093120Y0215748D01*
X0093428Y0218009D02*
X0093340Y0218047D01*
X0093251Y0218080D01*
X0093161Y0218110D01*
X0093069Y0218137D01*
X0092976Y0218159D01*
X0092883Y0218178D01*
X0092789Y0218193D01*
X0092694Y0218204D01*
X0092599Y0218211D01*
X0092503Y0218215D01*
X0092504Y0218215D02*
X0092459Y0218214D01*
X0092414Y0218209D01*
X0092370Y0218200D01*
X0092327Y0218188D01*
X0092285Y0218172D01*
X0092245Y0218152D01*
X0092206Y0218129D01*
X0092170Y0218104D01*
X0092136Y0218075D01*
X0092104Y0218043D01*
X0092075Y0218009D01*
X0092049Y0217972D01*
X0092026Y0217934D01*
X0092007Y0217893D01*
X0091991Y0217851D01*
X0091978Y0217808D01*
X0091969Y0217764D01*
X0091964Y0217720D01*
X0091963Y0217675D01*
X0091966Y0217630D01*
X0091972Y0217586D01*
X0091982Y0217542D01*
X0091995Y0217500D01*
X0092012Y0217458D01*
X0092033Y0217418D01*
X0092057Y0217380D01*
X0092083Y0217345D01*
X0092113Y0217311D01*
X0092146Y0217280D01*
X0092181Y0217252D01*
X0092218Y0217227D01*
X0092257Y0217206D01*
X0092298Y0217187D01*
X0091990Y0215954D02*
X0092099Y0215917D01*
X0092209Y0215883D01*
X0092321Y0215853D01*
X0092433Y0215827D01*
X0092546Y0215804D01*
X0092660Y0215785D01*
X0092775Y0215770D01*
X0092890Y0215759D01*
X0093005Y0215752D01*
X0093120Y0215748D01*
X0096169Y0216365D02*
X0096169Y0217598D01*
X0096171Y0217646D01*
X0096177Y0217695D01*
X0096186Y0217742D01*
X0096199Y0217789D01*
X0096216Y0217834D01*
X0096236Y0217878D01*
X0096260Y0217920D01*
X0096287Y0217961D01*
X0096317Y0217999D01*
X0096350Y0218034D01*
X0096385Y0218067D01*
X0096423Y0218097D01*
X0096464Y0218124D01*
X0096506Y0218148D01*
X0096550Y0218168D01*
X0096595Y0218185D01*
X0096642Y0218198D01*
X0096689Y0218207D01*
X0096738Y0218213D01*
X0096786Y0218215D01*
X0097813Y0218215D01*
X0097813Y0215132D01*
X0097814Y0215132D02*
X0097812Y0215084D01*
X0097806Y0215035D01*
X0097797Y0214988D01*
X0097784Y0214941D01*
X0097767Y0214896D01*
X0097747Y0214852D01*
X0097723Y0214810D01*
X0097696Y0214769D01*
X0097666Y0214731D01*
X0097633Y0214696D01*
X0097598Y0214663D01*
X0097560Y0214633D01*
X0097519Y0214606D01*
X0097477Y0214582D01*
X0097433Y0214562D01*
X0097388Y0214545D01*
X0097341Y0214532D01*
X0097294Y0214523D01*
X0097245Y0214517D01*
X0097197Y0214515D01*
X0096375Y0214515D01*
X0096786Y0215748D02*
X0097813Y0215748D01*
X0096786Y0215748D02*
X0096738Y0215750D01*
X0096689Y0215756D01*
X0096642Y0215765D01*
X0096595Y0215778D01*
X0096550Y0215795D01*
X0096506Y0215815D01*
X0096464Y0215839D01*
X0096423Y0215866D01*
X0096385Y0215896D01*
X0096350Y0215929D01*
X0096317Y0215964D01*
X0096287Y0216002D01*
X0096260Y0216043D01*
X0096236Y0216085D01*
X0096216Y0216129D01*
X0096199Y0216174D01*
X0096186Y0216221D01*
X0096177Y0216268D01*
X0096171Y0216317D01*
X0096169Y0216365D01*
X0099547Y0215748D02*
X0099547Y0218215D01*
X0100575Y0218215D01*
X0100623Y0218213D01*
X0100672Y0218207D01*
X0100719Y0218198D01*
X0100766Y0218185D01*
X0100811Y0218168D01*
X0100855Y0218148D01*
X0100897Y0218124D01*
X0100938Y0218097D01*
X0100976Y0218067D01*
X0101011Y0218034D01*
X0101044Y0217999D01*
X0101074Y0217961D01*
X0101101Y0217920D01*
X0101125Y0217878D01*
X0101145Y0217834D01*
X0101162Y0217789D01*
X0101175Y0217742D01*
X0101184Y0217695D01*
X0101190Y0217646D01*
X0101192Y0217598D01*
X0101191Y0217598D02*
X0101191Y0215748D01*
X0102769Y0216365D02*
X0102769Y0217598D01*
X0102771Y0217646D01*
X0102777Y0217695D01*
X0102786Y0217742D01*
X0102799Y0217789D01*
X0102816Y0217834D01*
X0102836Y0217878D01*
X0102860Y0217920D01*
X0102887Y0217961D01*
X0102917Y0217999D01*
X0102950Y0218034D01*
X0102985Y0218067D01*
X0103023Y0218097D01*
X0103064Y0218124D01*
X0103106Y0218148D01*
X0103150Y0218168D01*
X0103195Y0218185D01*
X0103242Y0218198D01*
X0103289Y0218207D01*
X0103338Y0218213D01*
X0103386Y0218215D01*
X0104413Y0218215D01*
X0104413Y0219448D02*
X0104413Y0215748D01*
X0103386Y0215748D01*
X0103338Y0215750D01*
X0103289Y0215756D01*
X0103242Y0215765D01*
X0103195Y0215778D01*
X0103150Y0215795D01*
X0103106Y0215815D01*
X0103064Y0215839D01*
X0103023Y0215866D01*
X0102985Y0215896D01*
X0102950Y0215929D01*
X0102917Y0215964D01*
X0102887Y0216002D01*
X0102860Y0216043D01*
X0102836Y0216085D01*
X0102816Y0216129D01*
X0102799Y0216174D01*
X0102786Y0216221D01*
X0102777Y0216268D01*
X0102771Y0216317D01*
X0102769Y0216365D01*
X0107980Y0215748D02*
X0109008Y0215748D01*
X0109071Y0215750D01*
X0109134Y0215756D01*
X0109197Y0215766D01*
X0109259Y0215779D01*
X0109320Y0215796D01*
X0109379Y0215817D01*
X0109438Y0215842D01*
X0109494Y0215870D01*
X0109549Y0215902D01*
X0109602Y0215937D01*
X0109652Y0215975D01*
X0109701Y0216016D01*
X0109746Y0216060D01*
X0109789Y0216107D01*
X0109828Y0216156D01*
X0109865Y0216208D01*
X0109898Y0216262D01*
X0109928Y0216318D01*
X0109955Y0216375D01*
X0109978Y0216434D01*
X0109997Y0216495D01*
X0110012Y0216556D01*
X0110024Y0216618D01*
X0110032Y0216681D01*
X0110036Y0216744D01*
X0110036Y0216808D01*
X0110032Y0216871D01*
X0110024Y0216934D01*
X0110012Y0216996D01*
X0109997Y0217057D01*
X0109978Y0217118D01*
X0109955Y0217177D01*
X0109928Y0217234D01*
X0109898Y0217290D01*
X0109865Y0217344D01*
X0109828Y0217396D01*
X0109789Y0217445D01*
X0109746Y0217492D01*
X0109701Y0217536D01*
X0109652Y0217577D01*
X0109602Y0217615D01*
X0109549Y0217650D01*
X0109494Y0217682D01*
X0109438Y0217710D01*
X0109379Y0217735D01*
X0109320Y0217756D01*
X0109259Y0217773D01*
X0109197Y0217786D01*
X0109134Y0217796D01*
X0109071Y0217802D01*
X0109008Y0217804D01*
X0109213Y0217804D02*
X0108391Y0217804D01*
X0109213Y0217804D02*
X0109269Y0217806D01*
X0109325Y0217812D01*
X0109380Y0217821D01*
X0109435Y0217834D01*
X0109488Y0217851D01*
X0109540Y0217872D01*
X0109591Y0217896D01*
X0109640Y0217924D01*
X0109687Y0217954D01*
X0109732Y0217988D01*
X0109774Y0218025D01*
X0109814Y0218065D01*
X0109851Y0218107D01*
X0109885Y0218152D01*
X0109915Y0218199D01*
X0109943Y0218248D01*
X0109967Y0218299D01*
X0109988Y0218351D01*
X0110005Y0218404D01*
X0110018Y0218459D01*
X0110027Y0218514D01*
X0110033Y0218570D01*
X0110035Y0218626D01*
X0110033Y0218682D01*
X0110027Y0218738D01*
X0110018Y0218793D01*
X0110005Y0218848D01*
X0109988Y0218901D01*
X0109967Y0218953D01*
X0109943Y0219004D01*
X0109915Y0219053D01*
X0109885Y0219100D01*
X0109851Y0219145D01*
X0109814Y0219187D01*
X0109774Y0219227D01*
X0109732Y0219264D01*
X0109687Y0219298D01*
X0109640Y0219328D01*
X0109591Y0219356D01*
X0109540Y0219380D01*
X0109488Y0219401D01*
X0109435Y0219418D01*
X0109380Y0219431D01*
X0109325Y0219440D01*
X0109269Y0219446D01*
X0109213Y0219448D01*
X0107980Y0219448D01*
X0111425Y0215954D02*
X0111631Y0215954D01*
X0111631Y0215748D01*
X0111425Y0215748D01*
X0111425Y0215954D01*
X0113020Y0215748D02*
X0114048Y0215748D01*
X0114111Y0215750D01*
X0114174Y0215756D01*
X0114237Y0215766D01*
X0114299Y0215779D01*
X0114360Y0215796D01*
X0114419Y0215817D01*
X0114478Y0215842D01*
X0114534Y0215870D01*
X0114589Y0215902D01*
X0114642Y0215937D01*
X0114692Y0215975D01*
X0114741Y0216016D01*
X0114786Y0216060D01*
X0114829Y0216107D01*
X0114868Y0216156D01*
X0114905Y0216208D01*
X0114938Y0216262D01*
X0114968Y0216318D01*
X0114995Y0216375D01*
X0115018Y0216434D01*
X0115037Y0216495D01*
X0115052Y0216556D01*
X0115064Y0216618D01*
X0115072Y0216681D01*
X0115076Y0216744D01*
X0115076Y0216808D01*
X0115072Y0216871D01*
X0115064Y0216934D01*
X0115052Y0216996D01*
X0115037Y0217057D01*
X0115018Y0217118D01*
X0114995Y0217177D01*
X0114968Y0217234D01*
X0114938Y0217290D01*
X0114905Y0217344D01*
X0114868Y0217396D01*
X0114829Y0217445D01*
X0114786Y0217492D01*
X0114741Y0217536D01*
X0114692Y0217577D01*
X0114642Y0217615D01*
X0114589Y0217650D01*
X0114534Y0217682D01*
X0114478Y0217710D01*
X0114419Y0217735D01*
X0114360Y0217756D01*
X0114299Y0217773D01*
X0114237Y0217786D01*
X0114174Y0217796D01*
X0114111Y0217802D01*
X0114048Y0217804D01*
X0114253Y0217804D02*
X0113431Y0217804D01*
X0114253Y0217804D02*
X0114309Y0217806D01*
X0114365Y0217812D01*
X0114420Y0217821D01*
X0114475Y0217834D01*
X0114528Y0217851D01*
X0114580Y0217872D01*
X0114631Y0217896D01*
X0114680Y0217924D01*
X0114727Y0217954D01*
X0114772Y0217988D01*
X0114814Y0218025D01*
X0114854Y0218065D01*
X0114891Y0218107D01*
X0114925Y0218152D01*
X0114955Y0218199D01*
X0114983Y0218248D01*
X0115007Y0218299D01*
X0115028Y0218351D01*
X0115045Y0218404D01*
X0115058Y0218459D01*
X0115067Y0218514D01*
X0115073Y0218570D01*
X0115075Y0218626D01*
X0115073Y0218682D01*
X0115067Y0218738D01*
X0115058Y0218793D01*
X0115045Y0218848D01*
X0115028Y0218901D01*
X0115007Y0218953D01*
X0114983Y0219004D01*
X0114955Y0219053D01*
X0114925Y0219100D01*
X0114891Y0219145D01*
X0114854Y0219187D01*
X0114814Y0219227D01*
X0114772Y0219264D01*
X0114727Y0219298D01*
X0114680Y0219328D01*
X0114631Y0219356D01*
X0114580Y0219380D01*
X0114528Y0219401D01*
X0114475Y0219418D01*
X0114420Y0219431D01*
X0114365Y0219440D01*
X0114309Y0219446D01*
X0114253Y0219448D01*
X0113020Y0219448D01*
X0117823Y0217393D02*
X0117823Y0216365D01*
X0117822Y0216365D02*
X0117824Y0216317D01*
X0117830Y0216268D01*
X0117839Y0216221D01*
X0117852Y0216174D01*
X0117869Y0216129D01*
X0117889Y0216085D01*
X0117913Y0216043D01*
X0117940Y0216002D01*
X0117970Y0215964D01*
X0118003Y0215929D01*
X0118038Y0215896D01*
X0118076Y0215866D01*
X0118117Y0215839D01*
X0118159Y0215815D01*
X0118203Y0215795D01*
X0118248Y0215778D01*
X0118295Y0215765D01*
X0118342Y0215756D01*
X0118391Y0215750D01*
X0118439Y0215748D01*
X0119467Y0215748D01*
X0119467Y0216982D02*
X0117823Y0216982D01*
X0117823Y0217393D02*
X0117825Y0217449D01*
X0117831Y0217505D01*
X0117840Y0217560D01*
X0117853Y0217615D01*
X0117870Y0217668D01*
X0117891Y0217720D01*
X0117915Y0217771D01*
X0117943Y0217820D01*
X0117973Y0217867D01*
X0118007Y0217912D01*
X0118044Y0217954D01*
X0118084Y0217994D01*
X0118126Y0218031D01*
X0118171Y0218065D01*
X0118218Y0218095D01*
X0118267Y0218123D01*
X0118318Y0218147D01*
X0118370Y0218168D01*
X0118423Y0218185D01*
X0118478Y0218198D01*
X0118533Y0218207D01*
X0118589Y0218213D01*
X0118645Y0218215D01*
X0118701Y0218213D01*
X0118757Y0218207D01*
X0118812Y0218198D01*
X0118867Y0218185D01*
X0118920Y0218168D01*
X0118972Y0218147D01*
X0119023Y0218123D01*
X0119072Y0218095D01*
X0119119Y0218065D01*
X0119164Y0218031D01*
X0119206Y0217994D01*
X0119246Y0217954D01*
X0119283Y0217912D01*
X0119317Y0217867D01*
X0119347Y0217820D01*
X0119375Y0217771D01*
X0119399Y0217720D01*
X0119420Y0217668D01*
X0119437Y0217615D01*
X0119450Y0217560D01*
X0119459Y0217505D01*
X0119465Y0217449D01*
X0119467Y0217393D01*
X0119467Y0216982D01*
X0121062Y0215748D02*
X0121062Y0218215D01*
X0122090Y0218215D01*
X0122138Y0218213D01*
X0122187Y0218207D01*
X0122234Y0218198D01*
X0122281Y0218185D01*
X0122326Y0218168D01*
X0122370Y0218148D01*
X0122412Y0218124D01*
X0122453Y0218097D01*
X0122491Y0218067D01*
X0122526Y0218034D01*
X0122559Y0217999D01*
X0122589Y0217961D01*
X0122616Y0217920D01*
X0122640Y0217878D01*
X0122660Y0217834D01*
X0122677Y0217789D01*
X0122690Y0217742D01*
X0122699Y0217695D01*
X0122705Y0217646D01*
X0122707Y0217598D01*
X0122707Y0215748D01*
X0126519Y0215748D02*
X0125697Y0218215D01*
X0127341Y0218215D02*
X0126519Y0215748D01*
X0128834Y0215748D02*
X0129862Y0215748D01*
X0129910Y0215750D01*
X0129959Y0215756D01*
X0130006Y0215765D01*
X0130053Y0215778D01*
X0130098Y0215795D01*
X0130142Y0215815D01*
X0130184Y0215839D01*
X0130225Y0215866D01*
X0130263Y0215896D01*
X0130298Y0215929D01*
X0130331Y0215964D01*
X0130361Y0216002D01*
X0130388Y0216043D01*
X0130412Y0216085D01*
X0130432Y0216129D01*
X0130449Y0216174D01*
X0130462Y0216221D01*
X0130471Y0216268D01*
X0130477Y0216317D01*
X0130479Y0216365D01*
X0130479Y0217598D01*
X0130477Y0217646D01*
X0130471Y0217695D01*
X0130462Y0217742D01*
X0130449Y0217789D01*
X0130432Y0217834D01*
X0130412Y0217878D01*
X0130388Y0217920D01*
X0130361Y0217961D01*
X0130331Y0217999D01*
X0130298Y0218034D01*
X0130263Y0218067D01*
X0130225Y0218097D01*
X0130184Y0218124D01*
X0130142Y0218148D01*
X0130098Y0218168D01*
X0130053Y0218185D01*
X0130006Y0218198D01*
X0129959Y0218207D01*
X0129910Y0218213D01*
X0129862Y0218215D01*
X0128834Y0218215D01*
X0128834Y0219448D02*
X0128834Y0215748D01*
X0132124Y0218215D02*
X0132946Y0218215D01*
X0132994Y0218213D01*
X0133043Y0218207D01*
X0133090Y0218198D01*
X0133137Y0218185D01*
X0133182Y0218168D01*
X0133226Y0218148D01*
X0133268Y0218124D01*
X0133309Y0218097D01*
X0133347Y0218067D01*
X0133382Y0218034D01*
X0133415Y0217999D01*
X0133445Y0217961D01*
X0133472Y0217920D01*
X0133496Y0217878D01*
X0133516Y0217834D01*
X0133533Y0217789D01*
X0133546Y0217742D01*
X0133555Y0217695D01*
X0133561Y0217646D01*
X0133563Y0217598D01*
X0133563Y0215748D01*
X0132638Y0215748D01*
X0132638Y0215749D02*
X0132586Y0215751D01*
X0132533Y0215757D01*
X0132482Y0215766D01*
X0132431Y0215779D01*
X0132381Y0215796D01*
X0132333Y0215817D01*
X0132286Y0215841D01*
X0132241Y0215868D01*
X0132199Y0215899D01*
X0132158Y0215933D01*
X0132120Y0215969D01*
X0132085Y0216008D01*
X0132053Y0216050D01*
X0132024Y0216093D01*
X0131999Y0216139D01*
X0131976Y0216187D01*
X0131958Y0216236D01*
X0131942Y0216286D01*
X0131931Y0216337D01*
X0131923Y0216389D01*
X0131919Y0216442D01*
X0131919Y0216494D01*
X0131923Y0216547D01*
X0131931Y0216599D01*
X0131942Y0216650D01*
X0131958Y0216700D01*
X0131976Y0216749D01*
X0131999Y0216797D01*
X0132024Y0216843D01*
X0132053Y0216886D01*
X0132085Y0216928D01*
X0132120Y0216967D01*
X0132158Y0217003D01*
X0132199Y0217037D01*
X0132241Y0217068D01*
X0132286Y0217095D01*
X0132333Y0217119D01*
X0132381Y0217140D01*
X0132431Y0217157D01*
X0132482Y0217170D01*
X0132533Y0217179D01*
X0132586Y0217185D01*
X0132638Y0217187D01*
X0133563Y0217187D01*
X0134874Y0218215D02*
X0136107Y0218215D01*
X0135285Y0219448D02*
X0135285Y0216365D01*
X0135287Y0216317D01*
X0135293Y0216268D01*
X0135302Y0216221D01*
X0135315Y0216174D01*
X0135332Y0216129D01*
X0135352Y0216085D01*
X0135376Y0216043D01*
X0135403Y0216002D01*
X0135433Y0215964D01*
X0135466Y0215929D01*
X0135501Y0215896D01*
X0135539Y0215866D01*
X0135580Y0215839D01*
X0135622Y0215815D01*
X0135666Y0215795D01*
X0135711Y0215778D01*
X0135758Y0215765D01*
X0135805Y0215756D01*
X0135854Y0215750D01*
X0135902Y0215748D01*
X0136107Y0215748D01*
X0174909Y0125695D02*
X0175731Y0123229D01*
X0176554Y0125695D01*
X0178098Y0125695D02*
X0179948Y0125695D01*
X0179948Y0125696D02*
X0179996Y0125694D01*
X0180045Y0125688D01*
X0180092Y0125679D01*
X0180139Y0125666D01*
X0180184Y0125649D01*
X0180228Y0125629D01*
X0180270Y0125605D01*
X0180311Y0125578D01*
X0180349Y0125548D01*
X0180384Y0125515D01*
X0180417Y0125480D01*
X0180447Y0125442D01*
X0180474Y0125401D01*
X0180498Y0125359D01*
X0180518Y0125315D01*
X0180535Y0125270D01*
X0180548Y0125223D01*
X0180557Y0125176D01*
X0180563Y0125127D01*
X0180565Y0125079D01*
X0180565Y0123229D01*
X0179331Y0123229D02*
X0179331Y0125695D01*
X0178098Y0125695D02*
X0178098Y0123229D01*
X0180434Y0112224D02*
X0180432Y0112162D01*
X0180426Y0112100D01*
X0180417Y0112039D01*
X0180403Y0111979D01*
X0180386Y0111919D01*
X0180365Y0111861D01*
X0180341Y0111804D01*
X0180313Y0111749D01*
X0180282Y0111695D01*
X0180247Y0111644D01*
X0180210Y0111595D01*
X0180169Y0111548D01*
X0180126Y0111504D01*
X0180125Y0111505D02*
X0178378Y0109449D01*
X0180433Y0109449D01*
X0178378Y0112327D02*
X0178401Y0112391D01*
X0178427Y0112454D01*
X0178457Y0112515D01*
X0178490Y0112574D01*
X0178527Y0112631D01*
X0178567Y0112686D01*
X0178610Y0112738D01*
X0178656Y0112788D01*
X0178704Y0112836D01*
X0178756Y0112880D01*
X0178809Y0112922D01*
X0178865Y0112960D01*
X0178923Y0112995D01*
X0178983Y0113027D01*
X0179045Y0113055D01*
X0179108Y0113080D01*
X0179173Y0113101D01*
X0179239Y0113118D01*
X0179305Y0113132D01*
X0179372Y0113141D01*
X0179440Y0113147D01*
X0179508Y0113149D01*
X0179566Y0113147D01*
X0179624Y0113142D01*
X0179681Y0113133D01*
X0179738Y0113120D01*
X0179794Y0113104D01*
X0179849Y0113084D01*
X0179902Y0113061D01*
X0179954Y0113035D01*
X0180004Y0113005D01*
X0180052Y0112972D01*
X0180098Y0112937D01*
X0180141Y0112898D01*
X0180182Y0112857D01*
X0180221Y0112814D01*
X0180256Y0112768D01*
X0180289Y0112720D01*
X0180319Y0112670D01*
X0180345Y0112618D01*
X0180368Y0112565D01*
X0180388Y0112510D01*
X0180404Y0112454D01*
X0180417Y0112397D01*
X0180426Y0112340D01*
X0180431Y0112282D01*
X0180433Y0112224D01*
X0176730Y0111299D02*
X0176730Y0109449D01*
X0175805Y0109449D01*
X0175805Y0109450D02*
X0175753Y0109452D01*
X0175700Y0109458D01*
X0175649Y0109467D01*
X0175598Y0109480D01*
X0175548Y0109497D01*
X0175500Y0109518D01*
X0175453Y0109542D01*
X0175408Y0109569D01*
X0175366Y0109600D01*
X0175325Y0109634D01*
X0175287Y0109670D01*
X0175252Y0109709D01*
X0175220Y0109751D01*
X0175191Y0109794D01*
X0175166Y0109840D01*
X0175143Y0109888D01*
X0175125Y0109937D01*
X0175109Y0109987D01*
X0175098Y0110038D01*
X0175090Y0110090D01*
X0175086Y0110143D01*
X0175086Y0110195D01*
X0175090Y0110248D01*
X0175098Y0110300D01*
X0175109Y0110351D01*
X0175125Y0110401D01*
X0175143Y0110450D01*
X0175166Y0110498D01*
X0175191Y0110544D01*
X0175220Y0110587D01*
X0175252Y0110629D01*
X0175287Y0110668D01*
X0175325Y0110704D01*
X0175366Y0110738D01*
X0175408Y0110769D01*
X0175453Y0110796D01*
X0175500Y0110820D01*
X0175548Y0110841D01*
X0175598Y0110858D01*
X0175649Y0110871D01*
X0175700Y0110880D01*
X0175753Y0110886D01*
X0175805Y0110888D01*
X0176730Y0110888D01*
X0176730Y0111299D02*
X0176728Y0111347D01*
X0176722Y0111396D01*
X0176713Y0111443D01*
X0176700Y0111490D01*
X0176683Y0111535D01*
X0176663Y0111579D01*
X0176639Y0111621D01*
X0176612Y0111662D01*
X0176582Y0111700D01*
X0176549Y0111735D01*
X0176514Y0111768D01*
X0176476Y0111798D01*
X0176435Y0111825D01*
X0176393Y0111849D01*
X0176349Y0111869D01*
X0176304Y0111886D01*
X0176257Y0111899D01*
X0176210Y0111908D01*
X0176161Y0111914D01*
X0176113Y0111916D01*
X0175291Y0111916D01*
X0173439Y0111299D02*
X0173439Y0109449D01*
X0172205Y0109449D02*
X0172205Y0111916D01*
X0172822Y0111916D02*
X0170972Y0111916D01*
X0170972Y0109449D01*
X0173439Y0111299D02*
X0173437Y0111347D01*
X0173431Y0111396D01*
X0173422Y0111443D01*
X0173409Y0111490D01*
X0173392Y0111535D01*
X0173372Y0111579D01*
X0173348Y0111621D01*
X0173321Y0111662D01*
X0173291Y0111700D01*
X0173258Y0111735D01*
X0173223Y0111768D01*
X0173185Y0111798D01*
X0173144Y0111825D01*
X0173102Y0111849D01*
X0173058Y0111869D01*
X0173013Y0111886D01*
X0172966Y0111899D01*
X0172919Y0111908D01*
X0172870Y0111914D01*
X0172822Y0111916D01*
X0172822Y0102073D02*
X0170972Y0102073D01*
X0170972Y0099607D01*
X0172205Y0099607D02*
X0172205Y0102073D01*
X0172822Y0102074D02*
X0172870Y0102072D01*
X0172919Y0102066D01*
X0172966Y0102057D01*
X0173013Y0102044D01*
X0173058Y0102027D01*
X0173102Y0102007D01*
X0173144Y0101983D01*
X0173185Y0101956D01*
X0173223Y0101926D01*
X0173258Y0101893D01*
X0173291Y0101858D01*
X0173321Y0101820D01*
X0173348Y0101779D01*
X0173372Y0101737D01*
X0173392Y0101693D01*
X0173409Y0101648D01*
X0173422Y0101601D01*
X0173431Y0101554D01*
X0173437Y0101505D01*
X0173439Y0101457D01*
X0173439Y0099607D01*
X0175805Y0099607D02*
X0176730Y0099607D01*
X0176730Y0101457D01*
X0176730Y0101046D02*
X0175805Y0101046D01*
X0176730Y0101457D02*
X0176728Y0101505D01*
X0176722Y0101554D01*
X0176713Y0101601D01*
X0176700Y0101648D01*
X0176683Y0101693D01*
X0176663Y0101737D01*
X0176639Y0101779D01*
X0176612Y0101820D01*
X0176582Y0101858D01*
X0176549Y0101893D01*
X0176514Y0101926D01*
X0176476Y0101956D01*
X0176435Y0101983D01*
X0176393Y0102007D01*
X0176349Y0102027D01*
X0176304Y0102044D01*
X0176257Y0102057D01*
X0176210Y0102066D01*
X0176161Y0102072D01*
X0176113Y0102074D01*
X0176113Y0102073D02*
X0175291Y0102073D01*
X0175805Y0101045D02*
X0175753Y0101043D01*
X0175700Y0101037D01*
X0175649Y0101028D01*
X0175598Y0101015D01*
X0175548Y0100998D01*
X0175500Y0100977D01*
X0175453Y0100953D01*
X0175408Y0100926D01*
X0175366Y0100895D01*
X0175325Y0100861D01*
X0175287Y0100825D01*
X0175252Y0100786D01*
X0175220Y0100744D01*
X0175191Y0100701D01*
X0175166Y0100655D01*
X0175143Y0100607D01*
X0175125Y0100558D01*
X0175109Y0100508D01*
X0175098Y0100457D01*
X0175090Y0100405D01*
X0175086Y0100352D01*
X0175086Y0100300D01*
X0175090Y0100247D01*
X0175098Y0100195D01*
X0175109Y0100144D01*
X0175125Y0100094D01*
X0175143Y0100045D01*
X0175166Y0099997D01*
X0175191Y0099951D01*
X0175220Y0099908D01*
X0175252Y0099866D01*
X0175287Y0099827D01*
X0175325Y0099791D01*
X0175366Y0099757D01*
X0175408Y0099726D01*
X0175453Y0099699D01*
X0175500Y0099675D01*
X0175548Y0099654D01*
X0175598Y0099637D01*
X0175649Y0099624D01*
X0175700Y0099615D01*
X0175753Y0099609D01*
X0175805Y0099607D01*
X0178378Y0099607D02*
X0180433Y0099607D01*
X0179405Y0099607D02*
X0179405Y0103307D01*
X0178378Y0102484D01*
X0179287Y0069842D02*
X0180520Y0069842D01*
X0180576Y0069840D01*
X0180632Y0069834D01*
X0180687Y0069825D01*
X0180742Y0069812D01*
X0180795Y0069795D01*
X0180847Y0069774D01*
X0180898Y0069750D01*
X0180947Y0069722D01*
X0180994Y0069692D01*
X0181039Y0069658D01*
X0181081Y0069621D01*
X0181121Y0069581D01*
X0181158Y0069539D01*
X0181192Y0069494D01*
X0181222Y0069447D01*
X0181250Y0069398D01*
X0181274Y0069347D01*
X0181295Y0069295D01*
X0181312Y0069242D01*
X0181325Y0069187D01*
X0181334Y0069132D01*
X0181340Y0069076D01*
X0181342Y0069020D01*
X0181340Y0068964D01*
X0181334Y0068908D01*
X0181325Y0068853D01*
X0181312Y0068798D01*
X0181295Y0068745D01*
X0181274Y0068693D01*
X0181250Y0068642D01*
X0181222Y0068593D01*
X0181192Y0068546D01*
X0181158Y0068501D01*
X0181121Y0068459D01*
X0181081Y0068419D01*
X0181039Y0068382D01*
X0180994Y0068348D01*
X0180947Y0068318D01*
X0180898Y0068290D01*
X0180847Y0068266D01*
X0180795Y0068245D01*
X0180742Y0068228D01*
X0180687Y0068215D01*
X0180632Y0068206D01*
X0180576Y0068200D01*
X0180520Y0068198D01*
X0179698Y0068198D01*
X0180315Y0068198D02*
X0180378Y0068196D01*
X0180441Y0068190D01*
X0180504Y0068180D01*
X0180566Y0068167D01*
X0180627Y0068150D01*
X0180686Y0068129D01*
X0180745Y0068104D01*
X0180801Y0068076D01*
X0180856Y0068044D01*
X0180909Y0068009D01*
X0180959Y0067971D01*
X0181008Y0067930D01*
X0181053Y0067886D01*
X0181096Y0067839D01*
X0181135Y0067790D01*
X0181172Y0067738D01*
X0181205Y0067684D01*
X0181235Y0067628D01*
X0181262Y0067571D01*
X0181285Y0067512D01*
X0181304Y0067451D01*
X0181319Y0067390D01*
X0181331Y0067328D01*
X0181339Y0067265D01*
X0181343Y0067202D01*
X0181343Y0067138D01*
X0181339Y0067075D01*
X0181331Y0067012D01*
X0181319Y0066950D01*
X0181304Y0066889D01*
X0181285Y0066828D01*
X0181262Y0066769D01*
X0181235Y0066712D01*
X0181205Y0066656D01*
X0181172Y0066602D01*
X0181135Y0066550D01*
X0181096Y0066501D01*
X0181053Y0066454D01*
X0181008Y0066410D01*
X0180959Y0066369D01*
X0180909Y0066331D01*
X0180856Y0066296D01*
X0180801Y0066264D01*
X0180745Y0066236D01*
X0180686Y0066211D01*
X0180627Y0066190D01*
X0180566Y0066173D01*
X0180504Y0066160D01*
X0180441Y0066150D01*
X0180378Y0066144D01*
X0180315Y0066142D01*
X0179287Y0066142D01*
X0177743Y0066142D02*
X0175687Y0066142D01*
X0176715Y0066142D02*
X0176715Y0069842D01*
X0175687Y0069020D01*
X0174177Y0067787D02*
X0174177Y0066964D01*
X0174175Y0066908D01*
X0174169Y0066852D01*
X0174160Y0066797D01*
X0174147Y0066742D01*
X0174130Y0066689D01*
X0174109Y0066637D01*
X0174085Y0066586D01*
X0174057Y0066537D01*
X0174027Y0066490D01*
X0173993Y0066445D01*
X0173956Y0066403D01*
X0173916Y0066363D01*
X0173874Y0066326D01*
X0173829Y0066292D01*
X0173782Y0066262D01*
X0173733Y0066234D01*
X0173682Y0066210D01*
X0173630Y0066189D01*
X0173577Y0066172D01*
X0173522Y0066159D01*
X0173467Y0066150D01*
X0173411Y0066144D01*
X0173355Y0066142D01*
X0173299Y0066144D01*
X0173243Y0066150D01*
X0173188Y0066159D01*
X0173133Y0066172D01*
X0173080Y0066189D01*
X0173028Y0066210D01*
X0172977Y0066234D01*
X0172928Y0066262D01*
X0172881Y0066292D01*
X0172836Y0066326D01*
X0172794Y0066363D01*
X0172754Y0066403D01*
X0172717Y0066445D01*
X0172683Y0066490D01*
X0172653Y0066537D01*
X0172625Y0066586D01*
X0172601Y0066637D01*
X0172580Y0066689D01*
X0172563Y0066742D01*
X0172550Y0066797D01*
X0172541Y0066852D01*
X0172535Y0066908D01*
X0172533Y0066964D01*
X0172533Y0067787D01*
X0172535Y0067843D01*
X0172541Y0067899D01*
X0172550Y0067954D01*
X0172563Y0068009D01*
X0172580Y0068062D01*
X0172601Y0068114D01*
X0172625Y0068165D01*
X0172653Y0068214D01*
X0172683Y0068261D01*
X0172717Y0068306D01*
X0172754Y0068348D01*
X0172794Y0068388D01*
X0172836Y0068425D01*
X0172881Y0068459D01*
X0172928Y0068489D01*
X0172977Y0068517D01*
X0173028Y0068541D01*
X0173080Y0068562D01*
X0173133Y0068579D01*
X0173188Y0068592D01*
X0173243Y0068601D01*
X0173299Y0068607D01*
X0173355Y0068609D01*
X0173411Y0068607D01*
X0173467Y0068601D01*
X0173522Y0068592D01*
X0173577Y0068579D01*
X0173630Y0068562D01*
X0173682Y0068541D01*
X0173733Y0068517D01*
X0173782Y0068489D01*
X0173829Y0068459D01*
X0173874Y0068425D01*
X0173916Y0068388D01*
X0173956Y0068348D01*
X0173993Y0068306D01*
X0174027Y0068261D01*
X0174057Y0068214D01*
X0174085Y0068165D01*
X0174109Y0068114D01*
X0174130Y0068062D01*
X0174147Y0068009D01*
X0174160Y0067954D01*
X0174169Y0067899D01*
X0174175Y0067843D01*
X0174177Y0067787D01*
X0171075Y0068609D02*
X0171075Y0066142D01*
X0171178Y0069637D02*
X0170972Y0069637D01*
X0170972Y0069842D01*
X0171178Y0069842D01*
X0171178Y0069637D01*
X0174401Y0060000D02*
X0175429Y0060000D01*
X0175429Y0059999D02*
X0175485Y0059997D01*
X0175541Y0059991D01*
X0175596Y0059982D01*
X0175651Y0059969D01*
X0175704Y0059952D01*
X0175756Y0059931D01*
X0175807Y0059907D01*
X0175856Y0059879D01*
X0175903Y0059849D01*
X0175948Y0059815D01*
X0175990Y0059778D01*
X0176030Y0059738D01*
X0176067Y0059696D01*
X0176101Y0059651D01*
X0176131Y0059604D01*
X0176159Y0059555D01*
X0176183Y0059504D01*
X0176204Y0059452D01*
X0176221Y0059399D01*
X0176234Y0059344D01*
X0176243Y0059289D01*
X0176249Y0059233D01*
X0176251Y0059177D01*
X0176249Y0059121D01*
X0176243Y0059065D01*
X0176234Y0059010D01*
X0176221Y0058955D01*
X0176204Y0058902D01*
X0176183Y0058850D01*
X0176159Y0058799D01*
X0176131Y0058750D01*
X0176101Y0058703D01*
X0176067Y0058658D01*
X0176030Y0058616D01*
X0175990Y0058576D01*
X0175948Y0058539D01*
X0175903Y0058505D01*
X0175856Y0058475D01*
X0175807Y0058447D01*
X0175756Y0058423D01*
X0175704Y0058402D01*
X0175651Y0058385D01*
X0175596Y0058372D01*
X0175541Y0058363D01*
X0175485Y0058357D01*
X0175429Y0058355D01*
X0174401Y0058355D01*
X0175429Y0058355D02*
X0175492Y0058353D01*
X0175555Y0058347D01*
X0175618Y0058337D01*
X0175680Y0058324D01*
X0175741Y0058307D01*
X0175800Y0058286D01*
X0175859Y0058261D01*
X0175915Y0058233D01*
X0175970Y0058201D01*
X0176023Y0058166D01*
X0176073Y0058128D01*
X0176122Y0058087D01*
X0176167Y0058043D01*
X0176210Y0057996D01*
X0176249Y0057947D01*
X0176286Y0057895D01*
X0176319Y0057841D01*
X0176349Y0057785D01*
X0176376Y0057728D01*
X0176399Y0057669D01*
X0176418Y0057608D01*
X0176433Y0057547D01*
X0176445Y0057485D01*
X0176453Y0057422D01*
X0176457Y0057359D01*
X0176457Y0057295D01*
X0176453Y0057232D01*
X0176445Y0057169D01*
X0176433Y0057107D01*
X0176418Y0057046D01*
X0176399Y0056985D01*
X0176376Y0056926D01*
X0176349Y0056869D01*
X0176319Y0056813D01*
X0176286Y0056759D01*
X0176249Y0056707D01*
X0176210Y0056658D01*
X0176167Y0056611D01*
X0176122Y0056567D01*
X0176073Y0056526D01*
X0176023Y0056488D01*
X0175970Y0056453D01*
X0175915Y0056421D01*
X0175859Y0056393D01*
X0175800Y0056368D01*
X0175741Y0056347D01*
X0175680Y0056330D01*
X0175618Y0056317D01*
X0175555Y0056307D01*
X0175492Y0056301D01*
X0175429Y0056299D01*
X0175429Y0056300D02*
X0174401Y0056300D01*
X0174401Y0060000D01*
X0172205Y0056299D02*
X0172090Y0056303D01*
X0171975Y0056310D01*
X0171860Y0056321D01*
X0171745Y0056336D01*
X0171631Y0056355D01*
X0171518Y0056378D01*
X0171406Y0056404D01*
X0171294Y0056434D01*
X0171184Y0056468D01*
X0171075Y0056505D01*
X0171588Y0058766D02*
X0171684Y0058762D01*
X0171779Y0058755D01*
X0171874Y0058744D01*
X0171968Y0058729D01*
X0172061Y0058710D01*
X0172154Y0058688D01*
X0172246Y0058661D01*
X0172336Y0058631D01*
X0172425Y0058598D01*
X0172513Y0058560D01*
X0171589Y0058766D02*
X0171544Y0058765D01*
X0171499Y0058760D01*
X0171455Y0058751D01*
X0171412Y0058739D01*
X0171370Y0058723D01*
X0171330Y0058703D01*
X0171291Y0058680D01*
X0171255Y0058655D01*
X0171221Y0058626D01*
X0171189Y0058594D01*
X0171160Y0058560D01*
X0171134Y0058523D01*
X0171111Y0058485D01*
X0171092Y0058444D01*
X0171076Y0058402D01*
X0171063Y0058359D01*
X0171054Y0058315D01*
X0171049Y0058271D01*
X0171048Y0058226D01*
X0171051Y0058181D01*
X0171057Y0058137D01*
X0171067Y0058093D01*
X0171080Y0058051D01*
X0171097Y0058009D01*
X0171118Y0057969D01*
X0171142Y0057931D01*
X0171168Y0057896D01*
X0171198Y0057862D01*
X0171231Y0057831D01*
X0171266Y0057803D01*
X0171303Y0057778D01*
X0171342Y0057757D01*
X0171383Y0057738D01*
X0172411Y0057327D01*
X0172411Y0057328D02*
X0172452Y0057309D01*
X0172491Y0057288D01*
X0172528Y0057263D01*
X0172563Y0057235D01*
X0172596Y0057204D01*
X0172626Y0057170D01*
X0172652Y0057135D01*
X0172676Y0057097D01*
X0172697Y0057057D01*
X0172714Y0057015D01*
X0172727Y0056973D01*
X0172737Y0056929D01*
X0172743Y0056885D01*
X0172746Y0056840D01*
X0172745Y0056795D01*
X0172740Y0056751D01*
X0172731Y0056707D01*
X0172718Y0056664D01*
X0172702Y0056622D01*
X0172683Y0056581D01*
X0172660Y0056543D01*
X0172634Y0056506D01*
X0172605Y0056472D01*
X0172573Y0056440D01*
X0172539Y0056411D01*
X0172503Y0056386D01*
X0172464Y0056363D01*
X0172424Y0056343D01*
X0172382Y0056327D01*
X0172339Y0056315D01*
X0172295Y0056306D01*
X0172250Y0056301D01*
X0172205Y0056300D01*
X0174790Y0050157D02*
X0173762Y0049335D01*
X0174790Y0050157D02*
X0174790Y0046457D01*
X0173762Y0046457D02*
X0175818Y0046457D01*
X0172411Y0046457D02*
X0171589Y0046457D01*
X0171541Y0046459D01*
X0171492Y0046465D01*
X0171445Y0046474D01*
X0171398Y0046487D01*
X0171353Y0046504D01*
X0171309Y0046524D01*
X0171267Y0046548D01*
X0171226Y0046575D01*
X0171188Y0046605D01*
X0171153Y0046638D01*
X0171120Y0046673D01*
X0171090Y0046711D01*
X0171063Y0046752D01*
X0171039Y0046794D01*
X0171019Y0046838D01*
X0171002Y0046883D01*
X0170989Y0046930D01*
X0170980Y0046977D01*
X0170974Y0047026D01*
X0170972Y0047074D01*
X0170972Y0048307D01*
X0170974Y0048355D01*
X0170980Y0048404D01*
X0170989Y0048451D01*
X0171002Y0048498D01*
X0171019Y0048543D01*
X0171039Y0048587D01*
X0171063Y0048629D01*
X0171090Y0048670D01*
X0171120Y0048708D01*
X0171153Y0048743D01*
X0171188Y0048776D01*
X0171226Y0048806D01*
X0171267Y0048833D01*
X0171309Y0048857D01*
X0171353Y0048877D01*
X0171398Y0048894D01*
X0171445Y0048907D01*
X0171492Y0048916D01*
X0171541Y0048922D01*
X0171589Y0048924D01*
X0172411Y0048924D01*
X0178520Y0056300D02*
X0178726Y0056300D01*
X0178520Y0056299D02*
X0178472Y0056301D01*
X0178423Y0056307D01*
X0178376Y0056316D01*
X0178329Y0056329D01*
X0178284Y0056346D01*
X0178240Y0056366D01*
X0178198Y0056390D01*
X0178157Y0056417D01*
X0178119Y0056447D01*
X0178084Y0056480D01*
X0178051Y0056515D01*
X0178021Y0056553D01*
X0177994Y0056594D01*
X0177970Y0056636D01*
X0177950Y0056680D01*
X0177933Y0056725D01*
X0177920Y0056772D01*
X0177911Y0056819D01*
X0177905Y0056868D01*
X0177903Y0056916D01*
X0177903Y0060000D01*
X0177492Y0058766D02*
X0178726Y0058766D01*
X0180195Y0058766D02*
X0180195Y0056300D01*
X0181839Y0056300D02*
X0181839Y0058150D01*
X0181840Y0058150D02*
X0181838Y0058198D01*
X0181832Y0058247D01*
X0181823Y0058294D01*
X0181810Y0058341D01*
X0181793Y0058386D01*
X0181773Y0058430D01*
X0181749Y0058472D01*
X0181722Y0058513D01*
X0181692Y0058551D01*
X0181659Y0058586D01*
X0181624Y0058619D01*
X0181586Y0058649D01*
X0181545Y0058676D01*
X0181503Y0058700D01*
X0181459Y0058720D01*
X0181414Y0058737D01*
X0181367Y0058750D01*
X0181320Y0058759D01*
X0181271Y0058765D01*
X0181223Y0058767D01*
X0181223Y0058766D02*
X0180195Y0058766D01*
X0176115Y0039492D02*
X0174470Y0037437D01*
X0175292Y0036614D02*
X0175344Y0036616D01*
X0175397Y0036621D01*
X0175448Y0036630D01*
X0175499Y0036643D01*
X0175549Y0036659D01*
X0175598Y0036678D01*
X0175645Y0036701D01*
X0175691Y0036727D01*
X0175734Y0036756D01*
X0175776Y0036788D01*
X0175815Y0036822D01*
X0175852Y0036860D01*
X0175886Y0036900D01*
X0175918Y0036942D01*
X0175946Y0036986D01*
X0175971Y0037032D01*
X0175993Y0037079D01*
X0176012Y0037128D01*
X0175292Y0036614D02*
X0175240Y0036616D01*
X0175187Y0036621D01*
X0175136Y0036630D01*
X0175085Y0036643D01*
X0175035Y0036659D01*
X0174986Y0036678D01*
X0174939Y0036701D01*
X0174893Y0036727D01*
X0174850Y0036756D01*
X0174808Y0036788D01*
X0174769Y0036822D01*
X0174732Y0036860D01*
X0174698Y0036900D01*
X0174666Y0036942D01*
X0174638Y0036986D01*
X0174613Y0037032D01*
X0174591Y0037079D01*
X0174572Y0037128D01*
X0176320Y0038465D02*
X0176318Y0038571D01*
X0176313Y0038678D01*
X0176303Y0038784D01*
X0176290Y0038889D01*
X0176274Y0038994D01*
X0176253Y0039099D01*
X0176230Y0039202D01*
X0176202Y0039305D01*
X0176171Y0039407D01*
X0176136Y0039507D01*
X0176098Y0039607D01*
X0176057Y0039705D01*
X0176012Y0039801D01*
X0175993Y0039850D01*
X0175971Y0039897D01*
X0175946Y0039943D01*
X0175918Y0039987D01*
X0175886Y0040029D01*
X0175852Y0040069D01*
X0175815Y0040107D01*
X0175776Y0040141D01*
X0175734Y0040173D01*
X0175691Y0040202D01*
X0175645Y0040228D01*
X0175598Y0040251D01*
X0175549Y0040270D01*
X0175499Y0040286D01*
X0175448Y0040299D01*
X0175397Y0040308D01*
X0175344Y0040313D01*
X0175292Y0040315D01*
X0175240Y0040313D01*
X0175187Y0040308D01*
X0175136Y0040299D01*
X0175085Y0040286D01*
X0175035Y0040270D01*
X0174986Y0040251D01*
X0174939Y0040228D01*
X0174893Y0040202D01*
X0174850Y0040173D01*
X0174808Y0040141D01*
X0174769Y0040107D01*
X0174732Y0040069D01*
X0174698Y0040029D01*
X0174666Y0039987D01*
X0174638Y0039943D01*
X0174613Y0039897D01*
X0174591Y0039850D01*
X0174572Y0039801D01*
X0176320Y0038465D02*
X0176318Y0038359D01*
X0176313Y0038252D01*
X0176303Y0038146D01*
X0176290Y0038041D01*
X0176274Y0037936D01*
X0176253Y0037831D01*
X0176230Y0037728D01*
X0176202Y0037625D01*
X0176171Y0037523D01*
X0176136Y0037423D01*
X0176098Y0037323D01*
X0176057Y0037225D01*
X0176012Y0037129D01*
X0174265Y0038465D02*
X0174267Y0038571D01*
X0174272Y0038678D01*
X0174282Y0038784D01*
X0174295Y0038889D01*
X0174311Y0038994D01*
X0174332Y0039099D01*
X0174355Y0039202D01*
X0174383Y0039305D01*
X0174414Y0039407D01*
X0174449Y0039507D01*
X0174487Y0039607D01*
X0174528Y0039705D01*
X0174573Y0039801D01*
X0172617Y0038465D02*
X0172617Y0036615D01*
X0171692Y0036615D01*
X0171640Y0036617D01*
X0171587Y0036623D01*
X0171536Y0036632D01*
X0171485Y0036645D01*
X0171435Y0036662D01*
X0171387Y0036683D01*
X0171340Y0036707D01*
X0171295Y0036734D01*
X0171253Y0036765D01*
X0171212Y0036799D01*
X0171174Y0036835D01*
X0171139Y0036874D01*
X0171107Y0036916D01*
X0171078Y0036959D01*
X0171053Y0037005D01*
X0171030Y0037053D01*
X0171012Y0037102D01*
X0170996Y0037152D01*
X0170985Y0037203D01*
X0170977Y0037255D01*
X0170973Y0037308D01*
X0170973Y0037360D01*
X0170977Y0037413D01*
X0170985Y0037465D01*
X0170996Y0037516D01*
X0171012Y0037566D01*
X0171030Y0037615D01*
X0171053Y0037663D01*
X0171078Y0037709D01*
X0171107Y0037752D01*
X0171139Y0037794D01*
X0171174Y0037833D01*
X0171212Y0037869D01*
X0171253Y0037903D01*
X0171295Y0037934D01*
X0171340Y0037961D01*
X0171387Y0037985D01*
X0171435Y0038006D01*
X0171485Y0038023D01*
X0171536Y0038036D01*
X0171587Y0038045D01*
X0171640Y0038051D01*
X0171692Y0038053D01*
X0172617Y0038053D01*
X0172617Y0038465D02*
X0172615Y0038513D01*
X0172609Y0038562D01*
X0172600Y0038609D01*
X0172587Y0038656D01*
X0172570Y0038701D01*
X0172550Y0038745D01*
X0172526Y0038787D01*
X0172499Y0038828D01*
X0172469Y0038866D01*
X0172436Y0038901D01*
X0172401Y0038934D01*
X0172363Y0038964D01*
X0172322Y0038991D01*
X0172280Y0039015D01*
X0172236Y0039035D01*
X0172191Y0039052D01*
X0172144Y0039065D01*
X0172097Y0039074D01*
X0172048Y0039080D01*
X0172000Y0039082D01*
X0172000Y0039081D02*
X0171178Y0039081D01*
X0174265Y0038465D02*
X0174267Y0038359D01*
X0174272Y0038252D01*
X0174282Y0038146D01*
X0174295Y0038041D01*
X0174311Y0037936D01*
X0174332Y0037831D01*
X0174355Y0037728D01*
X0174383Y0037625D01*
X0174414Y0037523D01*
X0174449Y0037423D01*
X0174487Y0037323D01*
X0174528Y0037225D01*
X0174573Y0037129D01*
X0172617Y0030472D02*
X0172617Y0026772D01*
X0171589Y0026772D01*
X0171541Y0026774D01*
X0171492Y0026780D01*
X0171445Y0026789D01*
X0171398Y0026802D01*
X0171353Y0026819D01*
X0171309Y0026839D01*
X0171267Y0026863D01*
X0171226Y0026890D01*
X0171188Y0026920D01*
X0171153Y0026953D01*
X0171120Y0026988D01*
X0171090Y0027026D01*
X0171063Y0027067D01*
X0171039Y0027109D01*
X0171019Y0027153D01*
X0171002Y0027198D01*
X0170989Y0027245D01*
X0170980Y0027292D01*
X0170974Y0027341D01*
X0170972Y0027389D01*
X0170972Y0028622D01*
X0170974Y0028670D01*
X0170980Y0028719D01*
X0170989Y0028766D01*
X0171002Y0028813D01*
X0171019Y0028858D01*
X0171039Y0028902D01*
X0171063Y0028944D01*
X0171090Y0028985D01*
X0171120Y0029023D01*
X0171153Y0029058D01*
X0171188Y0029091D01*
X0171226Y0029121D01*
X0171267Y0029148D01*
X0171309Y0029172D01*
X0171353Y0029192D01*
X0171398Y0029209D01*
X0171445Y0029222D01*
X0171492Y0029231D01*
X0171541Y0029237D01*
X0171589Y0029239D01*
X0172617Y0029239D01*
X0174234Y0028622D02*
X0174234Y0027389D01*
X0174236Y0027341D01*
X0174242Y0027292D01*
X0174251Y0027245D01*
X0174264Y0027198D01*
X0174281Y0027153D01*
X0174301Y0027109D01*
X0174325Y0027067D01*
X0174352Y0027026D01*
X0174382Y0026988D01*
X0174415Y0026953D01*
X0174450Y0026920D01*
X0174488Y0026890D01*
X0174529Y0026863D01*
X0174571Y0026839D01*
X0174615Y0026819D01*
X0174660Y0026802D01*
X0174707Y0026789D01*
X0174754Y0026780D01*
X0174803Y0026774D01*
X0174851Y0026772D01*
X0175673Y0026772D01*
X0174234Y0028622D02*
X0174236Y0028670D01*
X0174242Y0028719D01*
X0174251Y0028766D01*
X0174264Y0028813D01*
X0174281Y0028858D01*
X0174301Y0028902D01*
X0174325Y0028944D01*
X0174352Y0028985D01*
X0174382Y0029023D01*
X0174415Y0029058D01*
X0174450Y0029091D01*
X0174488Y0029121D01*
X0174529Y0029148D01*
X0174571Y0029172D01*
X0174615Y0029192D01*
X0174660Y0029209D01*
X0174707Y0029222D01*
X0174754Y0029231D01*
X0174803Y0029237D01*
X0174851Y0029239D01*
X0175673Y0029239D01*
X0174893Y0020630D02*
X0174951Y0020628D01*
X0175009Y0020623D01*
X0175066Y0020614D01*
X0175123Y0020601D01*
X0175179Y0020585D01*
X0175234Y0020565D01*
X0175287Y0020542D01*
X0175339Y0020516D01*
X0175389Y0020486D01*
X0175437Y0020453D01*
X0175483Y0020418D01*
X0175526Y0020379D01*
X0175567Y0020338D01*
X0175606Y0020295D01*
X0175641Y0020249D01*
X0175674Y0020201D01*
X0175704Y0020151D01*
X0175730Y0020099D01*
X0175753Y0020046D01*
X0175773Y0019991D01*
X0175789Y0019935D01*
X0175802Y0019878D01*
X0175811Y0019821D01*
X0175816Y0019763D01*
X0175818Y0019705D01*
X0175510Y0018985D02*
X0173762Y0016930D01*
X0175818Y0016930D01*
X0173763Y0019807D02*
X0173786Y0019871D01*
X0173812Y0019934D01*
X0173842Y0019995D01*
X0173875Y0020054D01*
X0173912Y0020111D01*
X0173952Y0020166D01*
X0173995Y0020218D01*
X0174041Y0020268D01*
X0174089Y0020316D01*
X0174141Y0020360D01*
X0174194Y0020402D01*
X0174250Y0020440D01*
X0174308Y0020475D01*
X0174368Y0020507D01*
X0174430Y0020535D01*
X0174493Y0020560D01*
X0174558Y0020581D01*
X0174624Y0020598D01*
X0174690Y0020612D01*
X0174757Y0020621D01*
X0174825Y0020627D01*
X0174893Y0020629D01*
X0175818Y0019705D02*
X0175816Y0019643D01*
X0175810Y0019581D01*
X0175801Y0019520D01*
X0175787Y0019460D01*
X0175770Y0019400D01*
X0175749Y0019342D01*
X0175725Y0019285D01*
X0175697Y0019230D01*
X0175666Y0019176D01*
X0175631Y0019125D01*
X0175594Y0019076D01*
X0175553Y0019029D01*
X0175510Y0018985D01*
X0172411Y0019396D02*
X0171589Y0019396D01*
X0171589Y0019397D02*
X0171541Y0019395D01*
X0171492Y0019389D01*
X0171445Y0019380D01*
X0171398Y0019367D01*
X0171353Y0019350D01*
X0171309Y0019330D01*
X0171267Y0019306D01*
X0171226Y0019279D01*
X0171188Y0019249D01*
X0171153Y0019216D01*
X0171120Y0019181D01*
X0171090Y0019143D01*
X0171063Y0019102D01*
X0171039Y0019060D01*
X0171019Y0019016D01*
X0171002Y0018971D01*
X0170989Y0018924D01*
X0170980Y0018877D01*
X0170974Y0018828D01*
X0170972Y0018780D01*
X0170972Y0017546D01*
X0170974Y0017498D01*
X0170980Y0017449D01*
X0170989Y0017402D01*
X0171002Y0017355D01*
X0171019Y0017310D01*
X0171039Y0017266D01*
X0171063Y0017224D01*
X0171090Y0017183D01*
X0171120Y0017145D01*
X0171153Y0017110D01*
X0171188Y0017077D01*
X0171226Y0017047D01*
X0171267Y0017020D01*
X0171309Y0016996D01*
X0171353Y0016976D01*
X0171398Y0016959D01*
X0171445Y0016946D01*
X0171492Y0016937D01*
X0171541Y0016931D01*
X0171589Y0016929D01*
X0171589Y0016930D02*
X0172411Y0016930D01*
X0177289Y0010787D02*
X0177289Y0007704D01*
X0177288Y0007704D02*
X0177290Y0007656D01*
X0177296Y0007607D01*
X0177305Y0007560D01*
X0177318Y0007513D01*
X0177335Y0007468D01*
X0177355Y0007424D01*
X0177379Y0007382D01*
X0177406Y0007341D01*
X0177436Y0007303D01*
X0177469Y0007268D01*
X0177504Y0007235D01*
X0177542Y0007205D01*
X0177583Y0007178D01*
X0177625Y0007154D01*
X0177669Y0007134D01*
X0177714Y0007117D01*
X0177761Y0007104D01*
X0177808Y0007095D01*
X0177857Y0007089D01*
X0177905Y0007087D01*
X0178111Y0007087D01*
X0179340Y0007087D02*
X0180985Y0009554D01*
X0179340Y0009554D02*
X0180985Y0007087D01*
X0178111Y0009554D02*
X0176878Y0009554D01*
D11*
X0043964Y0018000D02*
X0039964Y0018000D01*
X0069964Y0018000D02*
X0073964Y0018000D01*
X0038964Y0078000D02*
X0034964Y0078000D01*
X0079964Y0128000D02*
X0083964Y0128000D01*
X0096964Y0125000D02*
X0096964Y0121000D01*
X0119964Y0123000D02*
X0123964Y0123000D01*
X0129964Y0123000D02*
X0133964Y0123000D01*
X0113964Y0153000D02*
X0109964Y0153000D01*
X0128027Y0191157D02*
X0128027Y0195157D01*
X0044287Y0155748D02*
X0044287Y0151748D01*
D12*
X0135766Y0204811D03*
D13*
X0135838Y0204811D02*
X0133838Y0203311D01*
X0133838Y0206311D01*
X0135838Y0204811D01*
X0135688Y0204698D02*
X0133838Y0204698D01*
X0133838Y0204100D02*
X0134890Y0204100D01*
X0134092Y0203501D02*
X0133838Y0203501D01*
X0133838Y0205297D02*
X0135190Y0205297D01*
X0134392Y0205895D02*
X0133838Y0205895D01*
D14*
X0135113Y0184496D02*
X0128814Y0184496D01*
X0127830Y0179575D02*
X0127830Y0176425D01*
X0128814Y0171504D02*
X0135113Y0171504D01*
X0134395Y0164191D02*
X0139564Y0164191D01*
X0139564Y0160219D01*
X0139564Y0155781D02*
X0139564Y0151809D01*
X0134395Y0151809D01*
X0134364Y0156534D02*
X0134364Y0159521D01*
X0124720Y0156437D02*
X0124720Y0149563D01*
X0121964Y0151819D02*
X0123539Y0154181D01*
X0120389Y0154181D01*
X0121964Y0151819D01*
X0121964Y0152606D02*
X0122751Y0153787D01*
X0121176Y0153787D01*
X0121964Y0152606D01*
X0121621Y0153120D02*
X0122306Y0153120D01*
X0119208Y0156437D02*
X0119208Y0149563D01*
X0103460Y0151150D02*
X0103460Y0144850D01*
X0098539Y0143866D02*
X0095389Y0143866D01*
X0090468Y0144850D02*
X0090468Y0151150D01*
X0074664Y0161200D02*
X0074666Y0161244D01*
X0074672Y0161288D01*
X0074682Y0161331D01*
X0074695Y0161373D01*
X0074712Y0161414D01*
X0074733Y0161453D01*
X0074757Y0161490D01*
X0074784Y0161525D01*
X0074814Y0161557D01*
X0074847Y0161587D01*
X0074883Y0161613D01*
X0074920Y0161637D01*
X0074960Y0161656D01*
X0075001Y0161673D01*
X0075044Y0161685D01*
X0075087Y0161694D01*
X0075131Y0161699D01*
X0075175Y0161700D01*
X0075219Y0161697D01*
X0075263Y0161690D01*
X0075306Y0161679D01*
X0075348Y0161665D01*
X0075388Y0161647D01*
X0075427Y0161625D01*
X0075463Y0161601D01*
X0075497Y0161573D01*
X0075529Y0161542D01*
X0075558Y0161508D01*
X0075584Y0161472D01*
X0075606Y0161434D01*
X0075625Y0161394D01*
X0075640Y0161352D01*
X0075652Y0161310D01*
X0075660Y0161266D01*
X0075664Y0161222D01*
X0075664Y0161178D01*
X0075660Y0161134D01*
X0075652Y0161090D01*
X0075640Y0161048D01*
X0075625Y0161006D01*
X0075606Y0160966D01*
X0075584Y0160928D01*
X0075558Y0160892D01*
X0075529Y0160858D01*
X0075497Y0160827D01*
X0075463Y0160799D01*
X0075427Y0160775D01*
X0075388Y0160753D01*
X0075348Y0160735D01*
X0075306Y0160721D01*
X0075263Y0160710D01*
X0075219Y0160703D01*
X0075175Y0160700D01*
X0075131Y0160701D01*
X0075087Y0160706D01*
X0075044Y0160715D01*
X0075001Y0160727D01*
X0074960Y0160744D01*
X0074920Y0160763D01*
X0074883Y0160787D01*
X0074847Y0160813D01*
X0074814Y0160843D01*
X0074784Y0160875D01*
X0074757Y0160910D01*
X0074733Y0160947D01*
X0074712Y0160986D01*
X0074695Y0161027D01*
X0074682Y0161069D01*
X0074672Y0161112D01*
X0074666Y0161156D01*
X0074664Y0161200D01*
X0073460Y0160874D02*
X0074838Y0159496D01*
X0074838Y0146504D02*
X0074838Y0145126D01*
X0073460Y0145126D01*
X0074444Y0138512D02*
X0074444Y0127488D01*
X0059484Y0127488D02*
X0059484Y0138512D01*
X0059090Y0145126D02*
X0060468Y0145126D01*
X0059090Y0145126D02*
X0059090Y0146504D01*
X0052358Y0143512D02*
X0049208Y0143512D01*
X0049208Y0141150D01*
X0049208Y0134850D02*
X0049208Y0132488D01*
X0052358Y0132488D01*
X0054208Y0123512D02*
X0057358Y0123512D01*
X0054208Y0123512D02*
X0054208Y0121150D01*
X0054208Y0114850D02*
X0054208Y0112488D01*
X0057358Y0112488D01*
X0059090Y0159496D02*
X0059090Y0160874D01*
X0060468Y0160874D01*
X0057830Y0173866D02*
X0057830Y0177409D01*
X0047987Y0171110D02*
X0039720Y0171110D01*
X0057830Y0194732D02*
X0057830Y0198276D01*
X0047987Y0201031D02*
X0039720Y0201031D01*
X0070074Y0206328D02*
X0086610Y0206328D01*
X0092948Y0208039D02*
X0103972Y0208039D01*
X0103972Y0193079D02*
X0092948Y0193079D01*
X0086610Y0194317D02*
X0070074Y0194317D01*
X0146980Y0144252D02*
X0146980Y0111748D01*
X0166948Y0111748D01*
X0166948Y0144252D01*
X0146980Y0144252D01*
X0159247Y0162252D02*
X0159247Y0165598D01*
X0169090Y0165598D01*
X0169090Y0171110D01*
X0174995Y0162252D02*
X0159247Y0162252D01*
X0169090Y0184890D02*
X0169090Y0190402D01*
X0159247Y0190402D01*
X0159247Y0193748D01*
X0174995Y0193748D01*
X0188775Y0186858D02*
X0188775Y0169142D01*
X0184964Y0128500D02*
X0178964Y0128500D01*
X0159964Y0116650D02*
X0159966Y0116749D01*
X0159972Y0116849D01*
X0159982Y0116948D01*
X0159996Y0117046D01*
X0160013Y0117144D01*
X0160035Y0117241D01*
X0160060Y0117337D01*
X0160089Y0117432D01*
X0160122Y0117526D01*
X0160159Y0117618D01*
X0160199Y0117709D01*
X0160243Y0117798D01*
X0160291Y0117886D01*
X0160342Y0117971D01*
X0160396Y0118054D01*
X0160453Y0118136D01*
X0160514Y0118214D01*
X0160578Y0118291D01*
X0160644Y0118364D01*
X0160714Y0118435D01*
X0160786Y0118503D01*
X0160861Y0118569D01*
X0160939Y0118631D01*
X0161019Y0118690D01*
X0161101Y0118746D01*
X0161185Y0118798D01*
X0161272Y0118847D01*
X0161360Y0118893D01*
X0161450Y0118935D01*
X0161542Y0118974D01*
X0161635Y0119009D01*
X0161729Y0119040D01*
X0161825Y0119067D01*
X0161922Y0119090D01*
X0162019Y0119110D01*
X0162117Y0119126D01*
X0162216Y0119138D01*
X0162315Y0119146D01*
X0162414Y0119150D01*
X0162514Y0119150D01*
X0162613Y0119146D01*
X0162712Y0119138D01*
X0162811Y0119126D01*
X0162909Y0119110D01*
X0163006Y0119090D01*
X0163103Y0119067D01*
X0163199Y0119040D01*
X0163293Y0119009D01*
X0163386Y0118974D01*
X0163478Y0118935D01*
X0163568Y0118893D01*
X0163656Y0118847D01*
X0163743Y0118798D01*
X0163827Y0118746D01*
X0163909Y0118690D01*
X0163989Y0118631D01*
X0164067Y0118569D01*
X0164142Y0118503D01*
X0164214Y0118435D01*
X0164284Y0118364D01*
X0164350Y0118291D01*
X0164414Y0118214D01*
X0164475Y0118136D01*
X0164532Y0118054D01*
X0164586Y0117971D01*
X0164637Y0117886D01*
X0164685Y0117798D01*
X0164729Y0117709D01*
X0164769Y0117618D01*
X0164806Y0117526D01*
X0164839Y0117432D01*
X0164868Y0117337D01*
X0164893Y0117241D01*
X0164915Y0117144D01*
X0164932Y0117046D01*
X0164946Y0116948D01*
X0164956Y0116849D01*
X0164962Y0116749D01*
X0164964Y0116650D01*
X0164962Y0116551D01*
X0164956Y0116451D01*
X0164946Y0116352D01*
X0164932Y0116254D01*
X0164915Y0116156D01*
X0164893Y0116059D01*
X0164868Y0115963D01*
X0164839Y0115868D01*
X0164806Y0115774D01*
X0164769Y0115682D01*
X0164729Y0115591D01*
X0164685Y0115502D01*
X0164637Y0115414D01*
X0164586Y0115329D01*
X0164532Y0115246D01*
X0164475Y0115164D01*
X0164414Y0115086D01*
X0164350Y0115009D01*
X0164284Y0114936D01*
X0164214Y0114865D01*
X0164142Y0114797D01*
X0164067Y0114731D01*
X0163989Y0114669D01*
X0163909Y0114610D01*
X0163827Y0114554D01*
X0163743Y0114502D01*
X0163656Y0114453D01*
X0163568Y0114407D01*
X0163478Y0114365D01*
X0163386Y0114326D01*
X0163293Y0114291D01*
X0163199Y0114260D01*
X0163103Y0114233D01*
X0163006Y0114210D01*
X0162909Y0114190D01*
X0162811Y0114174D01*
X0162712Y0114162D01*
X0162613Y0114154D01*
X0162514Y0114150D01*
X0162414Y0114150D01*
X0162315Y0114154D01*
X0162216Y0114162D01*
X0162117Y0114174D01*
X0162019Y0114190D01*
X0161922Y0114210D01*
X0161825Y0114233D01*
X0161729Y0114260D01*
X0161635Y0114291D01*
X0161542Y0114326D01*
X0161450Y0114365D01*
X0161360Y0114407D01*
X0161272Y0114453D01*
X0161185Y0114502D01*
X0161101Y0114554D01*
X0161019Y0114610D01*
X0160939Y0114669D01*
X0160861Y0114731D01*
X0160786Y0114797D01*
X0160714Y0114865D01*
X0160644Y0114936D01*
X0160578Y0115009D01*
X0160514Y0115086D01*
X0160453Y0115164D01*
X0160396Y0115246D01*
X0160342Y0115329D01*
X0160291Y0115414D01*
X0160243Y0115502D01*
X0160199Y0115591D01*
X0160159Y0115682D01*
X0160122Y0115774D01*
X0160089Y0115868D01*
X0160060Y0115963D01*
X0160035Y0116059D01*
X0160013Y0116156D01*
X0159996Y0116254D01*
X0159982Y0116352D01*
X0159972Y0116451D01*
X0159966Y0116551D01*
X0159964Y0116650D01*
D15*
X0121964Y0151425D03*
D16*
X0147964Y0143252D02*
X0147964Y0112748D01*
X0165964Y0112748D01*
X0165964Y0143252D01*
X0147964Y0143252D01*
M02*
