G75*
%MOIN*%
%OFA0B0*%
%FSLAX25Y25*%
%IPPOS*%
%LPD*%
%AMOC8*
5,1,8,0,0,1.08239X$1,22.5*
%
%ADD10C,0.25000*%
%ADD11R,0.12598X0.12598*%
%ADD12C,0.07400*%
%ADD13C,0.01600*%
%ADD14C,0.02953*%
%ADD15C,0.03248*%
%ADD16C,0.01000*%
D10*
X0056964Y0048000D03*
D11*
X0056964Y0080383D03*
X0056964Y0015617D03*
D12*
X0031964Y0093000D03*
X0031964Y0103000D03*
X0031964Y0113000D03*
X0031964Y0123000D03*
X0031964Y0133000D03*
X0031964Y0143000D03*
X0031964Y0153000D03*
X0079090Y0223906D03*
X0089090Y0223906D03*
X0099090Y0223906D03*
X0109090Y0223906D03*
X0119090Y0223906D03*
X0129090Y0223906D03*
X0186964Y0123000D03*
X0186964Y0113000D03*
X0186964Y0103000D03*
X0186964Y0068000D03*
X0186964Y0058000D03*
X0186964Y0048000D03*
X0186964Y0038000D03*
X0186964Y0028000D03*
X0186964Y0018000D03*
X0186964Y0008000D03*
D13*
X0131964Y0038000D02*
X0106964Y0038000D01*
X0066964Y0078000D01*
X0066964Y0103000D01*
X0064740Y0105224D01*
X0060814Y0105224D01*
X0059187Y0106850D01*
X0059187Y0128984D01*
X0059187Y0145224D01*
X0079326Y0165362D01*
X0086964Y0173000D01*
X0086964Y0175030D01*
X0092990Y0181056D01*
X0092990Y0207806D01*
X0109090Y0223906D01*
X0099090Y0223906D02*
X0090890Y0215706D01*
X0090890Y0196113D01*
X0086176Y0191399D01*
X0086176Y0177213D01*
X0076964Y0168000D01*
X0105861Y0166386D02*
X0106964Y0165283D01*
X0106964Y0143119D01*
X0106964Y0118000D02*
X0106964Y0117135D01*
X0109888Y0114211D01*
X0109888Y0090076D01*
X0111964Y0088000D01*
X0101688Y0113000D02*
X0101924Y0113236D01*
X0101688Y0113000D02*
X0081964Y0113000D01*
X0046964Y0073000D02*
X0046964Y0068000D01*
X0051964Y0063000D01*
X0056964Y0063000D01*
X0056964Y0048000D01*
X0066964Y0038000D01*
X0086964Y0038000D01*
X0086964Y0028000D02*
X0096964Y0038000D01*
X0106964Y0038000D01*
X0061964Y0033000D02*
X0056964Y0028000D01*
X0056964Y0015617D01*
X0061964Y0046031D02*
X0056964Y0048000D01*
X0137791Y0092173D02*
X0137791Y0141354D01*
X0150090Y0153653D01*
X0160980Y0142764D01*
X0162948Y0142764D01*
X0150126Y0153690D02*
X0150090Y0153653D01*
X0146964Y0178000D02*
X0146964Y0183000D01*
X0151964Y0188000D01*
X0176964Y0178000D02*
X0176964Y0158000D01*
X0121964Y0168000D02*
X0121964Y0172291D01*
X0111767Y0172291D01*
X0121964Y0172291D02*
X0121964Y0178000D01*
D14*
X0121964Y0178000D03*
X0121964Y0168000D03*
X0115704Y0164417D03*
X0111767Y0172291D03*
X0105861Y0166386D03*
X0094050Y0168354D03*
X0081964Y0163000D03*
X0076964Y0168000D03*
X0074365Y0180165D03*
X0068460Y0188547D03*
X0064523Y0180165D03*
X0078302Y0191976D03*
X0054680Y0213630D03*
X0052712Y0158512D03*
X0051964Y0148000D03*
X0042869Y0128984D03*
X0061964Y0108000D03*
X0066964Y0103000D03*
X0076964Y0103000D03*
X0086964Y0118000D03*
X0101924Y0113236D03*
X0101964Y0088000D03*
X0071964Y0123000D03*
X0066964Y0118000D03*
X0086964Y0138000D03*
X0081964Y0143000D03*
X0086964Y0153000D03*
X0106964Y0143119D03*
X0146964Y0178000D03*
X0151964Y0188000D03*
X0147200Y0199850D03*
X0125547Y0199850D03*
X0119641Y0199850D03*
X0109603Y0207920D03*
X0113736Y0213630D03*
X0105861Y0191976D03*
X0162948Y0142764D03*
X0176964Y0158000D03*
X0176964Y0178000D03*
X0156964Y0113000D03*
X0151964Y0113000D03*
X0151964Y0098000D03*
X0151964Y0078000D03*
X0141295Y0077803D03*
X0146964Y0063000D03*
X0131964Y0038000D03*
X0086964Y0038000D03*
X0086964Y0028000D03*
X0061964Y0033000D03*
X0061964Y0046031D03*
X0046964Y0073000D03*
D15*
X0081964Y0113000D03*
X0096964Y0108000D03*
X0106964Y0118000D03*
X0106964Y0093000D03*
X0111964Y0088000D03*
X0137791Y0092173D03*
X0150126Y0153690D03*
D16*
X0028664Y0088663D02*
X0028664Y0004228D01*
X0066003Y0004228D01*
X0088413Y0004667D01*
X0088413Y0025162D01*
X0087596Y0024824D01*
X0086332Y0024824D01*
X0085165Y0025307D01*
X0084271Y0026201D01*
X0083787Y0027368D01*
X0083787Y0028632D01*
X0084271Y0029799D01*
X0085165Y0030693D01*
X0086332Y0031176D01*
X0086605Y0031176D01*
X0094844Y0039416D01*
X0095548Y0040119D01*
X0096467Y0040500D01*
X0100928Y0040500D01*
X0065548Y0075881D01*
X0064963Y0076465D01*
X0064963Y0073380D01*
X0063967Y0072384D01*
X0049960Y0072384D01*
X0048965Y0073380D01*
X0048965Y0087387D01*
X0049960Y0088383D01*
X0063967Y0088383D01*
X0064464Y0087886D01*
X0064464Y0101008D01*
X0064271Y0101201D01*
X0063787Y0102368D01*
X0063787Y0102641D01*
X0063705Y0102724D01*
X0060317Y0102724D01*
X0059398Y0103104D01*
X0058694Y0103807D01*
X0057771Y0104731D01*
X0057068Y0105434D01*
X0056687Y0106353D01*
X0056687Y0126784D01*
X0045161Y0126784D01*
X0044669Y0126291D01*
X0043501Y0125808D01*
X0042238Y0125808D01*
X0041070Y0126291D01*
X0040177Y0127185D01*
X0039693Y0128352D01*
X0039693Y0129616D01*
X0040177Y0130784D01*
X0041070Y0131677D01*
X0042238Y0132161D01*
X0043501Y0132161D01*
X0044669Y0131677D01*
X0045161Y0131184D01*
X0056687Y0131184D01*
X0056687Y0145721D01*
X0057068Y0146640D01*
X0077207Y0166778D01*
X0077207Y0166778D01*
X0084464Y0174036D01*
X0084464Y0175527D01*
X0084844Y0176446D01*
X0090490Y0182092D01*
X0090490Y0195147D01*
X0090001Y0194658D01*
X0082471Y0187128D01*
X0082471Y0179254D01*
X0077245Y0174028D01*
X0071340Y0174028D01*
X0055888Y0158577D01*
X0055888Y0157880D01*
X0055405Y0156713D01*
X0054511Y0155819D01*
X0054164Y0155675D01*
X0054164Y0150292D01*
X0054657Y0149799D01*
X0055140Y0148632D01*
X0055140Y0147368D01*
X0054657Y0146201D01*
X0053763Y0145307D01*
X0052596Y0144824D01*
X0051332Y0144824D01*
X0050165Y0145307D01*
X0049271Y0146201D01*
X0048787Y0147368D01*
X0048787Y0148632D01*
X0049271Y0149799D01*
X0049764Y0150292D01*
X0049764Y0154846D01*
X0049324Y0155286D01*
X0048036Y0156575D01*
X0048036Y0176057D01*
X0047781Y0175443D01*
X0046804Y0174466D01*
X0045528Y0173938D01*
X0044147Y0173938D01*
X0042871Y0174466D01*
X0041895Y0175443D01*
X0041366Y0176719D01*
X0041366Y0178100D01*
X0041895Y0179376D01*
X0042871Y0180353D01*
X0044147Y0180881D01*
X0045528Y0180881D01*
X0046804Y0180353D01*
X0047781Y0179376D01*
X0048036Y0178761D01*
X0048036Y0193380D01*
X0047781Y0192766D01*
X0046804Y0191789D01*
X0045528Y0191261D01*
X0044147Y0191261D01*
X0042871Y0191789D01*
X0041895Y0192766D01*
X0041366Y0194042D01*
X0041366Y0195423D01*
X0041895Y0196699D01*
X0042871Y0197675D01*
X0044147Y0198204D01*
X0045528Y0198204D01*
X0046804Y0197675D01*
X0047781Y0196699D01*
X0048036Y0196084D01*
X0048036Y0210096D01*
X0051504Y0213565D01*
X0051504Y0214262D01*
X0051988Y0215429D01*
X0052881Y0216323D01*
X0054049Y0216806D01*
X0055312Y0216806D01*
X0056480Y0216323D01*
X0057373Y0215429D01*
X0057857Y0214262D01*
X0057857Y0212998D01*
X0057373Y0211831D01*
X0056480Y0210937D01*
X0055312Y0210454D01*
X0054615Y0210454D01*
X0052435Y0208274D01*
X0052435Y0161688D01*
X0052777Y0161688D01*
X0068228Y0177140D01*
X0069517Y0178428D01*
X0071647Y0178428D01*
X0071189Y0179534D01*
X0071189Y0180797D01*
X0071673Y0181965D01*
X0071802Y0182094D01*
X0068525Y0185371D01*
X0067828Y0185371D01*
X0066661Y0185854D01*
X0065767Y0186748D01*
X0065284Y0187915D01*
X0065284Y0189179D01*
X0065767Y0190347D01*
X0066661Y0191240D01*
X0067828Y0191724D01*
X0069092Y0191724D01*
X0070259Y0191240D01*
X0071153Y0190347D01*
X0071636Y0189179D01*
X0071636Y0188482D01*
X0076565Y0183553D01*
X0076565Y0182457D01*
X0077058Y0181965D01*
X0077542Y0180797D01*
X0077542Y0180547D01*
X0078071Y0181077D01*
X0078071Y0188800D01*
X0077671Y0188800D01*
X0076503Y0189284D01*
X0075610Y0190177D01*
X0075126Y0191345D01*
X0075126Y0192608D01*
X0075610Y0193776D01*
X0076503Y0194669D01*
X0077671Y0195153D01*
X0078934Y0195153D01*
X0080102Y0194669D01*
X0080995Y0193776D01*
X0081479Y0192608D01*
X0081479Y0192358D01*
X0086890Y0197770D01*
X0086890Y0218972D01*
X0086031Y0219328D01*
X0084512Y0220847D01*
X0084090Y0221866D01*
X0083668Y0220847D01*
X0082149Y0219328D01*
X0080164Y0218506D01*
X0078016Y0218506D01*
X0076031Y0219328D01*
X0074512Y0220847D01*
X0073690Y0222831D01*
X0073690Y0224980D01*
X0074512Y0226964D01*
X0076031Y0228483D01*
X0078016Y0229305D01*
X0080164Y0229305D01*
X0082149Y0228483D01*
X0083668Y0226964D01*
X0084090Y0225945D01*
X0084512Y0226964D01*
X0086031Y0228483D01*
X0088016Y0229305D01*
X0090164Y0229305D01*
X0092149Y0228483D01*
X0093668Y0226964D01*
X0094199Y0225681D01*
X0094271Y0225902D01*
X0094642Y0226631D01*
X0095123Y0227293D01*
X0095702Y0227872D01*
X0096364Y0228353D01*
X0097094Y0228725D01*
X0097872Y0228977D01*
X0098590Y0229091D01*
X0098590Y0224406D01*
X0099590Y0224406D01*
X0099590Y0229091D01*
X0100308Y0228977D01*
X0101086Y0228725D01*
X0101815Y0228353D01*
X0102477Y0227872D01*
X0103056Y0227293D01*
X0103537Y0226631D01*
X0103909Y0225902D01*
X0103980Y0225681D01*
X0104512Y0226964D01*
X0106031Y0228483D01*
X0108016Y0229305D01*
X0110164Y0229305D01*
X0112149Y0228483D01*
X0113668Y0226964D01*
X0114090Y0225945D01*
X0114512Y0226964D01*
X0116031Y0228483D01*
X0118016Y0229305D01*
X0120164Y0229305D01*
X0122149Y0228483D01*
X0123668Y0226964D01*
X0124090Y0225945D01*
X0124512Y0226964D01*
X0126031Y0228483D01*
X0128016Y0229305D01*
X0130164Y0229305D01*
X0132149Y0228483D01*
X0133668Y0226964D01*
X0134490Y0224980D01*
X0134490Y0222831D01*
X0133668Y0220847D01*
X0132149Y0219328D01*
X0130164Y0218506D01*
X0128016Y0218506D01*
X0126031Y0219328D01*
X0124512Y0220847D01*
X0124090Y0221866D01*
X0123668Y0220847D01*
X0122149Y0219328D01*
X0120164Y0218506D01*
X0118016Y0218506D01*
X0117157Y0218861D01*
X0114887Y0216591D01*
X0115535Y0216323D01*
X0116028Y0215830D01*
X0142206Y0215830D01*
X0143495Y0214541D01*
X0174164Y0183872D01*
X0174164Y0092089D01*
X0172875Y0090800D01*
X0149164Y0067089D01*
X0149164Y0065292D01*
X0149657Y0064799D01*
X0150140Y0063632D01*
X0150140Y0062368D01*
X0149657Y0061201D01*
X0148763Y0060307D01*
X0147596Y0059824D01*
X0146332Y0059824D01*
X0145165Y0060307D01*
X0144271Y0061201D01*
X0143787Y0062368D01*
X0143787Y0063632D01*
X0144271Y0064799D01*
X0144764Y0065292D01*
X0144764Y0068911D01*
X0150868Y0075016D01*
X0150165Y0075307D01*
X0149271Y0076201D01*
X0148787Y0077368D01*
X0148787Y0078632D01*
X0149271Y0079799D01*
X0150165Y0080693D01*
X0151332Y0081176D01*
X0152029Y0081176D01*
X0154764Y0083911D01*
X0154764Y0096460D01*
X0154657Y0096201D01*
X0153763Y0095307D01*
X0152596Y0094824D01*
X0151332Y0094824D01*
X0150165Y0095307D01*
X0149271Y0096201D01*
X0148787Y0097368D01*
X0148787Y0098632D01*
X0149271Y0099799D01*
X0149764Y0100292D01*
X0149764Y0110708D01*
X0149271Y0111201D01*
X0148787Y0112368D01*
X0148787Y0113632D01*
X0149271Y0114799D01*
X0150165Y0115693D01*
X0151332Y0116176D01*
X0152596Y0116176D01*
X0153763Y0115693D01*
X0154464Y0114992D01*
X0155165Y0115693D01*
X0156332Y0116176D01*
X0157596Y0116176D01*
X0158763Y0115693D01*
X0159657Y0114799D01*
X0160140Y0113632D01*
X0160140Y0112368D01*
X0159657Y0111201D01*
X0159164Y0110708D01*
X0159164Y0083311D01*
X0169764Y0093911D01*
X0169764Y0182049D01*
X0140383Y0211430D01*
X0116028Y0211430D01*
X0115535Y0210937D01*
X0114367Y0210454D01*
X0113104Y0210454D01*
X0111936Y0210937D01*
X0111043Y0211831D01*
X0110774Y0212479D01*
X0096990Y0198694D01*
X0096990Y0179399D01*
X0096250Y0178660D01*
X0096250Y0170646D01*
X0096492Y0170405D01*
X0103661Y0177574D01*
X0103661Y0189684D01*
X0103169Y0190177D01*
X0102685Y0191345D01*
X0102685Y0192608D01*
X0103169Y0193776D01*
X0104062Y0194669D01*
X0105230Y0195153D01*
X0106493Y0195153D01*
X0107661Y0194669D01*
X0108554Y0193776D01*
X0109038Y0192608D01*
X0109038Y0191345D01*
X0108554Y0190177D01*
X0108061Y0189684D01*
X0108061Y0175752D01*
X0095987Y0163678D01*
X0089397Y0163678D01*
X0094164Y0158911D01*
X0094164Y0152089D01*
X0092875Y0150800D01*
X0085140Y0143065D01*
X0085140Y0142368D01*
X0084657Y0141201D01*
X0083763Y0140307D01*
X0082596Y0139824D01*
X0081332Y0139824D01*
X0080165Y0140307D01*
X0079271Y0141201D01*
X0079164Y0141460D01*
X0079164Y0114901D01*
X0080081Y0115818D01*
X0081303Y0116324D01*
X0082625Y0116324D01*
X0083847Y0115818D01*
X0084165Y0115500D01*
X0084972Y0115500D01*
X0084271Y0116201D01*
X0083787Y0117368D01*
X0083787Y0118632D01*
X0084271Y0119799D01*
X0084764Y0120292D01*
X0084764Y0135708D01*
X0084271Y0136201D01*
X0083787Y0137368D01*
X0083787Y0138632D01*
X0084271Y0139799D01*
X0085165Y0140693D01*
X0086332Y0141176D01*
X0087596Y0141176D01*
X0088763Y0140693D01*
X0089657Y0139799D01*
X0090140Y0138632D01*
X0090140Y0137368D01*
X0089657Y0136201D01*
X0089164Y0135708D01*
X0089164Y0120292D01*
X0089657Y0119799D01*
X0090140Y0118632D01*
X0090140Y0117368D01*
X0089657Y0116201D01*
X0088956Y0115500D01*
X0099696Y0115500D01*
X0100125Y0115929D01*
X0101293Y0116413D01*
X0102556Y0116413D01*
X0103724Y0115929D01*
X0104617Y0115035D01*
X0105101Y0113868D01*
X0105101Y0112604D01*
X0104617Y0111437D01*
X0103724Y0110543D01*
X0102556Y0110060D01*
X0101293Y0110060D01*
X0100230Y0110500D01*
X0099165Y0110500D01*
X0099782Y0109883D01*
X0100288Y0108661D01*
X0100288Y0107339D01*
X0099782Y0106117D01*
X0099164Y0105499D01*
X0099164Y0103911D01*
X0106751Y0096324D01*
X0107625Y0096324D01*
X0108847Y0095818D01*
X0109782Y0094883D01*
X0110288Y0093661D01*
X0110288Y0092339D01*
X0109782Y0091117D01*
X0108847Y0090182D01*
X0107625Y0089676D01*
X0106303Y0089676D01*
X0105081Y0090182D01*
X0104146Y0091117D01*
X0103640Y0092339D01*
X0103640Y0093213D01*
X0096053Y0100800D01*
X0094764Y0102089D01*
X0094764Y0105499D01*
X0094146Y0106117D01*
X0093640Y0107339D01*
X0093640Y0108661D01*
X0094146Y0109883D01*
X0094763Y0110500D01*
X0084165Y0110500D01*
X0083847Y0110182D01*
X0083172Y0109903D01*
X0101899Y0091176D01*
X0102596Y0091176D01*
X0103763Y0090693D01*
X0104657Y0089799D01*
X0105140Y0088632D01*
X0105140Y0087368D01*
X0104657Y0086201D01*
X0103763Y0085307D01*
X0102596Y0084824D01*
X0101332Y0084824D01*
X0100165Y0085307D01*
X0099271Y0086201D01*
X0098787Y0087368D01*
X0098787Y0088065D01*
X0076053Y0110800D01*
X0076053Y0110800D01*
X0074764Y0112089D01*
X0074764Y0112689D01*
X0072875Y0110800D01*
X0071053Y0110800D01*
X0069764Y0112089D01*
X0067029Y0114824D01*
X0066332Y0114824D01*
X0065165Y0115307D01*
X0064271Y0116201D01*
X0063787Y0117368D01*
X0063787Y0118632D01*
X0064271Y0119799D01*
X0065165Y0120693D01*
X0066332Y0121176D01*
X0067596Y0121176D01*
X0068763Y0120693D01*
X0069657Y0119799D01*
X0070140Y0118632D01*
X0070140Y0117935D01*
X0071964Y0116111D01*
X0073264Y0117411D01*
X0073264Y0118589D01*
X0072029Y0119824D01*
X0071332Y0119824D01*
X0070165Y0120307D01*
X0069271Y0121201D01*
X0068787Y0122368D01*
X0068787Y0123632D01*
X0069271Y0124799D01*
X0070165Y0125693D01*
X0071332Y0126176D01*
X0072596Y0126176D01*
X0073763Y0125693D01*
X0074657Y0124799D01*
X0074764Y0124540D01*
X0074764Y0143911D01*
X0076053Y0145200D01*
X0083787Y0152935D01*
X0083787Y0153632D01*
X0084271Y0154799D01*
X0085165Y0155693D01*
X0086332Y0156176D01*
X0087596Y0156176D01*
X0088763Y0155693D01*
X0089657Y0154799D01*
X0089764Y0154540D01*
X0089764Y0157089D01*
X0086053Y0160800D01*
X0084256Y0160800D01*
X0083763Y0160307D01*
X0082596Y0159824D01*
X0081332Y0159824D01*
X0080165Y0160307D01*
X0079271Y0161201D01*
X0079104Y0161604D01*
X0061687Y0144188D01*
X0061687Y0111176D01*
X0062596Y0111176D01*
X0063763Y0110693D01*
X0064256Y0110200D01*
X0072875Y0110200D01*
X0074164Y0108911D01*
X0076899Y0106176D01*
X0077596Y0106176D01*
X0078763Y0105693D01*
X0079657Y0104799D01*
X0080140Y0103632D01*
X0080140Y0102368D01*
X0079657Y0101201D01*
X0078763Y0100307D01*
X0077596Y0099824D01*
X0076332Y0099824D01*
X0075165Y0100307D01*
X0074271Y0101201D01*
X0073787Y0102368D01*
X0073787Y0103065D01*
X0071053Y0105800D01*
X0068504Y0105800D01*
X0068763Y0105693D01*
X0069657Y0104799D01*
X0070140Y0103632D01*
X0070140Y0102368D01*
X0069657Y0101201D01*
X0069464Y0101008D01*
X0069464Y0079036D01*
X0107999Y0040500D01*
X0129972Y0040500D01*
X0130165Y0040693D01*
X0131332Y0041176D01*
X0132596Y0041176D01*
X0133763Y0040693D01*
X0134657Y0039799D01*
X0135140Y0038632D01*
X0135140Y0037368D01*
X0134657Y0036201D01*
X0133763Y0035307D01*
X0132596Y0034824D01*
X0131332Y0034824D01*
X0130165Y0035307D01*
X0129972Y0035500D01*
X0097999Y0035500D01*
X0090821Y0028322D01*
X0165621Y0028322D01*
X0166617Y0027326D01*
X0166617Y0004705D01*
X0166901Y0004700D01*
X0167589Y0004700D01*
X0167603Y0004687D01*
X0182930Y0004397D01*
X0182386Y0004941D01*
X0181564Y0006926D01*
X0181564Y0009074D01*
X0182386Y0011059D01*
X0183905Y0012578D01*
X0184924Y0013000D01*
X0183905Y0013422D01*
X0182386Y0014941D01*
X0181564Y0016926D01*
X0181564Y0019074D01*
X0182386Y0021059D01*
X0183905Y0022578D01*
X0184924Y0023000D01*
X0183905Y0023422D01*
X0182386Y0024941D01*
X0181564Y0026926D01*
X0181564Y0029074D01*
X0182386Y0031059D01*
X0183905Y0032578D01*
X0184924Y0033000D01*
X0183905Y0033422D01*
X0182386Y0034941D01*
X0181564Y0036926D01*
X0181564Y0039074D01*
X0182386Y0041059D01*
X0183905Y0042578D01*
X0184924Y0043000D01*
X0183905Y0043422D01*
X0182386Y0044941D01*
X0181564Y0046926D01*
X0181564Y0049074D01*
X0182386Y0051059D01*
X0183905Y0052578D01*
X0184924Y0053000D01*
X0183905Y0053422D01*
X0182386Y0054941D01*
X0181564Y0056926D01*
X0181564Y0059074D01*
X0182386Y0061059D01*
X0183905Y0062578D01*
X0184924Y0063000D01*
X0183905Y0063422D01*
X0182386Y0064941D01*
X0181564Y0066926D01*
X0181564Y0069074D01*
X0182386Y0071059D01*
X0183905Y0072578D01*
X0185890Y0073400D01*
X0188038Y0073400D01*
X0190023Y0072578D01*
X0190185Y0072415D01*
X0190185Y0098585D01*
X0190023Y0098422D01*
X0188038Y0097600D01*
X0185890Y0097600D01*
X0183905Y0098422D01*
X0182386Y0099941D01*
X0181564Y0101926D01*
X0181564Y0104074D01*
X0182386Y0106059D01*
X0183905Y0107578D01*
X0184924Y0108000D01*
X0183905Y0108422D01*
X0182386Y0109941D01*
X0181564Y0111926D01*
X0181564Y0114074D01*
X0182386Y0116059D01*
X0183905Y0117578D01*
X0184924Y0118000D01*
X0183905Y0118422D01*
X0182386Y0119941D01*
X0181564Y0121926D01*
X0181564Y0124074D01*
X0182386Y0126059D01*
X0183905Y0127578D01*
X0185890Y0128400D01*
X0188038Y0128400D01*
X0190023Y0127578D01*
X0190185Y0127415D01*
X0190185Y0231064D01*
X0028664Y0231064D01*
X0028664Y0157337D01*
X0028905Y0157578D01*
X0030890Y0158400D01*
X0033038Y0158400D01*
X0035023Y0157578D01*
X0036542Y0156059D01*
X0037364Y0154074D01*
X0037364Y0151926D01*
X0036542Y0149941D01*
X0035023Y0148422D01*
X0034004Y0148000D01*
X0035023Y0147578D01*
X0036542Y0146059D01*
X0037364Y0144074D01*
X0037364Y0141926D01*
X0036542Y0139941D01*
X0035023Y0138422D01*
X0034004Y0138000D01*
X0035023Y0137578D01*
X0036542Y0136059D01*
X0037364Y0134074D01*
X0037364Y0131926D01*
X0036542Y0129941D01*
X0035023Y0128422D01*
X0034004Y0128000D01*
X0035023Y0127578D01*
X0036542Y0126059D01*
X0037364Y0124074D01*
X0037364Y0121926D01*
X0036542Y0119941D01*
X0035023Y0118422D01*
X0034004Y0118000D01*
X0035023Y0117578D01*
X0036542Y0116059D01*
X0037364Y0114074D01*
X0037364Y0111926D01*
X0036542Y0109941D01*
X0035023Y0108422D01*
X0034004Y0108000D01*
X0035023Y0107578D01*
X0036542Y0106059D01*
X0037364Y0104074D01*
X0037364Y0101926D01*
X0036542Y0099941D01*
X0035023Y0098422D01*
X0034004Y0098000D01*
X0035023Y0097578D01*
X0036542Y0096059D01*
X0037364Y0094074D01*
X0037364Y0091926D01*
X0036542Y0089941D01*
X0035023Y0088422D01*
X0033038Y0087600D01*
X0030890Y0087600D01*
X0028905Y0088422D01*
X0028664Y0088663D01*
X0028664Y0087873D02*
X0030230Y0087873D01*
X0028664Y0086875D02*
X0048965Y0086875D01*
X0048965Y0085876D02*
X0028664Y0085876D01*
X0028664Y0084878D02*
X0048965Y0084878D01*
X0048965Y0083879D02*
X0028664Y0083879D01*
X0028664Y0082881D02*
X0048965Y0082881D01*
X0048965Y0081882D02*
X0028664Y0081882D01*
X0028664Y0080884D02*
X0048965Y0080884D01*
X0048965Y0079885D02*
X0028664Y0079885D01*
X0028664Y0078887D02*
X0048965Y0078887D01*
X0048965Y0077888D02*
X0028664Y0077888D01*
X0028664Y0076890D02*
X0048965Y0076890D01*
X0048965Y0075891D02*
X0028664Y0075891D01*
X0028664Y0074893D02*
X0048965Y0074893D01*
X0048965Y0073894D02*
X0028664Y0073894D01*
X0028664Y0072896D02*
X0049449Y0072896D01*
X0053558Y0061597D02*
X0052242Y0061198D01*
X0050971Y0060671D01*
X0049758Y0060023D01*
X0048614Y0059258D01*
X0047551Y0058386D01*
X0046578Y0057413D01*
X0045705Y0056350D01*
X0044941Y0055206D01*
X0044293Y0053993D01*
X0043766Y0052722D01*
X0043367Y0051406D01*
X0043099Y0050057D01*
X0042964Y0048688D01*
X0042964Y0048500D01*
X0056464Y0048500D01*
X0056464Y0062000D01*
X0056276Y0062000D01*
X0054907Y0061865D01*
X0053558Y0061597D01*
X0055384Y0061912D02*
X0028664Y0061912D01*
X0028664Y0060914D02*
X0051556Y0060914D01*
X0049597Y0059915D02*
X0028664Y0059915D01*
X0028664Y0058917D02*
X0048198Y0058917D01*
X0047083Y0057918D02*
X0028664Y0057918D01*
X0028664Y0056920D02*
X0046173Y0056920D01*
X0045419Y0055921D02*
X0028664Y0055921D01*
X0028664Y0054923D02*
X0044790Y0054923D01*
X0044264Y0053924D02*
X0028664Y0053924D01*
X0028664Y0052926D02*
X0043851Y0052926D01*
X0043525Y0051927D02*
X0028664Y0051927D01*
X0028664Y0050929D02*
X0043272Y0050929D01*
X0043086Y0049930D02*
X0028664Y0049930D01*
X0028664Y0048932D02*
X0042988Y0048932D01*
X0042964Y0047500D02*
X0042964Y0047312D01*
X0043099Y0045943D01*
X0043367Y0044594D01*
X0043766Y0043278D01*
X0044293Y0042007D01*
X0044941Y0040794D01*
X0045705Y0039650D01*
X0046578Y0038587D01*
X0047551Y0037614D01*
X0048614Y0036742D01*
X0049758Y0035977D01*
X0050971Y0035329D01*
X0052242Y0034802D01*
X0053558Y0034403D01*
X0054907Y0034135D01*
X0056276Y0034000D01*
X0056464Y0034000D01*
X0056464Y0047500D01*
X0057464Y0047500D01*
X0057464Y0048500D01*
X0070964Y0048500D01*
X0070964Y0048688D01*
X0070829Y0050057D01*
X0070561Y0051406D01*
X0070161Y0052722D01*
X0069635Y0053993D01*
X0068987Y0055206D01*
X0068222Y0056350D01*
X0067350Y0057413D01*
X0066377Y0058386D01*
X0065314Y0059258D01*
X0064170Y0060023D01*
X0062957Y0060671D01*
X0061686Y0061198D01*
X0060370Y0061597D01*
X0059021Y0061865D01*
X0057652Y0062000D01*
X0057464Y0062000D01*
X0057464Y0048500D01*
X0056464Y0048500D01*
X0056464Y0047500D01*
X0042964Y0047500D01*
X0043001Y0046934D02*
X0028664Y0046934D01*
X0028664Y0045936D02*
X0043100Y0045936D01*
X0043299Y0044937D02*
X0028664Y0044937D01*
X0028664Y0043939D02*
X0043566Y0043939D01*
X0043906Y0042940D02*
X0028664Y0042940D01*
X0028664Y0041942D02*
X0044328Y0041942D01*
X0044861Y0040943D02*
X0028664Y0040943D01*
X0028664Y0039945D02*
X0045508Y0039945D01*
X0046283Y0038946D02*
X0028664Y0038946D01*
X0028664Y0037948D02*
X0047217Y0037948D01*
X0048361Y0036949D02*
X0028664Y0036949D01*
X0028664Y0035951D02*
X0049807Y0035951D01*
X0051880Y0034952D02*
X0028664Y0034952D01*
X0028664Y0033954D02*
X0058921Y0033954D01*
X0058995Y0034132D02*
X0058787Y0033632D01*
X0058787Y0033359D01*
X0055548Y0030119D01*
X0054844Y0029416D01*
X0054464Y0028497D01*
X0054464Y0023616D01*
X0049960Y0023616D01*
X0048965Y0022620D01*
X0048965Y0008613D01*
X0049960Y0007617D01*
X0063967Y0007617D01*
X0064963Y0008613D01*
X0064963Y0022620D01*
X0063967Y0023616D01*
X0059464Y0023616D01*
X0059464Y0026964D01*
X0083955Y0026964D01*
X0083787Y0027963D02*
X0060462Y0027963D01*
X0059464Y0026964D02*
X0062323Y0029824D01*
X0062596Y0029824D01*
X0063763Y0030307D01*
X0064657Y0031201D01*
X0065140Y0032368D01*
X0065140Y0033632D01*
X0064657Y0034799D01*
X0063763Y0035693D01*
X0063692Y0035722D01*
X0064170Y0035977D01*
X0065314Y0036742D01*
X0066377Y0037614D01*
X0067350Y0038587D01*
X0068222Y0039650D01*
X0068987Y0040794D01*
X0069635Y0042007D01*
X0070161Y0043278D01*
X0070561Y0044594D01*
X0070829Y0045943D01*
X0070964Y0047312D01*
X0070964Y0047500D01*
X0057464Y0047500D01*
X0057464Y0034000D01*
X0057652Y0034000D01*
X0058995Y0034132D01*
X0058384Y0032955D02*
X0028664Y0032955D01*
X0028664Y0031957D02*
X0057385Y0031957D01*
X0056387Y0030958D02*
X0028664Y0030958D01*
X0028664Y0029960D02*
X0055388Y0029960D01*
X0054656Y0028961D02*
X0028664Y0028961D01*
X0028664Y0027963D02*
X0054464Y0027963D01*
X0054464Y0026964D02*
X0028664Y0026964D01*
X0028664Y0025966D02*
X0054464Y0025966D01*
X0054464Y0024967D02*
X0028664Y0024967D01*
X0028664Y0023969D02*
X0054464Y0023969D01*
X0059464Y0023969D02*
X0088413Y0023969D01*
X0088413Y0024967D02*
X0087942Y0024967D01*
X0085985Y0024967D02*
X0059464Y0024967D01*
X0059464Y0025966D02*
X0084506Y0025966D01*
X0083924Y0028961D02*
X0061461Y0028961D01*
X0062924Y0029960D02*
X0084432Y0029960D01*
X0085806Y0030958D02*
X0064414Y0030958D01*
X0064970Y0031957D02*
X0087385Y0031957D01*
X0088384Y0032955D02*
X0065140Y0032955D01*
X0065007Y0033954D02*
X0089382Y0033954D01*
X0090381Y0034952D02*
X0064504Y0034952D01*
X0064120Y0035951D02*
X0091379Y0035951D01*
X0092378Y0036949D02*
X0065567Y0036949D01*
X0066711Y0037948D02*
X0093376Y0037948D01*
X0094375Y0038946D02*
X0067645Y0038946D01*
X0068419Y0039945D02*
X0095373Y0039945D01*
X0098488Y0042940D02*
X0070022Y0042940D01*
X0070362Y0043939D02*
X0097489Y0043939D01*
X0096491Y0044937D02*
X0070629Y0044937D01*
X0070828Y0045936D02*
X0095492Y0045936D01*
X0094494Y0046934D02*
X0070927Y0046934D01*
X0070940Y0048932D02*
X0092497Y0048932D01*
X0091498Y0049930D02*
X0070841Y0049930D01*
X0070656Y0050929D02*
X0090500Y0050929D01*
X0089501Y0051927D02*
X0070403Y0051927D01*
X0070077Y0052926D02*
X0088503Y0052926D01*
X0087504Y0053924D02*
X0069664Y0053924D01*
X0069138Y0054923D02*
X0086506Y0054923D01*
X0085507Y0055921D02*
X0068509Y0055921D01*
X0067755Y0056920D02*
X0084509Y0056920D01*
X0083510Y0057918D02*
X0066845Y0057918D01*
X0065730Y0058917D02*
X0082512Y0058917D01*
X0081513Y0059915D02*
X0064331Y0059915D01*
X0062371Y0060914D02*
X0080515Y0060914D01*
X0079516Y0061912D02*
X0058543Y0061912D01*
X0057464Y0061912D02*
X0056464Y0061912D01*
X0056464Y0060914D02*
X0057464Y0060914D01*
X0057464Y0059915D02*
X0056464Y0059915D01*
X0056464Y0058917D02*
X0057464Y0058917D01*
X0057464Y0057918D02*
X0056464Y0057918D01*
X0056464Y0056920D02*
X0057464Y0056920D01*
X0057464Y0055921D02*
X0056464Y0055921D01*
X0056464Y0054923D02*
X0057464Y0054923D01*
X0057464Y0053924D02*
X0056464Y0053924D01*
X0056464Y0052926D02*
X0057464Y0052926D01*
X0057464Y0051927D02*
X0056464Y0051927D01*
X0056464Y0050929D02*
X0057464Y0050929D01*
X0057464Y0049930D02*
X0056464Y0049930D01*
X0056464Y0048932D02*
X0057464Y0048932D01*
X0057464Y0047933D02*
X0093495Y0047933D01*
X0096572Y0051927D02*
X0183254Y0051927D01*
X0182332Y0050929D02*
X0097571Y0050929D01*
X0098569Y0049930D02*
X0181918Y0049930D01*
X0181564Y0048932D02*
X0099568Y0048932D01*
X0100566Y0047933D02*
X0181564Y0047933D01*
X0181564Y0046934D02*
X0101565Y0046934D01*
X0102563Y0045936D02*
X0181974Y0045936D01*
X0182390Y0044937D02*
X0103562Y0044937D01*
X0104560Y0043939D02*
X0183388Y0043939D01*
X0184780Y0042940D02*
X0105559Y0042940D01*
X0106557Y0041942D02*
X0183269Y0041942D01*
X0182338Y0040943D02*
X0133158Y0040943D01*
X0134511Y0039945D02*
X0181925Y0039945D01*
X0181564Y0038946D02*
X0135010Y0038946D01*
X0135140Y0037948D02*
X0181564Y0037948D01*
X0181564Y0036949D02*
X0134967Y0036949D01*
X0134407Y0035951D02*
X0181968Y0035951D01*
X0182381Y0034952D02*
X0132906Y0034952D01*
X0131021Y0034952D02*
X0097452Y0034952D01*
X0096453Y0033954D02*
X0183373Y0033954D01*
X0184816Y0032955D02*
X0095455Y0032955D01*
X0094456Y0031957D02*
X0183284Y0031957D01*
X0182344Y0030958D02*
X0093458Y0030958D01*
X0092459Y0029960D02*
X0181931Y0029960D01*
X0181564Y0028961D02*
X0091461Y0028961D01*
X0088413Y0022970D02*
X0064613Y0022970D01*
X0064963Y0021972D02*
X0088413Y0021972D01*
X0088413Y0020973D02*
X0064963Y0020973D01*
X0064963Y0019975D02*
X0088413Y0019975D01*
X0088413Y0018976D02*
X0064963Y0018976D01*
X0064963Y0017978D02*
X0088413Y0017978D01*
X0088413Y0016979D02*
X0064963Y0016979D01*
X0064963Y0015981D02*
X0088413Y0015981D01*
X0088413Y0014982D02*
X0064963Y0014982D01*
X0064963Y0013984D02*
X0088413Y0013984D01*
X0088413Y0012985D02*
X0064963Y0012985D01*
X0064963Y0011987D02*
X0088413Y0011987D01*
X0088413Y0010988D02*
X0064963Y0010988D01*
X0064963Y0009990D02*
X0088413Y0009990D01*
X0088413Y0008991D02*
X0064963Y0008991D01*
X0064342Y0007993D02*
X0088413Y0007993D01*
X0088413Y0006994D02*
X0028664Y0006994D01*
X0028664Y0005996D02*
X0088413Y0005996D01*
X0088413Y0004997D02*
X0028664Y0004997D01*
X0028664Y0007993D02*
X0049585Y0007993D01*
X0048965Y0008991D02*
X0028664Y0008991D01*
X0028664Y0009990D02*
X0048965Y0009990D01*
X0048965Y0010988D02*
X0028664Y0010988D01*
X0028664Y0011987D02*
X0048965Y0011987D01*
X0048965Y0012985D02*
X0028664Y0012985D01*
X0028664Y0013984D02*
X0048965Y0013984D01*
X0048965Y0014982D02*
X0028664Y0014982D01*
X0028664Y0015981D02*
X0048965Y0015981D01*
X0048965Y0016979D02*
X0028664Y0016979D01*
X0028664Y0017978D02*
X0048965Y0017978D01*
X0048965Y0018976D02*
X0028664Y0018976D01*
X0028664Y0019975D02*
X0048965Y0019975D01*
X0048965Y0020973D02*
X0028664Y0020973D01*
X0028664Y0021972D02*
X0048965Y0021972D01*
X0049315Y0022970D02*
X0028664Y0022970D01*
X0028664Y0047933D02*
X0056464Y0047933D01*
X0056464Y0046934D02*
X0057464Y0046934D01*
X0057464Y0045936D02*
X0056464Y0045936D01*
X0056464Y0044937D02*
X0057464Y0044937D01*
X0057464Y0043939D02*
X0056464Y0043939D01*
X0056464Y0042940D02*
X0057464Y0042940D01*
X0057464Y0041942D02*
X0056464Y0041942D01*
X0056464Y0040943D02*
X0057464Y0040943D01*
X0057464Y0039945D02*
X0056464Y0039945D01*
X0056464Y0038946D02*
X0057464Y0038946D01*
X0057464Y0037948D02*
X0056464Y0037948D01*
X0056464Y0036949D02*
X0057464Y0036949D01*
X0057464Y0035951D02*
X0056464Y0035951D01*
X0056464Y0034952D02*
X0057464Y0034952D01*
X0069066Y0040943D02*
X0100485Y0040943D01*
X0099486Y0041942D02*
X0069600Y0041942D01*
X0078518Y0062911D02*
X0028664Y0062911D01*
X0028664Y0063909D02*
X0077519Y0063909D01*
X0076521Y0064908D02*
X0028664Y0064908D01*
X0028664Y0065906D02*
X0075522Y0065906D01*
X0074524Y0066905D02*
X0028664Y0066905D01*
X0028664Y0067903D02*
X0073525Y0067903D01*
X0072527Y0068902D02*
X0028664Y0068902D01*
X0028664Y0069900D02*
X0071528Y0069900D01*
X0070530Y0070899D02*
X0028664Y0070899D01*
X0028664Y0071897D02*
X0069531Y0071897D01*
X0068533Y0072896D02*
X0064479Y0072896D01*
X0064963Y0073894D02*
X0067534Y0073894D01*
X0066535Y0074893D02*
X0064963Y0074893D01*
X0064963Y0075891D02*
X0065537Y0075891D01*
X0069613Y0078887D02*
X0137100Y0078887D01*
X0138098Y0077888D02*
X0070611Y0077888D01*
X0071610Y0076890D02*
X0138235Y0076890D01*
X0138118Y0077171D02*
X0138602Y0076004D01*
X0139495Y0075110D01*
X0140663Y0074627D01*
X0141926Y0074627D01*
X0143094Y0075110D01*
X0143987Y0076004D01*
X0144471Y0077171D01*
X0144471Y0078435D01*
X0143987Y0079602D01*
X0143094Y0080496D01*
X0141926Y0080980D01*
X0141229Y0080980D01*
X0117904Y0104305D01*
X0117904Y0162125D01*
X0118397Y0162618D01*
X0118880Y0163785D01*
X0118880Y0165049D01*
X0118397Y0166217D01*
X0117503Y0167110D01*
X0116336Y0167594D01*
X0115072Y0167594D01*
X0113905Y0167110D01*
X0113011Y0166217D01*
X0112528Y0165049D01*
X0112528Y0163785D01*
X0113011Y0162618D01*
X0113504Y0162125D01*
X0113504Y0102482D01*
X0114793Y0101194D01*
X0138118Y0077868D01*
X0138118Y0077171D01*
X0138714Y0075891D02*
X0072608Y0075891D01*
X0073607Y0074893D02*
X0140020Y0074893D01*
X0142569Y0074893D02*
X0150745Y0074893D01*
X0149747Y0073894D02*
X0074605Y0073894D01*
X0075604Y0072896D02*
X0148748Y0072896D01*
X0147750Y0071897D02*
X0076602Y0071897D01*
X0077601Y0070899D02*
X0146751Y0070899D01*
X0145753Y0069900D02*
X0078599Y0069900D01*
X0079598Y0068902D02*
X0144764Y0068902D01*
X0144764Y0067903D02*
X0080596Y0067903D01*
X0081595Y0066905D02*
X0144764Y0066905D01*
X0144764Y0065906D02*
X0082593Y0065906D01*
X0083592Y0064908D02*
X0144379Y0064908D01*
X0143902Y0063909D02*
X0084590Y0063909D01*
X0085589Y0062911D02*
X0143787Y0062911D01*
X0143976Y0061912D02*
X0086587Y0061912D01*
X0087586Y0060914D02*
X0144558Y0060914D01*
X0146111Y0059915D02*
X0088584Y0059915D01*
X0089583Y0058917D02*
X0181564Y0058917D01*
X0181564Y0057918D02*
X0090581Y0057918D01*
X0091580Y0056920D02*
X0181566Y0056920D01*
X0181980Y0055921D02*
X0092578Y0055921D01*
X0093577Y0054923D02*
X0182405Y0054923D01*
X0183403Y0053924D02*
X0094575Y0053924D01*
X0095574Y0052926D02*
X0184744Y0052926D01*
X0181912Y0059915D02*
X0147817Y0059915D01*
X0149370Y0060914D02*
X0182326Y0060914D01*
X0183239Y0061912D02*
X0149951Y0061912D01*
X0150140Y0062911D02*
X0184708Y0062911D01*
X0183418Y0063909D02*
X0150025Y0063909D01*
X0149548Y0064908D02*
X0182419Y0064908D01*
X0181986Y0065906D02*
X0149164Y0065906D01*
X0149164Y0066905D02*
X0181573Y0066905D01*
X0181564Y0067903D02*
X0149978Y0067903D01*
X0150977Y0068902D02*
X0181564Y0068902D01*
X0181906Y0069900D02*
X0151975Y0069900D01*
X0152974Y0070899D02*
X0182320Y0070899D01*
X0183224Y0071897D02*
X0153972Y0071897D01*
X0154971Y0072896D02*
X0184672Y0072896D01*
X0189255Y0072896D02*
X0190185Y0072896D01*
X0190185Y0073894D02*
X0155969Y0073894D01*
X0156968Y0074893D02*
X0190185Y0074893D01*
X0190185Y0075891D02*
X0157966Y0075891D01*
X0158965Y0076890D02*
X0190185Y0076890D01*
X0190185Y0077888D02*
X0159963Y0077888D01*
X0160962Y0078887D02*
X0190185Y0078887D01*
X0190185Y0079885D02*
X0161960Y0079885D01*
X0162959Y0080884D02*
X0190185Y0080884D01*
X0190185Y0081882D02*
X0163958Y0081882D01*
X0164956Y0082881D02*
X0190185Y0082881D01*
X0190185Y0083879D02*
X0165955Y0083879D01*
X0166953Y0084878D02*
X0190185Y0084878D01*
X0190185Y0085876D02*
X0167952Y0085876D01*
X0168950Y0086875D02*
X0190185Y0086875D01*
X0190185Y0087873D02*
X0169949Y0087873D01*
X0170947Y0088872D02*
X0190185Y0088872D01*
X0190185Y0089870D02*
X0171946Y0089870D01*
X0172944Y0090869D02*
X0190185Y0090869D01*
X0190185Y0091868D02*
X0173943Y0091868D01*
X0174164Y0092866D02*
X0190185Y0092866D01*
X0190185Y0093865D02*
X0174164Y0093865D01*
X0174164Y0094863D02*
X0190185Y0094863D01*
X0190185Y0095862D02*
X0174164Y0095862D01*
X0174164Y0096860D02*
X0190185Y0096860D01*
X0190185Y0097859D02*
X0188662Y0097859D01*
X0185265Y0097859D02*
X0174164Y0097859D01*
X0174164Y0098857D02*
X0183470Y0098857D01*
X0182471Y0099856D02*
X0174164Y0099856D01*
X0174164Y0100854D02*
X0182008Y0100854D01*
X0181594Y0101853D02*
X0174164Y0101853D01*
X0174164Y0102851D02*
X0181564Y0102851D01*
X0181564Y0103850D02*
X0174164Y0103850D01*
X0174164Y0104848D02*
X0181884Y0104848D01*
X0182298Y0105847D02*
X0174164Y0105847D01*
X0174164Y0106845D02*
X0183172Y0106845D01*
X0184547Y0107844D02*
X0174164Y0107844D01*
X0174164Y0108842D02*
X0183485Y0108842D01*
X0182486Y0109841D02*
X0174164Y0109841D01*
X0174164Y0110839D02*
X0182014Y0110839D01*
X0181600Y0111838D02*
X0174164Y0111838D01*
X0174164Y0112836D02*
X0181564Y0112836D01*
X0181564Y0113835D02*
X0174164Y0113835D01*
X0174164Y0114833D02*
X0181878Y0114833D01*
X0182292Y0115832D02*
X0174164Y0115832D01*
X0174164Y0116830D02*
X0183157Y0116830D01*
X0184511Y0117829D02*
X0174164Y0117829D01*
X0174164Y0118827D02*
X0183500Y0118827D01*
X0182501Y0119826D02*
X0174164Y0119826D01*
X0174164Y0120824D02*
X0182020Y0120824D01*
X0181607Y0121823D02*
X0174164Y0121823D01*
X0174164Y0122821D02*
X0181564Y0122821D01*
X0181564Y0123820D02*
X0174164Y0123820D01*
X0174164Y0124818D02*
X0181872Y0124818D01*
X0182286Y0125817D02*
X0174164Y0125817D01*
X0174164Y0126815D02*
X0183143Y0126815D01*
X0184475Y0127814D02*
X0174164Y0127814D01*
X0174164Y0128812D02*
X0190185Y0128812D01*
X0190185Y0127814D02*
X0189453Y0127814D01*
X0190185Y0129811D02*
X0174164Y0129811D01*
X0174164Y0130809D02*
X0190185Y0130809D01*
X0190185Y0131808D02*
X0174164Y0131808D01*
X0174164Y0132806D02*
X0190185Y0132806D01*
X0190185Y0133805D02*
X0174164Y0133805D01*
X0174164Y0134803D02*
X0190185Y0134803D01*
X0190185Y0135802D02*
X0174164Y0135802D01*
X0174164Y0136801D02*
X0190185Y0136801D01*
X0190185Y0137799D02*
X0174164Y0137799D01*
X0174164Y0138798D02*
X0190185Y0138798D01*
X0190185Y0139796D02*
X0174164Y0139796D01*
X0174164Y0140795D02*
X0190185Y0140795D01*
X0190185Y0141793D02*
X0174164Y0141793D01*
X0174164Y0142792D02*
X0190185Y0142792D01*
X0190185Y0143790D02*
X0174164Y0143790D01*
X0174164Y0144789D02*
X0190185Y0144789D01*
X0190185Y0145787D02*
X0174164Y0145787D01*
X0174164Y0146786D02*
X0190185Y0146786D01*
X0190185Y0147784D02*
X0174164Y0147784D01*
X0174164Y0148783D02*
X0190185Y0148783D01*
X0190185Y0149781D02*
X0174164Y0149781D01*
X0174164Y0150780D02*
X0190185Y0150780D01*
X0190185Y0151778D02*
X0174164Y0151778D01*
X0174164Y0152777D02*
X0190185Y0152777D01*
X0190185Y0153775D02*
X0174164Y0153775D01*
X0174164Y0154774D02*
X0190185Y0154774D01*
X0190185Y0155772D02*
X0174164Y0155772D01*
X0174164Y0156771D02*
X0190185Y0156771D01*
X0190185Y0157769D02*
X0174164Y0157769D01*
X0174164Y0158768D02*
X0190185Y0158768D01*
X0190185Y0159766D02*
X0174164Y0159766D01*
X0174164Y0160765D02*
X0190185Y0160765D01*
X0190185Y0161763D02*
X0174164Y0161763D01*
X0174164Y0162762D02*
X0190185Y0162762D01*
X0190185Y0163760D02*
X0174164Y0163760D01*
X0174164Y0164759D02*
X0190185Y0164759D01*
X0190185Y0165757D02*
X0174164Y0165757D01*
X0174164Y0166756D02*
X0190185Y0166756D01*
X0190185Y0167754D02*
X0174164Y0167754D01*
X0174164Y0168753D02*
X0190185Y0168753D01*
X0190185Y0169751D02*
X0174164Y0169751D01*
X0174164Y0170750D02*
X0190185Y0170750D01*
X0190185Y0171748D02*
X0174164Y0171748D01*
X0174164Y0172747D02*
X0190185Y0172747D01*
X0190185Y0173745D02*
X0174164Y0173745D01*
X0174164Y0174744D02*
X0190185Y0174744D01*
X0190185Y0175742D02*
X0174164Y0175742D01*
X0174164Y0176741D02*
X0190185Y0176741D01*
X0190185Y0177739D02*
X0174164Y0177739D01*
X0174164Y0178738D02*
X0190185Y0178738D01*
X0190185Y0179737D02*
X0174164Y0179737D01*
X0174164Y0180735D02*
X0190185Y0180735D01*
X0190185Y0181734D02*
X0174164Y0181734D01*
X0174164Y0182732D02*
X0190185Y0182732D01*
X0190185Y0183731D02*
X0174164Y0183731D01*
X0173307Y0184729D02*
X0190185Y0184729D01*
X0190185Y0185728D02*
X0172308Y0185728D01*
X0171310Y0186726D02*
X0190185Y0186726D01*
X0190185Y0187725D02*
X0170311Y0187725D01*
X0169313Y0188723D02*
X0190185Y0188723D01*
X0190185Y0189722D02*
X0168314Y0189722D01*
X0167316Y0190720D02*
X0190185Y0190720D01*
X0190185Y0191719D02*
X0166317Y0191719D01*
X0165319Y0192717D02*
X0190185Y0192717D01*
X0190185Y0193716D02*
X0164320Y0193716D01*
X0163322Y0194714D02*
X0190185Y0194714D01*
X0190185Y0195713D02*
X0162323Y0195713D01*
X0161325Y0196711D02*
X0190185Y0196711D01*
X0190185Y0197710D02*
X0160326Y0197710D01*
X0159328Y0198708D02*
X0190185Y0198708D01*
X0190185Y0199707D02*
X0158329Y0199707D01*
X0157330Y0200705D02*
X0190185Y0200705D01*
X0190185Y0201704D02*
X0156332Y0201704D01*
X0155333Y0202702D02*
X0190185Y0202702D01*
X0190185Y0203701D02*
X0154335Y0203701D01*
X0153336Y0204699D02*
X0190185Y0204699D01*
X0190185Y0205698D02*
X0152338Y0205698D01*
X0151339Y0206696D02*
X0190185Y0206696D01*
X0190185Y0207695D02*
X0150341Y0207695D01*
X0149342Y0208693D02*
X0190185Y0208693D01*
X0190185Y0209692D02*
X0148344Y0209692D01*
X0147345Y0210690D02*
X0173003Y0210690D01*
X0173338Y0210569D02*
X0174125Y0210569D01*
X0176653Y0210569D01*
X0179768Y0211702D01*
X0182307Y0213833D01*
X0182307Y0213833D01*
X0183965Y0216704D01*
X0184540Y0219968D01*
X0184540Y0219969D01*
X0183965Y0223233D01*
X0183965Y0223233D01*
X0182307Y0226104D01*
X0179768Y0228235D01*
X0179768Y0228235D01*
X0176653Y0229368D01*
X0173338Y0229368D01*
X0170223Y0228235D01*
X0170223Y0228235D01*
X0167683Y0226104D01*
X0166026Y0223233D01*
X0165450Y0219969D01*
X0165450Y0219968D01*
X0166026Y0216704D01*
X0166026Y0216704D01*
X0167683Y0213833D01*
X0167683Y0213833D01*
X0170223Y0211702D01*
X0173338Y0210569D01*
X0170260Y0211689D02*
X0146347Y0211689D01*
X0145348Y0212687D02*
X0169049Y0212687D01*
X0170223Y0211702D02*
X0170223Y0211702D01*
X0167859Y0213686D02*
X0144350Y0213686D01*
X0143351Y0214684D02*
X0167192Y0214684D01*
X0166615Y0215683D02*
X0142353Y0215683D01*
X0141295Y0213630D02*
X0113736Y0213630D01*
X0114939Y0210690D02*
X0141123Y0210690D01*
X0141295Y0209693D02*
X0147200Y0203787D01*
X0147200Y0199850D01*
X0149111Y0202702D02*
X0121056Y0202702D01*
X0121440Y0202543D02*
X0120273Y0203027D01*
X0119009Y0203027D01*
X0117842Y0202543D01*
X0116948Y0201650D01*
X0116465Y0200482D01*
X0116465Y0199785D01*
X0110856Y0194176D01*
X0109567Y0192888D01*
X0109567Y0174583D01*
X0109074Y0174091D01*
X0108591Y0172923D01*
X0108591Y0171660D01*
X0109074Y0170492D01*
X0109968Y0169599D01*
X0111135Y0169115D01*
X0112399Y0169115D01*
X0113566Y0169599D01*
X0113759Y0169791D01*
X0119268Y0169791D01*
X0118787Y0168632D01*
X0118787Y0167368D01*
X0119271Y0166201D01*
X0120165Y0165307D01*
X0121332Y0164824D01*
X0122596Y0164824D01*
X0123763Y0165307D01*
X0124657Y0166201D01*
X0125140Y0167368D01*
X0125140Y0168632D01*
X0124657Y0169799D01*
X0124464Y0169992D01*
X0124464Y0176008D01*
X0124657Y0176201D01*
X0125140Y0177368D01*
X0125140Y0178632D01*
X0124657Y0179799D01*
X0123763Y0180693D01*
X0122596Y0181176D01*
X0121332Y0181176D01*
X0120165Y0180693D01*
X0119271Y0179799D01*
X0118787Y0178632D01*
X0118787Y0177368D01*
X0119271Y0176201D01*
X0119464Y0176008D01*
X0119464Y0174791D01*
X0113967Y0174791D01*
X0113967Y0191065D01*
X0119576Y0196674D01*
X0120273Y0196674D01*
X0121440Y0197158D01*
X0122334Y0198051D01*
X0122817Y0199219D01*
X0122817Y0200482D01*
X0122334Y0201650D01*
X0121440Y0202543D01*
X0122280Y0201704D02*
X0150109Y0201704D01*
X0151108Y0200705D02*
X0122725Y0200705D01*
X0122817Y0199707D02*
X0152106Y0199707D01*
X0153105Y0198708D02*
X0122606Y0198708D01*
X0121992Y0197710D02*
X0154103Y0197710D01*
X0155102Y0196711D02*
X0120363Y0196711D01*
X0118615Y0195713D02*
X0156101Y0195713D01*
X0157099Y0194714D02*
X0117616Y0194714D01*
X0116618Y0193716D02*
X0158098Y0193716D01*
X0159096Y0192717D02*
X0115619Y0192717D01*
X0114621Y0191719D02*
X0160095Y0191719D01*
X0161093Y0190720D02*
X0153697Y0190720D01*
X0153763Y0190693D02*
X0152596Y0191176D01*
X0151332Y0191176D01*
X0150165Y0190693D01*
X0149271Y0189799D01*
X0148787Y0188632D01*
X0148787Y0188359D01*
X0144844Y0184416D01*
X0144464Y0183497D01*
X0144464Y0179992D01*
X0144271Y0179799D01*
X0143787Y0178632D01*
X0143787Y0177368D01*
X0144271Y0176201D01*
X0145165Y0175307D01*
X0146332Y0174824D01*
X0147596Y0174824D01*
X0148763Y0175307D01*
X0149657Y0176201D01*
X0150140Y0177368D01*
X0150140Y0178632D01*
X0149657Y0179799D01*
X0149464Y0179992D01*
X0149464Y0181964D01*
X0152323Y0184824D01*
X0152596Y0184824D01*
X0153763Y0185307D01*
X0154657Y0186201D01*
X0155140Y0187368D01*
X0155140Y0188632D01*
X0154657Y0189799D01*
X0153763Y0190693D01*
X0154689Y0189722D02*
X0162092Y0189722D01*
X0163090Y0188723D02*
X0155102Y0188723D01*
X0155140Y0187725D02*
X0164089Y0187725D01*
X0165087Y0186726D02*
X0154874Y0186726D01*
X0154183Y0185728D02*
X0166086Y0185728D01*
X0167084Y0184729D02*
X0152228Y0184729D01*
X0151230Y0183731D02*
X0168083Y0183731D01*
X0169081Y0182732D02*
X0150231Y0182732D01*
X0149464Y0181734D02*
X0169764Y0181734D01*
X0169764Y0180735D02*
X0149464Y0180735D01*
X0149683Y0179737D02*
X0169764Y0179737D01*
X0169764Y0178738D02*
X0150096Y0178738D01*
X0150140Y0177739D02*
X0169764Y0177739D01*
X0169764Y0176741D02*
X0149880Y0176741D01*
X0149198Y0175742D02*
X0169764Y0175742D01*
X0169764Y0174744D02*
X0124464Y0174744D01*
X0124464Y0175742D02*
X0144729Y0175742D01*
X0144047Y0176741D02*
X0124880Y0176741D01*
X0125140Y0177739D02*
X0143787Y0177739D01*
X0143831Y0178738D02*
X0125096Y0178738D01*
X0124683Y0179737D02*
X0144245Y0179737D01*
X0144464Y0180735D02*
X0123661Y0180735D01*
X0120267Y0180735D02*
X0113967Y0180735D01*
X0113967Y0179737D02*
X0119245Y0179737D01*
X0118831Y0178738D02*
X0113967Y0178738D01*
X0113967Y0177739D02*
X0118787Y0177739D01*
X0119047Y0176741D02*
X0113967Y0176741D01*
X0113967Y0175742D02*
X0119464Y0175742D01*
X0124464Y0173745D02*
X0169764Y0173745D01*
X0169764Y0172747D02*
X0124464Y0172747D01*
X0124464Y0171748D02*
X0169764Y0171748D01*
X0169764Y0170750D02*
X0124464Y0170750D01*
X0124676Y0169751D02*
X0169764Y0169751D01*
X0169764Y0168753D02*
X0125090Y0168753D01*
X0125140Y0167754D02*
X0169764Y0167754D01*
X0169764Y0166756D02*
X0124887Y0166756D01*
X0124213Y0165757D02*
X0169764Y0165757D01*
X0169764Y0164759D02*
X0118880Y0164759D01*
X0118870Y0163760D02*
X0169764Y0163760D01*
X0169764Y0162762D02*
X0118456Y0162762D01*
X0117904Y0161763D02*
X0169764Y0161763D01*
X0169764Y0160765D02*
X0117904Y0160765D01*
X0117904Y0159766D02*
X0169764Y0159766D01*
X0169764Y0158768D02*
X0117904Y0158768D01*
X0117904Y0157769D02*
X0169764Y0157769D01*
X0169764Y0156771D02*
X0117904Y0156771D01*
X0117904Y0155772D02*
X0169764Y0155772D01*
X0169764Y0154774D02*
X0117904Y0154774D01*
X0117904Y0153775D02*
X0169764Y0153775D01*
X0169764Y0152777D02*
X0117904Y0152777D01*
X0117904Y0151778D02*
X0169764Y0151778D01*
X0169764Y0150780D02*
X0117904Y0150780D01*
X0117904Y0149781D02*
X0169764Y0149781D01*
X0169764Y0148783D02*
X0117904Y0148783D01*
X0117904Y0147784D02*
X0169764Y0147784D01*
X0169764Y0146786D02*
X0117904Y0146786D01*
X0117904Y0145787D02*
X0169764Y0145787D01*
X0169764Y0144789D02*
X0117904Y0144789D01*
X0117904Y0143790D02*
X0169764Y0143790D01*
X0169764Y0142792D02*
X0117904Y0142792D01*
X0117904Y0141793D02*
X0169764Y0141793D01*
X0169764Y0140795D02*
X0117904Y0140795D01*
X0117904Y0139796D02*
X0169764Y0139796D01*
X0169764Y0138798D02*
X0117904Y0138798D01*
X0117904Y0137799D02*
X0169764Y0137799D01*
X0169764Y0136801D02*
X0117904Y0136801D01*
X0117904Y0135802D02*
X0169764Y0135802D01*
X0169764Y0134803D02*
X0117904Y0134803D01*
X0117904Y0133805D02*
X0169764Y0133805D01*
X0169764Y0132806D02*
X0117904Y0132806D01*
X0117904Y0131808D02*
X0169764Y0131808D01*
X0169764Y0130809D02*
X0117904Y0130809D01*
X0117904Y0129811D02*
X0169764Y0129811D01*
X0169764Y0128812D02*
X0117904Y0128812D01*
X0117904Y0127814D02*
X0169764Y0127814D01*
X0169764Y0126815D02*
X0117904Y0126815D01*
X0117904Y0125817D02*
X0169764Y0125817D01*
X0169764Y0124818D02*
X0117904Y0124818D01*
X0117904Y0123820D02*
X0169764Y0123820D01*
X0169764Y0122821D02*
X0117904Y0122821D01*
X0117904Y0121823D02*
X0169764Y0121823D01*
X0169764Y0120824D02*
X0117904Y0120824D01*
X0117904Y0119826D02*
X0169764Y0119826D01*
X0169764Y0118827D02*
X0117904Y0118827D01*
X0117904Y0117829D02*
X0169764Y0117829D01*
X0169764Y0116830D02*
X0117904Y0116830D01*
X0117904Y0115832D02*
X0150500Y0115832D01*
X0149305Y0114833D02*
X0117904Y0114833D01*
X0117904Y0113835D02*
X0148872Y0113835D01*
X0148787Y0112836D02*
X0117904Y0112836D01*
X0117904Y0111838D02*
X0149007Y0111838D01*
X0149633Y0110839D02*
X0117904Y0110839D01*
X0117904Y0109841D02*
X0149764Y0109841D01*
X0149764Y0108842D02*
X0117904Y0108842D01*
X0117904Y0107844D02*
X0149764Y0107844D01*
X0149764Y0106845D02*
X0117904Y0106845D01*
X0117904Y0105847D02*
X0149764Y0105847D01*
X0149764Y0104848D02*
X0117904Y0104848D01*
X0118359Y0103850D02*
X0149764Y0103850D01*
X0149764Y0102851D02*
X0119358Y0102851D01*
X0120356Y0101853D02*
X0149764Y0101853D01*
X0149764Y0100854D02*
X0121355Y0100854D01*
X0122353Y0099856D02*
X0149327Y0099856D01*
X0148881Y0098857D02*
X0123352Y0098857D01*
X0124350Y0097859D02*
X0148787Y0097859D01*
X0148998Y0096860D02*
X0125349Y0096860D01*
X0126347Y0095862D02*
X0149610Y0095862D01*
X0151237Y0094863D02*
X0127346Y0094863D01*
X0128344Y0093865D02*
X0154764Y0093865D01*
X0154764Y0094863D02*
X0152691Y0094863D01*
X0154317Y0095862D02*
X0154764Y0095862D01*
X0154764Y0092866D02*
X0129343Y0092866D01*
X0130341Y0091868D02*
X0154764Y0091868D01*
X0154764Y0090869D02*
X0131340Y0090869D01*
X0132338Y0089870D02*
X0154764Y0089870D01*
X0154764Y0088872D02*
X0133337Y0088872D01*
X0134336Y0087873D02*
X0154764Y0087873D01*
X0154764Y0086875D02*
X0135334Y0086875D01*
X0136333Y0085876D02*
X0154764Y0085876D01*
X0154764Y0084878D02*
X0137331Y0084878D01*
X0138330Y0083879D02*
X0154732Y0083879D01*
X0153733Y0082881D02*
X0139328Y0082881D01*
X0140327Y0081882D02*
X0152735Y0081882D01*
X0150626Y0080884D02*
X0142157Y0080884D01*
X0143704Y0079885D02*
X0149357Y0079885D01*
X0148893Y0078887D02*
X0144284Y0078887D01*
X0144471Y0077888D02*
X0148787Y0077888D01*
X0148986Y0076890D02*
X0144354Y0076890D01*
X0143875Y0075891D02*
X0149580Y0075891D01*
X0151964Y0078000D02*
X0156964Y0083000D01*
X0156964Y0113000D01*
X0159295Y0110839D02*
X0169764Y0110839D01*
X0169764Y0109841D02*
X0159164Y0109841D01*
X0159164Y0108842D02*
X0169764Y0108842D01*
X0169764Y0107844D02*
X0159164Y0107844D01*
X0159164Y0106845D02*
X0169764Y0106845D01*
X0169764Y0105847D02*
X0159164Y0105847D01*
X0159164Y0104848D02*
X0169764Y0104848D01*
X0169764Y0103850D02*
X0159164Y0103850D01*
X0159164Y0102851D02*
X0169764Y0102851D01*
X0169764Y0101853D02*
X0159164Y0101853D01*
X0159164Y0100854D02*
X0169764Y0100854D01*
X0169764Y0099856D02*
X0159164Y0099856D01*
X0159164Y0098857D02*
X0169764Y0098857D01*
X0169764Y0097859D02*
X0159164Y0097859D01*
X0159164Y0096860D02*
X0169764Y0096860D01*
X0169764Y0095862D02*
X0159164Y0095862D01*
X0159164Y0094863D02*
X0169764Y0094863D01*
X0169717Y0093865D02*
X0159164Y0093865D01*
X0159164Y0092866D02*
X0168719Y0092866D01*
X0167720Y0091868D02*
X0159164Y0091868D01*
X0159164Y0090869D02*
X0166722Y0090869D01*
X0165723Y0089870D02*
X0159164Y0089870D01*
X0159164Y0088872D02*
X0164725Y0088872D01*
X0163726Y0087873D02*
X0159164Y0087873D01*
X0159164Y0086875D02*
X0162728Y0086875D01*
X0161729Y0085876D02*
X0159164Y0085876D01*
X0159164Y0084878D02*
X0160731Y0084878D01*
X0159732Y0083879D02*
X0159164Y0083879D01*
X0171964Y0093000D02*
X0146964Y0068000D01*
X0146964Y0063000D01*
X0141295Y0077803D02*
X0115704Y0103394D01*
X0115704Y0164417D01*
X0113550Y0166756D02*
X0099065Y0166756D01*
X0098067Y0165757D02*
X0112821Y0165757D01*
X0112528Y0164759D02*
X0097068Y0164759D01*
X0096070Y0163760D02*
X0112538Y0163760D01*
X0112952Y0162762D02*
X0090313Y0162762D01*
X0091312Y0161763D02*
X0113504Y0161763D01*
X0113504Y0160765D02*
X0092310Y0160765D01*
X0093309Y0159766D02*
X0113504Y0159766D01*
X0113504Y0158768D02*
X0094164Y0158768D01*
X0094164Y0157769D02*
X0113504Y0157769D01*
X0113504Y0156771D02*
X0094164Y0156771D01*
X0094164Y0155772D02*
X0113504Y0155772D01*
X0113504Y0154774D02*
X0094164Y0154774D01*
X0094164Y0153775D02*
X0113504Y0153775D01*
X0113504Y0152777D02*
X0094164Y0152777D01*
X0093853Y0151778D02*
X0113504Y0151778D01*
X0113504Y0150780D02*
X0092855Y0150780D01*
X0091856Y0149781D02*
X0113504Y0149781D01*
X0113504Y0148783D02*
X0090858Y0148783D01*
X0089859Y0147784D02*
X0113504Y0147784D01*
X0113504Y0146786D02*
X0088861Y0146786D01*
X0087862Y0145787D02*
X0113504Y0145787D01*
X0113504Y0144789D02*
X0086864Y0144789D01*
X0085865Y0143790D02*
X0113504Y0143790D01*
X0113504Y0142792D02*
X0085140Y0142792D01*
X0084902Y0141793D02*
X0113504Y0141793D01*
X0113504Y0140795D02*
X0088517Y0140795D01*
X0089658Y0139796D02*
X0113504Y0139796D01*
X0113504Y0138798D02*
X0090072Y0138798D01*
X0090140Y0137799D02*
X0113504Y0137799D01*
X0113504Y0136801D02*
X0089905Y0136801D01*
X0089258Y0135802D02*
X0113504Y0135802D01*
X0113504Y0134803D02*
X0089164Y0134803D01*
X0089164Y0133805D02*
X0113504Y0133805D01*
X0113504Y0132806D02*
X0089164Y0132806D01*
X0089164Y0131808D02*
X0113504Y0131808D01*
X0113504Y0130809D02*
X0089164Y0130809D01*
X0089164Y0129811D02*
X0113504Y0129811D01*
X0113504Y0128812D02*
X0089164Y0128812D01*
X0089164Y0127814D02*
X0113504Y0127814D01*
X0113504Y0126815D02*
X0089164Y0126815D01*
X0089164Y0125817D02*
X0113504Y0125817D01*
X0113504Y0124818D02*
X0089164Y0124818D01*
X0089164Y0123820D02*
X0113504Y0123820D01*
X0113504Y0122821D02*
X0089164Y0122821D01*
X0089164Y0121823D02*
X0113504Y0121823D01*
X0113504Y0120824D02*
X0089164Y0120824D01*
X0089630Y0119826D02*
X0113504Y0119826D01*
X0113504Y0118827D02*
X0090059Y0118827D01*
X0090140Y0117829D02*
X0113504Y0117829D01*
X0113504Y0116830D02*
X0089917Y0116830D01*
X0089288Y0115832D02*
X0100028Y0115832D01*
X0103821Y0115832D02*
X0113504Y0115832D01*
X0113504Y0114833D02*
X0104701Y0114833D01*
X0105101Y0113835D02*
X0113504Y0113835D01*
X0113504Y0112836D02*
X0105101Y0112836D01*
X0104783Y0111838D02*
X0113504Y0111838D01*
X0113504Y0110839D02*
X0104020Y0110839D01*
X0100213Y0108842D02*
X0113504Y0108842D01*
X0113504Y0107844D02*
X0100288Y0107844D01*
X0100083Y0106845D02*
X0113504Y0106845D01*
X0113504Y0105847D02*
X0099511Y0105847D01*
X0099164Y0104848D02*
X0113504Y0104848D01*
X0113504Y0103850D02*
X0099225Y0103850D01*
X0100224Y0102851D02*
X0113504Y0102851D01*
X0114134Y0101853D02*
X0101222Y0101853D01*
X0102221Y0100854D02*
X0115132Y0100854D01*
X0116131Y0099856D02*
X0103220Y0099856D01*
X0104218Y0098857D02*
X0117129Y0098857D01*
X0118128Y0097859D02*
X0105217Y0097859D01*
X0106215Y0096860D02*
X0119126Y0096860D01*
X0120125Y0095862D02*
X0108741Y0095862D01*
X0109790Y0094863D02*
X0121123Y0094863D01*
X0122122Y0093865D02*
X0110204Y0093865D01*
X0110288Y0092866D02*
X0123120Y0092866D01*
X0124119Y0091868D02*
X0110093Y0091868D01*
X0109534Y0090869D02*
X0125117Y0090869D01*
X0126116Y0089870D02*
X0108095Y0089870D01*
X0105833Y0089870D02*
X0104585Y0089870D01*
X0104394Y0090869D02*
X0103338Y0090869D01*
X0103835Y0091868D02*
X0101208Y0091868D01*
X0100209Y0092866D02*
X0103640Y0092866D01*
X0102988Y0093865D02*
X0099211Y0093865D01*
X0098212Y0094863D02*
X0101990Y0094863D01*
X0100991Y0095862D02*
X0097214Y0095862D01*
X0096215Y0096860D02*
X0099993Y0096860D01*
X0098994Y0097859D02*
X0095217Y0097859D01*
X0094218Y0098857D02*
X0097995Y0098857D01*
X0096997Y0099856D02*
X0093220Y0099856D01*
X0092221Y0100854D02*
X0095998Y0100854D01*
X0095000Y0101853D02*
X0091222Y0101853D01*
X0090224Y0102851D02*
X0094764Y0102851D01*
X0094764Y0103850D02*
X0089225Y0103850D01*
X0088227Y0104848D02*
X0094764Y0104848D01*
X0094416Y0105847D02*
X0087228Y0105847D01*
X0086230Y0106845D02*
X0093844Y0106845D01*
X0093640Y0107844D02*
X0085231Y0107844D01*
X0084233Y0108842D02*
X0093715Y0108842D01*
X0094128Y0109841D02*
X0083234Y0109841D01*
X0080007Y0106845D02*
X0076230Y0106845D01*
X0075231Y0107844D02*
X0079009Y0107844D01*
X0078010Y0108842D02*
X0074233Y0108842D01*
X0073234Y0109841D02*
X0077012Y0109841D01*
X0076013Y0110839D02*
X0072914Y0110839D01*
X0073913Y0111838D02*
X0075015Y0111838D01*
X0076964Y0113000D02*
X0076964Y0143000D01*
X0086964Y0153000D01*
X0088571Y0155772D02*
X0089764Y0155772D01*
X0089764Y0154774D02*
X0089667Y0154774D01*
X0089764Y0156771D02*
X0074270Y0156771D01*
X0075269Y0157769D02*
X0089083Y0157769D01*
X0088085Y0158768D02*
X0076267Y0158768D01*
X0077266Y0159766D02*
X0087086Y0159766D01*
X0086088Y0160765D02*
X0084221Y0160765D01*
X0081964Y0163000D02*
X0086964Y0163000D01*
X0091964Y0158000D01*
X0091964Y0153000D01*
X0081964Y0143000D01*
X0084250Y0140795D02*
X0085410Y0140795D01*
X0084270Y0139796D02*
X0079164Y0139796D01*
X0079164Y0138798D02*
X0083856Y0138798D01*
X0083787Y0137799D02*
X0079164Y0137799D01*
X0079164Y0136801D02*
X0084023Y0136801D01*
X0084670Y0135802D02*
X0079164Y0135802D01*
X0079164Y0134803D02*
X0084764Y0134803D01*
X0084764Y0133805D02*
X0079164Y0133805D01*
X0079164Y0132806D02*
X0084764Y0132806D01*
X0084764Y0131808D02*
X0079164Y0131808D01*
X0079164Y0130809D02*
X0084764Y0130809D01*
X0084764Y0129811D02*
X0079164Y0129811D01*
X0079164Y0128812D02*
X0084764Y0128812D01*
X0084764Y0127814D02*
X0079164Y0127814D01*
X0079164Y0126815D02*
X0084764Y0126815D01*
X0084764Y0125817D02*
X0079164Y0125817D01*
X0079164Y0124818D02*
X0084764Y0124818D01*
X0084764Y0123820D02*
X0079164Y0123820D01*
X0079164Y0122821D02*
X0084764Y0122821D01*
X0084764Y0121823D02*
X0079164Y0121823D01*
X0079164Y0120824D02*
X0084764Y0120824D01*
X0084298Y0119826D02*
X0079164Y0119826D01*
X0079164Y0118827D02*
X0083868Y0118827D01*
X0083787Y0117829D02*
X0079164Y0117829D01*
X0079164Y0116830D02*
X0084010Y0116830D01*
X0083813Y0115832D02*
X0084640Y0115832D01*
X0086964Y0118000D02*
X0086964Y0138000D01*
X0079677Y0140795D02*
X0079164Y0140795D01*
X0074764Y0140795D02*
X0061687Y0140795D01*
X0061687Y0141793D02*
X0074764Y0141793D01*
X0074764Y0142792D02*
X0061687Y0142792D01*
X0061687Y0143790D02*
X0074764Y0143790D01*
X0075641Y0144789D02*
X0062288Y0144789D01*
X0063286Y0145787D02*
X0076640Y0145787D01*
X0077638Y0146786D02*
X0064285Y0146786D01*
X0065284Y0147784D02*
X0078637Y0147784D01*
X0079635Y0148783D02*
X0066282Y0148783D01*
X0067281Y0149781D02*
X0080634Y0149781D01*
X0081632Y0150780D02*
X0068279Y0150780D01*
X0069278Y0151778D02*
X0082631Y0151778D01*
X0083629Y0152777D02*
X0070276Y0152777D01*
X0071275Y0153775D02*
X0083847Y0153775D01*
X0084260Y0154774D02*
X0072273Y0154774D01*
X0073272Y0155772D02*
X0085356Y0155772D01*
X0079707Y0160765D02*
X0078264Y0160765D01*
X0075187Y0164759D02*
X0062070Y0164759D01*
X0061072Y0163760D02*
X0074189Y0163760D01*
X0073190Y0162762D02*
X0060073Y0162762D01*
X0059075Y0161763D02*
X0072192Y0161763D01*
X0071193Y0160765D02*
X0058076Y0160765D01*
X0057078Y0159766D02*
X0070195Y0159766D01*
X0069196Y0158768D02*
X0056079Y0158768D01*
X0055842Y0157769D02*
X0068198Y0157769D01*
X0067199Y0156771D02*
X0055429Y0156771D01*
X0054398Y0155772D02*
X0066201Y0155772D01*
X0065202Y0154774D02*
X0054164Y0154774D01*
X0054164Y0153775D02*
X0064204Y0153775D01*
X0063205Y0152777D02*
X0054164Y0152777D01*
X0054164Y0151778D02*
X0062207Y0151778D01*
X0061208Y0150780D02*
X0054164Y0150780D01*
X0054664Y0149781D02*
X0060209Y0149781D01*
X0059211Y0148783D02*
X0055078Y0148783D01*
X0055140Y0147784D02*
X0058212Y0147784D01*
X0057214Y0146786D02*
X0054899Y0146786D01*
X0054243Y0145787D02*
X0056715Y0145787D01*
X0056687Y0144789D02*
X0037068Y0144789D01*
X0037364Y0143790D02*
X0056687Y0143790D01*
X0056687Y0142792D02*
X0037364Y0142792D01*
X0037309Y0141793D02*
X0056687Y0141793D01*
X0056687Y0140795D02*
X0036895Y0140795D01*
X0036397Y0139796D02*
X0056687Y0139796D01*
X0056687Y0138798D02*
X0035398Y0138798D01*
X0034489Y0137799D02*
X0056687Y0137799D01*
X0056687Y0136801D02*
X0035800Y0136801D01*
X0036648Y0135802D02*
X0056687Y0135802D01*
X0056687Y0134803D02*
X0037062Y0134803D01*
X0037364Y0133805D02*
X0056687Y0133805D01*
X0056687Y0132806D02*
X0037364Y0132806D01*
X0037315Y0131808D02*
X0041386Y0131808D01*
X0040202Y0130809D02*
X0036901Y0130809D01*
X0036412Y0129811D02*
X0039774Y0129811D01*
X0039693Y0128812D02*
X0035413Y0128812D01*
X0034453Y0127814D02*
X0039916Y0127814D01*
X0040546Y0126815D02*
X0035785Y0126815D01*
X0036642Y0125817D02*
X0042216Y0125817D01*
X0043523Y0125817D02*
X0056687Y0125817D01*
X0056687Y0124818D02*
X0037056Y0124818D01*
X0037364Y0123820D02*
X0056687Y0123820D01*
X0056687Y0122821D02*
X0037364Y0122821D01*
X0037321Y0121823D02*
X0056687Y0121823D01*
X0056687Y0120824D02*
X0036908Y0120824D01*
X0036426Y0119826D02*
X0056687Y0119826D01*
X0056687Y0118827D02*
X0035428Y0118827D01*
X0034417Y0117829D02*
X0056687Y0117829D01*
X0056687Y0116830D02*
X0035770Y0116830D01*
X0036636Y0115832D02*
X0056687Y0115832D01*
X0056687Y0114833D02*
X0037049Y0114833D01*
X0037364Y0113835D02*
X0056687Y0113835D01*
X0056687Y0112836D02*
X0037364Y0112836D01*
X0037327Y0111838D02*
X0056687Y0111838D01*
X0056687Y0110839D02*
X0036914Y0110839D01*
X0036441Y0109841D02*
X0056687Y0109841D01*
X0056687Y0108842D02*
X0035443Y0108842D01*
X0034381Y0107844D02*
X0056687Y0107844D01*
X0056687Y0106845D02*
X0035755Y0106845D01*
X0036630Y0105847D02*
X0056897Y0105847D01*
X0057654Y0104848D02*
X0037043Y0104848D01*
X0037364Y0103850D02*
X0058652Y0103850D01*
X0060009Y0102851D02*
X0037364Y0102851D01*
X0037334Y0101853D02*
X0064001Y0101853D01*
X0064464Y0100854D02*
X0036920Y0100854D01*
X0036456Y0099856D02*
X0064464Y0099856D01*
X0064464Y0098857D02*
X0035458Y0098857D01*
X0034345Y0097859D02*
X0064464Y0097859D01*
X0064464Y0096860D02*
X0035741Y0096860D01*
X0036623Y0095862D02*
X0064464Y0095862D01*
X0064464Y0094863D02*
X0037037Y0094863D01*
X0037364Y0093865D02*
X0064464Y0093865D01*
X0064464Y0092866D02*
X0037364Y0092866D01*
X0037340Y0091868D02*
X0064464Y0091868D01*
X0064464Y0090869D02*
X0036926Y0090869D01*
X0036471Y0089870D02*
X0064464Y0089870D01*
X0064464Y0088872D02*
X0035473Y0088872D01*
X0033698Y0087873D02*
X0049451Y0087873D01*
X0061964Y0108000D02*
X0071964Y0108000D01*
X0076964Y0103000D01*
X0074001Y0101853D02*
X0069927Y0101853D01*
X0070140Y0102851D02*
X0073787Y0102851D01*
X0073003Y0103850D02*
X0070050Y0103850D01*
X0069608Y0104848D02*
X0072004Y0104848D01*
X0069464Y0100854D02*
X0074618Y0100854D01*
X0076255Y0099856D02*
X0069464Y0099856D01*
X0069464Y0098857D02*
X0087995Y0098857D01*
X0086997Y0099856D02*
X0077673Y0099856D01*
X0079310Y0100854D02*
X0085998Y0100854D01*
X0085000Y0101853D02*
X0079927Y0101853D01*
X0080140Y0102851D02*
X0084001Y0102851D01*
X0083003Y0103850D02*
X0080050Y0103850D01*
X0079608Y0104848D02*
X0082004Y0104848D01*
X0081006Y0105847D02*
X0078392Y0105847D01*
X0076964Y0113000D02*
X0101964Y0088000D01*
X0098992Y0086875D02*
X0069464Y0086875D01*
X0069464Y0087873D02*
X0098787Y0087873D01*
X0097981Y0088872D02*
X0069464Y0088872D01*
X0069464Y0089870D02*
X0096982Y0089870D01*
X0095984Y0090869D02*
X0069464Y0090869D01*
X0069464Y0091868D02*
X0094985Y0091868D01*
X0093987Y0092866D02*
X0069464Y0092866D01*
X0069464Y0093865D02*
X0092988Y0093865D01*
X0091990Y0094863D02*
X0069464Y0094863D01*
X0069464Y0095862D02*
X0090991Y0095862D01*
X0089993Y0096860D02*
X0069464Y0096860D01*
X0069464Y0097859D02*
X0088994Y0097859D01*
X0096964Y0103000D02*
X0096964Y0108000D01*
X0099799Y0109841D02*
X0113504Y0109841D01*
X0096964Y0103000D02*
X0106964Y0093000D01*
X0105041Y0088872D02*
X0127114Y0088872D01*
X0128113Y0087873D02*
X0105140Y0087873D01*
X0104936Y0086875D02*
X0129111Y0086875D01*
X0130110Y0085876D02*
X0104332Y0085876D01*
X0102727Y0084878D02*
X0131109Y0084878D01*
X0132107Y0083879D02*
X0069464Y0083879D01*
X0069464Y0082881D02*
X0133106Y0082881D01*
X0134104Y0081882D02*
X0069464Y0081882D01*
X0069464Y0080884D02*
X0135103Y0080884D01*
X0136101Y0079885D02*
X0069464Y0079885D01*
X0069464Y0084878D02*
X0101201Y0084878D01*
X0099595Y0085876D02*
X0069464Y0085876D01*
X0071013Y0110839D02*
X0063410Y0110839D01*
X0061687Y0111838D02*
X0070015Y0111838D01*
X0069016Y0112836D02*
X0061687Y0112836D01*
X0061687Y0113835D02*
X0068018Y0113835D01*
X0066309Y0114833D02*
X0061687Y0114833D01*
X0061687Y0115832D02*
X0064640Y0115832D01*
X0064010Y0116830D02*
X0061687Y0116830D01*
X0061687Y0117829D02*
X0063787Y0117829D01*
X0063868Y0118827D02*
X0061687Y0118827D01*
X0061687Y0119826D02*
X0064298Y0119826D01*
X0065482Y0120824D02*
X0061687Y0120824D01*
X0061687Y0121823D02*
X0069013Y0121823D01*
X0068787Y0122821D02*
X0061687Y0122821D01*
X0061687Y0123820D02*
X0068865Y0123820D01*
X0069290Y0124818D02*
X0061687Y0124818D01*
X0061687Y0125817D02*
X0070464Y0125817D01*
X0073464Y0125817D02*
X0074764Y0125817D01*
X0074764Y0126815D02*
X0061687Y0126815D01*
X0061687Y0127814D02*
X0074764Y0127814D01*
X0074764Y0128812D02*
X0061687Y0128812D01*
X0061687Y0129811D02*
X0074764Y0129811D01*
X0074764Y0130809D02*
X0061687Y0130809D01*
X0061687Y0131808D02*
X0074764Y0131808D01*
X0074764Y0132806D02*
X0061687Y0132806D01*
X0061687Y0133805D02*
X0074764Y0133805D01*
X0074764Y0134803D02*
X0061687Y0134803D01*
X0061687Y0135802D02*
X0074764Y0135802D01*
X0074764Y0136801D02*
X0061687Y0136801D01*
X0061687Y0137799D02*
X0074764Y0137799D01*
X0074764Y0138798D02*
X0061687Y0138798D01*
X0061687Y0139796D02*
X0074764Y0139796D01*
X0074638Y0124818D02*
X0074764Y0124818D01*
X0071964Y0123000D02*
X0075464Y0119500D01*
X0075464Y0116500D01*
X0071964Y0113000D01*
X0066964Y0118000D01*
X0068446Y0120824D02*
X0069647Y0120824D01*
X0069630Y0119826D02*
X0071327Y0119826D01*
X0070059Y0118827D02*
X0073025Y0118827D01*
X0073264Y0117829D02*
X0070246Y0117829D01*
X0071245Y0116830D02*
X0072683Y0116830D01*
X0079164Y0115832D02*
X0080114Y0115832D01*
X0059187Y0128984D02*
X0042869Y0128984D01*
X0044353Y0131808D02*
X0056687Y0131808D01*
X0049685Y0145787D02*
X0036654Y0145787D01*
X0035815Y0146786D02*
X0049029Y0146786D01*
X0048787Y0147784D02*
X0034525Y0147784D01*
X0035383Y0148783D02*
X0048850Y0148783D01*
X0049264Y0149781D02*
X0036382Y0149781D01*
X0036889Y0150780D02*
X0049764Y0150780D01*
X0049764Y0151778D02*
X0037303Y0151778D01*
X0037364Y0152777D02*
X0049764Y0152777D01*
X0049764Y0153775D02*
X0037364Y0153775D01*
X0037074Y0154774D02*
X0049764Y0154774D01*
X0048838Y0155772D02*
X0036660Y0155772D01*
X0035830Y0156771D02*
X0048036Y0156771D01*
X0048036Y0157769D02*
X0034561Y0157769D01*
X0029367Y0157769D02*
X0028664Y0157769D01*
X0028664Y0158768D02*
X0048036Y0158768D01*
X0048036Y0159766D02*
X0028664Y0159766D01*
X0028664Y0160765D02*
X0048036Y0160765D01*
X0048036Y0161763D02*
X0028664Y0161763D01*
X0028664Y0162762D02*
X0048036Y0162762D01*
X0048036Y0163760D02*
X0028664Y0163760D01*
X0028664Y0164759D02*
X0048036Y0164759D01*
X0048036Y0165757D02*
X0028664Y0165757D01*
X0028664Y0166756D02*
X0048036Y0166756D01*
X0048036Y0167754D02*
X0028664Y0167754D01*
X0028664Y0168753D02*
X0048036Y0168753D01*
X0048036Y0169751D02*
X0028664Y0169751D01*
X0028664Y0170750D02*
X0048036Y0170750D01*
X0048036Y0171748D02*
X0028664Y0171748D01*
X0028664Y0172747D02*
X0048036Y0172747D01*
X0048036Y0173745D02*
X0028664Y0173745D01*
X0028664Y0174744D02*
X0042594Y0174744D01*
X0041771Y0175742D02*
X0028664Y0175742D01*
X0028664Y0176741D02*
X0041366Y0176741D01*
X0041366Y0177739D02*
X0028664Y0177739D01*
X0028664Y0178738D02*
X0041630Y0178738D01*
X0042255Y0179737D02*
X0028664Y0179737D01*
X0028664Y0180735D02*
X0043795Y0180735D01*
X0045881Y0180735D02*
X0048036Y0180735D01*
X0048036Y0179737D02*
X0047420Y0179737D01*
X0048036Y0181734D02*
X0028664Y0181734D01*
X0028664Y0182732D02*
X0048036Y0182732D01*
X0048036Y0183731D02*
X0028664Y0183731D01*
X0028664Y0184729D02*
X0048036Y0184729D01*
X0048036Y0185728D02*
X0028664Y0185728D01*
X0028664Y0186726D02*
X0048036Y0186726D01*
X0048036Y0187725D02*
X0028664Y0187725D01*
X0028664Y0188723D02*
X0048036Y0188723D01*
X0048036Y0189722D02*
X0028664Y0189722D01*
X0028664Y0190720D02*
X0048036Y0190720D01*
X0048036Y0191719D02*
X0046634Y0191719D01*
X0047732Y0192717D02*
X0048036Y0192717D01*
X0048036Y0196711D02*
X0047769Y0196711D01*
X0048036Y0197710D02*
X0046722Y0197710D01*
X0048036Y0198708D02*
X0028664Y0198708D01*
X0028664Y0197710D02*
X0042954Y0197710D01*
X0041907Y0196711D02*
X0028664Y0196711D01*
X0028664Y0195713D02*
X0041486Y0195713D01*
X0041366Y0194714D02*
X0028664Y0194714D01*
X0028664Y0193716D02*
X0041501Y0193716D01*
X0041943Y0192717D02*
X0028664Y0192717D01*
X0028664Y0191719D02*
X0043042Y0191719D01*
X0048036Y0199707D02*
X0028664Y0199707D01*
X0028664Y0200705D02*
X0048036Y0200705D01*
X0048036Y0201704D02*
X0028664Y0201704D01*
X0028664Y0202702D02*
X0048036Y0202702D01*
X0048036Y0203701D02*
X0028664Y0203701D01*
X0028664Y0204699D02*
X0048036Y0204699D01*
X0048036Y0205698D02*
X0028664Y0205698D01*
X0028664Y0206696D02*
X0048036Y0206696D01*
X0048036Y0207695D02*
X0028664Y0207695D01*
X0028664Y0208693D02*
X0048036Y0208693D01*
X0048036Y0209692D02*
X0028664Y0209692D01*
X0028664Y0210690D02*
X0038003Y0210690D01*
X0038338Y0210569D02*
X0040865Y0210569D01*
X0041653Y0210569D01*
X0044768Y0211702D01*
X0047307Y0213833D01*
X0047307Y0213833D01*
X0048965Y0216704D01*
X0049540Y0219968D01*
X0049540Y0219969D01*
X0048965Y0223233D01*
X0048965Y0223233D01*
X0047307Y0226104D01*
X0044768Y0228235D01*
X0044768Y0228235D01*
X0041653Y0229368D01*
X0038338Y0229368D01*
X0035223Y0228235D01*
X0035223Y0228235D01*
X0032683Y0226104D01*
X0031026Y0223233D01*
X0030450Y0219969D01*
X0030450Y0219968D01*
X0031026Y0216704D01*
X0031026Y0216704D01*
X0032683Y0213833D01*
X0035223Y0211702D01*
X0038338Y0210569D01*
X0035260Y0211689D02*
X0028664Y0211689D01*
X0028664Y0212687D02*
X0034049Y0212687D01*
X0035223Y0211702D02*
X0035223Y0211702D01*
X0032859Y0213686D02*
X0028664Y0213686D01*
X0028664Y0214684D02*
X0032192Y0214684D01*
X0032683Y0213833D02*
X0032683Y0213833D01*
X0031615Y0215683D02*
X0028664Y0215683D01*
X0028664Y0216681D02*
X0031039Y0216681D01*
X0030854Y0217680D02*
X0028664Y0217680D01*
X0028664Y0218678D02*
X0030678Y0218678D01*
X0030502Y0219677D02*
X0028664Y0219677D01*
X0028664Y0220675D02*
X0030575Y0220675D01*
X0030751Y0221674D02*
X0028664Y0221674D01*
X0028664Y0222672D02*
X0030927Y0222672D01*
X0031026Y0223233D02*
X0031026Y0223233D01*
X0031279Y0223671D02*
X0028664Y0223671D01*
X0028664Y0224670D02*
X0031855Y0224670D01*
X0032432Y0225668D02*
X0028664Y0225668D01*
X0028664Y0226667D02*
X0033354Y0226667D01*
X0032683Y0226104D02*
X0032683Y0226104D01*
X0032683Y0226104D01*
X0034544Y0227665D02*
X0028664Y0227665D01*
X0028664Y0228664D02*
X0036401Y0228664D01*
X0043590Y0228664D02*
X0076466Y0228664D01*
X0075213Y0227665D02*
X0045447Y0227665D01*
X0046637Y0226667D02*
X0074389Y0226667D01*
X0073975Y0225668D02*
X0047559Y0225668D01*
X0047307Y0226104D02*
X0047307Y0226104D01*
X0048135Y0224670D02*
X0073690Y0224670D01*
X0073690Y0223671D02*
X0048712Y0223671D01*
X0049064Y0222672D02*
X0073756Y0222672D01*
X0074169Y0221674D02*
X0049240Y0221674D01*
X0049416Y0220675D02*
X0074683Y0220675D01*
X0075682Y0219677D02*
X0049489Y0219677D01*
X0049313Y0218678D02*
X0077598Y0218678D01*
X0080581Y0218678D02*
X0086890Y0218678D01*
X0086890Y0217680D02*
X0049137Y0217680D01*
X0048965Y0216704D02*
X0048965Y0216704D01*
X0048952Y0216681D02*
X0053747Y0216681D01*
X0052241Y0215683D02*
X0048375Y0215683D01*
X0047799Y0214684D02*
X0051679Y0214684D01*
X0051504Y0213686D02*
X0047132Y0213686D01*
X0047307Y0213833D02*
X0047307Y0213833D01*
X0045942Y0212687D02*
X0050627Y0212687D01*
X0049628Y0211689D02*
X0044731Y0211689D01*
X0044768Y0211702D02*
X0044768Y0211702D01*
X0041988Y0210690D02*
X0048630Y0210690D01*
X0050236Y0209185D02*
X0054680Y0213630D01*
X0055884Y0210690D02*
X0086890Y0210690D01*
X0086890Y0209692D02*
X0053854Y0209692D01*
X0052855Y0208693D02*
X0086890Y0208693D01*
X0086890Y0207695D02*
X0052435Y0207695D01*
X0052435Y0206696D02*
X0086890Y0206696D01*
X0086890Y0205698D02*
X0052435Y0205698D01*
X0052435Y0204699D02*
X0086890Y0204699D01*
X0086890Y0203701D02*
X0052435Y0203701D01*
X0052435Y0202702D02*
X0086890Y0202702D01*
X0086890Y0201704D02*
X0052435Y0201704D01*
X0052435Y0200705D02*
X0086890Y0200705D01*
X0086890Y0199707D02*
X0052435Y0199707D01*
X0052435Y0198708D02*
X0086890Y0198708D01*
X0086830Y0197710D02*
X0052435Y0197710D01*
X0052435Y0196711D02*
X0085832Y0196711D01*
X0084833Y0195713D02*
X0052435Y0195713D01*
X0052435Y0194714D02*
X0076612Y0194714D01*
X0075585Y0193716D02*
X0052435Y0193716D01*
X0052435Y0192717D02*
X0075171Y0192717D01*
X0075126Y0191719D02*
X0069104Y0191719D01*
X0067816Y0191719D02*
X0052435Y0191719D01*
X0052435Y0190720D02*
X0066141Y0190720D01*
X0065984Y0189573D02*
X0084390Y0207979D01*
X0084390Y0225852D01*
X0087143Y0228606D01*
X0091037Y0228606D01*
X0095737Y0223906D01*
X0099090Y0223906D01*
X0098590Y0223671D02*
X0094490Y0223671D01*
X0094490Y0223406D02*
X0098590Y0223406D01*
X0098590Y0224405D01*
X0094490Y0224405D01*
X0094490Y0223406D01*
X0094199Y0222130D02*
X0094271Y0221909D01*
X0094642Y0221180D01*
X0095123Y0220518D01*
X0095702Y0219939D01*
X0096364Y0219458D01*
X0097094Y0219086D01*
X0097872Y0218834D01*
X0098590Y0218720D01*
X0098590Y0223405D01*
X0099590Y0223405D01*
X0099590Y0218720D01*
X0100308Y0218834D01*
X0100567Y0218918D01*
X0091574Y0209925D01*
X0091290Y0209641D01*
X0091290Y0218972D01*
X0092149Y0219328D01*
X0093668Y0220847D01*
X0094199Y0222130D01*
X0094010Y0221674D02*
X0094391Y0221674D01*
X0095009Y0220675D02*
X0093497Y0220675D01*
X0092498Y0219677D02*
X0096063Y0219677D01*
X0098590Y0219677D02*
X0099590Y0219677D01*
X0099590Y0220675D02*
X0098590Y0220675D01*
X0098590Y0221674D02*
X0099590Y0221674D01*
X0099590Y0222672D02*
X0098590Y0222672D01*
X0098590Y0224670D02*
X0099590Y0224670D01*
X0099590Y0225668D02*
X0098590Y0225668D01*
X0098590Y0226667D02*
X0099590Y0226667D01*
X0099590Y0227665D02*
X0098590Y0227665D01*
X0098590Y0228664D02*
X0099590Y0228664D01*
X0101206Y0228664D02*
X0106466Y0228664D01*
X0105213Y0227665D02*
X0102684Y0227665D01*
X0103511Y0226667D02*
X0104389Y0226667D01*
X0111714Y0228664D02*
X0116466Y0228664D01*
X0115213Y0227665D02*
X0112967Y0227665D01*
X0113791Y0226667D02*
X0114389Y0226667D01*
X0119090Y0223906D02*
X0094790Y0199606D01*
X0094790Y0180311D01*
X0094050Y0179571D01*
X0094050Y0168354D01*
X0095076Y0165878D02*
X0105861Y0176663D01*
X0105861Y0191976D01*
X0103624Y0189722D02*
X0096990Y0189722D01*
X0096990Y0190720D02*
X0102944Y0190720D01*
X0102685Y0191719D02*
X0096990Y0191719D01*
X0096990Y0192717D02*
X0102730Y0192717D01*
X0103144Y0193716D02*
X0096990Y0193716D01*
X0096990Y0194714D02*
X0104171Y0194714D01*
X0107552Y0194714D02*
X0111394Y0194714D01*
X0112392Y0195713D02*
X0096990Y0195713D01*
X0096990Y0196711D02*
X0113391Y0196711D01*
X0114389Y0197710D02*
X0096990Y0197710D01*
X0097004Y0198708D02*
X0115388Y0198708D01*
X0116386Y0199707D02*
X0098002Y0199707D01*
X0099001Y0200705D02*
X0116557Y0200705D01*
X0117002Y0201704D02*
X0099999Y0201704D01*
X0100998Y0202702D02*
X0118226Y0202702D01*
X0119641Y0199850D02*
X0111767Y0191976D01*
X0111767Y0172291D01*
X0108931Y0173745D02*
X0106055Y0173745D01*
X0105056Y0172747D02*
X0108591Y0172747D01*
X0108591Y0171748D02*
X0104058Y0171748D01*
X0103059Y0170750D02*
X0108967Y0170750D01*
X0109815Y0169751D02*
X0102061Y0169751D01*
X0101062Y0168753D02*
X0118838Y0168753D01*
X0118787Y0167754D02*
X0100064Y0167754D01*
X0096837Y0170750D02*
X0096250Y0170750D01*
X0096250Y0171748D02*
X0097835Y0171748D01*
X0098834Y0172747D02*
X0096250Y0172747D01*
X0096250Y0173745D02*
X0099832Y0173745D01*
X0100831Y0174744D02*
X0096250Y0174744D01*
X0096250Y0175742D02*
X0101829Y0175742D01*
X0102828Y0176741D02*
X0096250Y0176741D01*
X0096250Y0177739D02*
X0103661Y0177739D01*
X0103661Y0178738D02*
X0096329Y0178738D01*
X0096990Y0179737D02*
X0103661Y0179737D01*
X0103661Y0180735D02*
X0096990Y0180735D01*
X0096990Y0181734D02*
X0103661Y0181734D01*
X0103661Y0182732D02*
X0096990Y0182732D01*
X0096990Y0183731D02*
X0103661Y0183731D01*
X0103661Y0184729D02*
X0096990Y0184729D01*
X0096990Y0185728D02*
X0103661Y0185728D01*
X0103661Y0186726D02*
X0096990Y0186726D01*
X0096990Y0187725D02*
X0103661Y0187725D01*
X0103661Y0188723D02*
X0096990Y0188723D01*
X0090490Y0188723D02*
X0084066Y0188723D01*
X0083067Y0187725D02*
X0090490Y0187725D01*
X0090490Y0186726D02*
X0082471Y0186726D01*
X0082471Y0185728D02*
X0090490Y0185728D01*
X0090490Y0184729D02*
X0082471Y0184729D01*
X0082471Y0183731D02*
X0090490Y0183731D01*
X0090490Y0182732D02*
X0082471Y0182732D01*
X0082471Y0181734D02*
X0090132Y0181734D01*
X0089133Y0180735D02*
X0082471Y0180735D01*
X0082471Y0179737D02*
X0088135Y0179737D01*
X0087136Y0178738D02*
X0081955Y0178738D01*
X0080956Y0177739D02*
X0086138Y0177739D01*
X0085139Y0176741D02*
X0079958Y0176741D01*
X0078959Y0175742D02*
X0084553Y0175742D01*
X0084464Y0174744D02*
X0077961Y0174744D01*
X0076334Y0176228D02*
X0080271Y0180165D01*
X0080271Y0188039D01*
X0089090Y0196858D01*
X0089090Y0223906D01*
X0085213Y0227665D02*
X0082967Y0227665D01*
X0083791Y0226667D02*
X0084389Y0226667D01*
X0086466Y0228664D02*
X0081714Y0228664D01*
X0084010Y0221674D02*
X0084169Y0221674D01*
X0084683Y0220675D02*
X0083497Y0220675D01*
X0082498Y0219677D02*
X0085682Y0219677D01*
X0086890Y0216681D02*
X0055614Y0216681D01*
X0057119Y0215683D02*
X0086890Y0215683D01*
X0086890Y0214684D02*
X0057682Y0214684D01*
X0057857Y0213686D02*
X0086890Y0213686D01*
X0086890Y0212687D02*
X0057728Y0212687D01*
X0057231Y0211689D02*
X0086890Y0211689D01*
X0091290Y0211689D02*
X0093338Y0211689D01*
X0094336Y0212687D02*
X0091290Y0212687D01*
X0091290Y0213686D02*
X0095335Y0213686D01*
X0096333Y0214684D02*
X0091290Y0214684D01*
X0091290Y0215683D02*
X0097332Y0215683D01*
X0098330Y0216681D02*
X0091290Y0216681D01*
X0091290Y0217680D02*
X0099329Y0217680D01*
X0100327Y0218678D02*
X0091290Y0218678D01*
X0091290Y0210690D02*
X0092339Y0210690D01*
X0091341Y0209692D02*
X0091290Y0209692D01*
X0101996Y0203701D02*
X0148112Y0203701D01*
X0147114Y0204699D02*
X0102995Y0204699D01*
X0103993Y0205698D02*
X0146115Y0205698D01*
X0145117Y0206696D02*
X0104992Y0206696D01*
X0105990Y0207695D02*
X0144118Y0207695D01*
X0143120Y0208693D02*
X0106989Y0208693D01*
X0107987Y0209692D02*
X0142121Y0209692D01*
X0141295Y0209693D02*
X0127515Y0209693D01*
X0125547Y0207724D01*
X0109798Y0207724D01*
X0109603Y0207920D01*
X0108986Y0210690D02*
X0112532Y0210690D01*
X0111184Y0211689D02*
X0109984Y0211689D01*
X0114977Y0216681D02*
X0166039Y0216681D01*
X0165854Y0217680D02*
X0115976Y0217680D01*
X0116974Y0218678D02*
X0117598Y0218678D01*
X0120581Y0218678D02*
X0127598Y0218678D01*
X0125682Y0219677D02*
X0122498Y0219677D01*
X0123497Y0220675D02*
X0124683Y0220675D01*
X0124169Y0221674D02*
X0124010Y0221674D01*
X0123791Y0226667D02*
X0124389Y0226667D01*
X0125213Y0227665D02*
X0122967Y0227665D01*
X0121714Y0228664D02*
X0126466Y0228664D01*
X0131714Y0228664D02*
X0171401Y0228664D01*
X0169544Y0227665D02*
X0132967Y0227665D01*
X0133791Y0226667D02*
X0168354Y0226667D01*
X0167683Y0226104D02*
X0167683Y0226104D01*
X0167683Y0226104D01*
X0167432Y0225668D02*
X0134205Y0225668D01*
X0134490Y0224670D02*
X0166855Y0224670D01*
X0166279Y0223671D02*
X0134490Y0223671D01*
X0134424Y0222672D02*
X0165927Y0222672D01*
X0166026Y0223233D02*
X0166026Y0223233D01*
X0165751Y0221674D02*
X0134010Y0221674D01*
X0133497Y0220675D02*
X0165575Y0220675D01*
X0165502Y0219677D02*
X0132498Y0219677D01*
X0130581Y0218678D02*
X0165678Y0218678D01*
X0176988Y0210690D02*
X0190185Y0210690D01*
X0190185Y0211689D02*
X0179731Y0211689D01*
X0179768Y0211702D02*
X0179768Y0211702D01*
X0180942Y0212687D02*
X0190185Y0212687D01*
X0190185Y0213686D02*
X0182132Y0213686D01*
X0182307Y0213833D02*
X0182307Y0213833D01*
X0182799Y0214684D02*
X0190185Y0214684D01*
X0190185Y0215683D02*
X0183375Y0215683D01*
X0183952Y0216681D02*
X0190185Y0216681D01*
X0190185Y0217680D02*
X0184137Y0217680D01*
X0183965Y0216704D02*
X0183965Y0216704D01*
X0184313Y0218678D02*
X0190185Y0218678D01*
X0190185Y0219677D02*
X0184489Y0219677D01*
X0184416Y0220675D02*
X0190185Y0220675D01*
X0190185Y0221674D02*
X0184240Y0221674D01*
X0184064Y0222672D02*
X0190185Y0222672D01*
X0190185Y0223671D02*
X0183712Y0223671D01*
X0183135Y0224670D02*
X0190185Y0224670D01*
X0190185Y0225668D02*
X0182559Y0225668D01*
X0182307Y0226104D02*
X0182307Y0226104D01*
X0181637Y0226667D02*
X0190185Y0226667D01*
X0190185Y0227665D02*
X0180447Y0227665D01*
X0178590Y0228664D02*
X0190185Y0228664D01*
X0190185Y0229662D02*
X0028664Y0229662D01*
X0028664Y0230661D02*
X0190185Y0230661D01*
X0171964Y0182961D02*
X0141295Y0213630D01*
X0125547Y0207724D02*
X0125547Y0199850D01*
X0113967Y0190720D02*
X0150231Y0190720D01*
X0149239Y0189722D02*
X0113967Y0189722D01*
X0113967Y0188723D02*
X0148825Y0188723D01*
X0148153Y0187725D02*
X0113967Y0187725D01*
X0113967Y0186726D02*
X0147154Y0186726D01*
X0146156Y0185728D02*
X0113967Y0185728D01*
X0113967Y0184729D02*
X0145157Y0184729D01*
X0144560Y0183731D02*
X0113967Y0183731D01*
X0113967Y0182732D02*
X0144464Y0182732D01*
X0144464Y0181734D02*
X0113967Y0181734D01*
X0109567Y0181734D02*
X0108061Y0181734D01*
X0108061Y0182732D02*
X0109567Y0182732D01*
X0109567Y0183731D02*
X0108061Y0183731D01*
X0108061Y0184729D02*
X0109567Y0184729D01*
X0109567Y0185728D02*
X0108061Y0185728D01*
X0108061Y0186726D02*
X0109567Y0186726D01*
X0109567Y0187725D02*
X0108061Y0187725D01*
X0108061Y0188723D02*
X0109567Y0188723D01*
X0109567Y0189722D02*
X0108099Y0189722D01*
X0108779Y0190720D02*
X0109567Y0190720D01*
X0109567Y0191719D02*
X0109038Y0191719D01*
X0108993Y0192717D02*
X0109567Y0192717D01*
X0110395Y0193716D02*
X0108579Y0193716D01*
X0108061Y0180735D02*
X0109567Y0180735D01*
X0109567Y0179737D02*
X0108061Y0179737D01*
X0108061Y0178738D02*
X0109567Y0178738D01*
X0109567Y0177739D02*
X0108061Y0177739D01*
X0108061Y0176741D02*
X0109567Y0176741D01*
X0109567Y0175742D02*
X0108052Y0175742D01*
X0107053Y0174744D02*
X0109567Y0174744D01*
X0113719Y0169751D02*
X0119251Y0169751D01*
X0119041Y0166756D02*
X0117858Y0166756D01*
X0118587Y0165757D02*
X0119714Y0165757D01*
X0095076Y0165878D02*
X0079842Y0165878D01*
X0079326Y0165362D01*
X0077184Y0166756D02*
X0064067Y0166756D01*
X0063069Y0165757D02*
X0076186Y0165757D01*
X0078183Y0167754D02*
X0065066Y0167754D01*
X0066064Y0168753D02*
X0079181Y0168753D01*
X0080180Y0169751D02*
X0067063Y0169751D01*
X0068061Y0170750D02*
X0081178Y0170750D01*
X0082177Y0171748D02*
X0069060Y0171748D01*
X0070058Y0172747D02*
X0083175Y0172747D01*
X0084174Y0173745D02*
X0071057Y0173745D01*
X0070428Y0176228D02*
X0076334Y0176228D01*
X0074365Y0180165D02*
X0074365Y0182642D01*
X0068460Y0188547D01*
X0065984Y0189573D02*
X0065984Y0181626D01*
X0064523Y0180165D01*
X0066967Y0185728D02*
X0052435Y0185728D01*
X0052435Y0186726D02*
X0065789Y0186726D01*
X0065363Y0187725D02*
X0052435Y0187725D01*
X0052435Y0188723D02*
X0065284Y0188723D01*
X0065508Y0189722D02*
X0052435Y0189722D01*
X0052435Y0184729D02*
X0069167Y0184729D01*
X0070165Y0183731D02*
X0052435Y0183731D01*
X0052435Y0182732D02*
X0071164Y0182732D01*
X0071577Y0181734D02*
X0052435Y0181734D01*
X0052435Y0180735D02*
X0071189Y0180735D01*
X0071189Y0179737D02*
X0052435Y0179737D01*
X0052435Y0178738D02*
X0071519Y0178738D01*
X0070428Y0176228D02*
X0052712Y0158512D01*
X0050236Y0157486D02*
X0051964Y0155758D01*
X0051964Y0148000D01*
X0050236Y0157486D02*
X0050236Y0209185D01*
X0041653Y0210569D02*
X0041653Y0210569D01*
X0052435Y0177739D02*
X0068828Y0177739D01*
X0067830Y0176741D02*
X0052435Y0176741D01*
X0052435Y0175742D02*
X0066831Y0175742D01*
X0065833Y0174744D02*
X0052435Y0174744D01*
X0052435Y0173745D02*
X0064834Y0173745D01*
X0063836Y0172747D02*
X0052435Y0172747D01*
X0052435Y0171748D02*
X0062837Y0171748D01*
X0061839Y0170750D02*
X0052435Y0170750D01*
X0052435Y0169751D02*
X0060840Y0169751D01*
X0059842Y0168753D02*
X0052435Y0168753D01*
X0052435Y0167754D02*
X0058843Y0167754D01*
X0057845Y0166756D02*
X0052435Y0166756D01*
X0052435Y0165757D02*
X0056846Y0165757D01*
X0055848Y0164759D02*
X0052435Y0164759D01*
X0052435Y0163760D02*
X0054849Y0163760D01*
X0053851Y0162762D02*
X0052435Y0162762D01*
X0052435Y0161763D02*
X0052852Y0161763D01*
X0048036Y0174744D02*
X0047082Y0174744D01*
X0047905Y0175742D02*
X0048036Y0175742D01*
X0071636Y0188723D02*
X0078071Y0188723D01*
X0078071Y0187725D02*
X0072394Y0187725D01*
X0073392Y0186726D02*
X0078071Y0186726D01*
X0078071Y0185728D02*
X0074391Y0185728D01*
X0075389Y0184729D02*
X0078071Y0184729D01*
X0078071Y0183731D02*
X0076388Y0183731D01*
X0076565Y0182732D02*
X0078071Y0182732D01*
X0078071Y0181734D02*
X0077154Y0181734D01*
X0077542Y0180735D02*
X0077729Y0180735D01*
X0080271Y0188039D02*
X0080271Y0190008D01*
X0078302Y0191976D01*
X0076065Y0189722D02*
X0071412Y0189722D01*
X0070779Y0190720D02*
X0075385Y0190720D01*
X0079993Y0194714D02*
X0083834Y0194714D01*
X0082836Y0193716D02*
X0081020Y0193716D01*
X0081434Y0192717D02*
X0081837Y0192717D01*
X0085064Y0189722D02*
X0090490Y0189722D01*
X0090490Y0190720D02*
X0086063Y0190720D01*
X0087061Y0191719D02*
X0090490Y0191719D01*
X0090490Y0192717D02*
X0088060Y0192717D01*
X0089059Y0193716D02*
X0090490Y0193716D01*
X0090490Y0194714D02*
X0090057Y0194714D01*
X0093791Y0226667D02*
X0094668Y0226667D01*
X0095495Y0227665D02*
X0092967Y0227665D01*
X0091714Y0228664D02*
X0096974Y0228664D01*
X0171964Y0182961D02*
X0171964Y0173000D01*
X0171964Y0093000D01*
X0169764Y0111838D02*
X0159920Y0111838D01*
X0160140Y0112836D02*
X0169764Y0112836D01*
X0169764Y0113835D02*
X0160056Y0113835D01*
X0159623Y0114833D02*
X0169764Y0114833D01*
X0169764Y0115832D02*
X0158428Y0115832D01*
X0155500Y0115832D02*
X0153428Y0115832D01*
X0151964Y0113000D02*
X0151964Y0098000D01*
X0130770Y0040943D02*
X0107556Y0040943D01*
X0165980Y0027963D02*
X0181564Y0027963D01*
X0181564Y0026964D02*
X0166617Y0026964D01*
X0166617Y0025966D02*
X0181962Y0025966D01*
X0182375Y0024967D02*
X0166617Y0024967D01*
X0166617Y0023969D02*
X0183358Y0023969D01*
X0184852Y0022970D02*
X0166617Y0022970D01*
X0166617Y0021972D02*
X0183299Y0021972D01*
X0182350Y0020973D02*
X0166617Y0020973D01*
X0166617Y0019975D02*
X0181937Y0019975D01*
X0181564Y0018976D02*
X0166617Y0018976D01*
X0166617Y0017978D02*
X0181564Y0017978D01*
X0181564Y0016979D02*
X0166617Y0016979D01*
X0166617Y0015981D02*
X0181955Y0015981D01*
X0182369Y0014982D02*
X0166617Y0014982D01*
X0166617Y0013984D02*
X0183343Y0013984D01*
X0184888Y0012985D02*
X0166617Y0012985D01*
X0166617Y0011987D02*
X0183314Y0011987D01*
X0182357Y0010988D02*
X0166617Y0010988D01*
X0166617Y0009990D02*
X0181943Y0009990D01*
X0181564Y0008991D02*
X0166617Y0008991D01*
X0166617Y0007993D02*
X0181564Y0007993D01*
X0181564Y0006994D02*
X0166617Y0006994D01*
X0166617Y0005996D02*
X0181949Y0005996D01*
X0182363Y0004997D02*
X0166617Y0004997D01*
M02*
