G75*
%MOIN*%
%OFA0B0*%
%FSLAX25Y25*%
%IPPOS*%
%LPD*%
%AMOC8*
5,1,8,0,0,1.08239X$1,22.5*
%
%ADD10R,0.05906X0.05118*%
%ADD11R,0.05118X0.05906*%
%ADD12R,0.03937X0.04331*%
%ADD13R,0.04331X0.03937*%
%ADD14R,0.04724X0.04724*%
%ADD15R,0.05512X0.05512*%
%ADD16R,0.08661X0.02362*%
%ADD17C,0.00551*%
%ADD18R,0.02362X0.02362*%
%ADD19R,0.03543X0.03150*%
%ADD20R,0.04000X0.02500*%
%ADD21R,0.01772X0.03543*%
%ADD22R,0.03543X0.01772*%
%ADD23R,0.03543X0.03543*%
%ADD24R,0.04724X0.01575*%
%ADD25R,0.04724X0.02165*%
%ADD26R,0.02165X0.04724*%
%ADD27R,0.04724X0.03543*%
%ADD28R,0.03543X0.04724*%
%ADD29R,0.07000X0.07000*%
%ADD30R,0.18110X0.03937*%
%ADD31R,0.13386X0.06299*%
%ADD32R,0.06299X0.05512*%
%ADD33R,0.03543X0.03346*%
%ADD34R,0.09843X0.01969*%
%ADD35R,0.09843X0.07874*%
D10*
X0041964Y0014260D03*
X0041964Y0021740D03*
X0071964Y0021740D03*
X0071964Y0014260D03*
X0036964Y0074260D03*
X0036964Y0081740D03*
X0081964Y0124260D03*
X0081964Y0131740D03*
X0111964Y0149260D03*
X0111964Y0156740D03*
X0121964Y0126740D03*
X0121964Y0119260D03*
X0131964Y0119260D03*
X0131964Y0126740D03*
D11*
X0100704Y0123000D03*
X0093224Y0123000D03*
X0048027Y0153748D03*
X0040547Y0153748D03*
X0124287Y0193157D03*
X0131767Y0193157D03*
D12*
X0116964Y0187409D03*
X0116964Y0180717D03*
X0108932Y0180717D03*
X0108932Y0187409D03*
X0100901Y0179535D03*
X0100901Y0172843D03*
X0063342Y0196465D03*
X0063342Y0203157D03*
D13*
X0093617Y0161031D03*
X0100310Y0161031D03*
X0100310Y0133000D03*
X0093617Y0133000D03*
X0128617Y0168000D03*
X0135310Y0168000D03*
X0138617Y0193000D03*
X0145310Y0193000D03*
D14*
X0138972Y0204811D03*
X0130704Y0204811D03*
D15*
X0121964Y0160283D03*
X0121964Y0145717D03*
D16*
X0038854Y0030500D03*
X0038854Y0035500D03*
X0038854Y0040500D03*
X0038854Y0045500D03*
X0038854Y0050500D03*
X0038854Y0055500D03*
X0038854Y0060500D03*
X0038854Y0065500D03*
X0075074Y0065500D03*
X0075074Y0060500D03*
X0075074Y0055500D03*
X0075074Y0050500D03*
X0075074Y0045500D03*
X0075074Y0040500D03*
X0075074Y0035500D03*
X0075074Y0030500D03*
D17*
X0071609Y0143826D02*
X0071609Y0146426D01*
X0072161Y0146426D01*
X0072161Y0143826D01*
X0071609Y0143826D01*
X0071609Y0144376D02*
X0072161Y0144376D01*
X0072161Y0144926D02*
X0071609Y0144926D01*
X0071609Y0145476D02*
X0072161Y0145476D01*
X0072161Y0146026D02*
X0071609Y0146026D01*
X0069641Y0146426D02*
X0069641Y0143826D01*
X0069641Y0146426D02*
X0070193Y0146426D01*
X0070193Y0143826D01*
X0069641Y0143826D01*
X0069641Y0144376D02*
X0070193Y0144376D01*
X0070193Y0144926D02*
X0069641Y0144926D01*
X0069641Y0145476D02*
X0070193Y0145476D01*
X0070193Y0146026D02*
X0069641Y0146026D01*
X0067672Y0146426D02*
X0067672Y0143826D01*
X0067672Y0146426D02*
X0068224Y0146426D01*
X0068224Y0143826D01*
X0067672Y0143826D01*
X0067672Y0144376D02*
X0068224Y0144376D01*
X0068224Y0144926D02*
X0067672Y0144926D01*
X0067672Y0145476D02*
X0068224Y0145476D01*
X0068224Y0146026D02*
X0067672Y0146026D01*
X0065704Y0146426D02*
X0065704Y0143826D01*
X0065704Y0146426D02*
X0066256Y0146426D01*
X0066256Y0143826D01*
X0065704Y0143826D01*
X0065704Y0144376D02*
X0066256Y0144376D01*
X0066256Y0144926D02*
X0065704Y0144926D01*
X0065704Y0145476D02*
X0066256Y0145476D01*
X0066256Y0146026D02*
X0065704Y0146026D01*
X0063735Y0146426D02*
X0063735Y0143826D01*
X0063735Y0146426D02*
X0064287Y0146426D01*
X0064287Y0143826D01*
X0063735Y0143826D01*
X0063735Y0144376D02*
X0064287Y0144376D01*
X0064287Y0144926D02*
X0063735Y0144926D01*
X0063735Y0145476D02*
X0064287Y0145476D01*
X0064287Y0146026D02*
X0063735Y0146026D01*
X0061767Y0146426D02*
X0061767Y0143826D01*
X0061767Y0146426D02*
X0062319Y0146426D01*
X0062319Y0143826D01*
X0061767Y0143826D01*
X0061767Y0144376D02*
X0062319Y0144376D01*
X0062319Y0144926D02*
X0061767Y0144926D01*
X0061767Y0145476D02*
X0062319Y0145476D01*
X0062319Y0146026D02*
X0061767Y0146026D01*
X0060390Y0147803D02*
X0057790Y0147803D01*
X0057790Y0148355D01*
X0060390Y0148355D01*
X0060390Y0147803D01*
X0060390Y0148353D02*
X0057790Y0148353D01*
X0057790Y0149771D02*
X0060390Y0149771D01*
X0057790Y0149771D02*
X0057790Y0150323D01*
X0060390Y0150323D01*
X0060390Y0149771D01*
X0060390Y0150321D02*
X0057790Y0150321D01*
X0057790Y0151740D02*
X0060390Y0151740D01*
X0057790Y0151740D02*
X0057790Y0152292D01*
X0060390Y0152292D01*
X0060390Y0151740D01*
X0060390Y0152290D02*
X0057790Y0152290D01*
X0057790Y0153708D02*
X0060390Y0153708D01*
X0057790Y0153708D02*
X0057790Y0154260D01*
X0060390Y0154260D01*
X0060390Y0153708D01*
X0060390Y0154258D02*
X0057790Y0154258D01*
X0057790Y0155677D02*
X0060390Y0155677D01*
X0057790Y0155677D02*
X0057790Y0156229D01*
X0060390Y0156229D01*
X0060390Y0155677D01*
X0060390Y0156227D02*
X0057790Y0156227D01*
X0057790Y0157645D02*
X0060390Y0157645D01*
X0057790Y0157645D02*
X0057790Y0158197D01*
X0060390Y0158197D01*
X0060390Y0157645D01*
X0060390Y0158195D02*
X0057790Y0158195D01*
X0062319Y0159574D02*
X0062319Y0162174D01*
X0062319Y0159574D02*
X0061767Y0159574D01*
X0061767Y0162174D01*
X0062319Y0162174D01*
X0062319Y0160124D02*
X0061767Y0160124D01*
X0061767Y0160674D02*
X0062319Y0160674D01*
X0062319Y0161224D02*
X0061767Y0161224D01*
X0061767Y0161774D02*
X0062319Y0161774D01*
X0064287Y0162174D02*
X0064287Y0159574D01*
X0063735Y0159574D01*
X0063735Y0162174D01*
X0064287Y0162174D01*
X0064287Y0160124D02*
X0063735Y0160124D01*
X0063735Y0160674D02*
X0064287Y0160674D01*
X0064287Y0161224D02*
X0063735Y0161224D01*
X0063735Y0161774D02*
X0064287Y0161774D01*
X0066256Y0162174D02*
X0066256Y0159574D01*
X0065704Y0159574D01*
X0065704Y0162174D01*
X0066256Y0162174D01*
X0066256Y0160124D02*
X0065704Y0160124D01*
X0065704Y0160674D02*
X0066256Y0160674D01*
X0066256Y0161224D02*
X0065704Y0161224D01*
X0065704Y0161774D02*
X0066256Y0161774D01*
X0068224Y0162174D02*
X0068224Y0159574D01*
X0067672Y0159574D01*
X0067672Y0162174D01*
X0068224Y0162174D01*
X0068224Y0160124D02*
X0067672Y0160124D01*
X0067672Y0160674D02*
X0068224Y0160674D01*
X0068224Y0161224D02*
X0067672Y0161224D01*
X0067672Y0161774D02*
X0068224Y0161774D01*
X0070193Y0162174D02*
X0070193Y0159574D01*
X0069641Y0159574D01*
X0069641Y0162174D01*
X0070193Y0162174D01*
X0070193Y0160124D02*
X0069641Y0160124D01*
X0069641Y0160674D02*
X0070193Y0160674D01*
X0070193Y0161224D02*
X0069641Y0161224D01*
X0069641Y0161774D02*
X0070193Y0161774D01*
X0072161Y0162174D02*
X0072161Y0159574D01*
X0071609Y0159574D01*
X0071609Y0162174D01*
X0072161Y0162174D01*
X0072161Y0160124D02*
X0071609Y0160124D01*
X0071609Y0160674D02*
X0072161Y0160674D01*
X0072161Y0161224D02*
X0071609Y0161224D01*
X0071609Y0161774D02*
X0072161Y0161774D01*
X0073538Y0158197D02*
X0076138Y0158197D01*
X0076138Y0157645D01*
X0073538Y0157645D01*
X0073538Y0158197D01*
X0073538Y0158195D02*
X0076138Y0158195D01*
X0076138Y0156229D02*
X0073538Y0156229D01*
X0076138Y0156229D02*
X0076138Y0155677D01*
X0073538Y0155677D01*
X0073538Y0156229D01*
X0073538Y0156227D02*
X0076138Y0156227D01*
X0076138Y0154260D02*
X0073538Y0154260D01*
X0076138Y0154260D02*
X0076138Y0153708D01*
X0073538Y0153708D01*
X0073538Y0154260D01*
X0073538Y0154258D02*
X0076138Y0154258D01*
X0076138Y0152292D02*
X0073538Y0152292D01*
X0076138Y0152292D02*
X0076138Y0151740D01*
X0073538Y0151740D01*
X0073538Y0152292D01*
X0073538Y0152290D02*
X0076138Y0152290D01*
X0076138Y0150323D02*
X0073538Y0150323D01*
X0076138Y0150323D02*
X0076138Y0149771D01*
X0073538Y0149771D01*
X0073538Y0150323D01*
X0073538Y0150321D02*
X0076138Y0150321D01*
X0076138Y0148355D02*
X0073538Y0148355D01*
X0076138Y0148355D02*
X0076138Y0147803D01*
X0073538Y0147803D01*
X0073538Y0148355D01*
X0073538Y0148353D02*
X0076138Y0148353D01*
D18*
X0070507Y0149457D03*
X0070507Y0153000D03*
X0070507Y0156543D03*
X0066964Y0156543D03*
X0066964Y0153000D03*
X0063421Y0153000D03*
X0063421Y0156543D03*
X0063421Y0149457D03*
X0066964Y0149457D03*
D19*
X0055901Y0141740D03*
X0055901Y0134260D03*
X0047633Y0138000D03*
X0060901Y0121740D03*
X0060901Y0114260D03*
X0052633Y0118000D03*
D20*
X0133027Y0154260D03*
X0133027Y0161740D03*
X0140901Y0158000D03*
D21*
X0072082Y0136346D03*
X0068539Y0136346D03*
X0065389Y0136346D03*
X0061846Y0136346D03*
X0061846Y0129654D03*
X0065389Y0129654D03*
X0068539Y0129654D03*
X0072082Y0129654D03*
D22*
X0095113Y0195441D03*
X0095113Y0198984D03*
X0095113Y0202134D03*
X0095113Y0205677D03*
X0101806Y0205677D03*
X0101806Y0202134D03*
X0101806Y0198984D03*
X0101806Y0195441D03*
D23*
X0086413Y0197173D03*
X0086413Y0203472D03*
X0070271Y0203472D03*
X0070271Y0197173D03*
D24*
X0143499Y0142075D03*
X0143499Y0139516D03*
X0143499Y0136957D03*
X0143499Y0134398D03*
X0143499Y0131839D03*
X0143499Y0129280D03*
X0143499Y0126720D03*
X0143499Y0124161D03*
X0143499Y0121602D03*
X0143499Y0119043D03*
X0143499Y0116484D03*
X0143499Y0113925D03*
X0170428Y0113925D03*
X0170428Y0116484D03*
X0170428Y0119043D03*
X0170428Y0121602D03*
X0170428Y0124161D03*
X0170428Y0126720D03*
X0170428Y0129280D03*
X0170428Y0131839D03*
X0170428Y0134398D03*
X0170428Y0136957D03*
X0170428Y0139516D03*
X0170428Y0142075D03*
D25*
X0137082Y0174260D03*
X0137082Y0178000D03*
X0137082Y0181740D03*
X0126845Y0181740D03*
X0126845Y0174260D03*
D26*
X0100704Y0153119D03*
X0096964Y0153119D03*
X0093224Y0153119D03*
X0093224Y0142881D03*
X0100704Y0142881D03*
D27*
X0093499Y0098315D03*
X0093499Y0093315D03*
X0093499Y0088315D03*
X0093499Y0083315D03*
X0093499Y0078315D03*
X0093499Y0073315D03*
X0093499Y0068315D03*
X0093499Y0063315D03*
X0093499Y0058315D03*
X0093499Y0053315D03*
X0093499Y0048315D03*
X0093499Y0043315D03*
X0093499Y0038315D03*
X0093499Y0033315D03*
X0160428Y0033315D03*
X0160428Y0038315D03*
X0160428Y0043315D03*
X0160428Y0048315D03*
X0160428Y0053315D03*
X0160428Y0058315D03*
X0160428Y0063315D03*
X0160428Y0068315D03*
X0160428Y0073315D03*
X0160428Y0078315D03*
X0160428Y0083315D03*
X0160428Y0088315D03*
X0160428Y0093315D03*
X0160428Y0098315D03*
D28*
X0149405Y0103787D03*
X0144405Y0103787D03*
X0139405Y0103787D03*
X0134405Y0103787D03*
X0129405Y0103787D03*
X0124405Y0103787D03*
X0119405Y0103787D03*
X0114405Y0103787D03*
X0109405Y0103787D03*
X0104405Y0103787D03*
D29*
X0119464Y0069500D03*
X0119464Y0057500D03*
X0131464Y0057500D03*
X0131464Y0069500D03*
D30*
X0162397Y0174063D03*
X0162397Y0181937D03*
D31*
X0182869Y0191386D03*
X0182869Y0164614D03*
D32*
X0181964Y0143512D03*
X0181964Y0132488D03*
D33*
X0161964Y0150717D03*
X0161964Y0155283D03*
D34*
X0054680Y0179772D03*
X0054680Y0182921D03*
X0054680Y0186071D03*
X0054680Y0189220D03*
X0054680Y0192370D03*
D35*
X0054680Y0203787D03*
X0033027Y0203787D03*
X0033027Y0168354D03*
X0054680Y0168354D03*
M02*
