%
M48
M72
T01C0.01969
T02C0.02165
T03C0.03543
T04C0.04000
T05C0.13000
%
T01
X61964Y33000
X61964Y46031
X46964Y73000
X66964Y103000
X61964Y108000
X66964Y118000
X71964Y123000
X86964Y118000
X76964Y103000
X101924Y113236
X101964Y88000
X141295Y77803
X151964Y78000
X146964Y63000
X131964Y38000
X86964Y38000
X86964Y28000
X151964Y98000
X151964Y113000
X156964Y113000
X162948Y142764
X176964Y158000
X176964Y178000
X151964Y188000
X146964Y178000
X147200Y199850
X125547Y199850
X119641Y199850
X109603Y207920
X113736Y213630
X105861Y191976
X121964Y178000
X121964Y168000
X115704Y164417
X111767Y172291
X105861Y166386
X94050Y168354
X81964Y163000
X76964Y168000
X74365Y180165
X68460Y188547
X64523Y180165
X78302Y191976
X54680Y213630
X52712Y158512
X51964Y148000
X42869Y128984
X81964Y143000
X86964Y138000
X86964Y153000
X106964Y143119
T02
X106964Y118000
X96964Y108000
X106964Y93000
X111964Y88000
X137791Y92173
X150126Y153690
X81964Y113000
T03
X44838Y177409
X44838Y194732
T04
X31964Y153000
X31964Y143000
X31964Y133000
X31964Y123000
X31964Y113000
X31964Y103000
X31964Y93000
X79090Y223906
X89090Y223906
X99090Y223906
X109090Y223906
X119090Y223906
X129090Y223906
X186964Y123000
X186964Y113000
X186964Y103000
X186964Y68000
X186964Y58000
X186964Y48000
X186964Y38000
X186964Y28000
X186964Y18000
X186964Y8000
T05
X174995Y219969
X39995Y219969
M30
