%
M48
M72
T01C0.02165
T02C0.03346
T03C0.04000
T04C0.13000
%
T01
X22913Y31346
X37809Y36242
X47913Y36148
X62913Y36231
X67913Y31346
X78131Y31346
X79231Y37603
X67913Y51346
X67913Y56346
X62354Y66346
X67913Y71346
X82913Y61346
X79694Y56333
X92913Y66346
X93017Y76242
X88087Y86381
X87913Y91346
X82809Y101242
X77913Y111346
X72913Y116346
X74231Y126346
X86758Y132710
X92913Y136346
X102913Y136346
X102913Y126346
X95413Y117450
X102913Y116346
X113017Y116242
X117913Y120957
X122913Y121346
X127913Y121346
X137913Y116346
X137913Y126346
X132913Y131346
X151596Y126346
X157913Y136346
X152913Y141346
X147913Y156346
X142913Y161346
X132913Y157928
X122913Y161603
X112913Y161346
X102913Y166346
X97913Y176346
X87913Y181346
X72913Y166346
X67809Y166242
X63307Y160087
X63307Y151346
X67913Y146346
X72913Y141346
X52913Y142910
X37913Y121346
X37913Y101346
X62913Y91346
X87809Y121242
X97913Y101346
X113017Y101451
X112809Y91242
X122913Y96346
X127231Y106346
X132913Y96346
X132913Y91346
X147913Y101346
X147913Y106346
X157913Y88726
X157913Y81346
X148032Y81346
X146821Y70254
X151821Y65254
X147913Y46346
X162913Y46346
X172913Y41346
X182913Y41346
X187913Y46346
X187913Y51346
X167913Y91346
X167913Y96698
X132983Y76346
X128017Y76451
X102809Y46451
X97913Y51346
X102913Y41346
X107913Y40804
X113289Y40971
X122913Y41346
X128121Y41138
X97913Y30314
X48017Y51242
X42913Y51346
X47913Y60303
X114060Y140199
X117913Y177140
X109787Y177664
X142520Y180953
X147809Y181451
X152913Y174947
X157913Y171346
X172913Y161346
T02
X165433Y30008
X180394Y30008
T03
X142913Y21346
X132913Y21346
X122913Y21346
X112913Y21346
X102913Y21346
X92913Y21346
X82913Y21346
X72913Y21346
X62913Y21346
X52913Y21346
X17913Y46346
X17913Y56346
X17913Y66346
X67913Y191346
X77913Y191346
X87913Y191346
X97913Y191346
X107913Y191346
X117913Y191346
X127913Y191346
X137913Y191346
X147913Y191346
X157913Y191346
T04
X182913Y186346
X27913Y186346
M30
