G75*
%MOIN*%
%OFA0B0*%
%FSLAX25Y25*%
%IPPOS*%
%LPD*%
%AMOC8*
5,1,8,0,0,1.08239X$1,22.5*
%
%ADD10C,0.25800*%
%ADD11R,0.13398X0.13398*%
%ADD12C,0.49465*%
%ADD13C,0.08200*%
%ADD14C,0.04146*%
%ADD15C,0.13800*%
%ADD16C,0.04965*%
D10*
X0037913Y0121346D03*
D11*
X0037913Y0088963D03*
X0037913Y0153730D03*
D12*
X0037913Y0121346D03*
D13*
X0017913Y0066346D03*
X0017913Y0056346D03*
X0017913Y0046346D03*
X0052913Y0021346D03*
X0062913Y0021346D03*
X0072913Y0021346D03*
X0082913Y0021346D03*
X0092913Y0021346D03*
X0102913Y0021346D03*
X0112913Y0021346D03*
X0122913Y0021346D03*
X0132913Y0021346D03*
X0142913Y0021346D03*
X0137913Y0191346D03*
X0127913Y0191346D03*
X0117913Y0191346D03*
X0107913Y0191346D03*
X0097913Y0191346D03*
X0087913Y0191346D03*
X0077913Y0191346D03*
X0067913Y0191346D03*
X0147913Y0191346D03*
X0157913Y0191346D03*
D14*
X0165433Y0030008D03*
X0180394Y0030008D03*
D15*
X0182913Y0186346D03*
X0027913Y0186346D03*
D16*
X0022913Y0031346D03*
X0037809Y0036242D03*
X0047913Y0036148D03*
X0062913Y0036231D03*
X0067913Y0031346D03*
X0078131Y0031346D03*
X0079231Y0037603D03*
X0067913Y0051346D03*
X0067913Y0056346D03*
X0062354Y0066346D03*
X0067913Y0071346D03*
X0082913Y0061346D03*
X0079694Y0056333D03*
X0092913Y0066346D03*
X0093017Y0076242D03*
X0088087Y0086381D03*
X0087913Y0091346D03*
X0082809Y0101242D03*
X0077913Y0111346D03*
X0072913Y0116346D03*
X0074231Y0126346D03*
X0086758Y0132710D03*
X0092913Y0136346D03*
X0102913Y0136346D03*
X0102913Y0126346D03*
X0095413Y0117450D03*
X0102913Y0116346D03*
X0113017Y0116242D03*
X0117913Y0120957D03*
X0122913Y0121346D03*
X0127913Y0121346D03*
X0137913Y0116346D03*
X0137913Y0126346D03*
X0132913Y0131346D03*
X0151596Y0126346D03*
X0157913Y0136346D03*
X0152913Y0141346D03*
X0147913Y0156346D03*
X0142913Y0161346D03*
X0132913Y0157928D03*
X0122913Y0161603D03*
X0112913Y0161346D03*
X0102913Y0166346D03*
X0097913Y0176346D03*
X0087913Y0181346D03*
X0072913Y0166346D03*
X0067809Y0166242D03*
X0063307Y0160087D03*
X0063307Y0151346D03*
X0067913Y0146346D03*
X0072913Y0141346D03*
X0052913Y0142910D03*
X0037913Y0121346D03*
X0037913Y0101346D03*
X0062913Y0091346D03*
X0087809Y0121242D03*
X0097913Y0101346D03*
X0113017Y0101451D03*
X0112809Y0091242D03*
X0122913Y0096346D03*
X0127231Y0106346D03*
X0132913Y0096346D03*
X0132913Y0091346D03*
X0147913Y0101346D03*
X0147913Y0106346D03*
X0157913Y0088726D03*
X0157913Y0081346D03*
X0148032Y0081346D03*
X0146821Y0070254D03*
X0151821Y0065254D03*
X0147913Y0046346D03*
X0162913Y0046346D03*
X0172913Y0041346D03*
X0182913Y0041346D03*
X0187913Y0046346D03*
X0187913Y0051346D03*
X0167913Y0091346D03*
X0167913Y0096698D03*
X0132983Y0076346D03*
X0128017Y0076451D03*
X0102809Y0046451D03*
X0097913Y0051346D03*
X0102913Y0041346D03*
X0107913Y0040804D03*
X0113289Y0040971D03*
X0122913Y0041346D03*
X0128121Y0041138D03*
X0097913Y0030314D03*
X0048017Y0051242D03*
X0042913Y0051346D03*
X0047913Y0060303D03*
X0114060Y0140199D03*
X0117913Y0177140D03*
X0109787Y0177664D03*
X0142520Y0180953D03*
X0147809Y0181451D03*
X0152913Y0174947D03*
X0157913Y0171346D03*
X0172913Y0161346D03*
M02*
