G75*
%MOIN*%
%OFA0B0*%
%FSLAX25Y25*%
%IPPOS*%
%LPD*%
%AMOC8*
5,1,8,0,0,1.08239X$1,22.5*
%
%ADD10C,0.00200*%
%ADD11C,0.01200*%
%ADD12C,0.00800*%
%ADD13R,0.03500X0.00750*%
%ADD14C,0.00600*%
%ADD15R,0.03937X0.00787*%
D10*
X0033913Y0036094D02*
X0051913Y0036094D01*
X0051913Y0066598D01*
X0033913Y0066598D01*
X0033913Y0036094D01*
X0050513Y0030658D02*
X0050513Y0029435D01*
X0050515Y0029392D01*
X0050520Y0029350D01*
X0050530Y0029308D01*
X0050542Y0029268D01*
X0050559Y0029228D01*
X0050579Y0029191D01*
X0050601Y0029155D01*
X0050627Y0029121D01*
X0050656Y0029089D01*
X0050688Y0029060D01*
X0050722Y0029034D01*
X0050758Y0029012D01*
X0050795Y0028992D01*
X0050835Y0028975D01*
X0050875Y0028963D01*
X0050917Y0028953D01*
X0050959Y0028948D01*
X0051002Y0028946D01*
X0051491Y0028946D01*
X0052320Y0028946D02*
X0053542Y0028946D01*
X0052931Y0028946D02*
X0052931Y0031146D01*
X0052320Y0030658D01*
X0051491Y0031146D02*
X0051002Y0031146D01*
X0051002Y0031147D02*
X0050959Y0031145D01*
X0050917Y0031140D01*
X0050875Y0031130D01*
X0050835Y0031118D01*
X0050795Y0031101D01*
X0050757Y0031081D01*
X0050722Y0031059D01*
X0050688Y0031033D01*
X0050656Y0031004D01*
X0050627Y0030972D01*
X0050601Y0030938D01*
X0050579Y0030902D01*
X0050559Y0030865D01*
X0050542Y0030825D01*
X0050530Y0030785D01*
X0050520Y0030743D01*
X0050515Y0030701D01*
X0050513Y0030658D01*
X0058319Y0030230D02*
X0058991Y0029863D01*
X0058747Y0028946D02*
X0058684Y0028948D01*
X0058622Y0028954D01*
X0058560Y0028963D01*
X0058499Y0028976D01*
X0058438Y0028993D01*
X0058379Y0029014D01*
X0058321Y0029038D01*
X0058265Y0029066D01*
X0058210Y0029097D01*
X0058157Y0029131D01*
X0058107Y0029168D01*
X0058059Y0029208D01*
X0058014Y0029252D01*
X0058991Y0029863D02*
X0059027Y0029840D01*
X0059061Y0029813D01*
X0059093Y0029784D01*
X0059122Y0029752D01*
X0059148Y0029718D01*
X0059171Y0029682D01*
X0059190Y0029643D01*
X0059207Y0029604D01*
X0059219Y0029563D01*
X0059229Y0029521D01*
X0059234Y0029478D01*
X0059236Y0029435D01*
X0059234Y0029392D01*
X0059229Y0029350D01*
X0059219Y0029308D01*
X0059207Y0029268D01*
X0059190Y0029228D01*
X0059170Y0029191D01*
X0059148Y0029155D01*
X0059122Y0029121D01*
X0059093Y0029089D01*
X0059061Y0029060D01*
X0059027Y0029034D01*
X0058992Y0029012D01*
X0058954Y0028992D01*
X0058914Y0028975D01*
X0058874Y0028963D01*
X0058832Y0028953D01*
X0058790Y0028948D01*
X0058747Y0028946D01*
X0059113Y0030964D02*
X0059065Y0030997D01*
X0059014Y0031028D01*
X0058962Y0031056D01*
X0058908Y0031079D01*
X0058853Y0031100D01*
X0058796Y0031117D01*
X0058739Y0031130D01*
X0058681Y0031139D01*
X0058622Y0031145D01*
X0058563Y0031147D01*
X0058520Y0031145D01*
X0058478Y0031140D01*
X0058436Y0031130D01*
X0058396Y0031118D01*
X0058356Y0031101D01*
X0058319Y0031081D01*
X0058283Y0031059D01*
X0058249Y0031033D01*
X0058217Y0031004D01*
X0058188Y0030972D01*
X0058162Y0030938D01*
X0058140Y0030903D01*
X0058120Y0030865D01*
X0058103Y0030825D01*
X0058091Y0030785D01*
X0058081Y0030743D01*
X0058076Y0030701D01*
X0058074Y0030658D01*
X0058076Y0030615D01*
X0058081Y0030572D01*
X0058091Y0030530D01*
X0058103Y0030489D01*
X0058120Y0030450D01*
X0058139Y0030411D01*
X0058162Y0030375D01*
X0058188Y0030341D01*
X0058217Y0030309D01*
X0058249Y0030280D01*
X0058283Y0030253D01*
X0058319Y0030230D01*
X0060206Y0030169D02*
X0060817Y0030169D01*
X0060860Y0030171D01*
X0060902Y0030176D01*
X0060944Y0030186D01*
X0060984Y0030198D01*
X0061024Y0030215D01*
X0061062Y0030235D01*
X0061097Y0030257D01*
X0061131Y0030283D01*
X0061163Y0030312D01*
X0061192Y0030344D01*
X0061218Y0030378D01*
X0061240Y0030414D01*
X0061260Y0030451D01*
X0061277Y0030491D01*
X0061289Y0030531D01*
X0061299Y0030573D01*
X0061304Y0030615D01*
X0061306Y0030658D01*
X0061304Y0030701D01*
X0061299Y0030743D01*
X0061289Y0030785D01*
X0061277Y0030825D01*
X0061260Y0030865D01*
X0061240Y0030903D01*
X0061218Y0030938D01*
X0061192Y0030972D01*
X0061163Y0031004D01*
X0061131Y0031033D01*
X0061097Y0031059D01*
X0061062Y0031081D01*
X0061024Y0031101D01*
X0060984Y0031118D01*
X0060944Y0031130D01*
X0060902Y0031140D01*
X0060860Y0031145D01*
X0060817Y0031147D01*
X0060817Y0031146D02*
X0060206Y0031146D01*
X0060206Y0028946D01*
X0060817Y0028946D01*
X0060817Y0028947D02*
X0060865Y0028949D01*
X0060913Y0028955D01*
X0060960Y0028964D01*
X0061006Y0028977D01*
X0061051Y0028994D01*
X0061094Y0029014D01*
X0061136Y0029037D01*
X0061176Y0029064D01*
X0061214Y0029093D01*
X0061249Y0029126D01*
X0061282Y0029161D01*
X0061311Y0029199D01*
X0061338Y0029239D01*
X0061361Y0029281D01*
X0061381Y0029324D01*
X0061398Y0029369D01*
X0061411Y0029415D01*
X0061420Y0029462D01*
X0061426Y0029510D01*
X0061428Y0029558D01*
X0061426Y0029606D01*
X0061420Y0029654D01*
X0061411Y0029701D01*
X0061398Y0029747D01*
X0061381Y0029792D01*
X0061361Y0029835D01*
X0061338Y0029877D01*
X0061311Y0029917D01*
X0061282Y0029955D01*
X0061249Y0029990D01*
X0061214Y0030023D01*
X0061176Y0030052D01*
X0061136Y0030079D01*
X0061094Y0030102D01*
X0061051Y0030122D01*
X0061006Y0030139D01*
X0060960Y0030152D01*
X0060913Y0030161D01*
X0060865Y0030167D01*
X0060817Y0030169D01*
X0062333Y0029558D02*
X0062333Y0031146D01*
X0063556Y0031146D02*
X0063556Y0029558D01*
X0063555Y0029558D02*
X0063553Y0029510D01*
X0063547Y0029462D01*
X0063538Y0029415D01*
X0063525Y0029369D01*
X0063508Y0029324D01*
X0063488Y0029281D01*
X0063465Y0029239D01*
X0063438Y0029199D01*
X0063409Y0029161D01*
X0063376Y0029126D01*
X0063341Y0029093D01*
X0063303Y0029064D01*
X0063263Y0029037D01*
X0063221Y0029014D01*
X0063178Y0028994D01*
X0063133Y0028977D01*
X0063087Y0028964D01*
X0063040Y0028955D01*
X0062992Y0028949D01*
X0062944Y0028947D01*
X0062896Y0028949D01*
X0062848Y0028955D01*
X0062801Y0028964D01*
X0062755Y0028977D01*
X0062710Y0028994D01*
X0062667Y0029014D01*
X0062625Y0029037D01*
X0062585Y0029064D01*
X0062547Y0029093D01*
X0062512Y0029126D01*
X0062479Y0029161D01*
X0062450Y0029199D01*
X0062423Y0029239D01*
X0062400Y0029281D01*
X0062380Y0029324D01*
X0062363Y0029369D01*
X0062350Y0029415D01*
X0062341Y0029462D01*
X0062335Y0029510D01*
X0062333Y0029558D01*
X0064421Y0031146D02*
X0065644Y0031146D01*
X0065032Y0031146D02*
X0065032Y0028946D01*
X0070513Y0028946D02*
X0071124Y0028946D01*
X0070513Y0028946D02*
X0070513Y0031146D01*
X0071124Y0031146D01*
X0071172Y0031144D01*
X0071220Y0031138D01*
X0071267Y0031129D01*
X0071313Y0031116D01*
X0071358Y0031099D01*
X0071401Y0031079D01*
X0071443Y0031056D01*
X0071483Y0031029D01*
X0071521Y0031000D01*
X0071556Y0030967D01*
X0071589Y0030932D01*
X0071618Y0030894D01*
X0071645Y0030854D01*
X0071668Y0030812D01*
X0071688Y0030769D01*
X0071705Y0030724D01*
X0071718Y0030678D01*
X0071727Y0030631D01*
X0071733Y0030583D01*
X0071735Y0030535D01*
X0071736Y0030535D02*
X0071736Y0029558D01*
X0071735Y0029558D02*
X0071733Y0029510D01*
X0071727Y0029462D01*
X0071718Y0029415D01*
X0071705Y0029369D01*
X0071688Y0029324D01*
X0071668Y0029281D01*
X0071645Y0029239D01*
X0071618Y0029199D01*
X0071589Y0029161D01*
X0071556Y0029126D01*
X0071521Y0029093D01*
X0071483Y0029064D01*
X0071443Y0029037D01*
X0071401Y0029014D01*
X0071358Y0028994D01*
X0071313Y0028977D01*
X0071267Y0028964D01*
X0071220Y0028955D01*
X0071172Y0028949D01*
X0071124Y0028947D01*
X0072739Y0029435D02*
X0072739Y0030658D01*
X0072741Y0030701D01*
X0072746Y0030743D01*
X0072756Y0030785D01*
X0072768Y0030825D01*
X0072785Y0030865D01*
X0072805Y0030902D01*
X0072827Y0030938D01*
X0072853Y0030972D01*
X0072882Y0031004D01*
X0072914Y0031033D01*
X0072948Y0031059D01*
X0072983Y0031081D01*
X0073021Y0031101D01*
X0073061Y0031118D01*
X0073101Y0031130D01*
X0073143Y0031140D01*
X0073185Y0031145D01*
X0073228Y0031147D01*
X0073228Y0031146D02*
X0073717Y0031146D01*
X0072739Y0029435D02*
X0072741Y0029392D01*
X0072746Y0029350D01*
X0072756Y0029308D01*
X0072768Y0029268D01*
X0072785Y0029228D01*
X0072805Y0029191D01*
X0072827Y0029155D01*
X0072853Y0029121D01*
X0072882Y0029089D01*
X0072914Y0029060D01*
X0072948Y0029034D01*
X0072984Y0029012D01*
X0073021Y0028992D01*
X0073061Y0028975D01*
X0073101Y0028963D01*
X0073143Y0028953D01*
X0073185Y0028948D01*
X0073228Y0028946D01*
X0073717Y0028946D01*
X0080513Y0029435D02*
X0080513Y0030658D01*
X0080515Y0030701D01*
X0080520Y0030743D01*
X0080530Y0030785D01*
X0080542Y0030825D01*
X0080559Y0030865D01*
X0080579Y0030902D01*
X0080601Y0030938D01*
X0080627Y0030972D01*
X0080656Y0031004D01*
X0080688Y0031033D01*
X0080722Y0031059D01*
X0080757Y0031081D01*
X0080795Y0031101D01*
X0080835Y0031118D01*
X0080875Y0031130D01*
X0080917Y0031140D01*
X0080959Y0031145D01*
X0081002Y0031147D01*
X0081002Y0031146D02*
X0081491Y0031146D01*
X0083359Y0030168D02*
X0083392Y0030202D01*
X0083422Y0030239D01*
X0083450Y0030279D01*
X0083474Y0030320D01*
X0083494Y0030363D01*
X0083511Y0030408D01*
X0083525Y0030454D01*
X0083534Y0030501D01*
X0083540Y0030548D01*
X0083542Y0030596D01*
X0083359Y0030169D02*
X0082320Y0028946D01*
X0083542Y0028946D01*
X0082319Y0030658D02*
X0082337Y0030707D01*
X0082359Y0030755D01*
X0082384Y0030801D01*
X0082412Y0030844D01*
X0082444Y0030886D01*
X0082478Y0030926D01*
X0082515Y0030962D01*
X0082555Y0030996D01*
X0082598Y0031027D01*
X0082642Y0031054D01*
X0082688Y0031078D01*
X0082736Y0031099D01*
X0082786Y0031116D01*
X0082836Y0031130D01*
X0082888Y0031139D01*
X0082940Y0031145D01*
X0082992Y0031147D01*
X0082992Y0031146D02*
X0083037Y0031144D01*
X0083083Y0031138D01*
X0083127Y0031129D01*
X0083171Y0031116D01*
X0083213Y0031100D01*
X0083254Y0031080D01*
X0083293Y0031056D01*
X0083330Y0031030D01*
X0083365Y0031001D01*
X0083397Y0030969D01*
X0083426Y0030934D01*
X0083452Y0030897D01*
X0083476Y0030858D01*
X0083496Y0030817D01*
X0083512Y0030775D01*
X0083525Y0030731D01*
X0083534Y0030687D01*
X0083540Y0030641D01*
X0083542Y0030596D01*
X0081491Y0028946D02*
X0081002Y0028946D01*
X0080959Y0028948D01*
X0080917Y0028953D01*
X0080875Y0028963D01*
X0080835Y0028975D01*
X0080795Y0028992D01*
X0080758Y0029012D01*
X0080722Y0029034D01*
X0080688Y0029060D01*
X0080656Y0029089D01*
X0080627Y0029121D01*
X0080601Y0029155D01*
X0080579Y0029191D01*
X0080559Y0029228D01*
X0080542Y0029268D01*
X0080530Y0029308D01*
X0080520Y0029350D01*
X0080515Y0029392D01*
X0080513Y0029435D01*
X0090513Y0028946D02*
X0090513Y0031146D01*
X0091491Y0031146D01*
X0092395Y0031146D02*
X0092395Y0028946D01*
X0092395Y0029924D02*
X0093006Y0029924D01*
X0093129Y0029924D02*
X0093617Y0028946D01*
X0094419Y0028946D02*
X0095885Y0031146D01*
X0094419Y0031146D02*
X0095885Y0028946D01*
X0093006Y0029924D02*
X0093054Y0029926D01*
X0093102Y0029932D01*
X0093149Y0029941D01*
X0093195Y0029954D01*
X0093240Y0029971D01*
X0093283Y0029991D01*
X0093325Y0030014D01*
X0093365Y0030041D01*
X0093403Y0030070D01*
X0093438Y0030103D01*
X0093471Y0030138D01*
X0093500Y0030176D01*
X0093527Y0030216D01*
X0093550Y0030258D01*
X0093570Y0030301D01*
X0093587Y0030346D01*
X0093600Y0030392D01*
X0093609Y0030439D01*
X0093615Y0030487D01*
X0093617Y0030535D01*
X0093615Y0030583D01*
X0093609Y0030631D01*
X0093600Y0030678D01*
X0093587Y0030724D01*
X0093570Y0030769D01*
X0093550Y0030812D01*
X0093527Y0030854D01*
X0093500Y0030894D01*
X0093471Y0030932D01*
X0093438Y0030967D01*
X0093403Y0031000D01*
X0093365Y0031029D01*
X0093325Y0031056D01*
X0093283Y0031079D01*
X0093240Y0031099D01*
X0093195Y0031116D01*
X0093149Y0031129D01*
X0093102Y0031138D01*
X0093054Y0031144D01*
X0093006Y0031146D01*
X0092395Y0031146D01*
X0091491Y0030169D02*
X0090513Y0030169D01*
X0100513Y0030169D02*
X0101491Y0030169D01*
X0101491Y0031146D02*
X0100513Y0031146D01*
X0100513Y0028946D01*
X0102776Y0028946D02*
X0102776Y0031146D01*
X0102165Y0031146D02*
X0103387Y0031146D01*
X0104059Y0031146D02*
X0105525Y0028946D01*
X0104059Y0028946D02*
X0105525Y0031146D01*
X0108013Y0030658D02*
X0108013Y0029435D01*
X0108015Y0029392D01*
X0108020Y0029350D01*
X0108030Y0029308D01*
X0108042Y0029268D01*
X0108059Y0029228D01*
X0108079Y0029191D01*
X0108101Y0029155D01*
X0108127Y0029121D01*
X0108156Y0029089D01*
X0108188Y0029060D01*
X0108222Y0029034D01*
X0108258Y0029012D01*
X0108295Y0028992D01*
X0108335Y0028975D01*
X0108375Y0028963D01*
X0108417Y0028953D01*
X0108459Y0028948D01*
X0108502Y0028946D01*
X0108991Y0028946D01*
X0109924Y0028946D02*
X0109924Y0031146D01*
X0110536Y0031146D01*
X0110536Y0031147D02*
X0110579Y0031145D01*
X0110621Y0031140D01*
X0110663Y0031130D01*
X0110703Y0031118D01*
X0110743Y0031101D01*
X0110781Y0031081D01*
X0110816Y0031059D01*
X0110850Y0031033D01*
X0110882Y0031004D01*
X0110911Y0030972D01*
X0110937Y0030938D01*
X0110959Y0030903D01*
X0110979Y0030865D01*
X0110996Y0030825D01*
X0111008Y0030785D01*
X0111018Y0030743D01*
X0111023Y0030701D01*
X0111025Y0030658D01*
X0111023Y0030615D01*
X0111018Y0030573D01*
X0111008Y0030531D01*
X0110996Y0030491D01*
X0110979Y0030451D01*
X0110959Y0030414D01*
X0110937Y0030378D01*
X0110911Y0030344D01*
X0110882Y0030312D01*
X0110850Y0030283D01*
X0110816Y0030257D01*
X0110781Y0030235D01*
X0110743Y0030215D01*
X0110703Y0030198D01*
X0110663Y0030186D01*
X0110621Y0030176D01*
X0110579Y0030171D01*
X0110536Y0030169D01*
X0109924Y0030169D01*
X0110536Y0030169D02*
X0110584Y0030167D01*
X0110632Y0030161D01*
X0110679Y0030152D01*
X0110725Y0030139D01*
X0110770Y0030122D01*
X0110813Y0030102D01*
X0110855Y0030079D01*
X0110895Y0030052D01*
X0110933Y0030023D01*
X0110968Y0029990D01*
X0111001Y0029955D01*
X0111030Y0029917D01*
X0111057Y0029877D01*
X0111080Y0029835D01*
X0111100Y0029792D01*
X0111117Y0029747D01*
X0111130Y0029701D01*
X0111139Y0029654D01*
X0111145Y0029606D01*
X0111147Y0029558D01*
X0111145Y0029510D01*
X0111139Y0029462D01*
X0111130Y0029415D01*
X0111117Y0029369D01*
X0111100Y0029324D01*
X0111080Y0029281D01*
X0111057Y0029239D01*
X0111030Y0029199D01*
X0111001Y0029161D01*
X0110968Y0029126D01*
X0110933Y0029093D01*
X0110895Y0029064D01*
X0110855Y0029037D01*
X0110813Y0029014D01*
X0110770Y0028994D01*
X0110725Y0028977D01*
X0110679Y0028964D01*
X0110632Y0028955D01*
X0110584Y0028949D01*
X0110536Y0028947D01*
X0110536Y0028946D02*
X0109924Y0028946D01*
X0112052Y0029558D02*
X0112052Y0031146D01*
X0113274Y0031146D02*
X0113274Y0029558D01*
X0113272Y0029510D01*
X0113266Y0029462D01*
X0113257Y0029415D01*
X0113244Y0029369D01*
X0113227Y0029324D01*
X0113207Y0029281D01*
X0113184Y0029239D01*
X0113157Y0029199D01*
X0113128Y0029161D01*
X0113095Y0029126D01*
X0113060Y0029093D01*
X0113022Y0029064D01*
X0112982Y0029037D01*
X0112940Y0029014D01*
X0112897Y0028994D01*
X0112852Y0028977D01*
X0112806Y0028964D01*
X0112759Y0028955D01*
X0112711Y0028949D01*
X0112663Y0028947D01*
X0112615Y0028949D01*
X0112567Y0028955D01*
X0112520Y0028964D01*
X0112474Y0028977D01*
X0112429Y0028994D01*
X0112386Y0029014D01*
X0112344Y0029037D01*
X0112304Y0029064D01*
X0112266Y0029093D01*
X0112231Y0029126D01*
X0112198Y0029161D01*
X0112169Y0029199D01*
X0112142Y0029239D01*
X0112119Y0029281D01*
X0112099Y0029324D01*
X0112082Y0029369D01*
X0112069Y0029415D01*
X0112060Y0029462D01*
X0112054Y0029510D01*
X0112052Y0029558D01*
X0114140Y0031146D02*
X0115362Y0031146D01*
X0114751Y0031146D02*
X0114751Y0028946D01*
X0108991Y0031146D02*
X0108502Y0031146D01*
X0108502Y0031147D02*
X0108459Y0031145D01*
X0108417Y0031140D01*
X0108375Y0031130D01*
X0108335Y0031118D01*
X0108295Y0031101D01*
X0108257Y0031081D01*
X0108222Y0031059D01*
X0108188Y0031033D01*
X0108156Y0031004D01*
X0108127Y0030972D01*
X0108101Y0030938D01*
X0108079Y0030902D01*
X0108059Y0030865D01*
X0108042Y0030825D01*
X0108030Y0030785D01*
X0108020Y0030743D01*
X0108015Y0030701D01*
X0108013Y0030658D01*
X0120819Y0030230D02*
X0121491Y0029863D01*
X0121247Y0028946D02*
X0121184Y0028948D01*
X0121122Y0028954D01*
X0121060Y0028963D01*
X0120999Y0028976D01*
X0120938Y0028993D01*
X0120879Y0029014D01*
X0120821Y0029038D01*
X0120765Y0029066D01*
X0120710Y0029097D01*
X0120657Y0029131D01*
X0120607Y0029168D01*
X0120559Y0029208D01*
X0120514Y0029252D01*
X0121491Y0029863D02*
X0121527Y0029840D01*
X0121561Y0029813D01*
X0121593Y0029784D01*
X0121622Y0029752D01*
X0121648Y0029718D01*
X0121671Y0029682D01*
X0121690Y0029643D01*
X0121707Y0029604D01*
X0121719Y0029563D01*
X0121729Y0029521D01*
X0121734Y0029478D01*
X0121736Y0029435D01*
X0121734Y0029392D01*
X0121729Y0029350D01*
X0121719Y0029308D01*
X0121707Y0029268D01*
X0121690Y0029228D01*
X0121670Y0029191D01*
X0121648Y0029155D01*
X0121622Y0029121D01*
X0121593Y0029089D01*
X0121561Y0029060D01*
X0121527Y0029034D01*
X0121492Y0029012D01*
X0121454Y0028992D01*
X0121414Y0028975D01*
X0121374Y0028963D01*
X0121332Y0028953D01*
X0121290Y0028948D01*
X0121247Y0028946D01*
X0121613Y0030964D02*
X0121565Y0030997D01*
X0121514Y0031028D01*
X0121462Y0031056D01*
X0121408Y0031079D01*
X0121353Y0031100D01*
X0121296Y0031117D01*
X0121239Y0031130D01*
X0121181Y0031139D01*
X0121122Y0031145D01*
X0121063Y0031147D01*
X0121020Y0031145D01*
X0120978Y0031140D01*
X0120936Y0031130D01*
X0120896Y0031118D01*
X0120856Y0031101D01*
X0120819Y0031081D01*
X0120783Y0031059D01*
X0120749Y0031033D01*
X0120717Y0031004D01*
X0120688Y0030972D01*
X0120662Y0030938D01*
X0120640Y0030903D01*
X0120620Y0030865D01*
X0120603Y0030825D01*
X0120591Y0030785D01*
X0120581Y0030743D01*
X0120576Y0030701D01*
X0120574Y0030658D01*
X0120576Y0030615D01*
X0120581Y0030572D01*
X0120591Y0030530D01*
X0120603Y0030489D01*
X0120620Y0030450D01*
X0120639Y0030411D01*
X0120662Y0030375D01*
X0120688Y0030341D01*
X0120717Y0030309D01*
X0120749Y0030280D01*
X0120783Y0030253D01*
X0120819Y0030230D01*
X0122595Y0030658D02*
X0122595Y0029435D01*
X0122597Y0029392D01*
X0122602Y0029350D01*
X0122612Y0029308D01*
X0122624Y0029268D01*
X0122641Y0029228D01*
X0122661Y0029191D01*
X0122683Y0029155D01*
X0122709Y0029121D01*
X0122738Y0029089D01*
X0122770Y0029060D01*
X0122804Y0029034D01*
X0122840Y0029012D01*
X0122877Y0028992D01*
X0122917Y0028975D01*
X0122957Y0028963D01*
X0122999Y0028953D01*
X0123041Y0028948D01*
X0123084Y0028946D01*
X0123573Y0028946D01*
X0124506Y0028946D02*
X0124506Y0031146D01*
X0123573Y0031146D02*
X0123084Y0031146D01*
X0123084Y0031147D02*
X0123041Y0031145D01*
X0122999Y0031140D01*
X0122957Y0031130D01*
X0122917Y0031118D01*
X0122877Y0031101D01*
X0122839Y0031081D01*
X0122804Y0031059D01*
X0122770Y0031033D01*
X0122738Y0031004D01*
X0122709Y0030972D01*
X0122683Y0030938D01*
X0122661Y0030902D01*
X0122641Y0030865D01*
X0122624Y0030825D01*
X0122612Y0030785D01*
X0122602Y0030743D01*
X0122597Y0030701D01*
X0122595Y0030658D01*
X0124506Y0029802D02*
X0125728Y0031146D01*
X0124995Y0030291D02*
X0125728Y0028946D01*
X0130513Y0029435D02*
X0130513Y0030658D01*
X0130515Y0030701D01*
X0130520Y0030743D01*
X0130530Y0030785D01*
X0130542Y0030825D01*
X0130559Y0030865D01*
X0130579Y0030902D01*
X0130601Y0030938D01*
X0130627Y0030972D01*
X0130656Y0031004D01*
X0130688Y0031033D01*
X0130722Y0031059D01*
X0130757Y0031081D01*
X0130795Y0031101D01*
X0130835Y0031118D01*
X0130875Y0031130D01*
X0130917Y0031140D01*
X0130959Y0031145D01*
X0131002Y0031147D01*
X0131002Y0031146D02*
X0131491Y0031146D01*
X0132309Y0030658D02*
X0132311Y0030701D01*
X0132316Y0030743D01*
X0132326Y0030785D01*
X0132338Y0030825D01*
X0132355Y0030865D01*
X0132375Y0030903D01*
X0132397Y0030938D01*
X0132423Y0030972D01*
X0132452Y0031004D01*
X0132484Y0031033D01*
X0132518Y0031059D01*
X0132554Y0031081D01*
X0132591Y0031101D01*
X0132631Y0031118D01*
X0132671Y0031130D01*
X0132713Y0031140D01*
X0132755Y0031145D01*
X0132798Y0031147D01*
X0132308Y0030658D02*
X0132310Y0030615D01*
X0132315Y0030572D01*
X0132325Y0030530D01*
X0132337Y0030489D01*
X0132354Y0030450D01*
X0132373Y0030411D01*
X0132396Y0030375D01*
X0132422Y0030341D01*
X0132451Y0030309D01*
X0132483Y0030280D01*
X0132517Y0030253D01*
X0132553Y0030230D01*
X0133226Y0029863D01*
X0132981Y0028946D02*
X0132918Y0028948D01*
X0132856Y0028954D01*
X0132794Y0028963D01*
X0132733Y0028976D01*
X0132672Y0028993D01*
X0132613Y0029014D01*
X0132555Y0029038D01*
X0132499Y0029066D01*
X0132444Y0029097D01*
X0132391Y0029131D01*
X0132341Y0029168D01*
X0132293Y0029208D01*
X0132248Y0029252D01*
X0133225Y0029863D02*
X0133261Y0029840D01*
X0133295Y0029813D01*
X0133327Y0029784D01*
X0133356Y0029752D01*
X0133382Y0029718D01*
X0133405Y0029682D01*
X0133424Y0029643D01*
X0133441Y0029604D01*
X0133453Y0029563D01*
X0133463Y0029521D01*
X0133468Y0029478D01*
X0133470Y0029435D01*
X0133468Y0029392D01*
X0133463Y0029350D01*
X0133453Y0029308D01*
X0133441Y0029268D01*
X0133424Y0029228D01*
X0133404Y0029191D01*
X0133382Y0029155D01*
X0133356Y0029121D01*
X0133327Y0029089D01*
X0133295Y0029060D01*
X0133261Y0029034D01*
X0133226Y0029012D01*
X0133188Y0028992D01*
X0133148Y0028975D01*
X0133108Y0028963D01*
X0133066Y0028953D01*
X0133024Y0028948D01*
X0132981Y0028946D01*
X0133348Y0030964D02*
X0133300Y0030997D01*
X0133249Y0031028D01*
X0133197Y0031056D01*
X0133143Y0031079D01*
X0133088Y0031100D01*
X0133031Y0031117D01*
X0132974Y0031130D01*
X0132916Y0031139D01*
X0132857Y0031145D01*
X0132798Y0031147D01*
X0131002Y0028946D02*
X0130959Y0028948D01*
X0130917Y0028953D01*
X0130875Y0028963D01*
X0130835Y0028975D01*
X0130795Y0028992D01*
X0130758Y0029012D01*
X0130722Y0029034D01*
X0130688Y0029060D01*
X0130656Y0029089D01*
X0130627Y0029121D01*
X0130601Y0029155D01*
X0130579Y0029191D01*
X0130559Y0029228D01*
X0130542Y0029268D01*
X0130530Y0029308D01*
X0130520Y0029350D01*
X0130515Y0029392D01*
X0130513Y0029435D01*
X0131002Y0028946D02*
X0131491Y0028946D01*
X0140513Y0028946D02*
X0140513Y0031146D01*
X0141247Y0029924D01*
X0141980Y0031146D01*
X0141980Y0028946D01*
X0143012Y0029558D02*
X0143012Y0030535D01*
X0143014Y0030583D01*
X0143020Y0030631D01*
X0143029Y0030678D01*
X0143042Y0030724D01*
X0143059Y0030769D01*
X0143079Y0030812D01*
X0143102Y0030854D01*
X0143129Y0030894D01*
X0143158Y0030932D01*
X0143191Y0030967D01*
X0143226Y0031000D01*
X0143264Y0031029D01*
X0143304Y0031056D01*
X0143346Y0031079D01*
X0143389Y0031099D01*
X0143434Y0031116D01*
X0143480Y0031129D01*
X0143527Y0031138D01*
X0143575Y0031144D01*
X0143623Y0031146D01*
X0143671Y0031144D01*
X0143719Y0031138D01*
X0143766Y0031129D01*
X0143812Y0031116D01*
X0143857Y0031099D01*
X0143900Y0031079D01*
X0143942Y0031056D01*
X0143982Y0031029D01*
X0144020Y0031000D01*
X0144055Y0030967D01*
X0144088Y0030932D01*
X0144117Y0030894D01*
X0144144Y0030854D01*
X0144167Y0030812D01*
X0144187Y0030769D01*
X0144204Y0030724D01*
X0144217Y0030678D01*
X0144226Y0030631D01*
X0144232Y0030583D01*
X0144234Y0030535D01*
X0144234Y0029558D01*
X0144232Y0029510D01*
X0144226Y0029462D01*
X0144217Y0029415D01*
X0144204Y0029369D01*
X0144187Y0029324D01*
X0144167Y0029281D01*
X0144144Y0029239D01*
X0144117Y0029199D01*
X0144088Y0029161D01*
X0144055Y0029126D01*
X0144020Y0029093D01*
X0143982Y0029064D01*
X0143942Y0029037D01*
X0143900Y0029014D01*
X0143857Y0028994D01*
X0143812Y0028977D01*
X0143766Y0028964D01*
X0143719Y0028955D01*
X0143671Y0028949D01*
X0143623Y0028947D01*
X0143575Y0028949D01*
X0143527Y0028955D01*
X0143480Y0028964D01*
X0143434Y0028977D01*
X0143389Y0028994D01*
X0143346Y0029014D01*
X0143304Y0029037D01*
X0143264Y0029064D01*
X0143226Y0029093D01*
X0143191Y0029126D01*
X0143158Y0029161D01*
X0143129Y0029199D01*
X0143102Y0029239D01*
X0143079Y0029281D01*
X0143059Y0029324D01*
X0143042Y0029369D01*
X0143029Y0029415D01*
X0143020Y0029462D01*
X0143014Y0029510D01*
X0143012Y0029558D01*
X0143747Y0181446D02*
X0144480Y0183646D01*
X0145400Y0183646D02*
X0146011Y0183646D01*
X0146011Y0183647D02*
X0146054Y0183645D01*
X0146096Y0183640D01*
X0146138Y0183630D01*
X0146178Y0183618D01*
X0146218Y0183601D01*
X0146256Y0183581D01*
X0146291Y0183559D01*
X0146325Y0183533D01*
X0146357Y0183504D01*
X0146386Y0183472D01*
X0146412Y0183438D01*
X0146434Y0183403D01*
X0146454Y0183365D01*
X0146471Y0183325D01*
X0146483Y0183285D01*
X0146493Y0183243D01*
X0146498Y0183201D01*
X0146500Y0183158D01*
X0146498Y0183115D01*
X0146493Y0183073D01*
X0146483Y0183031D01*
X0146471Y0182991D01*
X0146454Y0182951D01*
X0146434Y0182914D01*
X0146412Y0182878D01*
X0146386Y0182844D01*
X0146357Y0182812D01*
X0146325Y0182783D01*
X0146291Y0182757D01*
X0146256Y0182735D01*
X0146218Y0182715D01*
X0146178Y0182698D01*
X0146138Y0182686D01*
X0146096Y0182676D01*
X0146054Y0182671D01*
X0146011Y0182669D01*
X0145400Y0182669D01*
X0146011Y0182669D02*
X0146059Y0182667D01*
X0146107Y0182661D01*
X0146154Y0182652D01*
X0146200Y0182639D01*
X0146245Y0182622D01*
X0146288Y0182602D01*
X0146330Y0182579D01*
X0146370Y0182552D01*
X0146408Y0182523D01*
X0146443Y0182490D01*
X0146476Y0182455D01*
X0146505Y0182417D01*
X0146532Y0182377D01*
X0146555Y0182335D01*
X0146575Y0182292D01*
X0146592Y0182247D01*
X0146605Y0182201D01*
X0146614Y0182154D01*
X0146620Y0182106D01*
X0146622Y0182058D01*
X0146620Y0182010D01*
X0146614Y0181962D01*
X0146605Y0181915D01*
X0146592Y0181869D01*
X0146575Y0181824D01*
X0146555Y0181781D01*
X0146532Y0181739D01*
X0146505Y0181699D01*
X0146476Y0181661D01*
X0146443Y0181626D01*
X0146408Y0181593D01*
X0146370Y0181564D01*
X0146330Y0181537D01*
X0146288Y0181514D01*
X0146245Y0181494D01*
X0146200Y0181477D01*
X0146154Y0181464D01*
X0146107Y0181455D01*
X0146059Y0181449D01*
X0146011Y0181447D01*
X0146011Y0181446D02*
X0145400Y0181446D01*
X0145400Y0183646D01*
X0143013Y0183646D02*
X0143747Y0181446D01*
X0147333Y0181446D02*
X0148067Y0183646D01*
X0148800Y0181446D01*
X0148617Y0181996D02*
X0147517Y0181996D01*
X0149472Y0183646D02*
X0150694Y0183646D01*
X0150083Y0183646D02*
X0150083Y0181446D01*
X0155513Y0181446D02*
X0156124Y0181446D01*
X0155513Y0181446D02*
X0155513Y0183646D01*
X0156124Y0183646D01*
X0156172Y0183644D01*
X0156220Y0183638D01*
X0156267Y0183629D01*
X0156313Y0183616D01*
X0156358Y0183599D01*
X0156401Y0183579D01*
X0156443Y0183556D01*
X0156483Y0183529D01*
X0156521Y0183500D01*
X0156556Y0183467D01*
X0156589Y0183432D01*
X0156618Y0183394D01*
X0156645Y0183354D01*
X0156668Y0183312D01*
X0156688Y0183269D01*
X0156705Y0183224D01*
X0156718Y0183178D01*
X0156727Y0183131D01*
X0156733Y0183083D01*
X0156735Y0183035D01*
X0156736Y0183035D02*
X0156736Y0182058D01*
X0156735Y0182058D02*
X0156733Y0182010D01*
X0156727Y0181962D01*
X0156718Y0181915D01*
X0156705Y0181869D01*
X0156688Y0181824D01*
X0156668Y0181781D01*
X0156645Y0181739D01*
X0156618Y0181699D01*
X0156589Y0181661D01*
X0156556Y0181626D01*
X0156521Y0181593D01*
X0156483Y0181564D01*
X0156443Y0181537D01*
X0156401Y0181514D01*
X0156358Y0181494D01*
X0156313Y0181477D01*
X0156267Y0181464D01*
X0156220Y0181455D01*
X0156172Y0181449D01*
X0156124Y0181447D01*
X0157745Y0181446D02*
X0158968Y0181446D01*
X0158356Y0181446D02*
X0158356Y0183646D01*
X0157745Y0183158D01*
X0159905Y0183035D02*
X0159905Y0182913D01*
X0159907Y0182870D01*
X0159912Y0182828D01*
X0159922Y0182786D01*
X0159934Y0182746D01*
X0159951Y0182706D01*
X0159971Y0182669D01*
X0159993Y0182633D01*
X0160019Y0182599D01*
X0160048Y0182567D01*
X0160080Y0182538D01*
X0160114Y0182512D01*
X0160149Y0182490D01*
X0160187Y0182470D01*
X0160227Y0182453D01*
X0160267Y0182441D01*
X0160309Y0182431D01*
X0160351Y0182426D01*
X0160394Y0182424D01*
X0161128Y0182424D01*
X0161128Y0183035D01*
X0161127Y0183035D02*
X0161125Y0183083D01*
X0161119Y0183131D01*
X0161110Y0183178D01*
X0161097Y0183224D01*
X0161080Y0183269D01*
X0161060Y0183312D01*
X0161037Y0183354D01*
X0161010Y0183394D01*
X0160981Y0183432D01*
X0160948Y0183467D01*
X0160913Y0183500D01*
X0160875Y0183529D01*
X0160835Y0183556D01*
X0160793Y0183579D01*
X0160750Y0183599D01*
X0160705Y0183616D01*
X0160659Y0183629D01*
X0160612Y0183638D01*
X0160564Y0183644D01*
X0160516Y0183646D01*
X0160468Y0183644D01*
X0160420Y0183638D01*
X0160373Y0183629D01*
X0160327Y0183616D01*
X0160282Y0183599D01*
X0160239Y0183579D01*
X0160197Y0183556D01*
X0160157Y0183529D01*
X0160119Y0183500D01*
X0160084Y0183467D01*
X0160051Y0183432D01*
X0160022Y0183394D01*
X0159995Y0183354D01*
X0159972Y0183312D01*
X0159952Y0183269D01*
X0159935Y0183224D01*
X0159922Y0183178D01*
X0159913Y0183131D01*
X0159907Y0183083D01*
X0159905Y0183035D01*
X0161128Y0182424D02*
X0161126Y0182363D01*
X0161120Y0182301D01*
X0161111Y0182241D01*
X0161097Y0182181D01*
X0161080Y0182122D01*
X0161059Y0182064D01*
X0161035Y0182008D01*
X0161007Y0181953D01*
X0160976Y0181900D01*
X0160941Y0181849D01*
X0160904Y0181801D01*
X0160863Y0181755D01*
X0160819Y0181711D01*
X0160773Y0181670D01*
X0160725Y0181633D01*
X0160674Y0181598D01*
X0160621Y0181567D01*
X0160566Y0181539D01*
X0160510Y0181515D01*
X0160452Y0181494D01*
X0160393Y0181477D01*
X0160333Y0181463D01*
X0160273Y0181454D01*
X0160211Y0181448D01*
X0160150Y0181446D01*
X0138603Y0181446D02*
X0138603Y0183646D01*
X0137381Y0183646D02*
X0137381Y0181446D01*
X0136491Y0181446D02*
X0135513Y0181446D01*
X0135513Y0183646D01*
X0136491Y0183646D01*
X0137381Y0183646D02*
X0138603Y0181446D01*
X0136247Y0182669D02*
X0135513Y0182669D01*
X0130639Y0182669D02*
X0130150Y0182669D01*
X0130639Y0182669D02*
X0130682Y0182671D01*
X0130724Y0182676D01*
X0130766Y0182686D01*
X0130806Y0182698D01*
X0130846Y0182715D01*
X0130884Y0182735D01*
X0130919Y0182757D01*
X0130953Y0182783D01*
X0130985Y0182812D01*
X0131014Y0182844D01*
X0131040Y0182878D01*
X0131062Y0182914D01*
X0131082Y0182951D01*
X0131099Y0182991D01*
X0131111Y0183031D01*
X0131121Y0183073D01*
X0131126Y0183115D01*
X0131128Y0183158D01*
X0131126Y0183201D01*
X0131121Y0183243D01*
X0131111Y0183285D01*
X0131099Y0183325D01*
X0131082Y0183365D01*
X0131062Y0183403D01*
X0131040Y0183438D01*
X0131014Y0183472D01*
X0130985Y0183504D01*
X0130953Y0183533D01*
X0130919Y0183559D01*
X0130884Y0183581D01*
X0130846Y0183601D01*
X0130806Y0183618D01*
X0130766Y0183630D01*
X0130724Y0183640D01*
X0130682Y0183645D01*
X0130639Y0183647D01*
X0130639Y0183646D02*
X0129905Y0183646D01*
X0128356Y0183646D02*
X0128356Y0181446D01*
X0127745Y0181446D02*
X0128968Y0181446D01*
X0129905Y0181446D02*
X0130516Y0181446D01*
X0130516Y0181447D02*
X0130564Y0181449D01*
X0130612Y0181455D01*
X0130659Y0181464D01*
X0130705Y0181477D01*
X0130750Y0181494D01*
X0130793Y0181514D01*
X0130835Y0181537D01*
X0130875Y0181564D01*
X0130913Y0181593D01*
X0130948Y0181626D01*
X0130981Y0181661D01*
X0131010Y0181699D01*
X0131037Y0181739D01*
X0131060Y0181781D01*
X0131080Y0181824D01*
X0131097Y0181869D01*
X0131110Y0181915D01*
X0131119Y0181962D01*
X0131125Y0182010D01*
X0131127Y0182058D01*
X0131125Y0182106D01*
X0131119Y0182154D01*
X0131110Y0182201D01*
X0131097Y0182247D01*
X0131080Y0182292D01*
X0131060Y0182335D01*
X0131037Y0182377D01*
X0131010Y0182417D01*
X0130981Y0182455D01*
X0130948Y0182490D01*
X0130913Y0182523D01*
X0130875Y0182552D01*
X0130835Y0182579D01*
X0130793Y0182602D01*
X0130750Y0182622D01*
X0130705Y0182639D01*
X0130659Y0182652D01*
X0130612Y0182661D01*
X0130564Y0182667D01*
X0130516Y0182669D01*
X0128356Y0183646D02*
X0127745Y0183158D01*
X0126736Y0183035D02*
X0126736Y0182058D01*
X0126735Y0182058D02*
X0126733Y0182010D01*
X0126727Y0181962D01*
X0126718Y0181915D01*
X0126705Y0181869D01*
X0126688Y0181824D01*
X0126668Y0181781D01*
X0126645Y0181739D01*
X0126618Y0181699D01*
X0126589Y0181661D01*
X0126556Y0181626D01*
X0126521Y0181593D01*
X0126483Y0181564D01*
X0126443Y0181537D01*
X0126401Y0181514D01*
X0126358Y0181494D01*
X0126313Y0181477D01*
X0126267Y0181464D01*
X0126220Y0181455D01*
X0126172Y0181449D01*
X0126124Y0181447D01*
X0126124Y0181446D02*
X0125513Y0181446D01*
X0125513Y0183646D01*
X0126124Y0183646D01*
X0126172Y0183644D01*
X0126220Y0183638D01*
X0126267Y0183629D01*
X0126313Y0183616D01*
X0126358Y0183599D01*
X0126401Y0183579D01*
X0126443Y0183556D01*
X0126483Y0183529D01*
X0126521Y0183500D01*
X0126556Y0183467D01*
X0126589Y0183432D01*
X0126618Y0183394D01*
X0126645Y0183354D01*
X0126668Y0183312D01*
X0126688Y0183269D01*
X0126705Y0183224D01*
X0126718Y0183178D01*
X0126727Y0183131D01*
X0126733Y0183083D01*
X0126735Y0183035D01*
X0120665Y0182363D02*
X0119993Y0182730D01*
X0120238Y0183647D02*
X0120297Y0183645D01*
X0120356Y0183639D01*
X0120414Y0183630D01*
X0120471Y0183617D01*
X0120528Y0183600D01*
X0120583Y0183579D01*
X0120637Y0183556D01*
X0120689Y0183528D01*
X0120740Y0183497D01*
X0120788Y0183464D01*
X0119993Y0182730D02*
X0119957Y0182753D01*
X0119923Y0182780D01*
X0119891Y0182809D01*
X0119862Y0182841D01*
X0119836Y0182875D01*
X0119813Y0182911D01*
X0119794Y0182950D01*
X0119777Y0182989D01*
X0119765Y0183030D01*
X0119755Y0183072D01*
X0119750Y0183115D01*
X0119748Y0183158D01*
X0119749Y0183158D02*
X0119751Y0183201D01*
X0119756Y0183243D01*
X0119766Y0183285D01*
X0119778Y0183325D01*
X0119795Y0183365D01*
X0119815Y0183403D01*
X0119837Y0183438D01*
X0119863Y0183472D01*
X0119892Y0183504D01*
X0119924Y0183533D01*
X0119958Y0183559D01*
X0119994Y0183581D01*
X0120031Y0183601D01*
X0120071Y0183618D01*
X0120111Y0183630D01*
X0120153Y0183640D01*
X0120195Y0183645D01*
X0120238Y0183647D01*
X0119688Y0181752D02*
X0119733Y0181708D01*
X0119781Y0181668D01*
X0119831Y0181631D01*
X0119884Y0181597D01*
X0119939Y0181566D01*
X0119995Y0181538D01*
X0120053Y0181514D01*
X0120112Y0181493D01*
X0120173Y0181476D01*
X0120234Y0181463D01*
X0120296Y0181454D01*
X0120358Y0181448D01*
X0120421Y0181446D01*
X0120464Y0181448D01*
X0120506Y0181453D01*
X0120548Y0181463D01*
X0120588Y0181475D01*
X0120628Y0181492D01*
X0120666Y0181512D01*
X0120701Y0181534D01*
X0120735Y0181560D01*
X0120767Y0181589D01*
X0120796Y0181621D01*
X0120822Y0181655D01*
X0120844Y0181691D01*
X0120864Y0181728D01*
X0120881Y0181768D01*
X0120893Y0181808D01*
X0120903Y0181850D01*
X0120908Y0181892D01*
X0120910Y0181935D01*
X0120908Y0181978D01*
X0120903Y0182021D01*
X0120893Y0182063D01*
X0120881Y0182104D01*
X0120864Y0182143D01*
X0120845Y0182182D01*
X0120822Y0182218D01*
X0120796Y0182252D01*
X0120767Y0182284D01*
X0120735Y0182313D01*
X0120701Y0182340D01*
X0120665Y0182363D01*
X0118750Y0182058D02*
X0118750Y0183646D01*
X0117528Y0183646D02*
X0117528Y0182058D01*
X0117530Y0182010D01*
X0117536Y0181962D01*
X0117545Y0181915D01*
X0117558Y0181869D01*
X0117575Y0181824D01*
X0117595Y0181781D01*
X0117618Y0181739D01*
X0117645Y0181699D01*
X0117674Y0181661D01*
X0117707Y0181626D01*
X0117742Y0181593D01*
X0117780Y0181564D01*
X0117820Y0181537D01*
X0117862Y0181514D01*
X0117905Y0181494D01*
X0117950Y0181477D01*
X0117996Y0181464D01*
X0118043Y0181455D01*
X0118091Y0181449D01*
X0118139Y0181447D01*
X0118187Y0181449D01*
X0118235Y0181455D01*
X0118282Y0181464D01*
X0118328Y0181477D01*
X0118373Y0181494D01*
X0118416Y0181514D01*
X0118458Y0181537D01*
X0118498Y0181564D01*
X0118536Y0181593D01*
X0118571Y0181626D01*
X0118604Y0181661D01*
X0118633Y0181699D01*
X0118660Y0181739D01*
X0118683Y0181781D01*
X0118703Y0181824D01*
X0118720Y0181869D01*
X0118733Y0181915D01*
X0118742Y0181962D01*
X0118748Y0182010D01*
X0118750Y0182058D01*
X0116011Y0181447D02*
X0116059Y0181449D01*
X0116107Y0181455D01*
X0116154Y0181464D01*
X0116200Y0181477D01*
X0116245Y0181494D01*
X0116288Y0181514D01*
X0116330Y0181537D01*
X0116370Y0181564D01*
X0116408Y0181593D01*
X0116443Y0181626D01*
X0116476Y0181661D01*
X0116505Y0181699D01*
X0116532Y0181739D01*
X0116555Y0181781D01*
X0116575Y0181824D01*
X0116592Y0181869D01*
X0116605Y0181915D01*
X0116614Y0181962D01*
X0116620Y0182010D01*
X0116622Y0182058D01*
X0116620Y0182106D01*
X0116614Y0182154D01*
X0116605Y0182201D01*
X0116592Y0182247D01*
X0116575Y0182292D01*
X0116555Y0182335D01*
X0116532Y0182377D01*
X0116505Y0182417D01*
X0116476Y0182455D01*
X0116443Y0182490D01*
X0116408Y0182523D01*
X0116370Y0182552D01*
X0116330Y0182579D01*
X0116288Y0182602D01*
X0116245Y0182622D01*
X0116200Y0182639D01*
X0116154Y0182652D01*
X0116107Y0182661D01*
X0116059Y0182667D01*
X0116011Y0182669D01*
X0115400Y0182669D01*
X0116011Y0182669D02*
X0116054Y0182671D01*
X0116096Y0182676D01*
X0116138Y0182686D01*
X0116178Y0182698D01*
X0116218Y0182715D01*
X0116256Y0182735D01*
X0116291Y0182757D01*
X0116325Y0182783D01*
X0116357Y0182812D01*
X0116386Y0182844D01*
X0116412Y0182878D01*
X0116434Y0182914D01*
X0116454Y0182951D01*
X0116471Y0182991D01*
X0116483Y0183031D01*
X0116493Y0183073D01*
X0116498Y0183115D01*
X0116500Y0183158D01*
X0116498Y0183201D01*
X0116493Y0183243D01*
X0116483Y0183285D01*
X0116471Y0183325D01*
X0116454Y0183365D01*
X0116434Y0183403D01*
X0116412Y0183438D01*
X0116386Y0183472D01*
X0116357Y0183504D01*
X0116325Y0183533D01*
X0116291Y0183559D01*
X0116256Y0183581D01*
X0116218Y0183601D01*
X0116178Y0183618D01*
X0116138Y0183630D01*
X0116096Y0183640D01*
X0116054Y0183645D01*
X0116011Y0183647D01*
X0116011Y0183646D02*
X0115400Y0183646D01*
X0115400Y0181446D01*
X0116011Y0181446D01*
X0113747Y0181446D02*
X0114480Y0183646D01*
X0113013Y0183646D02*
X0113747Y0181446D01*
X0111128Y0182058D02*
X0111128Y0182180D01*
X0111126Y0182223D01*
X0111121Y0182265D01*
X0111111Y0182307D01*
X0111099Y0182347D01*
X0111082Y0182387D01*
X0111062Y0182425D01*
X0111040Y0182460D01*
X0111014Y0182494D01*
X0110985Y0182526D01*
X0110953Y0182555D01*
X0110919Y0182581D01*
X0110884Y0182603D01*
X0110846Y0182623D01*
X0110806Y0182640D01*
X0110766Y0182652D01*
X0110724Y0182662D01*
X0110682Y0182667D01*
X0110639Y0182669D01*
X0109905Y0182669D01*
X0109905Y0182058D01*
X0109907Y0182010D01*
X0109913Y0181962D01*
X0109922Y0181915D01*
X0109935Y0181869D01*
X0109952Y0181824D01*
X0109972Y0181781D01*
X0109995Y0181739D01*
X0110022Y0181699D01*
X0110051Y0181661D01*
X0110084Y0181626D01*
X0110119Y0181593D01*
X0110157Y0181564D01*
X0110197Y0181537D01*
X0110239Y0181514D01*
X0110282Y0181494D01*
X0110327Y0181477D01*
X0110373Y0181464D01*
X0110420Y0181455D01*
X0110468Y0181449D01*
X0110516Y0181447D01*
X0110564Y0181449D01*
X0110612Y0181455D01*
X0110659Y0181464D01*
X0110705Y0181477D01*
X0110750Y0181494D01*
X0110793Y0181514D01*
X0110835Y0181537D01*
X0110875Y0181564D01*
X0110913Y0181593D01*
X0110948Y0181626D01*
X0110981Y0181661D01*
X0111010Y0181699D01*
X0111037Y0181739D01*
X0111060Y0181781D01*
X0111080Y0181824D01*
X0111097Y0181869D01*
X0111110Y0181915D01*
X0111119Y0181962D01*
X0111125Y0182010D01*
X0111127Y0182058D01*
X0109905Y0182669D02*
X0109907Y0182730D01*
X0109913Y0182792D01*
X0109922Y0182852D01*
X0109936Y0182912D01*
X0109953Y0182971D01*
X0109974Y0183029D01*
X0109998Y0183085D01*
X0110026Y0183140D01*
X0110057Y0183193D01*
X0110092Y0183244D01*
X0110129Y0183292D01*
X0110170Y0183338D01*
X0110214Y0183382D01*
X0110260Y0183423D01*
X0110308Y0183460D01*
X0110359Y0183495D01*
X0110412Y0183526D01*
X0110467Y0183554D01*
X0110523Y0183578D01*
X0110581Y0183599D01*
X0110640Y0183616D01*
X0110700Y0183630D01*
X0110760Y0183639D01*
X0110822Y0183645D01*
X0110883Y0183647D01*
X0108784Y0182669D02*
X0107745Y0181446D01*
X0108968Y0181446D01*
X0107745Y0183158D02*
X0107763Y0183207D01*
X0107785Y0183255D01*
X0107810Y0183301D01*
X0107838Y0183344D01*
X0107870Y0183386D01*
X0107904Y0183426D01*
X0107941Y0183462D01*
X0107981Y0183496D01*
X0108024Y0183527D01*
X0108068Y0183554D01*
X0108114Y0183578D01*
X0108162Y0183599D01*
X0108212Y0183616D01*
X0108262Y0183630D01*
X0108314Y0183639D01*
X0108366Y0183645D01*
X0108418Y0183647D01*
X0108418Y0183646D02*
X0108463Y0183644D01*
X0108509Y0183638D01*
X0108553Y0183629D01*
X0108597Y0183616D01*
X0108639Y0183600D01*
X0108680Y0183580D01*
X0108719Y0183556D01*
X0108756Y0183530D01*
X0108791Y0183501D01*
X0108823Y0183469D01*
X0108852Y0183434D01*
X0108878Y0183397D01*
X0108902Y0183358D01*
X0108922Y0183317D01*
X0108938Y0183275D01*
X0108951Y0183231D01*
X0108960Y0183187D01*
X0108966Y0183141D01*
X0108968Y0183096D01*
X0108966Y0183048D01*
X0108960Y0183001D01*
X0108951Y0182954D01*
X0108937Y0182908D01*
X0108920Y0182863D01*
X0108900Y0182820D01*
X0108876Y0182779D01*
X0108848Y0182739D01*
X0108818Y0182702D01*
X0108785Y0182668D01*
X0106736Y0183035D02*
X0106736Y0182058D01*
X0106735Y0182058D02*
X0106733Y0182010D01*
X0106727Y0181962D01*
X0106718Y0181915D01*
X0106705Y0181869D01*
X0106688Y0181824D01*
X0106668Y0181781D01*
X0106645Y0181739D01*
X0106618Y0181699D01*
X0106589Y0181661D01*
X0106556Y0181626D01*
X0106521Y0181593D01*
X0106483Y0181564D01*
X0106443Y0181537D01*
X0106401Y0181514D01*
X0106358Y0181494D01*
X0106313Y0181477D01*
X0106267Y0181464D01*
X0106220Y0181455D01*
X0106172Y0181449D01*
X0106124Y0181447D01*
X0106124Y0181446D02*
X0105513Y0181446D01*
X0105513Y0183646D01*
X0106124Y0183646D01*
X0106172Y0183644D01*
X0106220Y0183638D01*
X0106267Y0183629D01*
X0106313Y0183616D01*
X0106358Y0183599D01*
X0106401Y0183579D01*
X0106443Y0183556D01*
X0106483Y0183529D01*
X0106521Y0183500D01*
X0106556Y0183467D01*
X0106589Y0183432D01*
X0106618Y0183394D01*
X0106645Y0183354D01*
X0106668Y0183312D01*
X0106688Y0183269D01*
X0106705Y0183224D01*
X0106718Y0183178D01*
X0106727Y0183131D01*
X0106733Y0183083D01*
X0106735Y0183035D01*
X0101344Y0183035D02*
X0101344Y0182058D01*
X0101343Y0182058D02*
X0101341Y0182010D01*
X0101335Y0181962D01*
X0101326Y0181915D01*
X0101313Y0181869D01*
X0101296Y0181824D01*
X0101276Y0181781D01*
X0101253Y0181739D01*
X0101226Y0181699D01*
X0101197Y0181661D01*
X0101164Y0181626D01*
X0101129Y0181593D01*
X0101091Y0181564D01*
X0101051Y0181537D01*
X0101009Y0181514D01*
X0100966Y0181494D01*
X0100921Y0181477D01*
X0100875Y0181464D01*
X0100828Y0181455D01*
X0100780Y0181449D01*
X0100732Y0181447D01*
X0100732Y0181446D02*
X0100121Y0181446D01*
X0100121Y0183646D01*
X0100732Y0183646D01*
X0100780Y0183644D01*
X0100828Y0183638D01*
X0100875Y0183629D01*
X0100921Y0183616D01*
X0100966Y0183599D01*
X0101009Y0183579D01*
X0101051Y0183556D01*
X0101091Y0183529D01*
X0101129Y0183500D01*
X0101164Y0183467D01*
X0101197Y0183432D01*
X0101226Y0183394D01*
X0101253Y0183354D01*
X0101276Y0183312D01*
X0101296Y0183269D01*
X0101313Y0183224D01*
X0101326Y0183178D01*
X0101335Y0183131D01*
X0101341Y0183083D01*
X0101343Y0183035D01*
X0099040Y0183646D02*
X0099040Y0181446D01*
X0097817Y0183646D01*
X0097817Y0181446D01*
X0096736Y0181446D02*
X0096002Y0181446D01*
X0095959Y0181448D01*
X0095917Y0181453D01*
X0095875Y0181463D01*
X0095835Y0181475D01*
X0095795Y0181492D01*
X0095758Y0181512D01*
X0095722Y0181534D01*
X0095688Y0181560D01*
X0095656Y0181589D01*
X0095627Y0181621D01*
X0095601Y0181655D01*
X0095579Y0181691D01*
X0095559Y0181728D01*
X0095542Y0181768D01*
X0095530Y0181808D01*
X0095520Y0181850D01*
X0095515Y0181892D01*
X0095513Y0181935D01*
X0095513Y0183158D01*
X0095515Y0183201D01*
X0095520Y0183243D01*
X0095530Y0183285D01*
X0095542Y0183325D01*
X0095559Y0183365D01*
X0095579Y0183402D01*
X0095601Y0183438D01*
X0095627Y0183472D01*
X0095656Y0183504D01*
X0095688Y0183533D01*
X0095722Y0183559D01*
X0095757Y0183581D01*
X0095795Y0183601D01*
X0095835Y0183618D01*
X0095875Y0183630D01*
X0095917Y0183640D01*
X0095959Y0183645D01*
X0096002Y0183647D01*
X0096002Y0183646D02*
X0096736Y0183646D01*
X0096736Y0182669D02*
X0096736Y0181446D01*
X0096736Y0182669D02*
X0096369Y0182669D01*
X0091581Y0182913D02*
X0091092Y0181446D01*
X0090604Y0182913D01*
X0089271Y0182669D02*
X0088782Y0182669D01*
X0089271Y0182669D02*
X0089314Y0182671D01*
X0089356Y0182676D01*
X0089398Y0182686D01*
X0089438Y0182698D01*
X0089478Y0182715D01*
X0089516Y0182735D01*
X0089551Y0182757D01*
X0089585Y0182783D01*
X0089617Y0182812D01*
X0089646Y0182844D01*
X0089672Y0182878D01*
X0089694Y0182914D01*
X0089714Y0182951D01*
X0089731Y0182991D01*
X0089743Y0183031D01*
X0089753Y0183073D01*
X0089758Y0183115D01*
X0089760Y0183158D01*
X0089758Y0183201D01*
X0089753Y0183243D01*
X0089743Y0183285D01*
X0089731Y0183325D01*
X0089714Y0183365D01*
X0089694Y0183403D01*
X0089672Y0183438D01*
X0089646Y0183472D01*
X0089617Y0183504D01*
X0089585Y0183533D01*
X0089551Y0183559D01*
X0089516Y0183581D01*
X0089478Y0183601D01*
X0089438Y0183618D01*
X0089398Y0183630D01*
X0089356Y0183640D01*
X0089314Y0183645D01*
X0089271Y0183647D01*
X0089271Y0183646D02*
X0088537Y0183646D01*
X0089148Y0182669D02*
X0089196Y0182667D01*
X0089244Y0182661D01*
X0089291Y0182652D01*
X0089337Y0182639D01*
X0089382Y0182622D01*
X0089425Y0182602D01*
X0089467Y0182579D01*
X0089507Y0182552D01*
X0089545Y0182523D01*
X0089580Y0182490D01*
X0089613Y0182455D01*
X0089642Y0182417D01*
X0089669Y0182377D01*
X0089692Y0182335D01*
X0089712Y0182292D01*
X0089729Y0182247D01*
X0089742Y0182201D01*
X0089751Y0182154D01*
X0089757Y0182106D01*
X0089759Y0182058D01*
X0089757Y0182010D01*
X0089751Y0181962D01*
X0089742Y0181915D01*
X0089729Y0181869D01*
X0089712Y0181824D01*
X0089692Y0181781D01*
X0089669Y0181739D01*
X0089642Y0181699D01*
X0089613Y0181661D01*
X0089580Y0181626D01*
X0089545Y0181593D01*
X0089507Y0181564D01*
X0089467Y0181537D01*
X0089425Y0181514D01*
X0089382Y0181494D01*
X0089337Y0181477D01*
X0089291Y0181464D01*
X0089244Y0181455D01*
X0089196Y0181449D01*
X0089148Y0181447D01*
X0089148Y0181446D02*
X0088537Y0181446D01*
X0087698Y0181446D02*
X0087575Y0181446D01*
X0087575Y0181569D01*
X0087698Y0181569D01*
X0087698Y0181446D01*
X0086124Y0181446D02*
X0085513Y0181446D01*
X0086124Y0181447D02*
X0086172Y0181449D01*
X0086220Y0181455D01*
X0086267Y0181464D01*
X0086313Y0181477D01*
X0086358Y0181494D01*
X0086401Y0181514D01*
X0086443Y0181537D01*
X0086483Y0181564D01*
X0086521Y0181593D01*
X0086556Y0181626D01*
X0086589Y0181661D01*
X0086618Y0181699D01*
X0086645Y0181739D01*
X0086668Y0181781D01*
X0086688Y0181824D01*
X0086705Y0181869D01*
X0086718Y0181915D01*
X0086727Y0181962D01*
X0086733Y0182010D01*
X0086735Y0182058D01*
X0086733Y0182106D01*
X0086727Y0182154D01*
X0086718Y0182201D01*
X0086705Y0182247D01*
X0086688Y0182292D01*
X0086668Y0182335D01*
X0086645Y0182377D01*
X0086618Y0182417D01*
X0086589Y0182455D01*
X0086556Y0182490D01*
X0086521Y0182523D01*
X0086483Y0182552D01*
X0086443Y0182579D01*
X0086401Y0182602D01*
X0086358Y0182622D01*
X0086313Y0182639D01*
X0086267Y0182652D01*
X0086220Y0182661D01*
X0086172Y0182667D01*
X0086124Y0182669D01*
X0086247Y0182669D02*
X0085758Y0182669D01*
X0086247Y0182669D02*
X0086290Y0182671D01*
X0086332Y0182676D01*
X0086374Y0182686D01*
X0086414Y0182698D01*
X0086454Y0182715D01*
X0086492Y0182735D01*
X0086527Y0182757D01*
X0086561Y0182783D01*
X0086593Y0182812D01*
X0086622Y0182844D01*
X0086648Y0182878D01*
X0086670Y0182914D01*
X0086690Y0182951D01*
X0086707Y0182991D01*
X0086719Y0183031D01*
X0086729Y0183073D01*
X0086734Y0183115D01*
X0086736Y0183158D01*
X0086734Y0183201D01*
X0086729Y0183243D01*
X0086719Y0183285D01*
X0086707Y0183325D01*
X0086690Y0183365D01*
X0086670Y0183403D01*
X0086648Y0183438D01*
X0086622Y0183472D01*
X0086593Y0183504D01*
X0086561Y0183533D01*
X0086527Y0183559D01*
X0086492Y0183581D01*
X0086454Y0183601D01*
X0086414Y0183618D01*
X0086374Y0183630D01*
X0086332Y0183640D01*
X0086290Y0183645D01*
X0086247Y0183647D01*
X0086247Y0183646D02*
X0085513Y0183646D01*
X0080437Y0182363D02*
X0079765Y0182730D01*
X0080009Y0183647D02*
X0080068Y0183645D01*
X0080127Y0183639D01*
X0080185Y0183630D01*
X0080242Y0183617D01*
X0080299Y0183600D01*
X0080354Y0183579D01*
X0080408Y0183556D01*
X0080460Y0183528D01*
X0080511Y0183497D01*
X0080559Y0183464D01*
X0079765Y0182730D02*
X0079729Y0182753D01*
X0079695Y0182780D01*
X0079663Y0182809D01*
X0079634Y0182841D01*
X0079608Y0182875D01*
X0079585Y0182911D01*
X0079566Y0182950D01*
X0079549Y0182989D01*
X0079537Y0183030D01*
X0079527Y0183072D01*
X0079522Y0183115D01*
X0079520Y0183158D01*
X0079522Y0183201D01*
X0079527Y0183243D01*
X0079537Y0183285D01*
X0079549Y0183325D01*
X0079566Y0183365D01*
X0079586Y0183403D01*
X0079608Y0183438D01*
X0079634Y0183472D01*
X0079663Y0183504D01*
X0079695Y0183533D01*
X0079729Y0183559D01*
X0079765Y0183581D01*
X0079802Y0183601D01*
X0079842Y0183618D01*
X0079882Y0183630D01*
X0079924Y0183640D01*
X0079966Y0183645D01*
X0080009Y0183647D01*
X0079459Y0181752D02*
X0079504Y0181708D01*
X0079552Y0181668D01*
X0079602Y0181631D01*
X0079655Y0181597D01*
X0079710Y0181566D01*
X0079766Y0181538D01*
X0079824Y0181514D01*
X0079883Y0181493D01*
X0079944Y0181476D01*
X0080005Y0181463D01*
X0080067Y0181454D01*
X0080129Y0181448D01*
X0080192Y0181446D01*
X0080235Y0181448D01*
X0080277Y0181453D01*
X0080319Y0181463D01*
X0080359Y0181475D01*
X0080399Y0181492D01*
X0080437Y0181512D01*
X0080472Y0181534D01*
X0080506Y0181560D01*
X0080538Y0181589D01*
X0080567Y0181621D01*
X0080593Y0181655D01*
X0080615Y0181691D01*
X0080635Y0181728D01*
X0080652Y0181768D01*
X0080664Y0181808D01*
X0080674Y0181850D01*
X0080679Y0181892D01*
X0080681Y0181935D01*
X0080682Y0181935D02*
X0080680Y0181978D01*
X0080675Y0182021D01*
X0080665Y0182063D01*
X0080653Y0182104D01*
X0080636Y0182143D01*
X0080617Y0182182D01*
X0080594Y0182218D01*
X0080568Y0182252D01*
X0080539Y0182284D01*
X0080507Y0182313D01*
X0080473Y0182340D01*
X0080437Y0182363D01*
X0078713Y0181446D02*
X0077736Y0181446D01*
X0077736Y0183646D01*
X0078713Y0183646D01*
X0078469Y0182669D02*
X0077736Y0182669D01*
X0076247Y0182424D02*
X0076736Y0181446D01*
X0076124Y0182424D02*
X0075513Y0182424D01*
X0076124Y0182424D02*
X0076172Y0182426D01*
X0076220Y0182432D01*
X0076267Y0182441D01*
X0076313Y0182454D01*
X0076358Y0182471D01*
X0076401Y0182491D01*
X0076443Y0182514D01*
X0076483Y0182541D01*
X0076521Y0182570D01*
X0076556Y0182603D01*
X0076589Y0182638D01*
X0076618Y0182676D01*
X0076645Y0182716D01*
X0076668Y0182758D01*
X0076688Y0182801D01*
X0076705Y0182846D01*
X0076718Y0182892D01*
X0076727Y0182939D01*
X0076733Y0182987D01*
X0076735Y0183035D01*
X0076733Y0183083D01*
X0076727Y0183131D01*
X0076718Y0183178D01*
X0076705Y0183224D01*
X0076688Y0183269D01*
X0076668Y0183312D01*
X0076645Y0183354D01*
X0076618Y0183394D01*
X0076589Y0183432D01*
X0076556Y0183467D01*
X0076521Y0183500D01*
X0076483Y0183529D01*
X0076443Y0183556D01*
X0076401Y0183579D01*
X0076358Y0183599D01*
X0076313Y0183616D01*
X0076267Y0183629D01*
X0076220Y0183638D01*
X0076172Y0183644D01*
X0076124Y0183646D01*
X0075513Y0183646D01*
X0075513Y0181446D01*
X0071128Y0181935D02*
X0071128Y0182180D01*
X0071126Y0182223D01*
X0071121Y0182265D01*
X0071111Y0182307D01*
X0071099Y0182347D01*
X0071082Y0182387D01*
X0071062Y0182425D01*
X0071040Y0182460D01*
X0071014Y0182494D01*
X0070985Y0182526D01*
X0070953Y0182555D01*
X0070919Y0182581D01*
X0070884Y0182603D01*
X0070846Y0182623D01*
X0070806Y0182640D01*
X0070766Y0182652D01*
X0070724Y0182662D01*
X0070682Y0182667D01*
X0070639Y0182669D01*
X0069905Y0182669D01*
X0069905Y0183646D01*
X0071128Y0183646D01*
X0071128Y0181935D02*
X0071126Y0181892D01*
X0071121Y0181850D01*
X0071111Y0181808D01*
X0071099Y0181768D01*
X0071082Y0181728D01*
X0071062Y0181690D01*
X0071040Y0181655D01*
X0071014Y0181621D01*
X0070985Y0181589D01*
X0070953Y0181560D01*
X0070919Y0181534D01*
X0070883Y0181512D01*
X0070846Y0181492D01*
X0070806Y0181475D01*
X0070766Y0181463D01*
X0070724Y0181453D01*
X0070682Y0181448D01*
X0070639Y0181446D01*
X0069905Y0181446D01*
X0068968Y0181446D02*
X0067745Y0181446D01*
X0068784Y0182669D01*
X0068418Y0183647D02*
X0068366Y0183645D01*
X0068314Y0183639D01*
X0068262Y0183630D01*
X0068212Y0183616D01*
X0068162Y0183599D01*
X0068114Y0183578D01*
X0068068Y0183554D01*
X0068024Y0183527D01*
X0067981Y0183496D01*
X0067941Y0183462D01*
X0067904Y0183426D01*
X0067870Y0183386D01*
X0067838Y0183344D01*
X0067810Y0183301D01*
X0067785Y0183255D01*
X0067763Y0183207D01*
X0067745Y0183158D01*
X0068785Y0182668D02*
X0068818Y0182702D01*
X0068848Y0182739D01*
X0068876Y0182779D01*
X0068900Y0182820D01*
X0068920Y0182863D01*
X0068937Y0182908D01*
X0068951Y0182954D01*
X0068960Y0183001D01*
X0068966Y0183048D01*
X0068968Y0183096D01*
X0068966Y0183141D01*
X0068960Y0183187D01*
X0068951Y0183231D01*
X0068938Y0183275D01*
X0068922Y0183317D01*
X0068902Y0183358D01*
X0068878Y0183397D01*
X0068852Y0183434D01*
X0068823Y0183469D01*
X0068791Y0183501D01*
X0068756Y0183530D01*
X0068719Y0183556D01*
X0068680Y0183580D01*
X0068639Y0183600D01*
X0068597Y0183616D01*
X0068553Y0183629D01*
X0068509Y0183638D01*
X0068463Y0183644D01*
X0068418Y0183646D01*
X0066736Y0183035D02*
X0066736Y0182058D01*
X0066735Y0182058D02*
X0066733Y0182010D01*
X0066727Y0181962D01*
X0066718Y0181915D01*
X0066705Y0181869D01*
X0066688Y0181824D01*
X0066668Y0181781D01*
X0066645Y0181739D01*
X0066618Y0181699D01*
X0066589Y0181661D01*
X0066556Y0181626D01*
X0066521Y0181593D01*
X0066483Y0181564D01*
X0066443Y0181537D01*
X0066401Y0181514D01*
X0066358Y0181494D01*
X0066313Y0181477D01*
X0066267Y0181464D01*
X0066220Y0181455D01*
X0066172Y0181449D01*
X0066124Y0181447D01*
X0066124Y0181446D02*
X0065513Y0181446D01*
X0065513Y0183646D01*
X0066124Y0183646D01*
X0066172Y0183644D01*
X0066220Y0183638D01*
X0066267Y0183629D01*
X0066313Y0183616D01*
X0066358Y0183599D01*
X0066401Y0183579D01*
X0066443Y0183556D01*
X0066483Y0183529D01*
X0066521Y0183500D01*
X0066556Y0183467D01*
X0066589Y0183432D01*
X0066618Y0183394D01*
X0066645Y0183354D01*
X0066668Y0183312D01*
X0066688Y0183269D01*
X0066705Y0183224D01*
X0066718Y0183178D01*
X0066727Y0183131D01*
X0066733Y0183083D01*
X0066735Y0183035D01*
D11*
X0034913Y0026346D02*
X0030913Y0026346D01*
X0040913Y0026346D02*
X0044913Y0026346D01*
X0155913Y0056346D02*
X0159913Y0056346D01*
X0161102Y0033157D02*
X0157165Y0033157D01*
X0157193Y0033086D02*
X0157193Y0029220D01*
X0157165Y0029220D01*
X0157165Y0017409D02*
X0157165Y0013472D01*
X0184724Y0033157D02*
X0188661Y0033157D01*
X0188661Y0029220D01*
X0188661Y0017409D02*
X0188661Y0013472D01*
X0082913Y0139346D02*
X0082913Y0143346D01*
X0049913Y0156346D02*
X0045913Y0156346D01*
X0039913Y0156346D02*
X0035913Y0156346D01*
X0029913Y0156346D02*
X0025913Y0156346D01*
X0125913Y0146346D02*
X0129913Y0146346D01*
X0140913Y0171346D02*
X0144913Y0171346D01*
X0182913Y0153346D02*
X0182913Y0149346D01*
D12*
X0175945Y0142094D02*
X0160197Y0142094D01*
X0160197Y0138748D01*
X0170039Y0138748D01*
X0170039Y0133236D01*
X0164104Y0143746D02*
X0160132Y0143746D01*
X0164104Y0143746D02*
X0164104Y0148915D01*
X0159435Y0148946D02*
X0156447Y0148946D01*
X0155694Y0143746D02*
X0151723Y0143746D01*
X0151723Y0148915D01*
X0144409Y0149496D02*
X0144409Y0143197D01*
X0139488Y0142213D02*
X0136339Y0142213D01*
X0131417Y0143197D02*
X0131417Y0149496D01*
X0119409Y0148197D02*
X0119409Y0154496D01*
X0114488Y0155480D02*
X0111339Y0155480D01*
X0106417Y0154496D02*
X0106417Y0148197D01*
X0090394Y0155835D02*
X0090394Y0166858D01*
X0075433Y0166858D02*
X0075433Y0155835D01*
X0056181Y0165341D02*
X0039646Y0165341D01*
X0039646Y0177352D02*
X0056181Y0177352D01*
X0065413Y0186346D02*
X0062913Y0188846D01*
X0062913Y0193846D01*
X0065413Y0196346D01*
X0070413Y0196346D01*
X0072913Y0193846D01*
X0075413Y0196346D01*
X0080413Y0196346D01*
X0082913Y0193846D01*
X0085413Y0196346D01*
X0090413Y0196346D01*
X0092913Y0193846D01*
X0095413Y0196346D01*
X0100413Y0196346D01*
X0102913Y0193846D01*
X0105413Y0196346D01*
X0110413Y0196346D01*
X0112913Y0193846D01*
X0115413Y0196346D01*
X0120413Y0196346D01*
X0122913Y0193846D01*
X0125413Y0196346D01*
X0130413Y0196346D01*
X0132913Y0193846D01*
X0135413Y0196346D01*
X0140413Y0196346D01*
X0142913Y0193846D01*
X0145413Y0196346D01*
X0150413Y0196346D01*
X0152913Y0193846D01*
X0155413Y0196346D01*
X0160413Y0196346D01*
X0162913Y0193846D01*
X0162913Y0188846D01*
X0160413Y0186346D01*
X0155413Y0186346D01*
X0152913Y0188846D01*
X0150413Y0186346D01*
X0145413Y0186346D01*
X0142913Y0188846D01*
X0140413Y0186346D01*
X0135413Y0186346D01*
X0132913Y0188846D01*
X0130413Y0186346D01*
X0125413Y0186346D01*
X0122913Y0188846D01*
X0120413Y0186346D01*
X0115413Y0186346D01*
X0112913Y0188846D01*
X0110413Y0186346D01*
X0105413Y0186346D01*
X0102913Y0188846D01*
X0100413Y0186346D01*
X0095413Y0186346D01*
X0092913Y0188846D01*
X0090413Y0186346D01*
X0085413Y0186346D01*
X0082913Y0188846D01*
X0080413Y0186346D01*
X0075413Y0186346D01*
X0072913Y0188846D01*
X0070413Y0186346D01*
X0065413Y0186346D01*
X0152402Y0099102D02*
X0152402Y0095953D01*
X0152402Y0099102D02*
X0154764Y0099102D01*
X0161063Y0099102D02*
X0163425Y0099102D01*
X0163425Y0095953D01*
X0172402Y0095953D02*
X0172402Y0099102D01*
X0174764Y0099102D01*
X0181063Y0099102D02*
X0183425Y0099102D01*
X0183425Y0095953D01*
X0183425Y0088827D02*
X0172402Y0088827D01*
X0172402Y0073866D02*
X0183425Y0073866D01*
X0184409Y0069220D02*
X0185787Y0069220D01*
X0185787Y0067843D01*
X0185787Y0054850D02*
X0185787Y0053472D01*
X0184409Y0053472D01*
X0171417Y0053472D02*
X0170039Y0054850D01*
X0169213Y0053146D02*
X0169215Y0053190D01*
X0169221Y0053234D01*
X0169231Y0053277D01*
X0169244Y0053319D01*
X0169261Y0053360D01*
X0169282Y0053399D01*
X0169306Y0053436D01*
X0169333Y0053471D01*
X0169363Y0053503D01*
X0169396Y0053533D01*
X0169432Y0053559D01*
X0169469Y0053583D01*
X0169509Y0053602D01*
X0169550Y0053619D01*
X0169593Y0053631D01*
X0169636Y0053640D01*
X0169680Y0053645D01*
X0169724Y0053646D01*
X0169768Y0053643D01*
X0169812Y0053636D01*
X0169855Y0053625D01*
X0169897Y0053611D01*
X0169937Y0053593D01*
X0169976Y0053571D01*
X0170012Y0053547D01*
X0170046Y0053519D01*
X0170078Y0053488D01*
X0170107Y0053454D01*
X0170133Y0053418D01*
X0170155Y0053380D01*
X0170174Y0053340D01*
X0170189Y0053298D01*
X0170201Y0053256D01*
X0170209Y0053212D01*
X0170213Y0053168D01*
X0170213Y0053124D01*
X0170209Y0053080D01*
X0170201Y0053036D01*
X0170189Y0052994D01*
X0170174Y0052952D01*
X0170155Y0052912D01*
X0170133Y0052874D01*
X0170107Y0052838D01*
X0170078Y0052804D01*
X0170046Y0052773D01*
X0170012Y0052745D01*
X0169976Y0052721D01*
X0169937Y0052699D01*
X0169897Y0052681D01*
X0169855Y0052667D01*
X0169812Y0052656D01*
X0169768Y0052649D01*
X0169724Y0052646D01*
X0169680Y0052647D01*
X0169636Y0052652D01*
X0169593Y0052661D01*
X0169550Y0052673D01*
X0169509Y0052690D01*
X0169469Y0052709D01*
X0169432Y0052733D01*
X0169396Y0052759D01*
X0169363Y0052789D01*
X0169333Y0052821D01*
X0169306Y0052856D01*
X0169282Y0052893D01*
X0169261Y0052932D01*
X0169244Y0052973D01*
X0169231Y0053015D01*
X0169221Y0053058D01*
X0169215Y0053102D01*
X0169213Y0053146D01*
X0170039Y0067843D02*
X0170039Y0069220D01*
X0171417Y0069220D01*
X0175945Y0110598D02*
X0160197Y0110598D01*
X0160197Y0113945D01*
X0170039Y0113945D01*
X0170039Y0119457D01*
X0189724Y0117488D02*
X0189724Y0135205D01*
X0165669Y0167909D02*
X0165669Y0174783D01*
X0162913Y0172528D02*
X0161339Y0170165D01*
X0164488Y0170165D01*
X0162913Y0172528D01*
X0162913Y0171740D02*
X0162126Y0170559D01*
X0163701Y0170559D01*
X0162913Y0171740D01*
X0162821Y0171601D02*
X0163006Y0171601D01*
X0163538Y0170803D02*
X0162288Y0170803D01*
X0160157Y0167909D02*
X0160157Y0174783D01*
X0052898Y0067598D02*
X0032929Y0067598D01*
X0032929Y0035094D01*
X0052898Y0035094D01*
X0052898Y0067598D01*
X0034913Y0062696D02*
X0034915Y0062795D01*
X0034921Y0062895D01*
X0034931Y0062994D01*
X0034945Y0063092D01*
X0034962Y0063190D01*
X0034984Y0063287D01*
X0035009Y0063383D01*
X0035038Y0063478D01*
X0035071Y0063572D01*
X0035108Y0063664D01*
X0035148Y0063755D01*
X0035192Y0063844D01*
X0035240Y0063932D01*
X0035291Y0064017D01*
X0035345Y0064100D01*
X0035402Y0064182D01*
X0035463Y0064260D01*
X0035527Y0064337D01*
X0035593Y0064410D01*
X0035663Y0064481D01*
X0035735Y0064549D01*
X0035810Y0064615D01*
X0035888Y0064677D01*
X0035968Y0064736D01*
X0036050Y0064792D01*
X0036134Y0064844D01*
X0036221Y0064893D01*
X0036309Y0064939D01*
X0036399Y0064981D01*
X0036491Y0065020D01*
X0036584Y0065055D01*
X0036678Y0065086D01*
X0036774Y0065113D01*
X0036871Y0065136D01*
X0036968Y0065156D01*
X0037066Y0065172D01*
X0037165Y0065184D01*
X0037264Y0065192D01*
X0037363Y0065196D01*
X0037463Y0065196D01*
X0037562Y0065192D01*
X0037661Y0065184D01*
X0037760Y0065172D01*
X0037858Y0065156D01*
X0037955Y0065136D01*
X0038052Y0065113D01*
X0038148Y0065086D01*
X0038242Y0065055D01*
X0038335Y0065020D01*
X0038427Y0064981D01*
X0038517Y0064939D01*
X0038605Y0064893D01*
X0038692Y0064844D01*
X0038776Y0064792D01*
X0038858Y0064736D01*
X0038938Y0064677D01*
X0039016Y0064615D01*
X0039091Y0064549D01*
X0039163Y0064481D01*
X0039233Y0064410D01*
X0039299Y0064337D01*
X0039363Y0064260D01*
X0039424Y0064182D01*
X0039481Y0064100D01*
X0039535Y0064017D01*
X0039586Y0063932D01*
X0039634Y0063844D01*
X0039678Y0063755D01*
X0039718Y0063664D01*
X0039755Y0063572D01*
X0039788Y0063478D01*
X0039817Y0063383D01*
X0039842Y0063287D01*
X0039864Y0063190D01*
X0039881Y0063092D01*
X0039895Y0062994D01*
X0039905Y0062895D01*
X0039911Y0062795D01*
X0039913Y0062696D01*
X0039911Y0062597D01*
X0039905Y0062497D01*
X0039895Y0062398D01*
X0039881Y0062300D01*
X0039864Y0062202D01*
X0039842Y0062105D01*
X0039817Y0062009D01*
X0039788Y0061914D01*
X0039755Y0061820D01*
X0039718Y0061728D01*
X0039678Y0061637D01*
X0039634Y0061548D01*
X0039586Y0061460D01*
X0039535Y0061375D01*
X0039481Y0061292D01*
X0039424Y0061210D01*
X0039363Y0061132D01*
X0039299Y0061055D01*
X0039233Y0060982D01*
X0039163Y0060911D01*
X0039091Y0060843D01*
X0039016Y0060777D01*
X0038938Y0060715D01*
X0038858Y0060656D01*
X0038776Y0060600D01*
X0038692Y0060548D01*
X0038605Y0060499D01*
X0038517Y0060453D01*
X0038427Y0060411D01*
X0038335Y0060372D01*
X0038242Y0060337D01*
X0038148Y0060306D01*
X0038052Y0060279D01*
X0037955Y0060256D01*
X0037858Y0060236D01*
X0037760Y0060220D01*
X0037661Y0060208D01*
X0037562Y0060200D01*
X0037463Y0060196D01*
X0037363Y0060196D01*
X0037264Y0060200D01*
X0037165Y0060208D01*
X0037066Y0060220D01*
X0036968Y0060236D01*
X0036871Y0060256D01*
X0036774Y0060279D01*
X0036678Y0060306D01*
X0036584Y0060337D01*
X0036491Y0060372D01*
X0036399Y0060411D01*
X0036309Y0060453D01*
X0036221Y0060499D01*
X0036134Y0060548D01*
X0036050Y0060600D01*
X0035968Y0060656D01*
X0035888Y0060715D01*
X0035810Y0060777D01*
X0035735Y0060843D01*
X0035663Y0060911D01*
X0035593Y0060982D01*
X0035527Y0061055D01*
X0035463Y0061132D01*
X0035402Y0061210D01*
X0035345Y0061292D01*
X0035291Y0061375D01*
X0035240Y0061460D01*
X0035192Y0061548D01*
X0035148Y0061637D01*
X0035108Y0061728D01*
X0035071Y0061820D01*
X0035038Y0061914D01*
X0035009Y0062009D01*
X0034984Y0062105D01*
X0034962Y0062202D01*
X0034945Y0062300D01*
X0034931Y0062398D01*
X0034921Y0062497D01*
X0034915Y0062597D01*
X0034913Y0062696D01*
X0022913Y0063846D02*
X0020413Y0061346D01*
X0022913Y0058846D01*
X0022913Y0053846D01*
X0020413Y0051346D01*
X0022913Y0048846D01*
X0022913Y0043846D01*
X0020413Y0041346D01*
X0015413Y0041346D01*
X0012913Y0043846D01*
X0012913Y0048846D01*
X0015413Y0051346D01*
X0012913Y0053846D01*
X0012913Y0058846D01*
X0015413Y0061346D01*
X0012913Y0063846D01*
X0012913Y0068846D01*
X0015413Y0071346D01*
X0020413Y0071346D01*
X0022913Y0068846D01*
X0022913Y0063846D01*
X0044913Y0090846D02*
X0050913Y0090846D01*
X0050413Y0026346D02*
X0047913Y0023846D01*
X0047913Y0018846D01*
X0050413Y0016346D01*
X0055413Y0016346D01*
X0057913Y0018846D01*
X0060413Y0016346D01*
X0065413Y0016346D01*
X0067913Y0018846D01*
X0070413Y0016346D01*
X0075413Y0016346D01*
X0077913Y0018846D01*
X0080413Y0016346D01*
X0085413Y0016346D01*
X0087913Y0018846D01*
X0090413Y0016346D01*
X0095413Y0016346D01*
X0097913Y0018846D01*
X0100413Y0016346D01*
X0105413Y0016346D01*
X0107913Y0018846D01*
X0110413Y0016346D01*
X0115413Y0016346D01*
X0117913Y0018846D01*
X0120413Y0016346D01*
X0125413Y0016346D01*
X0127913Y0018846D01*
X0130413Y0016346D01*
X0135413Y0016346D01*
X0137913Y0018846D01*
X0140413Y0016346D01*
X0145413Y0016346D01*
X0147913Y0018846D01*
X0147913Y0023846D01*
X0145413Y0026346D01*
X0140413Y0026346D01*
X0137913Y0023846D01*
X0135413Y0026346D01*
X0130413Y0026346D01*
X0127913Y0023846D01*
X0125413Y0026346D01*
X0120413Y0026346D01*
X0117913Y0023846D01*
X0115413Y0026346D01*
X0110413Y0026346D01*
X0107913Y0023846D01*
X0105413Y0026346D01*
X0100413Y0026346D01*
X0097913Y0023846D01*
X0095413Y0026346D01*
X0090413Y0026346D01*
X0087913Y0023846D01*
X0085413Y0026346D01*
X0080413Y0026346D01*
X0077913Y0023846D01*
X0075413Y0026346D01*
X0070413Y0026346D01*
X0067913Y0023846D01*
X0065413Y0026346D01*
X0060413Y0026346D01*
X0057913Y0023846D01*
X0055413Y0026346D01*
X0050413Y0026346D01*
D13*
X0097913Y0165418D03*
D14*
X0097913Y0165346D02*
X0096413Y0167346D01*
X0099413Y0167346D01*
X0097913Y0165346D01*
X0097498Y0165900D02*
X0098328Y0165900D01*
X0098777Y0166498D02*
X0097049Y0166498D01*
X0096601Y0167097D02*
X0099226Y0167097D01*
D15*
X0162913Y0172921D03*
M02*
